<?xml version="1.0" encoding="utf-8" standalone="no"?>
<!DOCTYPE svg PUBLIC "-//W3C//DTD SVG 1.1//EN"
  "http://www.w3.org/Graphics/SVG/1.1/DTD/svg11.dtd">
<svg xmlns:xlink="http://www.w3.org/1999/xlink" width="432pt" height="432pt" viewBox="0 0 432 432" xmlns="http://www.w3.org/2000/svg" version="1.1">
 <metadata>
  <rdf:RDF xmlns:dc="http://purl.org/dc/elements/1.1/" xmlns:cc="http://creativecommons.org/ns#" xmlns:rdf="http://www.w3.org/1999/02/22-rdf-syntax-ns#">
   <cc:Work>
    <dc:type rdf:resource="http://purl.org/dc/dcmitype/StillImage"/>
    <dc:date>2023-03-16T23:15:19.722241</dc:date>
    <dc:format>image/svg+xml</dc:format>
    <dc:creator>
     <cc:Agent>
      <dc:title>Matplotlib v3.5.1, https://matplotlib.org/</dc:title>
     </cc:Agent>
    </dc:creator>
   </cc:Work>
  </rdf:RDF>
 </metadata>
 <defs>
  <style type="text/css">*{stroke-linejoin: round; stroke-linecap: butt}</style>
 </defs>
 <g id="figure_1">
  <g id="patch_1">
   <path d="M 0 432 
L 432 432 
L 432 0 
L 0 0 
L 0 432 
z
" style="fill: none"/>
  </g>
  <g id="axes_1">
   <g id="patch_2">
    <path d="M 54 378 
L 388.8 378 
L 388.8 51.84 
L 54 51.84 
z
" style="fill: #ffffff"/>
   </g>
   <g id="PathCollection_1">
    <path d="M 168.964879 265.634245 
C 170.290894 265.634245 171.562778 265.107413 172.500413 264.169779 
C 173.438047 263.232144 173.964879 261.96026 173.964879 260.634245 
C 173.964879 259.308229 173.438047 258.036345 172.500413 257.098711 
C 171.562778 256.161076 170.290894 255.634245 168.964879 255.634245 
C 167.638863 255.634245 166.366979 256.161076 165.429345 257.098711 
C 164.49171 258.036345 163.964879 259.308229 163.964879 260.634245 
C 163.964879 261.96026 164.49171 263.232144 165.429345 264.169779 
C 166.366979 265.107413 167.638863 265.634245 168.964879 265.634245 
z
" clip-path="url(#pf1665a4c79)" style="fill: #f77189; stroke: #ffffff; stroke-width: 0.8"/>
    <path d="M 214.791762 230.968581 
C 216.117777 230.968581 217.389661 230.44175 218.327296 229.504115 
C 219.26493 228.566481 219.791762 227.294597 219.791762 225.968581 
C 219.791762 224.642566 219.26493 223.370682 218.327296 222.433047 
C 217.389661 221.495413 216.117777 220.968581 214.791762 220.968581 
C 213.465746 220.968581 212.193863 221.495413 211.256228 222.433047 
C 210.318593 223.370682 209.791762 224.642566 209.791762 225.968581 
C 209.791762 227.294597 210.318593 228.566481 211.256228 229.504115 
C 212.193863 230.44175 213.465746 230.968581 214.791762 230.968581 
z
" clip-path="url(#pf1665a4c79)" style="fill: #f77189; stroke: #ffffff; stroke-width: 0.8"/>
    <path d="M 141.294839 289.957562 
C 142.620855 289.957562 143.892739 289.43073 144.830373 288.493096 
C 145.768008 287.555461 146.294839 286.283577 146.294839 284.957562 
C 146.294839 283.631546 145.768008 282.359662 144.830373 281.422028 
C 143.892739 280.484393 142.620855 279.957562 141.294839 279.957562 
C 139.968824 279.957562 138.69694 280.484393 137.759305 281.422028 
C 136.821671 282.359662 136.294839 283.631546 136.294839 284.957562 
C 136.294839 286.283577 136.821671 287.555461 137.759305 288.493096 
C 138.69694 289.43073 139.968824 289.957562 141.294839 289.957562 
z
" clip-path="url(#pf1665a4c79)" style="fill: #f77189; stroke: #ffffff; stroke-width: 0.8"/>
    <path d="M 246.529414 153.75538 
C 247.85543 153.75538 249.127314 153.228549 250.064948 152.290914 
C 251.002583 151.35328 251.529414 150.081396 251.529414 148.75538 
C 251.529414 147.429365 251.002583 146.157481 250.064948 145.219846 
C 249.127314 144.282212 247.85543 143.75538 246.529414 143.75538 
C 245.203399 143.75538 243.931515 144.282212 242.99388 145.219846 
C 242.056246 146.157481 241.529414 147.429365 241.529414 148.75538 
C 241.529414 150.081396 242.056246 151.35328 242.99388 152.290914 
C 243.931515 153.228549 245.203399 153.75538 246.529414 153.75538 
z
" clip-path="url(#pf1665a4c79)" style="fill: #ae9d31; stroke: #ffffff; stroke-width: 0.8"/>
    <path d="M 241.97477 168.409076 
C 243.300786 168.409076 244.57267 167.882244 245.510304 166.94461 
C 246.447939 166.006975 246.97477 164.735091 246.97477 163.409076 
C 246.97477 162.08306 246.447939 160.811176 245.510304 159.873542 
C 244.57267 158.935907 243.300786 158.409076 241.97477 158.409076 
C 240.648755 158.409076 239.376871 158.935907 238.439236 159.873542 
C 237.501602 160.811176 236.97477 162.08306 236.97477 163.409076 
C 236.97477 164.735091 237.501602 166.006975 238.439236 166.94461 
C 239.376871 167.882244 240.648755 168.409076 241.97477 168.409076 
z
" clip-path="url(#pf1665a4c79)" style="fill: #ae9d31; stroke: #ffffff; stroke-width: 0.8"/>
    <path d="M 191.546258 227.111294 
C 192.872274 227.111294 194.144158 226.584463 195.081792 225.646828 
C 196.019427 224.709194 196.546258 223.43731 196.546258 222.111294 
C 196.546258 220.785279 196.019427 219.513395 195.081792 218.575761 
C 194.144158 217.638126 192.872274 217.111294 191.546258 217.111294 
C 190.220243 217.111294 188.948359 217.638126 188.010724 218.575761 
C 187.07309 219.513395 186.546258 220.785279 186.546258 222.111294 
C 186.546258 223.43731 187.07309 224.709194 188.010724 225.646828 
C 188.948359 226.584463 190.220243 227.111294 191.546258 227.111294 
z
" clip-path="url(#pf1665a4c79)" style="fill: #ae9d31; stroke: #ffffff; stroke-width: 0.8"/>
    <path d="M 254.344804 146.066385 
C 255.67082 146.066385 256.942703 145.539554 257.880338 144.601919 
C 258.817972 143.664285 259.344804 142.392401 259.344804 141.066385 
C 259.344804 139.74037 258.817972 138.468486 257.880338 137.530851 
C 256.942703 136.593217 255.67082 136.066385 254.344804 136.066385 
C 253.018789 136.066385 251.746905 136.593217 250.80927 137.530851 
C 249.871636 138.468486 249.344804 139.74037 249.344804 141.066385 
C 249.344804 142.392401 249.871636 143.664285 250.80927 144.601919 
C 251.746905 145.539554 253.018789 146.066385 254.344804 146.066385 
z
" clip-path="url(#pf1665a4c79)" style="fill: #ae9d31; stroke: #ffffff; stroke-width: 0.8"/>
    <path d="M 263.384739 119.805864 
C 264.710754 119.805864 265.982638 119.279033 266.920273 118.341398 
C 267.857907 117.403764 268.384739 116.13188 268.384739 114.805864 
C 268.384739 113.479849 267.857907 112.207965 266.920273 111.270331 
C 265.982638 110.332696 264.710754 109.805864 263.384739 109.805864 
C 262.058723 109.805864 260.786839 110.332696 259.849205 111.270331 
C 258.91157 112.207965 258.384739 113.479849 258.384739 114.805864 
C 258.384739 116.13188 258.91157 117.403764 259.849205 118.341398 
C 260.786839 119.279033 262.058723 119.805864 263.384739 119.805864 
z
" clip-path="url(#pf1665a4c79)" style="fill: #ae9d31; stroke: #ffffff; stroke-width: 0.8"/>
    <path d="M 125.013367 306.756517 
C 126.339382 306.756517 127.611266 306.229686 128.548901 305.292051 
C 129.486535 304.354416 130.013367 303.082533 130.013367 301.756517 
C 130.013367 300.430502 129.486535 299.158618 128.548901 298.220983 
C 127.611266 297.283349 126.339382 296.756517 125.013367 296.756517 
C 123.687351 296.756517 122.415467 297.283349 121.477833 298.220983 
C 120.540198 299.158618 120.013367 300.430502 120.013367 301.756517 
C 120.013367 303.082533 120.540198 304.354416 121.477833 305.292051 
C 122.415467 306.229686 123.687351 306.756517 125.013367 306.756517 
z
" clip-path="url(#pf1665a4c79)" style="fill: #33b07a; stroke: #ffffff; stroke-width: 0.8"/>
    <path d="M 149.478091 251.504372 
C 150.804106 251.504372 152.07599 250.97754 153.013625 250.039906 
C 153.951259 249.102271 154.478091 247.830387 154.478091 246.504372 
C 154.478091 245.178356 153.951259 243.906472 153.013625 242.968838 
C 152.07599 242.031203 150.804106 241.504372 149.478091 241.504372 
C 148.152075 241.504372 146.880192 242.031203 145.942557 242.968838 
C 145.004922 243.906472 144.478091 245.178356 144.478091 246.504372 
C 144.478091 247.830387 145.004922 249.102271 145.942557 250.039906 
C 146.880192 250.97754 148.152075 251.504372 149.478091 251.504372 
z
" clip-path="url(#pf1665a4c79)" style="fill: #38a9c5; stroke: #ffffff; stroke-width: 0.8"/>
    <path d="M 161.826293 245.928489 
C 163.152309 245.928489 164.424193 245.401658 165.361827 244.464023 
C 166.299462 243.526388 166.826293 242.254505 166.826293 240.928489 
C 166.826293 239.602474 166.299462 238.33059 165.361827 237.392955 
C 164.424193 236.455321 163.152309 235.928489 161.826293 235.928489 
C 160.500278 235.928489 159.228394 236.455321 158.290759 237.392955 
C 157.353125 238.33059 156.826293 239.602474 156.826293 240.928489 
C 156.826293 242.254505 157.353125 243.526388 158.290759 244.464023 
C 159.228394 245.401658 160.500278 245.928489 161.826293 245.928489 
z
" clip-path="url(#pf1665a4c79)" style="fill: #f77189; stroke: #ffffff; stroke-width: 0.8"/>
    <path d="M 180.224554 267.344016 
C 181.550569 267.344016 182.822453 266.817184 183.760088 265.87955 
C 184.697722 264.941915 185.224554 263.670031 185.224554 262.344016 
C 185.224554 261.018 184.697722 259.746116 183.760088 258.808482 
C 182.822453 257.870847 181.550569 257.344016 180.224554 257.344016 
C 178.898538 257.344016 177.626655 257.870847 176.68902 258.808482 
C 175.751385 259.746116 175.224554 261.018 175.224554 262.344016 
C 175.224554 263.670031 175.751385 264.941915 176.68902 265.87955 
C 177.626655 266.817184 178.898538 267.344016 180.224554 267.344016 
z
" clip-path="url(#pf1665a4c79)" style="fill: #f77189; stroke: #ffffff; stroke-width: 0.8"/>
    <path d="M 180.293753 321.924046 
C 181.619768 321.924046 182.891652 321.397214 183.829287 320.45958 
C 184.766921 319.521945 185.293753 318.250061 185.293753 316.924046 
C 185.293753 315.59803 184.766921 314.326146 183.829287 313.388512 
C 182.891652 312.450877 181.619768 311.924046 180.293753 311.924046 
C 178.967737 311.924046 177.695853 312.450877 176.758219 313.388512 
C 175.820584 314.326146 175.293753 315.59803 175.293753 316.924046 
C 175.293753 318.250061 175.820584 319.521945 176.758219 320.45958 
C 177.695853 321.397214 178.967737 321.924046 180.293753 321.924046 
z
" clip-path="url(#pf1665a4c79)" style="fill: #f77189; stroke: #ffffff; stroke-width: 0.8"/>
    <path d="M 161.623121 301.835462 
C 162.949136 301.835462 164.22102 301.308631 165.158655 300.370996 
C 166.096289 299.433362 166.623121 298.161478 166.623121 296.835462 
C 166.623121 295.509447 166.096289 294.237563 165.158655 293.299928 
C 164.22102 292.362294 162.949136 291.835462 161.623121 291.835462 
C 160.297105 291.835462 159.025221 292.362294 158.087587 293.299928 
C 157.149952 294.237563 156.623121 295.509447 156.623121 296.835462 
C 156.623121 298.161478 157.149952 299.433362 158.087587 300.370996 
C 159.025221 301.308631 160.297105 301.835462 161.623121 301.835462 
z
" clip-path="url(#pf1665a4c79)" style="fill: #f77189; stroke: #ffffff; stroke-width: 0.8"/>
    <path d="M 146.931895 267.933901 
C 148.257911 267.933901 149.529795 267.40707 150.467429 266.469435 
C 151.405064 265.5318 151.931895 264.259917 151.931895 262.933901 
C 151.931895 261.607886 151.405064 260.336002 150.467429 259.398367 
C 149.529795 258.460733 148.257911 257.933901 146.931895 257.933901 
C 145.60588 257.933901 144.333996 258.460733 143.396361 259.398367 
C 142.458727 260.336002 141.931895 261.607886 141.931895 262.933901 
C 141.931895 264.259917 142.458727 265.5318 143.396361 266.469435 
C 144.333996 267.40707 145.60588 267.933901 146.931895 267.933901 
z
" clip-path="url(#pf1665a4c79)" style="fill: #38a9c5; stroke: #ffffff; stroke-width: 0.8"/>
    <path d="M 213.822769 202.949102 
C 215.148785 202.949102 216.420668 202.422271 217.358303 201.484636 
C 218.295937 200.547002 218.822769 199.275118 218.822769 197.949102 
C 218.822769 196.623087 218.295937 195.351203 217.358303 194.413568 
C 216.420668 193.475934 215.148785 192.949102 213.822769 192.949102 
C 212.496754 192.949102 211.22487 193.475934 210.287235 194.413568 
C 209.349601 195.351203 208.822769 196.623087 208.822769 197.949102 
C 208.822769 199.275118 209.349601 200.547002 210.287235 201.484636 
C 211.22487 202.422271 212.496754 202.949102 213.822769 202.949102 
z
" clip-path="url(#pf1665a4c79)" style="fill: #cc7af4; stroke: #ffffff; stroke-width: 0.8"/>
    <path d="M 208.38326 167.127281 
C 209.709276 167.127281 210.98116 166.60045 211.918794 165.662815 
C 212.856429 164.725181 213.38326 163.453297 213.38326 162.127281 
C 213.38326 160.801266 212.856429 159.529382 211.918794 158.591748 
C 210.98116 157.654113 209.709276 157.127281 208.38326 157.127281 
C 207.057245 157.127281 205.785361 157.654113 204.847726 158.591748 
C 203.910092 159.529382 203.38326 160.801266 203.38326 162.127281 
C 203.38326 163.453297 203.910092 164.725181 204.847726 165.662815 
C 205.785361 166.60045 207.057245 167.127281 208.38326 167.127281 
z
" clip-path="url(#pf1665a4c79)" style="fill: #cc7af4; stroke: #ffffff; stroke-width: 0.8"/>
    <path d="M 177.858522 221.215687 
L 180.358522 218.715687 
L 182.858522 221.215687 
L 185.358522 218.715687 
L 182.858522 216.215687 
L 185.358522 213.715687 
L 182.858522 211.215687 
L 180.358522 213.715687 
L 177.858522 211.215687 
L 175.358522 213.715687 
L 177.858522 216.215687 
L 175.358522 218.715687 
z
" clip-path="url(#pf1665a4c79)" style="fill: #f77189; stroke: #ffffff; stroke-width: 0.8"/>
    <path d="M 163.971703 247.774512 
L 166.471703 245.274512 
L 168.971703 247.774512 
L 171.471703 245.274512 
L 168.971703 242.774512 
L 171.471703 240.274512 
L 168.971703 237.774512 
L 166.471703 240.274512 
L 163.971703 237.774512 
L 161.471703 240.274512 
L 163.971703 242.774512 
L 161.471703 245.274512 
z
" clip-path="url(#pf1665a4c79)" style="fill: #f77189; stroke: #ffffff; stroke-width: 0.8"/>
    <path d="M 215.416743 203.845526 
L 217.916743 201.345526 
L 220.416743 203.845526 
L 222.916743 201.345526 
L 220.416743 198.845526 
L 222.916743 196.345526 
L 220.416743 193.845526 
L 217.916743 196.345526 
L 215.416743 193.845526 
L 212.916743 196.345526 
L 215.416743 198.845526 
L 212.916743 201.345526 
z
" clip-path="url(#pf1665a4c79)" style="fill: #f77189; stroke: #ffffff; stroke-width: 0.8"/>
    <path d="M 207.787302 166.148983 
L 210.287302 163.648983 
L 212.787302 166.148983 
L 215.287302 163.648983 
L 212.787302 161.148983 
L 215.287302 158.648983 
L 212.787302 156.148983 
L 210.287302 158.648983 
L 207.787302 156.148983 
L 205.287302 158.648983 
L 207.787302 161.148983 
L 205.287302 163.648983 
z
" clip-path="url(#pf1665a4c79)" style="fill: #ae9d31; stroke: #ffffff; stroke-width: 0.8"/>
    <path d="M 221.266062 175.172306 
L 223.766062 172.672306 
L 226.266062 175.172306 
L 228.766062 172.672306 
L 226.266062 170.172306 
L 228.766062 167.672306 
L 226.266062 165.172306 
L 223.766062 167.672306 
L 221.266062 165.172306 
L 218.766062 167.672306 
L 221.266062 170.172306 
L 218.766062 172.672306 
z
" clip-path="url(#pf1665a4c79)" style="fill: #ae9d31; stroke: #ffffff; stroke-width: 0.8"/>
    <path d="M 166.315316 216.675273 
L 168.815316 214.175273 
L 171.315316 216.675273 
L 173.815316 214.175273 
L 171.315316 211.675273 
L 173.815316 209.175273 
L 171.315316 206.675273 
L 168.815316 209.175273 
L 166.315316 206.675273 
L 163.815316 209.175273 
L 166.315316 211.675273 
L 163.815316 214.175273 
z
" clip-path="url(#pf1665a4c79)" style="fill: #ae9d31; stroke: #ffffff; stroke-width: 0.8"/>
    <path d="M 240.059359 159.858856 
L 242.559359 157.358856 
L 245.059359 159.858856 
L 247.559359 157.358856 
L 245.059359 154.858856 
L 247.559359 152.358856 
L 245.059359 149.858856 
L 242.559359 152.358856 
L 240.059359 149.858856 
L 237.559359 152.358856 
L 240.059359 154.858856 
L 237.559359 157.358856 
z
" clip-path="url(#pf1665a4c79)" style="fill: #ae9d31; stroke: #ffffff; stroke-width: 0.8"/>
    <path d="M 228.373563 157.107283 
L 230.873563 154.607283 
L 233.373563 157.107283 
L 235.873563 154.607283 
L 233.373563 152.107283 
L 235.873563 149.607283 
L 233.373563 147.107283 
L 230.873563 149.607283 
L 228.373563 147.107283 
L 225.873563 149.607283 
L 228.373563 152.107283 
L 225.873563 154.607283 
z
" clip-path="url(#pf1665a4c79)" style="fill: #ae9d31; stroke: #ffffff; stroke-width: 0.8"/>
    <path d="M 186.322848 228.029005 
L 188.822848 225.529005 
L 191.322848 228.029005 
L 193.822848 225.529005 
L 191.322848 223.029005 
L 193.822848 220.529005 
L 191.322848 218.029005 
L 188.822848 220.529005 
L 186.322848 218.029005 
L 183.822848 220.529005 
L 186.322848 223.029005 
L 183.822848 225.529005 
z
" clip-path="url(#pf1665a4c79)" style="fill: #33b07a; stroke: #ffffff; stroke-width: 0.8"/>
    <path d="M 193.905774 226.170147 
L 196.405774 223.670147 
L 198.905774 226.170147 
L 201.405774 223.670147 
L 198.905774 221.170147 
L 201.405774 218.670147 
L 198.905774 216.170147 
L 196.405774 218.670147 
L 193.905774 216.170147 
L 191.405774 218.670147 
L 193.905774 221.170147 
L 191.405774 223.670147 
z
" clip-path="url(#pf1665a4c79)" style="fill: #38a9c5; stroke: #ffffff; stroke-width: 0.8"/>
    <path d="M 232.675123 208.029305 
L 235.175123 205.529305 
L 237.675123 208.029305 
L 240.175123 205.529305 
L 237.675123 203.029305 
L 240.175123 200.529305 
L 237.675123 198.029305 
L 235.175123 200.529305 
L 232.675123 198.029305 
L 230.175123 200.529305 
L 232.675123 203.029305 
L 230.175123 205.529305 
z
" clip-path="url(#pf1665a4c79)" style="fill: #f77189; stroke: #ffffff; stroke-width: 0.8"/>
    <path d="M 214.901628 227.091501 
L 217.401628 224.591501 
L 219.901628 227.091501 
L 222.401628 224.591501 
L 219.901628 222.091501 
L 222.401628 219.591501 
L 219.901628 217.091501 
L 217.401628 219.591501 
L 214.901628 217.091501 
L 212.401628 219.591501 
L 214.901628 222.091501 
L 212.401628 224.591501 
z
" clip-path="url(#pf1665a4c79)" style="fill: #f77189; stroke: #ffffff; stroke-width: 0.8"/>
    <path d="M 191.876952 222.985851 
L 194.376952 220.485851 
L 196.876952 222.985851 
L 199.376952 220.485851 
L 196.876952 217.985851 
L 199.376952 215.485851 
L 196.876952 212.985851 
L 194.376952 215.485851 
L 191.876952 212.985851 
L 189.376952 215.485851 
L 191.876952 217.985851 
L 189.376952 220.485851 
z
" clip-path="url(#pf1665a4c79)" style="fill: #f77189; stroke: #ffffff; stroke-width: 0.8"/>
    <path d="M 220.420586 209.613012 
L 222.920586 207.113012 
L 225.420586 209.613012 
L 227.920586 207.113012 
L 225.420586 204.613012 
L 227.920586 202.113012 
L 225.420586 199.613012 
L 222.920586 202.113012 
L 220.420586 199.613012 
L 217.920586 202.113012 
L 220.420586 204.613012 
L 217.920586 207.113012 
z
" clip-path="url(#pf1665a4c79)" style="fill: #f77189; stroke: #ffffff; stroke-width: 0.8"/>
    <path d="M 191.326228 241.277461 
L 193.826228 238.777461 
L 196.326228 241.277461 
L 198.826228 238.777461 
L 196.326228 236.277461 
L 198.826228 233.777461 
L 196.326228 231.277461 
L 193.826228 233.777461 
L 191.326228 231.277461 
L 188.826228 233.777461 
L 191.326228 236.277461 
L 188.826228 238.777461 
z
" clip-path="url(#pf1665a4c79)" style="fill: #38a9c5; stroke: #ffffff; stroke-width: 0.8"/>
    <path d="M 204.5562 186.857227 
L 207.0562 184.357227 
L 209.5562 186.857227 
L 212.0562 184.357227 
L 209.5562 181.857227 
L 212.0562 179.357227 
L 209.5562 176.857227 
L 207.0562 179.357227 
L 204.5562 176.857227 
L 202.0562 179.357227 
L 204.5562 181.857227 
L 202.0562 184.357227 
z
" clip-path="url(#pf1665a4c79)" style="fill: #cc7af4; stroke: #ffffff; stroke-width: 0.8"/>
    <path d="M 146.822448 248.37044 
L 149.322448 245.87044 
L 151.822448 248.37044 
L 154.322448 245.87044 
L 151.822448 243.37044 
L 154.322448 240.87044 
L 151.822448 238.37044 
L 149.322448 240.87044 
L 146.822448 238.37044 
L 144.322448 240.87044 
L 146.822448 243.37044 
L 144.322448 245.87044 
z
" clip-path="url(#pf1665a4c79)" style="fill: #cc7af4; stroke: #ffffff; stroke-width: 0.8"/>
    <path d="M 91.449244 330.118193 
L 91.449244 337.189261 
L 98.520312 337.189261 
L 98.520312 330.118193 
z
" clip-path="url(#pf1665a4c79)" style="fill: #f77189; stroke: #ffffff; stroke-width: 0.8"/>
    <path d="M 186.013127 238.992451 
L 186.013127 246.063519 
L 193.084195 246.063519 
L 193.084195 238.992451 
z
" clip-path="url(#pf1665a4c79)" style="fill: #f77189; stroke: #ffffff; stroke-width: 0.8"/>
    <path d="M 190.72188 233.987251 
L 190.72188 241.058319 
L 197.792948 241.058319 
L 197.792948 233.987251 
z
" clip-path="url(#pf1665a4c79)" style="fill: #f77189; stroke: #ffffff; stroke-width: 0.8"/>
    <path d="M 149.47457 212.132507 
L 149.47457 219.203575 
L 156.545638 219.203575 
L 156.545638 212.132507 
z
" clip-path="url(#pf1665a4c79)" style="fill: #ae9d31; stroke: #ffffff; stroke-width: 0.8"/>
    <path d="M 148.151135 217.353041 
L 148.151135 224.424108 
L 155.222203 224.424108 
L 155.222203 217.353041 
z
" clip-path="url(#pf1665a4c79)" style="fill: #ae9d31; stroke: #ffffff; stroke-width: 0.8"/>
    <path d="M 160.929136 207.092748 
L 160.929136 214.163816 
L 168.000204 214.163816 
L 168.000204 207.092748 
z
" clip-path="url(#pf1665a4c79)" style="fill: #ae9d31; stroke: #ffffff; stroke-width: 0.8"/>
    <path d="M 160.71591 183.56135 
L 160.71591 190.632418 
L 167.786978 190.632418 
L 167.786978 183.56135 
z
" clip-path="url(#pf1665a4c79)" style="fill: #ae9d31; stroke: #ffffff; stroke-width: 0.8"/>
    <path d="M 168.015868 253.967975 
L 168.015868 261.039043 
L 175.086936 261.039043 
L 175.086936 253.967975 
z
" clip-path="url(#pf1665a4c79)" style="fill: #33b07a; stroke: #ffffff; stroke-width: 0.8"/>
    <path d="M 183.689691 212.431657 
L 183.689691 219.502725 
L 190.760759 219.502725 
L 190.760759 212.431657 
z
" clip-path="url(#pf1665a4c79)" style="fill: #38a9c5; stroke: #ffffff; stroke-width: 0.8"/>
    <path d="M 239.126871 171.108832 
L 239.126871 178.1799 
L 246.197939 178.1799 
L 246.197939 171.108832 
z
" clip-path="url(#pf1665a4c79)" style="fill: #f77189; stroke: #ffffff; stroke-width: 0.8"/>
    <path d="M 190.146058 190.182211 
L 190.146058 197.253279 
L 197.217126 197.253279 
L 197.217126 190.182211 
z
" clip-path="url(#pf1665a4c79)" style="fill: #f77189; stroke: #ffffff; stroke-width: 0.8"/>
    <path d="M 205.150936 208.507913 
L 205.150936 215.578981 
L 212.222004 215.578981 
L 212.222004 208.507913 
z
" clip-path="url(#pf1665a4c79)" style="fill: #f77189; stroke: #ffffff; stroke-width: 0.8"/>
    <path d="M 206.784342 192.472964 
L 206.784342 199.544032 
L 213.85541 199.544032 
L 213.85541 192.472964 
z
" clip-path="url(#pf1665a4c79)" style="fill: #f77189; stroke: #ffffff; stroke-width: 0.8"/>
    <path d="M 179.585349 217.719861 
L 179.585349 224.790929 
L 186.656417 224.790929 
L 186.656417 217.719861 
z
" clip-path="url(#pf1665a4c79)" style="fill: #38a9c5; stroke: #ffffff; stroke-width: 0.8"/>
    <path d="M 144.315082 265.807382 
L 144.315082 272.87845 
L 151.38615 272.87845 
L 151.38615 265.807382 
z
" clip-path="url(#pf1665a4c79)" style="fill: #cc7af4; stroke: #ffffff; stroke-width: 0.8"/>
    <path d="M 111.023361 308.625025 
L 111.023361 315.696092 
L 118.094429 315.696092 
L 118.094429 308.625025 
z
" clip-path="url(#pf1665a4c79)" style="fill: #cc7af4; stroke: #ffffff; stroke-width: 0.8"/>
    <path d="M 114.298569 310.550625 
L 117.631903 310.550625 
L 117.631903 307.217292 
L 120.965236 307.217292 
L 120.965236 303.883959 
L 117.631903 303.883959 
L 117.631903 300.550625 
L 114.298569 300.550625 
L 114.298569 303.883959 
L 110.965236 303.883959 
L 110.965236 307.217292 
L 114.298569 307.217292 
z
" clip-path="url(#pf1665a4c79)" style="fill: #f77189; stroke: #ffffff; stroke-width: 0.8"/>
    <path d="M 144.879865 317.132776 
L 148.213199 317.132776 
L 148.213199 313.799442 
L 151.546532 313.799442 
L 151.546532 310.466109 
L 148.213199 310.466109 
L 148.213199 307.132776 
L 144.879865 307.132776 
L 144.879865 310.466109 
L 141.546532 310.466109 
L 141.546532 313.799442 
L 144.879865 313.799442 
z
" clip-path="url(#pf1665a4c79)" style="fill: #f77189; stroke: #ffffff; stroke-width: 0.8"/>
    <path d="M 169.725641 226.701422 
L 173.058974 226.701422 
L 173.058974 223.368089 
L 176.392308 223.368089 
L 176.392308 220.034755 
L 173.058974 220.034755 
L 173.058974 216.701422 
L 169.725641 216.701422 
L 169.725641 220.034755 
L 166.392308 220.034755 
L 166.392308 223.368089 
L 169.725641 223.368089 
z
" clip-path="url(#pf1665a4c79)" style="fill: #f77189; stroke: #ffffff; stroke-width: 0.8"/>
    <path d="M 94.64497 311.945028 
L 97.978303 311.945028 
L 97.978303 308.611695 
L 101.311637 308.611695 
L 101.311637 305.278362 
L 97.978303 305.278362 
L 97.978303 301.945028 
L 94.64497 301.945028 
L 94.64497 305.278362 
L 91.311637 305.278362 
L 91.311637 308.611695 
L 94.64497 308.611695 
z
" clip-path="url(#pf1665a4c79)" style="fill: #ae9d31; stroke: #ffffff; stroke-width: 0.8"/>
    <path d="M 149.094118 252.171225 
L 152.427451 252.171225 
L 152.427451 248.837891 
L 155.760784 248.837891 
L 155.760784 245.504558 
L 152.427451 245.504558 
L 152.427451 242.171225 
L 149.094118 242.171225 
L 149.094118 245.504558 
L 145.760784 245.504558 
L 145.760784 248.837891 
L 149.094118 248.837891 
z
" clip-path="url(#pf1665a4c79)" style="fill: #ae9d31; stroke: #ffffff; stroke-width: 0.8"/>
    <path d="M 142.313062 278.946271 
L 145.646395 278.946271 
L 145.646395 275.612938 
L 148.979729 275.612938 
L 148.979729 272.279605 
L 145.646395 272.279605 
L 145.646395 268.946271 
L 142.313062 268.946271 
L 142.313062 272.279605 
L 138.979729 272.279605 
L 138.979729 275.612938 
L 142.313062 275.612938 
z
" clip-path="url(#pf1665a4c79)" style="fill: #ae9d31; stroke: #ffffff; stroke-width: 0.8"/>
    <path d="M 138.530008 260.985104 
L 141.863342 260.985104 
L 141.863342 257.651771 
L 145.196675 257.651771 
L 145.196675 254.318438 
L 141.863342 254.318438 
L 141.863342 250.985104 
L 138.530008 250.985104 
L 138.530008 254.318438 
L 135.196675 254.318438 
L 135.196675 257.651771 
L 138.530008 257.651771 
z
" clip-path="url(#pf1665a4c79)" style="fill: #ae9d31; stroke: #ffffff; stroke-width: 0.8"/>
    <path d="M 144.752694 248.327099 
L 148.086027 248.327099 
L 148.086027 244.993766 
L 151.41936 244.993766 
L 151.41936 241.660432 
L 148.086027 241.660432 
L 148.086027 238.327099 
L 144.752694 238.327099 
L 144.752694 241.660432 
L 141.41936 241.660432 
L 141.41936 244.993766 
L 144.752694 244.993766 
z
" clip-path="url(#pf1665a4c79)" style="fill: #ae9d31; stroke: #ffffff; stroke-width: 0.8"/>
    <path d="M 140.001288 238.05736 
L 143.334622 238.05736 
L 143.334622 234.724026 
L 146.667955 234.724026 
L 146.667955 231.390693 
L 143.334622 231.390693 
L 143.334622 228.05736 
L 140.001288 228.05736 
L 140.001288 231.390693 
L 136.667955 231.390693 
L 136.667955 234.724026 
L 140.001288 234.724026 
z
" clip-path="url(#pf1665a4c79)" style="fill: #38a9c5; stroke: #ffffff; stroke-width: 0.8"/>
    <path d="M 210.671417 188.061742 
L 214.00475 188.061742 
L 214.00475 184.728408 
L 217.338083 184.728408 
L 217.338083 181.395075 
L 214.00475 181.395075 
L 214.00475 178.061742 
L 210.671417 178.061742 
L 210.671417 181.395075 
L 207.338083 181.395075 
L 207.338083 184.728408 
L 210.671417 184.728408 
z
" clip-path="url(#pf1665a4c79)" style="fill: #f77189; stroke: #ffffff; stroke-width: 0.8"/>
    <path d="M 153.501609 266.941521 
L 156.834943 266.941521 
L 156.834943 263.608187 
L 160.168276 263.608187 
L 160.168276 260.274854 
L 156.834943 260.274854 
L 156.834943 256.941521 
L 153.501609 256.941521 
L 153.501609 260.274854 
L 150.168276 260.274854 
L 150.168276 263.608187 
L 153.501609 263.608187 
z
" clip-path="url(#pf1665a4c79)" style="fill: #f77189; stroke: #ffffff; stroke-width: 0.8"/>
    <path d="M 184.086627 241.947754 
L 187.41996 241.947754 
L 187.41996 238.614421 
L 190.753294 238.614421 
L 190.753294 235.281088 
L 187.41996 235.281088 
L 187.41996 231.947754 
L 184.086627 231.947754 
L 184.086627 235.281088 
L 180.753294 235.281088 
L 180.753294 238.614421 
L 184.086627 238.614421 
z
" clip-path="url(#pf1665a4c79)" style="fill: #f77189; stroke: #ffffff; stroke-width: 0.8"/>
    <path d="M 169.312018 223.958288 
L 172.645351 223.958288 
L 172.645351 220.624955 
L 175.978684 220.624955 
L 175.978684 217.291622 
L 172.645351 217.291622 
L 172.645351 213.958288 
L 169.312018 213.958288 
L 169.312018 217.291622 
L 165.978684 217.291622 
L 165.978684 220.624955 
L 169.312018 220.624955 
z
" clip-path="url(#pf1665a4c79)" style="fill: #f77189; stroke: #ffffff; stroke-width: 0.8"/>
    <path d="M 152.119532 251.989884 
L 155.452866 251.989884 
L 155.452866 248.65655 
L 158.786199 248.65655 
L 158.786199 245.323217 
L 155.452866 245.323217 
L 155.452866 241.989884 
L 152.119532 241.989884 
L 152.119532 245.323217 
L 148.786199 245.323217 
L 148.786199 248.65655 
L 152.119532 248.65655 
z
" clip-path="url(#pf1665a4c79)" style="fill: #38a9c5; stroke: #ffffff; stroke-width: 0.8"/>
    <path d="M 100.522998 300.086384 
L 103.856332 300.086384 
L 103.856332 296.753051 
L 107.189665 296.753051 
L 107.189665 293.419717 
L 103.856332 293.419717 
L 103.856332 290.086384 
L 100.522998 290.086384 
L 100.522998 293.419717 
L 97.189665 293.419717 
L 97.189665 296.753051 
L 100.522998 296.753051 
z
" clip-path="url(#pf1665a4c79)" style="fill: #cc7af4; stroke: #ffffff; stroke-width: 0.8"/>
    <path d="M 109.541849 279.311986 
L 112.875182 279.311986 
L 112.875182 275.978653 
L 116.208516 275.978653 
L 116.208516 272.64532 
L 112.875182 272.64532 
L 112.875182 269.311986 
L 109.541849 269.311986 
L 109.541849 272.64532 
L 106.208516 272.64532 
L 106.208516 275.978653 
L 109.541849 275.978653 
z
" clip-path="url(#pf1665a4c79)" style="fill: #cc7af4; stroke: #ffffff; stroke-width: 0.8"/>
    <path d="M 155.635919 285.555499 
L 150.635919 290.555499 
L 155.635919 295.555499 
L 160.635919 290.555499 
z
" clip-path="url(#pf1665a4c79)" style="fill: #f77189; stroke: #ffffff; stroke-width: 0.8"/>
    <path d="M 207.501232 202.33735 
L 202.501232 207.33735 
L 207.501232 212.33735 
L 212.501232 207.33735 
z
" clip-path="url(#pf1665a4c79)" style="fill: #f77189; stroke: #ffffff; stroke-width: 0.8"/>
    <path d="M 169.446809 258.90077 
L 164.446809 263.90077 
L 169.446809 268.90077 
L 174.446809 263.90077 
z
" clip-path="url(#pf1665a4c79)" style="fill: #f77189; stroke: #ffffff; stroke-width: 0.8"/>
    <path d="M 264.625038 95.183373 
L 259.625038 100.183373 
L 264.625038 105.183373 
L 269.625038 100.183373 
z
" clip-path="url(#pf1665a4c79)" style="fill: #ae9d31; stroke: #ffffff; stroke-width: 0.8"/>
    <path d="M 250.070362 117.621726 
L 245.070362 122.621726 
L 250.070362 127.621726 
L 255.070362 122.621726 
z
" clip-path="url(#pf1665a4c79)" style="fill: #ae9d31; stroke: #ffffff; stroke-width: 0.8"/>
    <path d="M 155.263913 219.341597 
L 150.263913 224.341597 
L 155.263913 229.341597 
L 160.263913 224.341597 
z
" clip-path="url(#pf1665a4c79)" style="fill: #ae9d31; stroke: #ffffff; stroke-width: 0.8"/>
    <path d="M 270.23065 95.922627 
L 265.23065 100.922627 
L 270.23065 105.922627 
L 275.23065 100.922627 
z
" clip-path="url(#pf1665a4c79)" style="fill: #ae9d31; stroke: #ffffff; stroke-width: 0.8"/>
    <path d="M 277.088051 80.188503 
L 272.088051 85.188503 
L 277.088051 90.188503 
L 282.088051 85.188503 
z
" clip-path="url(#pf1665a4c79)" style="fill: #ae9d31; stroke: #ffffff; stroke-width: 0.8"/>
    <path d="M 137.629478 285.592413 
L 132.629478 290.592413 
L 137.629478 295.592413 
L 142.629478 290.592413 
z
" clip-path="url(#pf1665a4c79)" style="fill: #33b07a; stroke: #ffffff; stroke-width: 0.8"/>
    <path d="M 162.993835 217.753655 
L 157.993835 222.753655 
L 162.993835 227.753655 
L 167.993835 222.753655 
z
" clip-path="url(#pf1665a4c79)" style="fill: #38a9c5; stroke: #ffffff; stroke-width: 0.8"/>
    <path d="M 183.558477 195.426483 
L 178.558477 200.426483 
L 183.558477 205.426483 
L 188.558477 200.426483 
z
" clip-path="url(#pf1665a4c79)" style="fill: #f77189; stroke: #ffffff; stroke-width: 0.8"/>
    <path d="M 166.897401 259.315085 
L 161.897401 264.315085 
L 166.897401 269.315085 
L 171.897401 264.315085 
z
" clip-path="url(#pf1665a4c79)" style="fill: #f77189; stroke: #ffffff; stroke-width: 0.8"/>
    <path d="M 168.34586 277.449051 
L 163.34586 282.449051 
L 168.34586 287.449051 
L 173.34586 282.449051 
z
" clip-path="url(#pf1665a4c79)" style="fill: #f77189; stroke: #ffffff; stroke-width: 0.8"/>
    <path d="M 158.232871 255.482614 
L 153.232871 260.482614 
L 158.232871 265.482614 
L 163.232871 260.482614 
z
" clip-path="url(#pf1665a4c79)" style="fill: #f77189; stroke: #ffffff; stroke-width: 0.8"/>
    <path d="M 164.119504 230.805839 
L 159.119504 235.805839 
L 164.119504 240.805839 
L 169.119504 235.805839 
z
" clip-path="url(#pf1665a4c79)" style="fill: #38a9c5; stroke: #ffffff; stroke-width: 0.8"/>
    <path d="M 257.145085 121.471883 
L 252.145085 126.471883 
L 257.145085 131.471883 
L 262.145085 126.471883 
z
" clip-path="url(#pf1665a4c79)" style="fill: #cc7af4; stroke: #ffffff; stroke-width: 0.8"/>
    <path d="M 151.128055 222.061796 
L 146.128055 227.061796 
L 151.128055 232.061796 
L 156.128055 227.061796 
z
" clip-path="url(#pf1665a4c79)" style="fill: #cc7af4; stroke: #ffffff; stroke-width: 0.8"/>
    <path d="M 164.320282 254.782596 
L 162.552515 258.014829 
L 159.320282 259.782596 
L 162.552515 261.550362 
L 164.320282 264.782596 
L 166.088049 261.550362 
L 169.320282 259.782596 
L 166.088049 258.014829 
z
" clip-path="url(#pf1665a4c79)" style="fill: #f77189; stroke: #ffffff; stroke-width: 0.8"/>
    <path d="M 167.664509 231.369053 
L 165.896742 234.601286 
L 162.664509 236.369053 
L 165.896742 238.13682 
L 167.664509 241.369053 
L 169.432276 238.13682 
L 172.664509 236.369053 
L 169.432276 234.601286 
z
" clip-path="url(#pf1665a4c79)" style="fill: #f77189; stroke: #ffffff; stroke-width: 0.8"/>
    <path d="M 195.203012 190.654966 
L 193.435245 193.887199 
L 190.203012 195.654966 
L 193.435245 197.422733 
L 195.203012 200.654966 
L 196.970779 197.422733 
L 200.203012 195.654966 
L 196.970779 193.887199 
z
" clip-path="url(#pf1665a4c79)" style="fill: #f77189; stroke: #ffffff; stroke-width: 0.8"/>
    <path d="M 202.70068 167.19453 
L 200.932913 170.426764 
L 197.70068 172.19453 
L 200.932913 173.962297 
L 202.70068 177.19453 
L 204.468447 173.962297 
L 207.70068 172.19453 
L 204.468447 170.426764 
z
" clip-path="url(#pf1665a4c79)" style="fill: #ae9d31; stroke: #ffffff; stroke-width: 0.8"/>
    <path d="M 252.652326 113.710867 
L 250.884559 116.9431 
L 247.652326 118.710867 
L 250.884559 120.478634 
L 252.652326 123.710867 
L 254.420093 120.478634 
L 257.652326 118.710867 
L 254.420093 116.9431 
z
" clip-path="url(#pf1665a4c79)" style="fill: #ae9d31; stroke: #ffffff; stroke-width: 0.8"/>
    <path d="M 155.943716 202.812946 
L 154.175949 206.045179 
L 150.943716 207.812946 
L 154.175949 209.580713 
L 155.943716 212.812946 
L 157.711483 209.580713 
L 160.943716 207.812946 
L 157.711483 206.045179 
z
" clip-path="url(#pf1665a4c79)" style="fill: #ae9d31; stroke: #ffffff; stroke-width: 0.8"/>
    <path d="M 262.955382 103.623521 
L 261.187615 106.855754 
L 257.955382 108.623521 
L 261.187615 110.391288 
L 262.955382 113.623521 
L 264.723149 110.391288 
L 267.955382 108.623521 
L 264.723149 106.855754 
z
" clip-path="url(#pf1665a4c79)" style="fill: #ae9d31; stroke: #ffffff; stroke-width: 0.8"/>
    <path d="M 257.59016 106.562598 
L 255.822393 109.794831 
L 252.59016 111.562598 
L 255.822393 113.330365 
L 257.59016 116.562598 
L 259.357927 113.330365 
L 262.59016 111.562598 
L 259.357927 109.794831 
z
" clip-path="url(#pf1665a4c79)" style="fill: #ae9d31; stroke: #ffffff; stroke-width: 0.8"/>
    <path d="M 135.95619 216.381571 
L 134.188423 219.613804 
L 130.95619 221.381571 
L 134.188423 223.149338 
L 135.95619 226.381571 
L 137.723957 223.149338 
L 140.95619 221.381571 
L 137.723957 219.613804 
z
" clip-path="url(#pf1665a4c79)" style="fill: #33b07a; stroke: #ffffff; stroke-width: 0.8"/>
    <path d="M 190.872594 182.761491 
L 189.104827 185.993724 
L 185.872594 187.761491 
L 189.104827 189.529258 
L 190.872594 192.761491 
L 192.640361 189.529258 
L 195.872594 187.761491 
L 192.640361 185.993724 
z
" clip-path="url(#pf1665a4c79)" style="fill: #38a9c5; stroke: #ffffff; stroke-width: 0.8"/>
    <path d="M 225.238134 138.14786 
L 223.470367 141.380093 
L 220.238134 143.14786 
L 223.470367 144.915627 
L 225.238134 148.14786 
L 227.005901 144.915627 
L 230.238134 143.14786 
L 227.005901 141.380093 
z
" clip-path="url(#pf1665a4c79)" style="fill: #f77189; stroke: #ffffff; stroke-width: 0.8"/>
    <path d="M 221.347315 141.734401 
L 219.579548 144.966634 
L 216.347315 146.734401 
L 219.579548 148.502168 
L 221.347315 151.734401 
L 223.115082 148.502168 
L 226.347315 146.734401 
L 223.115082 144.966634 
z
" clip-path="url(#pf1665a4c79)" style="fill: #f77189; stroke: #ffffff; stroke-width: 0.8"/>
    <path d="M 173.700246 213.869018 
L 171.93248 217.101251 
L 168.700246 218.869018 
L 171.93248 220.636785 
L 173.700246 223.869018 
L 175.468013 220.636785 
L 178.700246 218.869018 
L 175.468013 217.101251 
z
" clip-path="url(#pf1665a4c79)" style="fill: #f77189; stroke: #ffffff; stroke-width: 0.8"/>
    <path d="M 212.68596 155.663949 
L 210.918193 158.896182 
L 207.68596 160.663949 
L 210.918193 162.431716 
L 212.68596 165.663949 
L 214.453727 162.431716 
L 217.68596 160.663949 
L 214.453727 158.896182 
z
" clip-path="url(#pf1665a4c79)" style="fill: #f77189; stroke: #ffffff; stroke-width: 0.8"/>
    <path d="M 184.079758 183.959049 
L 182.311991 187.191282 
L 179.079758 188.959049 
L 182.311991 190.726816 
L 184.079758 193.959049 
L 185.847525 190.726816 
L 189.079758 188.959049 
L 185.847525 187.191282 
z
" clip-path="url(#pf1665a4c79)" style="fill: #38a9c5; stroke: #ffffff; stroke-width: 0.8"/>
    <path d="M 198.634339 190.275059 
L 196.866572 193.507292 
L 193.634339 195.275059 
L 196.866572 197.042826 
L 198.634339 200.275059 
L 200.402106 197.042826 
L 203.634339 195.275059 
L 200.402106 193.507292 
z
" clip-path="url(#pf1665a4c79)" style="fill: #cc7af4; stroke: #ffffff; stroke-width: 0.8"/>
    <path d="M 155.361184 202.203808 
L 153.593417 205.436041 
L 150.361184 207.203808 
L 153.593417 208.971575 
L 155.361184 212.203808 
L 157.128951 208.971575 
L 160.361184 207.203808 
L 157.128951 205.436041 
z
" clip-path="url(#pf1665a4c79)" style="fill: #cc7af4; stroke: #ffffff; stroke-width: 0.8"/>
    <path d="M 117.965562 279.124901 
L 112.965562 289.124901 
L 122.965562 289.124901 
z
" clip-path="url(#pf1665a4c79)" style="fill: #f77189; stroke: #ffffff; stroke-width: 0.8"/>
    <path d="M 175.330087 208.414673 
L 170.330087 218.414673 
L 180.330087 218.414673 
z
" clip-path="url(#pf1665a4c79)" style="fill: #f77189; stroke: #ffffff; stroke-width: 0.8"/>
    <path d="M 148.769886 237.863391 
L 143.769886 247.863391 
L 153.769886 247.863391 
z
" clip-path="url(#pf1665a4c79)" style="fill: #f77189; stroke: #ffffff; stroke-width: 0.8"/>
    <path d="M 216.717658 135.414552 
L 211.717658 145.414552 
L 221.717658 145.414552 
z
" clip-path="url(#pf1665a4c79)" style="fill: #ae9d31; stroke: #ffffff; stroke-width: 0.8"/>
    <path d="M 175.257361 178.408945 
L 170.257361 188.408945 
L 180.257361 188.408945 
z
" clip-path="url(#pf1665a4c79)" style="fill: #ae9d31; stroke: #ffffff; stroke-width: 0.8"/>
    <path d="M 185.415314 183.363707 
L 180.415314 193.363707 
L 190.415314 193.363707 
z
" clip-path="url(#pf1665a4c79)" style="fill: #ae9d31; stroke: #ffffff; stroke-width: 0.8"/>
    <path d="M 186.519426 160.395227 
L 181.519426 170.395227 
L 191.519426 170.395227 
z
" clip-path="url(#pf1665a4c79)" style="fill: #ae9d31; stroke: #ffffff; stroke-width: 0.8"/>
    <path d="M 195.175844 146.204401 
L 190.175844 156.204401 
L 200.175844 156.204401 
z
" clip-path="url(#pf1665a4c79)" style="fill: #ae9d31; stroke: #ffffff; stroke-width: 0.8"/>
    <path d="M 224.143464 200.922802 
L 219.143464 210.922802 
L 229.143464 210.922802 
z
" clip-path="url(#pf1665a4c79)" style="fill: #33b07a; stroke: #ffffff; stroke-width: 0.8"/>
    <path d="M 137.037016 239.118903 
L 132.037016 249.118903 
L 142.037016 249.118903 
z
" clip-path="url(#pf1665a4c79)" style="fill: #38a9c5; stroke: #ffffff; stroke-width: 0.8"/>
    <path d="M 183.697623 199.953227 
L 178.697623 209.953227 
L 188.697623 209.953227 
z
" clip-path="url(#pf1665a4c79)" style="fill: #f77189; stroke: #ffffff; stroke-width: 0.8"/>
    <path d="M 150.995116 232.112969 
L 145.995116 242.112969 
L 155.995116 242.112969 
z
" clip-path="url(#pf1665a4c79)" style="fill: #f77189; stroke: #ffffff; stroke-width: 0.8"/>
    <path d="M 157.73639 191.181097 
L 152.73639 201.181097 
L 162.73639 201.181097 
z
" clip-path="url(#pf1665a4c79)" style="fill: #f77189; stroke: #ffffff; stroke-width: 0.8"/>
    <path d="M 158.449033 223.090806 
L 153.449033 233.090806 
L 163.449033 233.090806 
z
" clip-path="url(#pf1665a4c79)" style="fill: #f77189; stroke: #ffffff; stroke-width: 0.8"/>
    <path d="M 132.036154 258.514069 
L 127.036154 268.514069 
L 137.036154 268.514069 
z
" clip-path="url(#pf1665a4c79)" style="fill: #38a9c5; stroke: #ffffff; stroke-width: 0.8"/>
    <path d="M 204.67952 173.936222 
L 199.67952 183.936222 
L 209.67952 183.936222 
z
" clip-path="url(#pf1665a4c79)" style="fill: #cc7af4; stroke: #ffffff; stroke-width: 0.8"/>
    <path d="M 190.43184 175.541614 
L 185.43184 185.541614 
L 195.43184 185.541614 
z
" clip-path="url(#pf1665a4c79)" style="fill: #cc7af4; stroke: #ffffff; stroke-width: 0.8"/>
   </g>
   <g id="PathCollection_2"/>
   <g id="PathCollection_3"/>
   <g id="PathCollection_4"/>
   <g id="PathCollection_5"/>
   <g id="PathCollection_6"/>
   <g id="PathCollection_7"/>
   <g id="PathCollection_8"/>
   <g id="PathCollection_9"/>
   <g id="PathCollection_10"/>
   <g id="PathCollection_11"/>
   <g id="PathCollection_12"/>
   <g id="PathCollection_13"/>
   <g id="PathCollection_14">
    <defs>
     <path id="mb120a06bf2" d="M 0 0 
C 0 0 0 0 0 0 
C 0 0 0 0 0 0 
C 0 0 0 0 0 0 
C 0 0 0 0 0 0 
C 0 0 0 0 0 0 
C 0 0 0 0 0 0 
C 0 0 0 0 0 0 
C 0 0 0 0 0 0 
z
" style="stroke: #000000; stroke-opacity: 0.8"/>
    </defs>
    <g clip-path="url(#pf1665a4c79)">
     <use xlink:href="#mb120a06bf2" x="168.964879" y="260.634245" style="fill-opacity: 0.8; stroke: #000000; stroke-opacity: 0.8"/>
     <use xlink:href="#mb120a06bf2" x="214.791762" y="225.968581" style="fill-opacity: 0.8; stroke: #000000; stroke-opacity: 0.8"/>
     <use xlink:href="#mb120a06bf2" x="141.294839" y="284.957562" style="fill-opacity: 0.8; stroke: #000000; stroke-opacity: 0.8"/>
     <use xlink:href="#mb120a06bf2" x="246.529414" y="148.75538" style="fill-opacity: 0.8; stroke: #000000; stroke-opacity: 0.8"/>
     <use xlink:href="#mb120a06bf2" x="241.97477" y="163.409076" style="fill-opacity: 0.8; stroke: #000000; stroke-opacity: 0.8"/>
     <use xlink:href="#mb120a06bf2" x="191.546258" y="222.111294" style="fill-opacity: 0.8; stroke: #000000; stroke-opacity: 0.8"/>
     <use xlink:href="#mb120a06bf2" x="254.344804" y="141.066385" style="fill-opacity: 0.8; stroke: #000000; stroke-opacity: 0.8"/>
     <use xlink:href="#mb120a06bf2" x="263.384739" y="114.805864" style="fill-opacity: 0.8; stroke: #000000; stroke-opacity: 0.8"/>
     <use xlink:href="#mb120a06bf2" x="125.013367" y="301.756517" style="fill-opacity: 0.8; stroke: #000000; stroke-opacity: 0.8"/>
     <use xlink:href="#mb120a06bf2" x="149.478091" y="246.504372" style="fill-opacity: 0.8; stroke: #000000; stroke-opacity: 0.8"/>
     <use xlink:href="#mb120a06bf2" x="161.826293" y="240.928489" style="fill-opacity: 0.8; stroke: #000000; stroke-opacity: 0.8"/>
     <use xlink:href="#mb120a06bf2" x="180.224554" y="262.344016" style="fill-opacity: 0.8; stroke: #000000; stroke-opacity: 0.8"/>
     <use xlink:href="#mb120a06bf2" x="180.293753" y="316.924046" style="fill-opacity: 0.8; stroke: #000000; stroke-opacity: 0.8"/>
     <use xlink:href="#mb120a06bf2" x="161.623121" y="296.835462" style="fill-opacity: 0.8; stroke: #000000; stroke-opacity: 0.8"/>
     <use xlink:href="#mb120a06bf2" x="146.931895" y="262.933901" style="fill-opacity: 0.8; stroke: #000000; stroke-opacity: 0.8"/>
     <use xlink:href="#mb120a06bf2" x="213.822769" y="197.949102" style="fill-opacity: 0.8; stroke: #000000; stroke-opacity: 0.8"/>
     <use xlink:href="#mb120a06bf2" x="208.38326" y="162.127281" style="fill-opacity: 0.8; stroke: #000000; stroke-opacity: 0.8"/>
     <use xlink:href="#mb120a06bf2" x="180.358522" y="216.215687" style="fill-opacity: 0.8; stroke: #000000; stroke-opacity: 0.8"/>
     <use xlink:href="#mb120a06bf2" x="166.471703" y="242.774512" style="fill-opacity: 0.8; stroke: #000000; stroke-opacity: 0.8"/>
     <use xlink:href="#mb120a06bf2" x="217.916743" y="198.845526" style="fill-opacity: 0.8; stroke: #000000; stroke-opacity: 0.8"/>
     <use xlink:href="#mb120a06bf2" x="210.287302" y="161.148983" style="fill-opacity: 0.8; stroke: #000000; stroke-opacity: 0.8"/>
     <use xlink:href="#mb120a06bf2" x="223.766062" y="170.172306" style="fill-opacity: 0.8; stroke: #000000; stroke-opacity: 0.8"/>
     <use xlink:href="#mb120a06bf2" x="168.815316" y="211.675273" style="fill-opacity: 0.8; stroke: #000000; stroke-opacity: 0.8"/>
     <use xlink:href="#mb120a06bf2" x="242.559359" y="154.858856" style="fill-opacity: 0.8; stroke: #000000; stroke-opacity: 0.8"/>
     <use xlink:href="#mb120a06bf2" x="230.873563" y="152.107283" style="fill-opacity: 0.8; stroke: #000000; stroke-opacity: 0.8"/>
     <use xlink:href="#mb120a06bf2" x="188.822848" y="223.029005" style="fill-opacity: 0.8; stroke: #000000; stroke-opacity: 0.8"/>
     <use xlink:href="#mb120a06bf2" x="196.405774" y="221.170147" style="fill-opacity: 0.8; stroke: #000000; stroke-opacity: 0.8"/>
     <use xlink:href="#mb120a06bf2" x="235.175123" y="203.029305" style="fill-opacity: 0.8; stroke: #000000; stroke-opacity: 0.8"/>
     <use xlink:href="#mb120a06bf2" x="217.401628" y="222.091501" style="fill-opacity: 0.8; stroke: #000000; stroke-opacity: 0.8"/>
     <use xlink:href="#mb120a06bf2" x="194.376952" y="217.985851" style="fill-opacity: 0.8; stroke: #000000; stroke-opacity: 0.8"/>
     <use xlink:href="#mb120a06bf2" x="222.920586" y="204.613012" style="fill-opacity: 0.8; stroke: #000000; stroke-opacity: 0.8"/>
     <use xlink:href="#mb120a06bf2" x="193.826228" y="236.277461" style="fill-opacity: 0.8; stroke: #000000; stroke-opacity: 0.8"/>
     <use xlink:href="#mb120a06bf2" x="207.0562" y="181.857227" style="fill-opacity: 0.8; stroke: #000000; stroke-opacity: 0.8"/>
     <use xlink:href="#mb120a06bf2" x="149.322448" y="243.37044" style="fill-opacity: 0.8; stroke: #000000; stroke-opacity: 0.8"/>
     <use xlink:href="#mb120a06bf2" x="94.984778" y="333.653727" style="fill-opacity: 0.8; stroke: #000000; stroke-opacity: 0.8"/>
     <use xlink:href="#mb120a06bf2" x="189.548661" y="242.527985" style="fill-opacity: 0.8; stroke: #000000; stroke-opacity: 0.8"/>
     <use xlink:href="#mb120a06bf2" x="194.257414" y="237.522785" style="fill-opacity: 0.8; stroke: #000000; stroke-opacity: 0.8"/>
     <use xlink:href="#mb120a06bf2" x="153.010104" y="215.668041" style="fill-opacity: 0.8; stroke: #000000; stroke-opacity: 0.8"/>
     <use xlink:href="#mb120a06bf2" x="151.686669" y="220.888575" style="fill-opacity: 0.8; stroke: #000000; stroke-opacity: 0.8"/>
     <use xlink:href="#mb120a06bf2" x="164.46467" y="210.628282" style="fill-opacity: 0.8; stroke: #000000; stroke-opacity: 0.8"/>
     <use xlink:href="#mb120a06bf2" x="164.251444" y="187.096884" style="fill-opacity: 0.8; stroke: #000000; stroke-opacity: 0.8"/>
     <use xlink:href="#mb120a06bf2" x="171.551402" y="257.503509" style="fill-opacity: 0.8; stroke: #000000; stroke-opacity: 0.8"/>
     <use xlink:href="#mb120a06bf2" x="187.225225" y="215.967191" style="fill-opacity: 0.8; stroke: #000000; stroke-opacity: 0.8"/>
     <use xlink:href="#mb120a06bf2" x="242.662405" y="174.644366" style="fill-opacity: 0.8; stroke: #000000; stroke-opacity: 0.8"/>
     <use xlink:href="#mb120a06bf2" x="193.681592" y="193.717745" style="fill-opacity: 0.8; stroke: #000000; stroke-opacity: 0.8"/>
     <use xlink:href="#mb120a06bf2" x="208.68647" y="212.043447" style="fill-opacity: 0.8; stroke: #000000; stroke-opacity: 0.8"/>
     <use xlink:href="#mb120a06bf2" x="210.319876" y="196.008498" style="fill-opacity: 0.8; stroke: #000000; stroke-opacity: 0.8"/>
     <use xlink:href="#mb120a06bf2" x="183.120883" y="221.255395" style="fill-opacity: 0.8; stroke: #000000; stroke-opacity: 0.8"/>
     <use xlink:href="#mb120a06bf2" x="147.850616" y="269.342916" style="fill-opacity: 0.8; stroke: #000000; stroke-opacity: 0.8"/>
     <use xlink:href="#mb120a06bf2" x="114.558895" y="312.160558" style="fill-opacity: 0.8; stroke: #000000; stroke-opacity: 0.8"/>
     <use xlink:href="#mb120a06bf2" x="115.965236" y="305.550625" style="fill-opacity: 0.8; stroke: #000000; stroke-opacity: 0.8"/>
     <use xlink:href="#mb120a06bf2" x="146.546532" y="312.132776" style="fill-opacity: 0.8; stroke: #000000; stroke-opacity: 0.8"/>
     <use xlink:href="#mb120a06bf2" x="171.392308" y="221.701422" style="fill-opacity: 0.8; stroke: #000000; stroke-opacity: 0.8"/>
     <use xlink:href="#mb120a06bf2" x="96.311637" y="306.945028" style="fill-opacity: 0.8; stroke: #000000; stroke-opacity: 0.8"/>
     <use xlink:href="#mb120a06bf2" x="150.760784" y="247.171225" style="fill-opacity: 0.8; stroke: #000000; stroke-opacity: 0.8"/>
     <use xlink:href="#mb120a06bf2" x="143.979729" y="273.946271" style="fill-opacity: 0.8; stroke: #000000; stroke-opacity: 0.8"/>
     <use xlink:href="#mb120a06bf2" x="140.196675" y="255.985104" style="fill-opacity: 0.8; stroke: #000000; stroke-opacity: 0.8"/>
     <use xlink:href="#mb120a06bf2" x="146.41936" y="243.327099" style="fill-opacity: 0.8; stroke: #000000; stroke-opacity: 0.8"/>
     <use xlink:href="#mb120a06bf2" x="141.667955" y="233.05736" style="fill-opacity: 0.8; stroke: #000000; stroke-opacity: 0.8"/>
     <use xlink:href="#mb120a06bf2" x="212.338083" y="183.061742" style="fill-opacity: 0.8; stroke: #000000; stroke-opacity: 0.8"/>
     <use xlink:href="#mb120a06bf2" x="155.168276" y="261.941521" style="fill-opacity: 0.8; stroke: #000000; stroke-opacity: 0.8"/>
     <use xlink:href="#mb120a06bf2" x="185.753294" y="236.947754" style="fill-opacity: 0.8; stroke: #000000; stroke-opacity: 0.8"/>
     <use xlink:href="#mb120a06bf2" x="170.978684" y="218.958288" style="fill-opacity: 0.8; stroke: #000000; stroke-opacity: 0.8"/>
     <use xlink:href="#mb120a06bf2" x="153.786199" y="246.989884" style="fill-opacity: 0.8; stroke: #000000; stroke-opacity: 0.8"/>
     <use xlink:href="#mb120a06bf2" x="102.189665" y="295.086384" style="fill-opacity: 0.8; stroke: #000000; stroke-opacity: 0.8"/>
     <use xlink:href="#mb120a06bf2" x="111.208516" y="274.311986" style="fill-opacity: 0.8; stroke: #000000; stroke-opacity: 0.8"/>
     <use xlink:href="#mb120a06bf2" x="155.635919" y="290.555499" style="fill-opacity: 0.8; stroke: #000000; stroke-opacity: 0.8"/>
     <use xlink:href="#mb120a06bf2" x="207.501232" y="207.33735" style="fill-opacity: 0.8; stroke: #000000; stroke-opacity: 0.8"/>
     <use xlink:href="#mb120a06bf2" x="169.446809" y="263.90077" style="fill-opacity: 0.8; stroke: #000000; stroke-opacity: 0.8"/>
     <use xlink:href="#mb120a06bf2" x="264.625038" y="100.183373" style="fill-opacity: 0.8; stroke: #000000; stroke-opacity: 0.8"/>
     <use xlink:href="#mb120a06bf2" x="250.070362" y="122.621726" style="fill-opacity: 0.8; stroke: #000000; stroke-opacity: 0.8"/>
     <use xlink:href="#mb120a06bf2" x="155.263913" y="224.341597" style="fill-opacity: 0.8; stroke: #000000; stroke-opacity: 0.8"/>
     <use xlink:href="#mb120a06bf2" x="270.23065" y="100.922627" style="fill-opacity: 0.8; stroke: #000000; stroke-opacity: 0.8"/>
     <use xlink:href="#mb120a06bf2" x="277.088051" y="85.188503" style="fill-opacity: 0.8; stroke: #000000; stroke-opacity: 0.8"/>
     <use xlink:href="#mb120a06bf2" x="137.629478" y="290.592413" style="fill-opacity: 0.8; stroke: #000000; stroke-opacity: 0.8"/>
     <use xlink:href="#mb120a06bf2" x="162.993835" y="222.753655" style="fill-opacity: 0.8; stroke: #000000; stroke-opacity: 0.8"/>
     <use xlink:href="#mb120a06bf2" x="183.558477" y="200.426483" style="fill-opacity: 0.8; stroke: #000000; stroke-opacity: 0.8"/>
     <use xlink:href="#mb120a06bf2" x="166.897401" y="264.315085" style="fill-opacity: 0.8; stroke: #000000; stroke-opacity: 0.8"/>
     <use xlink:href="#mb120a06bf2" x="168.34586" y="282.449051" style="fill-opacity: 0.8; stroke: #000000; stroke-opacity: 0.8"/>
     <use xlink:href="#mb120a06bf2" x="158.232871" y="260.482614" style="fill-opacity: 0.8; stroke: #000000; stroke-opacity: 0.8"/>
     <use xlink:href="#mb120a06bf2" x="164.119504" y="235.805839" style="fill-opacity: 0.8; stroke: #000000; stroke-opacity: 0.8"/>
     <use xlink:href="#mb120a06bf2" x="257.145085" y="126.471883" style="fill-opacity: 0.8; stroke: #000000; stroke-opacity: 0.8"/>
     <use xlink:href="#mb120a06bf2" x="151.128055" y="227.061796" style="fill-opacity: 0.8; stroke: #000000; stroke-opacity: 0.8"/>
     <use xlink:href="#mb120a06bf2" x="164.320282" y="259.782596" style="fill-opacity: 0.8; stroke: #000000; stroke-opacity: 0.8"/>
     <use xlink:href="#mb120a06bf2" x="167.664509" y="236.369053" style="fill-opacity: 0.8; stroke: #000000; stroke-opacity: 0.8"/>
     <use xlink:href="#mb120a06bf2" x="195.203012" y="195.654966" style="fill-opacity: 0.8; stroke: #000000; stroke-opacity: 0.8"/>
     <use xlink:href="#mb120a06bf2" x="202.70068" y="172.19453" style="fill-opacity: 0.8; stroke: #000000; stroke-opacity: 0.8"/>
     <use xlink:href="#mb120a06bf2" x="252.652326" y="118.710867" style="fill-opacity: 0.8; stroke: #000000; stroke-opacity: 0.8"/>
     <use xlink:href="#mb120a06bf2" x="155.943716" y="207.812946" style="fill-opacity: 0.8; stroke: #000000; stroke-opacity: 0.8"/>
     <use xlink:href="#mb120a06bf2" x="262.955382" y="108.623521" style="fill-opacity: 0.8; stroke: #000000; stroke-opacity: 0.8"/>
     <use xlink:href="#mb120a06bf2" x="257.59016" y="111.562598" style="fill-opacity: 0.8; stroke: #000000; stroke-opacity: 0.8"/>
     <use xlink:href="#mb120a06bf2" x="135.95619" y="221.381571" style="fill-opacity: 0.8; stroke: #000000; stroke-opacity: 0.8"/>
     <use xlink:href="#mb120a06bf2" x="190.872594" y="187.761491" style="fill-opacity: 0.8; stroke: #000000; stroke-opacity: 0.8"/>
     <use xlink:href="#mb120a06bf2" x="225.238134" y="143.14786" style="fill-opacity: 0.8; stroke: #000000; stroke-opacity: 0.8"/>
     <use xlink:href="#mb120a06bf2" x="221.347315" y="146.734401" style="fill-opacity: 0.8; stroke: #000000; stroke-opacity: 0.8"/>
     <use xlink:href="#mb120a06bf2" x="173.700246" y="218.869018" style="fill-opacity: 0.8; stroke: #000000; stroke-opacity: 0.8"/>
     <use xlink:href="#mb120a06bf2" x="212.68596" y="160.663949" style="fill-opacity: 0.8; stroke: #000000; stroke-opacity: 0.8"/>
     <use xlink:href="#mb120a06bf2" x="184.079758" y="188.959049" style="fill-opacity: 0.8; stroke: #000000; stroke-opacity: 0.8"/>
     <use xlink:href="#mb120a06bf2" x="198.634339" y="195.275059" style="fill-opacity: 0.8; stroke: #000000; stroke-opacity: 0.8"/>
     <use xlink:href="#mb120a06bf2" x="155.361184" y="207.203808" style="fill-opacity: 0.8; stroke: #000000; stroke-opacity: 0.8"/>
     <use xlink:href="#mb120a06bf2" x="117.965562" y="284.124901" style="fill-opacity: 0.8; stroke: #000000; stroke-opacity: 0.8"/>
     <use xlink:href="#mb120a06bf2" x="175.330087" y="213.414673" style="fill-opacity: 0.8; stroke: #000000; stroke-opacity: 0.8"/>
     <use xlink:href="#mb120a06bf2" x="148.769886" y="242.863391" style="fill-opacity: 0.8; stroke: #000000; stroke-opacity: 0.8"/>
     <use xlink:href="#mb120a06bf2" x="216.717658" y="140.414552" style="fill-opacity: 0.8; stroke: #000000; stroke-opacity: 0.8"/>
     <use xlink:href="#mb120a06bf2" x="175.257361" y="183.408945" style="fill-opacity: 0.8; stroke: #000000; stroke-opacity: 0.8"/>
     <use xlink:href="#mb120a06bf2" x="185.415314" y="188.363707" style="fill-opacity: 0.8; stroke: #000000; stroke-opacity: 0.8"/>
     <use xlink:href="#mb120a06bf2" x="186.519426" y="165.395227" style="fill-opacity: 0.8; stroke: #000000; stroke-opacity: 0.8"/>
     <use xlink:href="#mb120a06bf2" x="195.175844" y="151.204401" style="fill-opacity: 0.8; stroke: #000000; stroke-opacity: 0.8"/>
     <use xlink:href="#mb120a06bf2" x="224.143464" y="205.922802" style="fill-opacity: 0.8; stroke: #000000; stroke-opacity: 0.8"/>
     <use xlink:href="#mb120a06bf2" x="137.037016" y="244.118903" style="fill-opacity: 0.8; stroke: #000000; stroke-opacity: 0.8"/>
     <use xlink:href="#mb120a06bf2" x="183.697623" y="204.953227" style="fill-opacity: 0.8; stroke: #000000; stroke-opacity: 0.8"/>
     <use xlink:href="#mb120a06bf2" x="150.995116" y="237.112969" style="fill-opacity: 0.8; stroke: #000000; stroke-opacity: 0.8"/>
     <use xlink:href="#mb120a06bf2" x="157.73639" y="196.181097" style="fill-opacity: 0.8; stroke: #000000; stroke-opacity: 0.8"/>
     <use xlink:href="#mb120a06bf2" x="158.449033" y="228.090806" style="fill-opacity: 0.8; stroke: #000000; stroke-opacity: 0.8"/>
     <use xlink:href="#mb120a06bf2" x="132.036154" y="263.514069" style="fill-opacity: 0.8; stroke: #000000; stroke-opacity: 0.8"/>
     <use xlink:href="#mb120a06bf2" x="204.67952" y="178.936222" style="fill-opacity: 0.8; stroke: #000000; stroke-opacity: 0.8"/>
     <use xlink:href="#mb120a06bf2" x="190.43184" y="180.541614" style="fill-opacity: 0.8; stroke: #000000; stroke-opacity: 0.8"/>
    </g>
   </g>
   <g id="PolyCollection_1">
    <path d="M 94.984778 304.11501 
L 94.984778 323.979036 
L 96.824205 321.753476 
L 98.663632 319.497052 
L 100.503059 317.237427 
L 102.342486 315.010452 
L 104.181913 312.783286 
L 106.02134 310.578017 
L 107.860767 308.346512 
L 109.700194 306.102552 
L 111.539621 303.875577 
L 113.379048 301.648378 
L 115.218475 299.398987 
L 117.057902 297.185718 
L 118.897329 294.967676 
L 120.736756 292.740701 
L 122.576183 290.52525 
L 124.41561 288.290885 
L 126.255037 286.060261 
L 128.094464 283.833541 
L 129.933891 281.643128 
L 131.773318 279.434759 
L 133.612745 277.227754 
L 135.452172 275.020047 
L 137.291599 272.818137 
L 139.131026 270.606739 
L 140.970453 268.486607 
L 142.80988 266.246996 
L 144.649307 264.08965 
L 146.488734 261.969712 
L 148.328161 259.849887 
L 150.167588 257.733397 
L 152.007015 255.600135 
L 153.846442 253.37098 
L 155.685869 251.295662 
L 157.525296 249.220869 
L 159.364723 247.04107 
L 161.20415 244.86242 
L 163.043577 242.670044 
L 164.883004 240.479856 
L 166.722431 238.341451 
L 168.561858 236.251105 
L 170.401285 234.257524 
L 172.240712 232.213475 
L 174.080139 230.036105 
L 175.919566 227.95284 
L 177.758993 225.866653 
L 179.59842 223.783992 
L 181.437847 221.703044 
L 183.277274 219.662664 
L 185.116701 217.661626 
L 186.956128 215.548095 
L 188.795555 213.395006 
L 190.634982 211.416635 
L 192.474409 209.411511 
L 194.313836 207.403313 
L 196.153263 205.382831 
L 197.99269 203.380148 
L 199.832117 201.352623 
L 201.671544 199.367301 
L 203.510971 197.38107 
L 205.350398 195.4469 
L 207.189825 193.426824 
L 209.029252 191.423186 
L 210.868679 189.411849 
L 212.708106 187.453532 
L 214.547533 185.476767 
L 216.38696 183.48242 
L 218.226387 181.497025 
L 220.065814 179.467105 
L 221.905241 177.525744 
L 223.744668 175.571045 
L 225.584095 173.663494 
L 227.423522 171.762164 
L 229.262949 169.848325 
L 231.102376 167.879162 
L 232.941803 165.904955 
L 234.78123 163.930054 
L 236.620657 162.007522 
L 238.460084 160.126081 
L 240.299511 158.18882 
L 242.138938 156.20408 
L 243.978365 154.21934 
L 245.817792 152.2346 
L 247.657219 150.260601 
L 249.496646 148.39661 
L 251.336073 146.532619 
L 253.1755 144.667157 
L 255.014927 142.801359 
L 256.854354 140.935561 
L 258.693781 138.963642 
L 260.533208 137.022014 
L 262.372635 135.200521 
L 264.212062 133.379028 
L 266.051489 131.556584 
L 267.890916 129.672019 
L 269.730343 127.760641 
L 271.56977 125.848677 
L 273.409197 123.936713 
L 275.248624 122.024748 
L 277.088051 120.138593 
L 277.088051 98.895022 
L 277.088051 98.895022 
L 275.248624 101.112458 
L 273.409197 103.329775 
L 271.56977 105.545774 
L 269.730343 107.760413 
L 267.890916 109.955516 
L 266.051489 112.141867 
L 264.212062 114.406582 
L 262.372635 116.6306 
L 260.533208 118.847056 
L 258.693781 121.058806 
L 256.854354 123.266095 
L 255.014927 125.469519 
L 253.1755 127.640429 
L 251.336073 129.798209 
L 249.496646 131.984837 
L 247.657219 134.155705 
L 245.817792 136.328523 
L 243.978365 138.521868 
L 242.138938 140.75096 
L 240.299511 142.929794 
L 238.460084 145.108943 
L 236.620657 147.288659 
L 234.78123 149.468375 
L 232.941803 151.66793 
L 231.102376 153.858599 
L 229.262949 156.065832 
L 227.423522 158.251676 
L 225.584095 160.382403 
L 223.744668 162.542119 
L 221.905241 164.758367 
L 220.065814 167.009841 
L 218.226387 169.261316 
L 216.38696 171.470923 
L 214.547533 173.487519 
L 212.708106 175.616652 
L 210.868679 177.83124 
L 209.029252 180.048618 
L 207.189825 182.228113 
L 205.350398 184.430175 
L 203.510971 186.548836 
L 201.671544 188.67903 
L 199.832117 190.779245 
L 197.99269 192.857141 
L 196.153263 194.938221 
L 194.313836 197.018873 
L 192.474409 199.071545 
L 190.634982 201.180176 
L 188.795555 203.261583 
L 186.956128 205.347023 
L 185.116701 207.398997 
L 183.277274 209.503787 
L 181.437847 211.585284 
L 179.59842 213.666782 
L 177.758993 215.745956 
L 175.919566 217.82713 
L 174.080139 219.901208 
L 172.240712 221.864788 
L 170.401285 223.830834 
L 168.561858 225.859866 
L 166.722431 227.821748 
L 164.883004 229.912554 
L 163.043577 231.989539 
L 161.20415 234.000961 
L 159.364723 236.026655 
L 157.525296 237.952782 
L 155.685869 239.879745 
L 153.846442 241.912984 
L 152.007015 243.934371 
L 150.167588 245.896523 
L 148.328161 247.858674 
L 146.488734 249.837439 
L 144.649307 251.766512 
L 142.80988 253.739602 
L 140.970453 255.699589 
L 139.131026 257.669054 
L 137.291599 259.594315 
L 135.452172 261.476887 
L 133.612745 263.382223 
L 131.773318 265.36615 
L 129.933891 267.350502 
L 128.094464 269.246321 
L 126.255037 271.200314 
L 124.41561 273.214331 
L 122.576183 275.127354 
L 120.736756 277.038262 
L 118.897329 278.994676 
L 117.057902 280.951089 
L 115.218475 282.907503 
L 113.379048 284.865913 
L 111.539621 286.824501 
L 109.700194 288.758196 
L 107.860767 290.662756 
L 106.02134 292.551994 
L 104.181913 294.380785 
L 102.342486 296.376437 
L 100.503059 298.280997 
L 98.663632 300.205048 
L 96.824205 302.160029 
L 94.984778 304.11501 
z
" clip-path="url(#pf1665a4c79)" style="fill-opacity: 0.15"/>
   </g>
   <g id="matplotlib.axis_1">
    <g id="xtick_1">
     <g id="line2d_1">
      <defs>
       <path id="m1bb6a8fe1a" d="M 0 0 
L 0 3.5 
" style="stroke: #000000; stroke-width: 0.8"/>
      </defs>
      <g>
       <use xlink:href="#m1bb6a8fe1a" x="69.218182" y="378" style="stroke: #000000; stroke-width: 0.8"/>
      </g>
     </g>
     <g id="text_1">
      <!-- 0.0 -->
      <g transform="translate(61.266619 392.598437)scale(0.1 -0.1)">
       <defs>
        <path id="DejaVuSans-30" d="M 2034 4250 
Q 1547 4250 1301 3770 
Q 1056 3291 1056 2328 
Q 1056 1369 1301 889 
Q 1547 409 2034 409 
Q 2525 409 2770 889 
Q 3016 1369 3016 2328 
Q 3016 3291 2770 3770 
Q 2525 4250 2034 4250 
z
M 2034 4750 
Q 2819 4750 3233 4129 
Q 3647 3509 3647 2328 
Q 3647 1150 3233 529 
Q 2819 -91 2034 -91 
Q 1250 -91 836 529 
Q 422 1150 422 2328 
Q 422 3509 836 4129 
Q 1250 4750 2034 4750 
z
" transform="scale(0.015625)"/>
        <path id="DejaVuSans-2e" d="M 684 794 
L 1344 794 
L 1344 0 
L 684 0 
L 684 794 
z
" transform="scale(0.015625)"/>
       </defs>
       <use xlink:href="#DejaVuSans-30"/>
       <use xlink:href="#DejaVuSans-2e" x="63.623047"/>
       <use xlink:href="#DejaVuSans-30" x="95.410156"/>
      </g>
     </g>
    </g>
    <g id="xtick_2">
     <g id="line2d_2">
      <g>
       <use xlink:href="#m1bb6a8fe1a" x="136.111289" y="378" style="stroke: #000000; stroke-width: 0.8"/>
      </g>
     </g>
     <g id="text_2">
      <!-- 0.2 -->
      <g transform="translate(128.159726 392.598437)scale(0.1 -0.1)">
       <defs>
        <path id="DejaVuSans-32" d="M 1228 531 
L 3431 531 
L 3431 0 
L 469 0 
L 469 531 
Q 828 903 1448 1529 
Q 2069 2156 2228 2338 
Q 2531 2678 2651 2914 
Q 2772 3150 2772 3378 
Q 2772 3750 2511 3984 
Q 2250 4219 1831 4219 
Q 1534 4219 1204 4116 
Q 875 4013 500 3803 
L 500 4441 
Q 881 4594 1212 4672 
Q 1544 4750 1819 4750 
Q 2544 4750 2975 4387 
Q 3406 4025 3406 3419 
Q 3406 3131 3298 2873 
Q 3191 2616 2906 2266 
Q 2828 2175 2409 1742 
Q 1991 1309 1228 531 
z
" transform="scale(0.015625)"/>
       </defs>
       <use xlink:href="#DejaVuSans-30"/>
       <use xlink:href="#DejaVuSans-2e" x="63.623047"/>
       <use xlink:href="#DejaVuSans-32" x="95.410156"/>
      </g>
     </g>
    </g>
    <g id="xtick_3">
     <g id="line2d_3">
      <g>
       <use xlink:href="#m1bb6a8fe1a" x="203.004396" y="378" style="stroke: #000000; stroke-width: 0.8"/>
      </g>
     </g>
     <g id="text_3">
      <!-- 0.4 -->
      <g transform="translate(195.052833 392.598437)scale(0.1 -0.1)">
       <defs>
        <path id="DejaVuSans-34" d="M 2419 4116 
L 825 1625 
L 2419 1625 
L 2419 4116 
z
M 2253 4666 
L 3047 4666 
L 3047 1625 
L 3713 1625 
L 3713 1100 
L 3047 1100 
L 3047 0 
L 2419 0 
L 2419 1100 
L 313 1100 
L 313 1709 
L 2253 4666 
z
" transform="scale(0.015625)"/>
       </defs>
       <use xlink:href="#DejaVuSans-30"/>
       <use xlink:href="#DejaVuSans-2e" x="63.623047"/>
       <use xlink:href="#DejaVuSans-34" x="95.410156"/>
      </g>
     </g>
    </g>
    <g id="xtick_4">
     <g id="line2d_4">
      <g>
       <use xlink:href="#m1bb6a8fe1a" x="269.897502" y="378" style="stroke: #000000; stroke-width: 0.8"/>
      </g>
     </g>
     <g id="text_4">
      <!-- 0.6 -->
      <g transform="translate(261.94594 392.598437)scale(0.1 -0.1)">
       <defs>
        <path id="DejaVuSans-36" d="M 2113 2584 
Q 1688 2584 1439 2293 
Q 1191 2003 1191 1497 
Q 1191 994 1439 701 
Q 1688 409 2113 409 
Q 2538 409 2786 701 
Q 3034 994 3034 1497 
Q 3034 2003 2786 2293 
Q 2538 2584 2113 2584 
z
M 3366 4563 
L 3366 3988 
Q 3128 4100 2886 4159 
Q 2644 4219 2406 4219 
Q 1781 4219 1451 3797 
Q 1122 3375 1075 2522 
Q 1259 2794 1537 2939 
Q 1816 3084 2150 3084 
Q 2853 3084 3261 2657 
Q 3669 2231 3669 1497 
Q 3669 778 3244 343 
Q 2819 -91 2113 -91 
Q 1303 -91 875 529 
Q 447 1150 447 2328 
Q 447 3434 972 4092 
Q 1497 4750 2381 4750 
Q 2619 4750 2861 4703 
Q 3103 4656 3366 4563 
z
" transform="scale(0.015625)"/>
       </defs>
       <use xlink:href="#DejaVuSans-30"/>
       <use xlink:href="#DejaVuSans-2e" x="63.623047"/>
       <use xlink:href="#DejaVuSans-36" x="95.410156"/>
      </g>
     </g>
    </g>
    <g id="xtick_5">
     <g id="line2d_5">
      <g>
       <use xlink:href="#m1bb6a8fe1a" x="336.790609" y="378" style="stroke: #000000; stroke-width: 0.8"/>
      </g>
     </g>
     <g id="text_5">
      <!-- 0.8 -->
      <g transform="translate(328.839047 392.598437)scale(0.1 -0.1)">
       <defs>
        <path id="DejaVuSans-38" d="M 2034 2216 
Q 1584 2216 1326 1975 
Q 1069 1734 1069 1313 
Q 1069 891 1326 650 
Q 1584 409 2034 409 
Q 2484 409 2743 651 
Q 3003 894 3003 1313 
Q 3003 1734 2745 1975 
Q 2488 2216 2034 2216 
z
M 1403 2484 
Q 997 2584 770 2862 
Q 544 3141 544 3541 
Q 544 4100 942 4425 
Q 1341 4750 2034 4750 
Q 2731 4750 3128 4425 
Q 3525 4100 3525 3541 
Q 3525 3141 3298 2862 
Q 3072 2584 2669 2484 
Q 3125 2378 3379 2068 
Q 3634 1759 3634 1313 
Q 3634 634 3220 271 
Q 2806 -91 2034 -91 
Q 1263 -91 848 271 
Q 434 634 434 1313 
Q 434 1759 690 2068 
Q 947 2378 1403 2484 
z
M 1172 3481 
Q 1172 3119 1398 2916 
Q 1625 2713 2034 2713 
Q 2441 2713 2670 2916 
Q 2900 3119 2900 3481 
Q 2900 3844 2670 4047 
Q 2441 4250 2034 4250 
Q 1625 4250 1398 4047 
Q 1172 3844 1172 3481 
z
" transform="scale(0.015625)"/>
       </defs>
       <use xlink:href="#DejaVuSans-30"/>
       <use xlink:href="#DejaVuSans-2e" x="63.623047"/>
       <use xlink:href="#DejaVuSans-38" x="95.410156"/>
      </g>
     </g>
    </g>
    <g id="text_6">
     <!-- poi -->
     <g transform="translate(213.777344 406.276563)scale(0.1 -0.1)">
      <defs>
       <path id="DejaVuSans-70" d="M 1159 525 
L 1159 -1331 
L 581 -1331 
L 581 3500 
L 1159 3500 
L 1159 2969 
Q 1341 3281 1617 3432 
Q 1894 3584 2278 3584 
Q 2916 3584 3314 3078 
Q 3713 2572 3713 1747 
Q 3713 922 3314 415 
Q 2916 -91 2278 -91 
Q 1894 -91 1617 61 
Q 1341 213 1159 525 
z
M 3116 1747 
Q 3116 2381 2855 2742 
Q 2594 3103 2138 3103 
Q 1681 3103 1420 2742 
Q 1159 2381 1159 1747 
Q 1159 1113 1420 752 
Q 1681 391 2138 391 
Q 2594 391 2855 752 
Q 3116 1113 3116 1747 
z
" transform="scale(0.015625)"/>
       <path id="DejaVuSans-6f" d="M 1959 3097 
Q 1497 3097 1228 2736 
Q 959 2375 959 1747 
Q 959 1119 1226 758 
Q 1494 397 1959 397 
Q 2419 397 2687 759 
Q 2956 1122 2956 1747 
Q 2956 2369 2687 2733 
Q 2419 3097 1959 3097 
z
M 1959 3584 
Q 2709 3584 3137 3096 
Q 3566 2609 3566 1747 
Q 3566 888 3137 398 
Q 2709 -91 1959 -91 
Q 1206 -91 779 398 
Q 353 888 353 1747 
Q 353 2609 779 3096 
Q 1206 3584 1959 3584 
z
" transform="scale(0.015625)"/>
       <path id="DejaVuSans-69" d="M 603 3500 
L 1178 3500 
L 1178 0 
L 603 0 
L 603 3500 
z
M 603 4863 
L 1178 4863 
L 1178 4134 
L 603 4134 
L 603 4863 
z
" transform="scale(0.015625)"/>
      </defs>
      <use xlink:href="#DejaVuSans-70"/>
      <use xlink:href="#DejaVuSans-6f" x="63.476562"/>
      <use xlink:href="#DejaVuSans-69" x="124.658203"/>
     </g>
    </g>
   </g>
   <g id="matplotlib.axis_2">
    <g id="ytick_1">
     <g id="line2d_6">
      <defs>
       <path id="mda79cb030a" d="M 0 0 
L -3.5 0 
" style="stroke: #000000; stroke-width: 0.8"/>
      </defs>
      <g>
       <use xlink:href="#mda79cb030a" x="54" y="363.174545" style="stroke: #000000; stroke-width: 0.8"/>
      </g>
     </g>
     <g id="text_7">
      <!-- 0.0 -->
      <g transform="translate(31.096875 366.973764)scale(0.1 -0.1)">
       <use xlink:href="#DejaVuSans-30"/>
       <use xlink:href="#DejaVuSans-2e" x="63.623047"/>
       <use xlink:href="#DejaVuSans-30" x="95.410156"/>
      </g>
     </g>
    </g>
    <g id="ytick_2">
     <g id="line2d_7">
      <g>
       <use xlink:href="#mda79cb030a" x="54" y="298.007712" style="stroke: #000000; stroke-width: 0.8"/>
      </g>
     </g>
     <g id="text_8">
      <!-- 0.2 -->
      <g transform="translate(31.096875 301.806931)scale(0.1 -0.1)">
       <use xlink:href="#DejaVuSans-30"/>
       <use xlink:href="#DejaVuSans-2e" x="63.623047"/>
       <use xlink:href="#DejaVuSans-32" x="95.410156"/>
      </g>
     </g>
    </g>
    <g id="ytick_3">
     <g id="line2d_8">
      <g>
       <use xlink:href="#mda79cb030a" x="54" y="232.840879" style="stroke: #000000; stroke-width: 0.8"/>
      </g>
     </g>
     <g id="text_9">
      <!-- 0.4 -->
      <g transform="translate(31.096875 236.640098)scale(0.1 -0.1)">
       <use xlink:href="#DejaVuSans-30"/>
       <use xlink:href="#DejaVuSans-2e" x="63.623047"/>
       <use xlink:href="#DejaVuSans-34" x="95.410156"/>
      </g>
     </g>
    </g>
    <g id="ytick_4">
     <g id="line2d_9">
      <g>
       <use xlink:href="#mda79cb030a" x="54" y="167.674046" style="stroke: #000000; stroke-width: 0.8"/>
      </g>
     </g>
     <g id="text_10">
      <!-- 0.6 -->
      <g transform="translate(31.096875 171.473265)scale(0.1 -0.1)">
       <use xlink:href="#DejaVuSans-30"/>
       <use xlink:href="#DejaVuSans-2e" x="63.623047"/>
       <use xlink:href="#DejaVuSans-36" x="95.410156"/>
      </g>
     </g>
    </g>
    <g id="ytick_5">
     <g id="line2d_10">
      <g>
       <use xlink:href="#mda79cb030a" x="54" y="102.507213" style="stroke: #000000; stroke-width: 0.8"/>
      </g>
     </g>
     <g id="text_11">
      <!-- 0.8 -->
      <g transform="translate(31.096875 106.306432)scale(0.1 -0.1)">
       <use xlink:href="#DejaVuSans-30"/>
       <use xlink:href="#DejaVuSans-2e" x="63.623047"/>
       <use xlink:href="#DejaVuSans-38" x="95.410156"/>
      </g>
     </g>
    </g>
    <g id="text_12">
     <!-- gsv -->
     <g transform="translate(25.017187 223.658281)rotate(-90)scale(0.1 -0.1)">
      <defs>
       <path id="DejaVuSans-67" d="M 2906 1791 
Q 2906 2416 2648 2759 
Q 2391 3103 1925 3103 
Q 1463 3103 1205 2759 
Q 947 2416 947 1791 
Q 947 1169 1205 825 
Q 1463 481 1925 481 
Q 2391 481 2648 825 
Q 2906 1169 2906 1791 
z
M 3481 434 
Q 3481 -459 3084 -895 
Q 2688 -1331 1869 -1331 
Q 1566 -1331 1297 -1286 
Q 1028 -1241 775 -1147 
L 775 -588 
Q 1028 -725 1275 -790 
Q 1522 -856 1778 -856 
Q 2344 -856 2625 -561 
Q 2906 -266 2906 331 
L 2906 616 
Q 2728 306 2450 153 
Q 2172 0 1784 0 
Q 1141 0 747 490 
Q 353 981 353 1791 
Q 353 2603 747 3093 
Q 1141 3584 1784 3584 
Q 2172 3584 2450 3431 
Q 2728 3278 2906 2969 
L 2906 3500 
L 3481 3500 
L 3481 434 
z
" transform="scale(0.015625)"/>
       <path id="DejaVuSans-73" d="M 2834 3397 
L 2834 2853 
Q 2591 2978 2328 3040 
Q 2066 3103 1784 3103 
Q 1356 3103 1142 2972 
Q 928 2841 928 2578 
Q 928 2378 1081 2264 
Q 1234 2150 1697 2047 
L 1894 2003 
Q 2506 1872 2764 1633 
Q 3022 1394 3022 966 
Q 3022 478 2636 193 
Q 2250 -91 1575 -91 
Q 1294 -91 989 -36 
Q 684 19 347 128 
L 347 722 
Q 666 556 975 473 
Q 1284 391 1588 391 
Q 1994 391 2212 530 
Q 2431 669 2431 922 
Q 2431 1156 2273 1281 
Q 2116 1406 1581 1522 
L 1381 1569 
Q 847 1681 609 1914 
Q 372 2147 372 2553 
Q 372 3047 722 3315 
Q 1072 3584 1716 3584 
Q 2034 3584 2315 3537 
Q 2597 3491 2834 3397 
z
" transform="scale(0.015625)"/>
       <path id="DejaVuSans-76" d="M 191 3500 
L 800 3500 
L 1894 563 
L 2988 3500 
L 3597 3500 
L 2284 0 
L 1503 0 
L 191 3500 
z
" transform="scale(0.015625)"/>
      </defs>
      <use xlink:href="#DejaVuSans-67"/>
      <use xlink:href="#DejaVuSans-73" x="63.476562"/>
      <use xlink:href="#DejaVuSans-76" x="115.576172"/>
     </g>
    </g>
   </g>
   <g id="line2d_11">
    <path d="M 94.984778 314.13772 
L 96.824205 312.059688 
L 98.663632 309.981655 
L 100.503059 307.903622 
L 102.342486 305.82559 
L 104.181913 303.747557 
L 106.02134 301.669525 
L 107.860767 299.591492 
L 109.700194 297.51346 
L 111.539621 295.435427 
L 113.379048 293.357394 
L 115.218475 291.279362 
L 117.057902 289.201329 
L 118.897329 287.123297 
L 120.736756 285.045264 
L 122.576183 282.967231 
L 124.41561 280.889199 
L 126.255037 278.811166 
L 128.094464 276.733134 
L 129.933891 274.655101 
L 131.773318 272.577069 
L 133.612745 270.499036 
L 135.452172 268.421003 
L 137.291599 266.342971 
L 139.131026 264.264938 
L 140.970453 262.186906 
L 142.80988 260.108873 
L 144.649307 258.03084 
L 146.488734 255.952808 
L 148.328161 253.874775 
L 150.167588 251.796743 
L 152.007015 249.71871 
L 153.846442 247.640678 
L 155.685869 245.562645 
L 157.525296 243.484612 
L 159.364723 241.40658 
L 161.20415 239.328547 
L 163.043577 237.250515 
L 164.883004 235.172482 
L 166.722431 233.094449 
L 168.561858 231.016417 
L 170.401285 228.938384 
L 172.240712 226.860352 
L 174.080139 224.782319 
L 175.919566 222.704287 
L 177.758993 220.626254 
L 179.59842 218.548221 
L 181.437847 216.470189 
L 183.277274 214.392156 
L 185.116701 212.314124 
L 186.956128 210.236091 
L 188.795555 208.158058 
L 190.634982 206.080026 
L 192.474409 204.001993 
L 194.313836 201.923961 
L 196.153263 199.845928 
L 197.99269 197.767896 
L 199.832117 195.689863 
L 201.671544 193.61183 
L 203.510971 191.533798 
L 205.350398 189.455765 
L 207.189825 187.377733 
L 209.029252 185.2997 
L 210.868679 183.221667 
L 212.708106 181.143635 
L 214.547533 179.065602 
L 216.38696 176.98757 
L 218.226387 174.909537 
L 220.065814 172.831505 
L 221.905241 170.753472 
L 223.744668 168.675439 
L 225.584095 166.597407 
L 227.423522 164.519374 
L 229.262949 162.441342 
L 231.102376 160.363309 
L 232.941803 158.285276 
L 234.78123 156.207244 
L 236.620657 154.129211 
L 238.460084 152.051179 
L 240.299511 149.973146 
L 242.138938 147.895114 
L 243.978365 145.817081 
L 245.817792 143.739048 
L 247.657219 141.661016 
L 249.496646 139.582983 
L 251.336073 137.504951 
L 253.1755 135.426918 
L 255.014927 133.348885 
L 256.854354 131.270853 
L 258.693781 129.19282 
L 260.533208 127.114788 
L 262.372635 125.036755 
L 264.212062 122.958723 
L 266.051489 120.88069 
L 267.890916 118.802657 
L 269.730343 116.724625 
L 271.56977 114.646592 
L 273.409197 112.56856 
L 275.248624 110.490527 
L 277.088051 108.412494 
" clip-path="url(#pf1665a4c79)" style="fill: none; stroke: #000000; stroke-width: 2.25; stroke-linecap: square"/>
   </g>
   <g id="line2d_12">
    <path d="M 69.218182 363.174545 
L 373.581818 66.665455 
" clip-path="url(#pf1665a4c79)" style="fill: none; stroke-dasharray: 10,6; stroke-dashoffset: 0; stroke: #000000"/>
   </g>
   <g id="patch_3">
    <path d="M 54 378 
L 54 51.84 
" style="fill: none; stroke: #000000; stroke-width: 0.8; stroke-linejoin: miter; stroke-linecap: square"/>
   </g>
   <g id="patch_4">
    <path d="M 54 378 
L 388.8 378 
" style="fill: none; stroke: #000000; stroke-width: 0.8; stroke-linejoin: miter; stroke-linecap: square"/>
   </g>
   <g id="legend_1">
    <g id="patch_5">
     <path d="M 397.2 372 
L 545.76 372 
Q 548.16 372 548.16 369.6 
L 548.16 124.2075 
Q 548.16 121.8075 545.76 121.8075 
L 397.2 121.8075 
Q 394.8 121.8075 394.8 124.2075 
L 394.8 369.6 
Q 394.8 372 397.2 372 
z
" style="fill: #ffffff; opacity: 0.8; stroke: #cccccc; stroke-linejoin: miter"/>
    </g>
    <g id="text_13">
     <!-- topic -->
     <g transform="translate(433.2 135.725625)scale(0.12 -0.12)">
      <defs>
       <path id="DejaVuSans-74" d="M 1172 4494 
L 1172 3500 
L 2356 3500 
L 2356 3053 
L 1172 3053 
L 1172 1153 
Q 1172 725 1289 603 
Q 1406 481 1766 481 
L 2356 481 
L 2356 0 
L 1766 0 
Q 1100 0 847 248 
Q 594 497 594 1153 
L 594 3053 
L 172 3053 
L 172 3500 
L 594 3500 
L 594 4494 
L 1172 4494 
z
" transform="scale(0.015625)"/>
       <path id="DejaVuSans-63" d="M 3122 3366 
L 3122 2828 
Q 2878 2963 2633 3030 
Q 2388 3097 2138 3097 
Q 1578 3097 1268 2742 
Q 959 2388 959 1747 
Q 959 1106 1268 751 
Q 1578 397 2138 397 
Q 2388 397 2633 464 
Q 2878 531 3122 666 
L 3122 134 
Q 2881 22 2623 -34 
Q 2366 -91 2075 -91 
Q 1284 -91 818 406 
Q 353 903 353 1747 
Q 353 2603 823 3093 
Q 1294 3584 2113 3584 
Q 2378 3584 2631 3529 
Q 2884 3475 3122 3366 
z
" transform="scale(0.015625)"/>
      </defs>
      <use xlink:href="#DejaVuSans-74"/>
      <use xlink:href="#DejaVuSans-6f" x="39.208984"/>
      <use xlink:href="#DejaVuSans-70" x="100.390625"/>
      <use xlink:href="#DejaVuSans-69" x="163.867188"/>
      <use xlink:href="#DejaVuSans-63" x="191.650391"/>
     </g>
    </g>
    <g id="PathCollection_15">
     <defs>
      <path id="mb9b6b8e766" d="M 0 3 
C 0.795609 3 1.55874 2.683901 2.12132 2.12132 
C 2.683901 1.55874 3 0.795609 3 0 
C 3 -0.795609 2.683901 -1.55874 2.12132 -2.12132 
C 1.55874 -2.683901 0.795609 -3 0 -3 
C -0.795609 -3 -1.55874 -2.683901 -2.12132 -2.12132 
C -2.683901 -1.55874 -3 -0.795609 -3 0 
C -3 0.795609 -2.683901 1.55874 -2.12132 2.12132 
C -1.55874 2.683901 -0.795609 3 0 3 
z
" style="stroke: #f77189"/>
     </defs>
     <g>
      <use xlink:href="#mb9b6b8e766" x="411.6" y="150.189375" style="fill: #f77189; stroke: #f77189"/>
     </g>
    </g>
    <g id="text_14">
     <!-- Health -->
     <g transform="translate(433.2 153.339375)scale(0.12 -0.12)">
      <defs>
       <path id="DejaVuSans-48" d="M 628 4666 
L 1259 4666 
L 1259 2753 
L 3553 2753 
L 3553 4666 
L 4184 4666 
L 4184 0 
L 3553 0 
L 3553 2222 
L 1259 2222 
L 1259 0 
L 628 0 
L 628 4666 
z
" transform="scale(0.015625)"/>
       <path id="DejaVuSans-65" d="M 3597 1894 
L 3597 1613 
L 953 1613 
Q 991 1019 1311 708 
Q 1631 397 2203 397 
Q 2534 397 2845 478 
Q 3156 559 3463 722 
L 3463 178 
Q 3153 47 2828 -22 
Q 2503 -91 2169 -91 
Q 1331 -91 842 396 
Q 353 884 353 1716 
Q 353 2575 817 3079 
Q 1281 3584 2069 3584 
Q 2775 3584 3186 3129 
Q 3597 2675 3597 1894 
z
M 3022 2063 
Q 3016 2534 2758 2815 
Q 2500 3097 2075 3097 
Q 1594 3097 1305 2825 
Q 1016 2553 972 2059 
L 3022 2063 
z
" transform="scale(0.015625)"/>
       <path id="DejaVuSans-61" d="M 2194 1759 
Q 1497 1759 1228 1600 
Q 959 1441 959 1056 
Q 959 750 1161 570 
Q 1363 391 1709 391 
Q 2188 391 2477 730 
Q 2766 1069 2766 1631 
L 2766 1759 
L 2194 1759 
z
M 3341 1997 
L 3341 0 
L 2766 0 
L 2766 531 
Q 2569 213 2275 61 
Q 1981 -91 1556 -91 
Q 1019 -91 701 211 
Q 384 513 384 1019 
Q 384 1609 779 1909 
Q 1175 2209 1959 2209 
L 2766 2209 
L 2766 2266 
Q 2766 2663 2505 2880 
Q 2244 3097 1772 3097 
Q 1472 3097 1187 3025 
Q 903 2953 641 2809 
L 641 3341 
Q 956 3463 1253 3523 
Q 1550 3584 1831 3584 
Q 2591 3584 2966 3190 
Q 3341 2797 3341 1997 
z
" transform="scale(0.015625)"/>
       <path id="DejaVuSans-6c" d="M 603 4863 
L 1178 4863 
L 1178 0 
L 603 0 
L 603 4863 
z
" transform="scale(0.015625)"/>
       <path id="DejaVuSans-68" d="M 3513 2113 
L 3513 0 
L 2938 0 
L 2938 2094 
Q 2938 2591 2744 2837 
Q 2550 3084 2163 3084 
Q 1697 3084 1428 2787 
Q 1159 2491 1159 1978 
L 1159 0 
L 581 0 
L 581 4863 
L 1159 4863 
L 1159 2956 
Q 1366 3272 1645 3428 
Q 1925 3584 2291 3584 
Q 2894 3584 3203 3211 
Q 3513 2838 3513 2113 
z
" transform="scale(0.015625)"/>
      </defs>
      <use xlink:href="#DejaVuSans-48"/>
      <use xlink:href="#DejaVuSans-65" x="75.195312"/>
      <use xlink:href="#DejaVuSans-61" x="136.71875"/>
      <use xlink:href="#DejaVuSans-6c" x="197.998047"/>
      <use xlink:href="#DejaVuSans-74" x="225.78125"/>
      <use xlink:href="#DejaVuSans-68" x="264.990234"/>
     </g>
    </g>
    <g id="PathCollection_16">
     <defs>
      <path id="mdaec7a5ba9" d="M 0 3 
C 0.795609 3 1.55874 2.683901 2.12132 2.12132 
C 2.683901 1.55874 3 0.795609 3 0 
C 3 -0.795609 2.683901 -1.55874 2.12132 -2.12132 
C 1.55874 -2.683901 0.795609 -3 0 -3 
C -0.795609 -3 -1.55874 -2.683901 -2.12132 -2.12132 
C -2.683901 -1.55874 -3 -0.795609 -3 0 
C -3 0.795609 -2.683901 1.55874 -2.12132 2.12132 
C -1.55874 2.683901 -0.795609 3 0 3 
z
" style="stroke: #ae9d31"/>
     </defs>
     <g>
      <use xlink:href="#mdaec7a5ba9" x="411.6" y="167.803125" style="fill: #ae9d31; stroke: #ae9d31"/>
     </g>
    </g>
    <g id="text_15">
     <!-- Vehicle Travel -->
     <g transform="translate(433.2 170.953125)scale(0.12 -0.12)">
      <defs>
       <path id="DejaVuSans-56" d="M 1831 0 
L 50 4666 
L 709 4666 
L 2188 738 
L 3669 4666 
L 4325 4666 
L 2547 0 
L 1831 0 
z
" transform="scale(0.015625)"/>
       <path id="DejaVuSans-20" transform="scale(0.015625)"/>
       <path id="DejaVuSans-54" d="M -19 4666 
L 3928 4666 
L 3928 4134 
L 2272 4134 
L 2272 0 
L 1638 0 
L 1638 4134 
L -19 4134 
L -19 4666 
z
" transform="scale(0.015625)"/>
       <path id="DejaVuSans-72" d="M 2631 2963 
Q 2534 3019 2420 3045 
Q 2306 3072 2169 3072 
Q 1681 3072 1420 2755 
Q 1159 2438 1159 1844 
L 1159 0 
L 581 0 
L 581 3500 
L 1159 3500 
L 1159 2956 
Q 1341 3275 1631 3429 
Q 1922 3584 2338 3584 
Q 2397 3584 2469 3576 
Q 2541 3569 2628 3553 
L 2631 2963 
z
" transform="scale(0.015625)"/>
      </defs>
      <use xlink:href="#DejaVuSans-56"/>
      <use xlink:href="#DejaVuSans-65" x="60.658203"/>
      <use xlink:href="#DejaVuSans-68" x="122.181641"/>
      <use xlink:href="#DejaVuSans-69" x="185.560547"/>
      <use xlink:href="#DejaVuSans-63" x="213.34375"/>
      <use xlink:href="#DejaVuSans-6c" x="268.324219"/>
      <use xlink:href="#DejaVuSans-65" x="296.107422"/>
      <use xlink:href="#DejaVuSans-20" x="357.630859"/>
      <use xlink:href="#DejaVuSans-54" x="389.417969"/>
      <use xlink:href="#DejaVuSans-72" x="435.751953"/>
      <use xlink:href="#DejaVuSans-61" x="476.865234"/>
      <use xlink:href="#DejaVuSans-76" x="538.144531"/>
      <use xlink:href="#DejaVuSans-65" x="597.324219"/>
      <use xlink:href="#DejaVuSans-6c" x="658.847656"/>
     </g>
    </g>
    <g id="PathCollection_17">
     <defs>
      <path id="m877e3d0c1d" d="M 0 3 
C 0.795609 3 1.55874 2.683901 2.12132 2.12132 
C 2.683901 1.55874 3 0.795609 3 0 
C 3 -0.795609 2.683901 -1.55874 2.12132 -2.12132 
C 1.55874 -2.683901 0.795609 -3 0 -3 
C -0.795609 -3 -1.55874 -2.683901 -2.12132 -2.12132 
C -2.683901 -1.55874 -3 -0.795609 -3 0 
C -3 0.795609 -2.683901 1.55874 -2.12132 2.12132 
C -1.55874 2.683901 -0.795609 3 0 3 
z
" style="stroke: #33b07a"/>
     </defs>
     <g>
      <use xlink:href="#m877e3d0c1d" x="411.6" y="185.416875" style="fill: #33b07a; stroke: #33b07a"/>
     </g>
    </g>
    <g id="text_16">
     <!-- Crime -->
     <g transform="translate(433.2 188.566875)scale(0.12 -0.12)">
      <defs>
       <path id="DejaVuSans-43" d="M 4122 4306 
L 4122 3641 
Q 3803 3938 3442 4084 
Q 3081 4231 2675 4231 
Q 1875 4231 1450 3742 
Q 1025 3253 1025 2328 
Q 1025 1406 1450 917 
Q 1875 428 2675 428 
Q 3081 428 3442 575 
Q 3803 722 4122 1019 
L 4122 359 
Q 3791 134 3420 21 
Q 3050 -91 2638 -91 
Q 1578 -91 968 557 
Q 359 1206 359 2328 
Q 359 3453 968 4101 
Q 1578 4750 2638 4750 
Q 3056 4750 3426 4639 
Q 3797 4528 4122 4306 
z
" transform="scale(0.015625)"/>
       <path id="DejaVuSans-6d" d="M 3328 2828 
Q 3544 3216 3844 3400 
Q 4144 3584 4550 3584 
Q 5097 3584 5394 3201 
Q 5691 2819 5691 2113 
L 5691 0 
L 5113 0 
L 5113 2094 
Q 5113 2597 4934 2840 
Q 4756 3084 4391 3084 
Q 3944 3084 3684 2787 
Q 3425 2491 3425 1978 
L 3425 0 
L 2847 0 
L 2847 2094 
Q 2847 2600 2669 2842 
Q 2491 3084 2119 3084 
Q 1678 3084 1418 2786 
Q 1159 2488 1159 1978 
L 1159 0 
L 581 0 
L 581 3500 
L 1159 3500 
L 1159 2956 
Q 1356 3278 1631 3431 
Q 1906 3584 2284 3584 
Q 2666 3584 2933 3390 
Q 3200 3197 3328 2828 
z
" transform="scale(0.015625)"/>
      </defs>
      <use xlink:href="#DejaVuSans-43"/>
      <use xlink:href="#DejaVuSans-72" x="69.824219"/>
      <use xlink:href="#DejaVuSans-69" x="110.9375"/>
      <use xlink:href="#DejaVuSans-6d" x="138.720703"/>
      <use xlink:href="#DejaVuSans-65" x="236.132812"/>
     </g>
    </g>
    <g id="PathCollection_18">
     <defs>
      <path id="mad4ecfd875" d="M 0 3 
C 0.795609 3 1.55874 2.683901 2.12132 2.12132 
C 2.683901 1.55874 3 0.795609 3 0 
C 3 -0.795609 2.683901 -1.55874 2.12132 -2.12132 
C 1.55874 -2.683901 0.795609 -3 0 -3 
C -0.795609 -3 -1.55874 -2.683901 -2.12132 -2.12132 
C -2.683901 -1.55874 -3 -0.795609 -3 0 
C -3 0.795609 -2.683901 1.55874 -2.12132 2.12132 
C -1.55874 2.683901 -0.795609 3 0 3 
z
" style="stroke: #38a9c5"/>
     </defs>
     <g>
      <use xlink:href="#mad4ecfd875" x="411.6" y="203.030625" style="fill: #38a9c5; stroke: #38a9c5"/>
     </g>
    </g>
    <g id="text_17">
     <!-- Poverty -->
     <g transform="translate(433.2 206.180625)scale(0.12 -0.12)">
      <defs>
       <path id="DejaVuSans-50" d="M 1259 4147 
L 1259 2394 
L 2053 2394 
Q 2494 2394 2734 2622 
Q 2975 2850 2975 3272 
Q 2975 3691 2734 3919 
Q 2494 4147 2053 4147 
L 1259 4147 
z
M 628 4666 
L 2053 4666 
Q 2838 4666 3239 4311 
Q 3641 3956 3641 3272 
Q 3641 2581 3239 2228 
Q 2838 1875 2053 1875 
L 1259 1875 
L 1259 0 
L 628 0 
L 628 4666 
z
" transform="scale(0.015625)"/>
       <path id="DejaVuSans-79" d="M 2059 -325 
Q 1816 -950 1584 -1140 
Q 1353 -1331 966 -1331 
L 506 -1331 
L 506 -850 
L 844 -850 
Q 1081 -850 1212 -737 
Q 1344 -625 1503 -206 
L 1606 56 
L 191 3500 
L 800 3500 
L 1894 763 
L 2988 3500 
L 3597 3500 
L 2059 -325 
z
" transform="scale(0.015625)"/>
      </defs>
      <use xlink:href="#DejaVuSans-50"/>
      <use xlink:href="#DejaVuSans-6f" x="56.677734"/>
      <use xlink:href="#DejaVuSans-76" x="117.859375"/>
      <use xlink:href="#DejaVuSans-65" x="177.039062"/>
      <use xlink:href="#DejaVuSans-72" x="238.5625"/>
      <use xlink:href="#DejaVuSans-74" x="279.675781"/>
      <use xlink:href="#DejaVuSans-79" x="318.884766"/>
     </g>
    </g>
    <g id="PathCollection_19">
     <defs>
      <path id="m14d2b15b70" d="M 0 3 
C 0.795609 3 1.55874 2.683901 2.12132 2.12132 
C 2.683901 1.55874 3 0.795609 3 0 
C 3 -0.795609 2.683901 -1.55874 2.12132 -2.12132 
C 1.55874 -2.683901 0.795609 -3 0 -3 
C -0.795609 -3 -1.55874 -2.683901 -2.12132 -2.12132 
C -2.683901 -1.55874 -3 -0.795609 -3 0 
C -3 0.795609 -2.683901 1.55874 -2.12132 2.12132 
C -1.55874 2.683901 -0.795609 3 0 3 
z
" style="stroke: #cc7af4"/>
     </defs>
     <g>
      <use xlink:href="#m14d2b15b70" x="411.6" y="220.644375" style="fill: #cc7af4; stroke: #cc7af4"/>
     </g>
    </g>
    <g id="text_18">
     <!-- Non-vehicle Travel -->
     <g transform="translate(433.2 223.794375)scale(0.12 -0.12)">
      <defs>
       <path id="DejaVuSans-4e" d="M 628 4666 
L 1478 4666 
L 3547 763 
L 3547 4666 
L 4159 4666 
L 4159 0 
L 3309 0 
L 1241 3903 
L 1241 0 
L 628 0 
L 628 4666 
z
" transform="scale(0.015625)"/>
       <path id="DejaVuSans-6e" d="M 3513 2113 
L 3513 0 
L 2938 0 
L 2938 2094 
Q 2938 2591 2744 2837 
Q 2550 3084 2163 3084 
Q 1697 3084 1428 2787 
Q 1159 2491 1159 1978 
L 1159 0 
L 581 0 
L 581 3500 
L 1159 3500 
L 1159 2956 
Q 1366 3272 1645 3428 
Q 1925 3584 2291 3584 
Q 2894 3584 3203 3211 
Q 3513 2838 3513 2113 
z
" transform="scale(0.015625)"/>
       <path id="DejaVuSans-2d" d="M 313 2009 
L 1997 2009 
L 1997 1497 
L 313 1497 
L 313 2009 
z
" transform="scale(0.015625)"/>
      </defs>
      <use xlink:href="#DejaVuSans-4e"/>
      <use xlink:href="#DejaVuSans-6f" x="74.804688"/>
      <use xlink:href="#DejaVuSans-6e" x="135.986328"/>
      <use xlink:href="#DejaVuSans-2d" x="199.365234"/>
      <use xlink:href="#DejaVuSans-76" x="232.824219"/>
      <use xlink:href="#DejaVuSans-65" x="292.003906"/>
      <use xlink:href="#DejaVuSans-68" x="353.527344"/>
      <use xlink:href="#DejaVuSans-69" x="416.90625"/>
      <use xlink:href="#DejaVuSans-63" x="444.689453"/>
      <use xlink:href="#DejaVuSans-6c" x="499.669922"/>
      <use xlink:href="#DejaVuSans-65" x="527.453125"/>
      <use xlink:href="#DejaVuSans-20" x="588.976562"/>
      <use xlink:href="#DejaVuSans-54" x="620.763672"/>
      <use xlink:href="#DejaVuSans-72" x="667.097656"/>
      <use xlink:href="#DejaVuSans-61" x="708.210938"/>
      <use xlink:href="#DejaVuSans-76" x="769.490234"/>
      <use xlink:href="#DejaVuSans-65" x="828.669922"/>
      <use xlink:href="#DejaVuSans-6c" x="890.193359"/>
     </g>
    </g>
    <g id="text_19">
     <!-- city -->
     <g transform="translate(433.2 241.408125)scale(0.12 -0.12)">
      <use xlink:href="#DejaVuSans-63"/>
      <use xlink:href="#DejaVuSans-69" x="54.980469"/>
      <use xlink:href="#DejaVuSans-74" x="82.763672"/>
      <use xlink:href="#DejaVuSans-79" x="121.972656"/>
     </g>
    </g>
    <g id="PathCollection_20">
     <defs>
      <path id="m8a9e8bc553" d="M 0 3 
C 0.795609 3 1.55874 2.683901 2.12132 2.12132 
C 2.683901 1.55874 3 0.795609 3 0 
C 3 -0.795609 2.683901 -1.55874 2.12132 -2.12132 
C 1.55874 -2.683901 0.795609 -3 0 -3 
C -0.795609 -3 -1.55874 -2.683901 -2.12132 -2.12132 
C -2.683901 -1.55874 -3 -0.795609 -3 0 
C -3 0.795609 -2.683901 1.55874 -2.12132 2.12132 
C -1.55874 2.683901 -0.795609 3 0 3 
z
" style="stroke: #333333"/>
     </defs>
     <g>
      <use xlink:href="#m8a9e8bc553" x="411.6" y="255.871875" style="fill: #333333; stroke: #333333"/>
     </g>
    </g>
    <g id="text_20">
     <!-- boston -->
     <g transform="translate(433.2 259.021875)scale(0.12 -0.12)">
      <defs>
       <path id="DejaVuSans-62" d="M 3116 1747 
Q 3116 2381 2855 2742 
Q 2594 3103 2138 3103 
Q 1681 3103 1420 2742 
Q 1159 2381 1159 1747 
Q 1159 1113 1420 752 
Q 1681 391 2138 391 
Q 2594 391 2855 752 
Q 3116 1113 3116 1747 
z
M 1159 2969 
Q 1341 3281 1617 3432 
Q 1894 3584 2278 3584 
Q 2916 3584 3314 3078 
Q 3713 2572 3713 1747 
Q 3713 922 3314 415 
Q 2916 -91 2278 -91 
Q 1894 -91 1617 61 
Q 1341 213 1159 525 
L 1159 0 
L 581 0 
L 581 4863 
L 1159 4863 
L 1159 2969 
z
" transform="scale(0.015625)"/>
      </defs>
      <use xlink:href="#DejaVuSans-62"/>
      <use xlink:href="#DejaVuSans-6f" x="63.476562"/>
      <use xlink:href="#DejaVuSans-73" x="124.658203"/>
      <use xlink:href="#DejaVuSans-74" x="176.757812"/>
      <use xlink:href="#DejaVuSans-6f" x="215.966797"/>
      <use xlink:href="#DejaVuSans-6e" x="277.148438"/>
     </g>
    </g>
    <g id="PathCollection_21">
     <defs>
      <path id="mc65ce5fba3" d="M -1.5 3 
L 0 1.5 
L 1.5 3 
L 3 1.5 
L 1.5 0 
L 3 -1.5 
L 1.5 -3 
L 0 -1.5 
L -1.5 -3 
L -3 -1.5 
L -1.5 0 
L -3 1.5 
z
" style="stroke: #333333"/>
     </defs>
     <g>
      <use xlink:href="#mc65ce5fba3" x="411.6" y="273.485625" style="fill: #333333; stroke: #333333"/>
     </g>
    </g>
    <g id="text_21">
     <!-- chicago -->
     <g transform="translate(433.2 276.635625)scale(0.12 -0.12)">
      <use xlink:href="#DejaVuSans-63"/>
      <use xlink:href="#DejaVuSans-68" x="54.980469"/>
      <use xlink:href="#DejaVuSans-69" x="118.359375"/>
      <use xlink:href="#DejaVuSans-63" x="146.142578"/>
      <use xlink:href="#DejaVuSans-61" x="201.123047"/>
      <use xlink:href="#DejaVuSans-67" x="262.402344"/>
      <use xlink:href="#DejaVuSans-6f" x="325.878906"/>
     </g>
    </g>
    <g id="PathCollection_22">
     <defs>
      <path id="mfccee4cd40" d="M -2.12132 -2.12132 
L -2.12132 2.12132 
L 2.12132 2.12132 
L 2.12132 -2.12132 
z
" style="stroke: #333333"/>
     </defs>
     <g>
      <use xlink:href="#mfccee4cd40" x="411.6" y="291.099375" style="fill: #333333; stroke: #333333"/>
     </g>
    </g>
    <g id="text_22">
     <!-- losangeles -->
     <g transform="translate(433.2 294.249375)scale(0.12 -0.12)">
      <use xlink:href="#DejaVuSans-6c"/>
      <use xlink:href="#DejaVuSans-6f" x="27.783203"/>
      <use xlink:href="#DejaVuSans-73" x="88.964844"/>
      <use xlink:href="#DejaVuSans-61" x="141.064453"/>
      <use xlink:href="#DejaVuSans-6e" x="202.34375"/>
      <use xlink:href="#DejaVuSans-67" x="265.722656"/>
      <use xlink:href="#DejaVuSans-65" x="329.199219"/>
      <use xlink:href="#DejaVuSans-6c" x="390.722656"/>
      <use xlink:href="#DejaVuSans-65" x="418.505859"/>
      <use xlink:href="#DejaVuSans-73" x="480.029297"/>
     </g>
    </g>
    <g id="PathCollection_23">
     <defs>
      <path id="me725e0711f" d="M -1 3 
L 1 3 
L 1 1 
L 3 1 
L 3 -1 
L 1 -1 
L 1 -3 
L -1 -3 
L -1 -1 
L -3 -1 
L -3 1 
L -1 1 
z
" style="stroke: #333333"/>
     </defs>
     <g>
      <use xlink:href="#me725e0711f" x="411.6" y="308.713125" style="fill: #333333; stroke: #333333"/>
     </g>
    </g>
    <g id="text_23">
     <!-- miami -->
     <g transform="translate(433.2 311.863125)scale(0.12 -0.12)">
      <use xlink:href="#DejaVuSans-6d"/>
      <use xlink:href="#DejaVuSans-69" x="97.412109"/>
      <use xlink:href="#DejaVuSans-61" x="125.195312"/>
      <use xlink:href="#DejaVuSans-6d" x="186.474609"/>
      <use xlink:href="#DejaVuSans-69" x="283.886719"/>
     </g>
    </g>
    <g id="PathCollection_24">
     <defs>
      <path id="maa5a2b273f" d="M 0 -3 
L -3 -0 
L -0 3 
L 3 0 
z
" style="stroke: #333333"/>
     </defs>
     <g>
      <use xlink:href="#maa5a2b273f" x="411.6" y="326.326875" style="fill: #333333; stroke: #333333"/>
     </g>
    </g>
    <g id="text_24">
     <!-- newyork -->
     <g transform="translate(433.2 329.476875)scale(0.12 -0.12)">
      <defs>
       <path id="DejaVuSans-77" d="M 269 3500 
L 844 3500 
L 1563 769 
L 2278 3500 
L 2956 3500 
L 3675 769 
L 4391 3500 
L 4966 3500 
L 4050 0 
L 3372 0 
L 2619 2869 
L 1863 0 
L 1184 0 
L 269 3500 
z
" transform="scale(0.015625)"/>
       <path id="DejaVuSans-6b" d="M 581 4863 
L 1159 4863 
L 1159 1991 
L 2875 3500 
L 3609 3500 
L 1753 1863 
L 3688 0 
L 2938 0 
L 1159 1709 
L 1159 0 
L 581 0 
L 581 4863 
z
" transform="scale(0.015625)"/>
      </defs>
      <use xlink:href="#DejaVuSans-6e"/>
      <use xlink:href="#DejaVuSans-65" x="63.378906"/>
      <use xlink:href="#DejaVuSans-77" x="124.902344"/>
      <use xlink:href="#DejaVuSans-79" x="206.689453"/>
      <use xlink:href="#DejaVuSans-6f" x="265.869141"/>
      <use xlink:href="#DejaVuSans-72" x="327.050781"/>
      <use xlink:href="#DejaVuSans-6b" x="368.164062"/>
     </g>
    </g>
    <g id="PathCollection_25">
     <defs>
      <path id="m0635ea21e4" d="M 0 -3 
L -1.06066 -1.06066 
L -3 -0 
L -1.06066 1.06066 
L -0 3 
L 1.06066 1.06066 
L 3 0 
L 1.06066 -1.06066 
z
" style="stroke: #333333"/>
     </defs>
     <g>
      <use xlink:href="#m0635ea21e4" x="411.6" y="343.940625" style="fill: #333333; stroke: #333333"/>
     </g>
    </g>
    <g id="text_25">
     <!-- philadelphia -->
     <g transform="translate(433.2 347.090625)scale(0.12 -0.12)">
      <defs>
       <path id="DejaVuSans-64" d="M 2906 2969 
L 2906 4863 
L 3481 4863 
L 3481 0 
L 2906 0 
L 2906 525 
Q 2725 213 2448 61 
Q 2172 -91 1784 -91 
Q 1150 -91 751 415 
Q 353 922 353 1747 
Q 353 2572 751 3078 
Q 1150 3584 1784 3584 
Q 2172 3584 2448 3432 
Q 2725 3281 2906 2969 
z
M 947 1747 
Q 947 1113 1208 752 
Q 1469 391 1925 391 
Q 2381 391 2643 752 
Q 2906 1113 2906 1747 
Q 2906 2381 2643 2742 
Q 2381 3103 1925 3103 
Q 1469 3103 1208 2742 
Q 947 2381 947 1747 
z
" transform="scale(0.015625)"/>
      </defs>
      <use xlink:href="#DejaVuSans-70"/>
      <use xlink:href="#DejaVuSans-68" x="63.476562"/>
      <use xlink:href="#DejaVuSans-69" x="126.855469"/>
      <use xlink:href="#DejaVuSans-6c" x="154.638672"/>
      <use xlink:href="#DejaVuSans-61" x="182.421875"/>
      <use xlink:href="#DejaVuSans-64" x="243.701172"/>
      <use xlink:href="#DejaVuSans-65" x="307.177734"/>
      <use xlink:href="#DejaVuSans-6c" x="368.701172"/>
      <use xlink:href="#DejaVuSans-70" x="396.484375"/>
      <use xlink:href="#DejaVuSans-68" x="459.960938"/>
      <use xlink:href="#DejaVuSans-69" x="523.339844"/>
      <use xlink:href="#DejaVuSans-61" x="551.123047"/>
     </g>
    </g>
    <g id="PathCollection_26">
     <defs>
      <path id="ma1df452612" d="M 0 -3 
L -3 3 
L 3 3 
z
" style="stroke: #333333"/>
     </defs>
     <g>
      <use xlink:href="#ma1df452612" x="411.6" y="361.554375" style="fill: #333333; stroke: #333333"/>
     </g>
    </g>
    <g id="text_26">
     <!-- sanfrancisco -->
     <g transform="translate(433.2 364.704375)scale(0.12 -0.12)">
      <defs>
       <path id="DejaVuSans-66" d="M 2375 4863 
L 2375 4384 
L 1825 4384 
Q 1516 4384 1395 4259 
Q 1275 4134 1275 3809 
L 1275 3500 
L 2222 3500 
L 2222 3053 
L 1275 3053 
L 1275 0 
L 697 0 
L 697 3053 
L 147 3053 
L 147 3500 
L 697 3500 
L 697 3744 
Q 697 4328 969 4595 
Q 1241 4863 1831 4863 
L 2375 4863 
z
" transform="scale(0.015625)"/>
      </defs>
      <use xlink:href="#DejaVuSans-73"/>
      <use xlink:href="#DejaVuSans-61" x="52.099609"/>
      <use xlink:href="#DejaVuSans-6e" x="113.378906"/>
      <use xlink:href="#DejaVuSans-66" x="176.757812"/>
      <use xlink:href="#DejaVuSans-72" x="211.962891"/>
      <use xlink:href="#DejaVuSans-61" x="253.076172"/>
      <use xlink:href="#DejaVuSans-6e" x="314.355469"/>
      <use xlink:href="#DejaVuSans-63" x="377.734375"/>
      <use xlink:href="#DejaVuSans-69" x="432.714844"/>
      <use xlink:href="#DejaVuSans-73" x="460.498047"/>
      <use xlink:href="#DejaVuSans-63" x="512.597656"/>
      <use xlink:href="#DejaVuSans-6f" x="567.578125"/>
     </g>
    </g>
   </g>
  </g>
 </g>
 <defs>
  <clipPath id="pf1665a4c79">
   <rect x="54" y="51.84" width="334.8" height="326.16"/>
  </clipPath>
 </defs>
</svg>
