<?xml version="1.0" encoding="utf-8" standalone="no"?>
<!DOCTYPE svg PUBLIC "-//W3C//DTD SVG 1.1//EN"
  "http://www.w3.org/Graphics/SVG/1.1/DTD/svg11.dtd">
<svg xmlns:xlink="http://www.w3.org/1999/xlink" width="288pt" height="288pt" viewBox="0 0 288 288" xmlns="http://www.w3.org/2000/svg" version="1.1">
 <metadata>
  <rdf:RDF xmlns:dc="http://purl.org/dc/elements/1.1/" xmlns:cc="http://creativecommons.org/ns#" xmlns:rdf="http://www.w3.org/1999/02/22-rdf-syntax-ns#">
   <cc:Work>
    <dc:type rdf:resource="http://purl.org/dc/dcmitype/StillImage"/>
    <dc:date>2023-03-16T23:16:11.746315</dc:date>
    <dc:format>image/svg+xml</dc:format>
    <dc:creator>
     <cc:Agent>
      <dc:title>Matplotlib v3.5.1, https://matplotlib.org/</dc:title>
     </cc:Agent>
    </dc:creator>
   </cc:Work>
  </rdf:RDF>
 </metadata>
 <defs>
  <style type="text/css">*{stroke-linejoin: round; stroke-linecap: butt}</style>
 </defs>
 <g id="figure_1">
  <g id="patch_1">
   <path d="M 0 288 
L 288 288 
L 288 0 
L 0 0 
L 0 288 
z
" style="fill: none"/>
  </g>
  <g id="axes_1">
   <g id="patch_2">
    <path d="M 36 252 
L 259.2 252 
L 259.2 34.56 
L 36 34.56 
z
" style="fill: #ffffff"/>
   </g>
   <g id="PathCollection_1">
    <path d="M 67.203859 178.756163 
C 68.529875 178.756163 69.801759 178.229332 70.739393 177.291697 
C 71.677028 176.354063 72.203859 175.082179 72.203859 173.756163 
C 72.203859 172.430148 71.677028 171.158264 70.739393 170.220629 
C 69.801759 169.282995 68.529875 168.756163 67.203859 168.756163 
C 65.877844 168.756163 64.60596 169.282995 63.668325 170.220629 
C 62.730691 171.158264 62.203859 172.430148 62.203859 173.756163 
C 62.203859 175.082179 62.730691 176.354063 63.668325 177.291697 
C 64.60596 178.229332 65.877844 178.756163 67.203859 178.756163 
z
" clip-path="url(#p7aa9c07914)" style="fill: #f77189; stroke: #ffffff; stroke-width: 0.8"/>
    <path d="M 136.187103 155.645721 
C 137.513118 155.645721 138.785002 155.118889 139.722637 154.181255 
C 140.660271 153.24362 141.187103 151.971736 141.187103 150.645721 
C 141.187103 149.319705 140.660271 148.047822 139.722637 147.110187 
C 138.785002 146.172552 137.513118 145.645721 136.187103 145.645721 
C 134.861087 145.645721 133.589203 146.172552 132.651569 147.110187 
C 131.713934 148.047822 131.187103 149.319705 131.187103 150.645721 
C 131.187103 151.971736 131.713934 153.24362 132.651569 154.181255 
C 133.589203 155.118889 134.861087 155.645721 136.187103 155.645721 
z
" clip-path="url(#p7aa9c07914)" style="fill: #f77189; stroke: #ffffff; stroke-width: 0.8"/>
    <path d="M 48.065431 194.971708 
C 49.391446 194.971708 50.66333 194.444876 51.600965 193.507242 
C 52.538599 192.569607 53.065431 191.297723 53.065431 189.971708 
C 53.065431 188.645692 52.538599 187.373809 51.600965 186.436174 
C 50.66333 185.498539 49.391446 184.971708 48.065431 184.971708 
C 46.739415 184.971708 45.467532 185.498539 44.529897 186.436174 
C 43.592262 187.373809 43.065431 188.645692 43.065431 189.971708 
C 43.065431 191.297723 43.592262 192.569607 44.529897 193.507242 
C 45.467532 194.444876 46.739415 194.971708 48.065431 194.971708 
z
" clip-path="url(#p7aa9c07914)" style="fill: #f77189; stroke: #ffffff; stroke-width: 0.8"/>
    <path d="M 145.496554 104.170253 
C 146.822569 104.170253 148.094453 103.643422 149.032088 102.705787 
C 149.969722 101.768153 150.496554 100.496269 150.496554 99.170253 
C 150.496554 97.844238 149.969722 96.572354 149.032088 95.63472 
C 148.094453 94.697085 146.822569 94.170253 145.496554 94.170253 
C 144.170538 94.170253 142.898654 94.697085 141.96102 95.63472 
C 141.023385 96.572354 140.496554 97.844238 140.496554 99.170253 
C 140.496554 100.496269 141.023385 101.768153 141.96102 102.705787 
C 142.898654 103.643422 144.170538 104.170253 145.496554 104.170253 
z
" clip-path="url(#p7aa9c07914)" style="fill: #ae9d31; stroke: #ffffff; stroke-width: 0.8"/>
    <path d="M 203.613994 113.939384 
C 204.940009 113.939384 206.211893 113.412552 207.149528 112.474918 
C 208.087162 111.537283 208.613994 110.265399 208.613994 108.939384 
C 208.613994 107.613368 208.087162 106.341485 207.149528 105.40385 
C 206.211893 104.466215 204.940009 103.939384 203.613994 103.939384 
C 202.287978 103.939384 201.016094 104.466215 200.07846 105.40385 
C 199.140825 106.341485 198.613994 107.613368 198.613994 108.939384 
C 198.613994 110.265399 199.140825 111.537283 200.07846 112.474918 
C 201.016094 113.412552 202.287978 113.939384 203.613994 113.939384 
z
" clip-path="url(#p7aa9c07914)" style="fill: #ae9d31; stroke: #ffffff; stroke-width: 0.8"/>
    <path d="M 122.317691 153.074196 
C 123.643706 153.074196 124.91559 152.547365 125.853225 151.60973 
C 126.790859 150.672096 127.317691 149.400212 127.317691 148.074196 
C 127.317691 146.748181 126.790859 145.476297 125.853225 144.538662 
C 124.91559 143.601028 123.643706 143.074196 122.317691 143.074196 
C 120.991675 143.074196 119.719791 143.601028 118.782157 144.538662 
C 117.844522 145.476297 117.317691 146.748181 117.317691 148.074196 
C 117.317691 149.400212 117.844522 150.672096 118.782157 151.60973 
C 119.719791 152.547365 120.991675 153.074196 122.317691 153.074196 
z
" clip-path="url(#p7aa9c07914)" style="fill: #ae9d31; stroke: #ffffff; stroke-width: 0.8"/>
    <path d="M 217.93618 99.044257 
C 219.262196 99.044257 220.53408 98.517425 221.471714 97.579791 
C 222.409349 96.642156 222.93618 95.370272 222.93618 94.044257 
C 222.93618 92.718241 222.409349 91.446357 221.471714 90.508723 
C 220.53408 89.571088 219.262196 89.044257 217.93618 89.044257 
C 216.610165 89.044257 215.338281 89.571088 214.400646 90.508723 
C 213.463012 91.446357 212.93618 92.718241 212.93618 94.044257 
C 212.93618 95.370272 213.463012 96.642156 214.400646 97.579791 
C 215.338281 98.517425 216.610165 99.044257 217.93618 99.044257 
z
" clip-path="url(#p7aa9c07914)" style="fill: #ae9d31; stroke: #ffffff; stroke-width: 0.8"/>
    <path d="M 202.996667 81.537243 
C 204.322683 81.537243 205.594567 81.010411 206.532201 80.072777 
C 207.469836 79.135142 207.996667 77.863258 207.996667 76.537243 
C 207.996667 75.211227 207.469836 73.939344 206.532201 73.001709 
C 205.594567 72.064074 204.322683 71.537243 202.996667 71.537243 
C 201.670652 71.537243 200.398768 72.064074 199.461134 73.001709 
C 198.523499 73.939344 197.996667 75.211227 197.996667 76.537243 
C 197.996667 77.863258 198.523499 79.135142 199.461134 80.072777 
C 200.398768 81.010411 201.670652 81.537243 202.996667 81.537243 
z
" clip-path="url(#p7aa9c07914)" style="fill: #ae9d31; stroke: #ffffff; stroke-width: 0.8"/>
    <path d="M 100.008787 206.171011 
C 101.334803 206.171011 102.606686 205.64418 103.544321 204.706545 
C 104.481955 203.768911 105.008787 202.497027 105.008787 201.171011 
C 105.008787 199.844996 104.481955 198.573112 103.544321 197.635477 
C 102.606686 196.697843 101.334803 196.171011 100.008787 196.171011 
C 98.682772 196.171011 97.410888 196.697843 96.473253 197.635477 
C 95.535619 198.573112 95.008787 199.844996 95.008787 201.171011 
C 95.008787 202.497027 95.535619 203.768911 96.473253 204.706545 
C 97.410888 205.64418 98.682772 206.171011 100.008787 206.171011 
z
" clip-path="url(#p7aa9c07914)" style="fill: #33b07a; stroke: #ffffff; stroke-width: 0.8"/>
    <path d="M 98.69716 169.336248 
C 100.023175 169.336248 101.295059 168.809416 102.232694 167.871782 
C 103.170328 166.934147 103.69716 165.662263 103.69716 164.336248 
C 103.69716 163.010232 103.170328 161.738348 102.232694 160.800714 
C 101.295059 159.863079 100.023175 159.336248 98.69716 159.336248 
C 97.371144 159.336248 96.09926 159.863079 95.161626 160.800714 
C 94.223991 161.738348 93.69716 163.010232 93.69716 164.336248 
C 93.69716 165.662263 94.223991 166.934147 95.161626 167.871782 
C 96.09926 168.809416 97.371144 169.336248 98.69716 169.336248 
z
" clip-path="url(#p7aa9c07914)" style="fill: #38a9c5; stroke: #ffffff; stroke-width: 0.8"/>
    <path d="M 67.878555 165.618993 
C 69.204571 165.618993 70.476455 165.092161 71.414089 164.154527 
C 72.351724 163.216892 72.878555 161.945008 72.878555 160.618993 
C 72.878555 159.292977 72.351724 158.021093 71.414089 157.083459 
C 70.476455 156.145824 69.204571 155.618993 67.878555 155.618993 
C 66.55254 155.618993 65.280656 156.145824 64.343021 157.083459 
C 63.405387 158.021093 62.878555 159.292977 62.878555 160.618993 
C 62.878555 161.945008 63.405387 163.216892 64.343021 164.154527 
C 65.280656 165.092161 66.55254 165.618993 67.878555 165.618993 
z
" clip-path="url(#p7aa9c07914)" style="fill: #f77189; stroke: #ffffff; stroke-width: 0.8"/>
    <path d="M 94.687508 179.89601 
C 96.013523 179.89601 97.285407 179.369179 98.223042 178.431544 
C 99.160676 177.49391 99.687508 176.222026 99.687508 174.89601 
C 99.687508 173.569995 99.160676 172.298111 98.223042 171.360477 
C 97.285407 170.422842 96.013523 169.89601 94.687508 169.89601 
C 93.361492 169.89601 92.089608 170.422842 91.151974 171.360477 
C 90.214339 172.298111 89.687508 173.569995 89.687508 174.89601 
C 89.687508 176.222026 90.214339 177.49391 91.151974 178.431544 
C 92.089608 179.369179 93.361492 179.89601 94.687508 179.89601 
z
" clip-path="url(#p7aa9c07914)" style="fill: #f77189; stroke: #ffffff; stroke-width: 0.8"/>
    <path d="M 46.460887 216.282697 
C 47.786902 216.282697 49.058786 215.755866 49.996421 214.818231 
C 50.934055 213.880597 51.460887 212.608713 51.460887 211.282697 
C 51.460887 209.956682 50.934055 208.684798 49.996421 207.747163 
C 49.058786 206.809529 47.786902 206.282697 46.460887 206.282697 
C 45.134871 206.282697 43.862988 206.809529 42.925353 207.747163 
C 41.987718 208.684798 41.460887 209.956682 41.460887 211.282697 
C 41.460887 212.608713 41.987718 213.880597 42.925353 214.818231 
C 43.862988 215.755866 45.134871 216.282697 46.460887 216.282697 
z
" clip-path="url(#p7aa9c07914)" style="fill: #f77189; stroke: #ffffff; stroke-width: 0.8"/>
    <path d="M 54.213602 202.890308 
C 55.539618 202.890308 56.811501 202.363477 57.749136 201.425842 
C 58.686771 200.488208 59.213602 199.216324 59.213602 197.890308 
C 59.213602 196.564293 58.686771 195.292409 57.749136 194.354774 
C 56.811501 193.41714 55.539618 192.890308 54.213602 192.890308 
C 52.887587 192.890308 51.615703 193.41714 50.678068 194.354774 
C 49.740434 195.292409 49.213602 196.564293 49.213602 197.890308 
C 49.213602 199.216324 49.740434 200.488208 50.678068 201.425842 
C 51.615703 202.363477 52.887587 202.890308 54.213602 202.890308 
z
" clip-path="url(#p7aa9c07914)" style="fill: #f77189; stroke: #ffffff; stroke-width: 0.8"/>
    <path d="M 111.479617 180.289267 
C 112.805633 180.289267 114.077516 179.762436 115.015151 178.824801 
C 115.952785 177.887167 116.479617 176.615283 116.479617 175.289267 
C 116.479617 173.963252 115.952785 172.691368 115.015151 171.753733 
C 114.077516 170.816099 112.805633 170.289267 111.479617 170.289267 
C 110.153602 170.289267 108.881718 170.816099 107.944083 171.753733 
C 107.006449 172.691368 106.479617 173.963252 106.479617 175.289267 
C 106.479617 176.615283 107.006449 177.887167 107.944083 178.824801 
C 108.881718 179.762436 110.153602 180.289267 111.479617 180.289267 
z
" clip-path="url(#p7aa9c07914)" style="fill: #38a9c5; stroke: #ffffff; stroke-width: 0.8"/>
    <path d="M 124.140523 136.966068 
C 125.466539 136.966068 126.738423 136.439237 127.676057 135.501602 
C 128.613692 134.563968 129.140523 133.292084 129.140523 131.966068 
C 129.140523 130.640053 128.613692 129.368169 127.676057 128.430534 
C 126.738423 127.4929 125.466539 126.966068 124.140523 126.966068 
C 122.814508 126.966068 121.542624 127.4929 120.604989 128.430534 
C 119.667355 129.368169 119.140523 130.640053 119.140523 131.966068 
C 119.140523 133.292084 119.667355 134.563968 120.604989 135.501602 
C 121.542624 136.439237 122.814508 136.966068 124.140523 136.966068 
z
" clip-path="url(#p7aa9c07914)" style="fill: #cc7af4; stroke: #ffffff; stroke-width: 0.8"/>
    <path d="M 102.955891 113.084854 
C 104.281906 113.084854 105.55379 112.558023 106.491424 111.620388 
C 107.429059 110.682754 107.955891 109.41087 107.955891 108.084854 
C 107.955891 106.758839 107.429059 105.486955 106.491424 104.54932 
C 105.55379 103.611686 104.281906 103.084854 102.955891 103.084854 
C 101.629875 103.084854 100.357991 103.611686 99.420357 104.54932 
C 98.482722 105.486955 97.955891 106.758839 97.955891 108.084854 
C 97.955891 109.41087 98.482722 110.682754 99.420357 111.620388 
C 100.357991 112.558023 101.629875 113.084854 102.955891 113.084854 
z
" clip-path="url(#p7aa9c07914)" style="fill: #cc7af4; stroke: #ffffff; stroke-width: 0.8"/>
    <path d="M 67.89623 149.143791 
L 70.39623 146.643791 
L 72.89623 149.143791 
L 75.39623 146.643791 
L 72.89623 144.143791 
L 75.39623 141.643791 
L 72.89623 139.143791 
L 70.39623 141.643791 
L 67.89623 139.143791 
L 65.39623 141.643791 
L 67.89623 144.143791 
L 65.39623 146.643791 
z
" clip-path="url(#p7aa9c07914)" style="fill: #f77189; stroke: #ffffff; stroke-width: 0.8"/>
    <path d="M 83.60192 166.849675 
L 86.10192 164.349675 
L 88.60192 166.849675 
L 91.10192 164.349675 
L 88.60192 161.849675 
L 91.10192 159.349675 
L 88.60192 156.849675 
L 86.10192 159.349675 
L 83.60192 156.849675 
L 81.10192 159.349675 
L 83.60192 161.849675 
L 81.10192 164.349675 
z
" clip-path="url(#p7aa9c07914)" style="fill: #f77189; stroke: #ffffff; stroke-width: 0.8"/>
    <path d="M 64.628106 137.563684 
L 67.128106 135.063684 
L 69.628106 137.563684 
L 72.128106 135.063684 
L 69.628106 132.563684 
L 72.128106 130.063684 
L 69.628106 127.563684 
L 67.128106 130.063684 
L 64.628106 127.563684 
L 62.128106 130.063684 
L 64.628106 132.563684 
L 62.128106 135.063684 
z
" clip-path="url(#p7aa9c07914)" style="fill: #f77189; stroke: #ffffff; stroke-width: 0.8"/>
    <path d="M 120.849984 112.432655 
L 123.349984 109.932655 
L 125.849984 112.432655 
L 128.349984 109.932655 
L 125.849984 107.432655 
L 128.349984 104.932655 
L 125.849984 102.432655 
L 123.349984 104.932655 
L 120.849984 102.432655 
L 118.349984 104.932655 
L 120.849984 107.432655 
L 118.349984 109.932655 
z
" clip-path="url(#p7aa9c07914)" style="fill: #ae9d31; stroke: #ffffff; stroke-width: 0.8"/>
    <path d="M 148.829219 118.448204 
L 151.329219 115.948204 
L 153.829219 118.448204 
L 156.329219 115.948204 
L 153.829219 113.448204 
L 156.329219 110.948204 
L 153.829219 108.448204 
L 151.329219 110.948204 
L 148.829219 108.448204 
L 146.329219 110.948204 
L 148.829219 113.448204 
L 146.329219 115.948204 
z
" clip-path="url(#p7aa9c07914)" style="fill: #ae9d31; stroke: #ffffff; stroke-width: 0.8"/>
    <path d="M 106.549805 146.116849 
L 109.049805 143.616849 
L 111.549805 146.116849 
L 114.049805 143.616849 
L 111.549805 141.116849 
L 114.049805 138.616849 
L 111.549805 136.116849 
L 109.049805 138.616849 
L 106.549805 136.116849 
L 104.049805 138.616849 
L 106.549805 141.116849 
L 104.049805 143.616849 
z
" clip-path="url(#p7aa9c07914)" style="fill: #ae9d31; stroke: #ffffff; stroke-width: 0.8"/>
    <path d="M 156.557214 108.239238 
L 159.057214 105.739238 
L 161.557214 108.239238 
L 164.057214 105.739238 
L 161.557214 103.239238 
L 164.057214 100.739238 
L 161.557214 98.239238 
L 159.057214 100.739238 
L 156.557214 98.239238 
L 154.057214 100.739238 
L 156.557214 103.239238 
L 154.057214 105.739238 
z
" clip-path="url(#p7aa9c07914)" style="fill: #ae9d31; stroke: #ffffff; stroke-width: 0.8"/>
    <path d="M 137.098241 106.404855 
L 139.598241 103.904855 
L 142.098241 106.404855 
L 144.598241 103.904855 
L 142.098241 101.404855 
L 144.598241 98.904855 
L 142.098241 96.404855 
L 139.598241 98.904855 
L 137.098241 96.404855 
L 134.598241 98.904855 
L 137.098241 101.404855 
L 134.598241 103.904855 
z
" clip-path="url(#p7aa9c07914)" style="fill: #ae9d31; stroke: #ffffff; stroke-width: 0.8"/>
    <path d="M 74.86661 153.686003 
L 77.36661 151.186003 
L 79.86661 153.686003 
L 82.36661 151.186003 
L 79.86661 148.686003 
L 82.36661 146.186003 
L 79.86661 143.686003 
L 77.36661 146.186003 
L 74.86661 143.686003 
L 72.36661 146.186003 
L 74.86661 148.686003 
L 72.36661 151.186003 
z
" clip-path="url(#p7aa9c07914)" style="fill: #33b07a; stroke: #ffffff; stroke-width: 0.8"/>
    <path d="M 69.447928 152.446765 
L 71.947928 149.946765 
L 74.447928 152.446765 
L 76.947928 149.946765 
L 74.447928 147.446765 
L 76.947928 144.946765 
L 74.447928 142.446765 
L 71.947928 144.946765 
L 69.447928 142.446765 
L 66.947928 144.946765 
L 69.447928 147.446765 
L 66.947928 149.946765 
z
" clip-path="url(#p7aa9c07914)" style="fill: #38a9c5; stroke: #ffffff; stroke-width: 0.8"/>
    <path d="M 58.609608 140.35287 
L 61.109608 137.85287 
L 63.609608 140.35287 
L 66.109608 137.85287 
L 63.609608 135.35287 
L 66.109608 132.85287 
L 63.609608 130.35287 
L 61.109608 132.85287 
L 58.609608 130.35287 
L 56.109608 132.85287 
L 58.609608 135.35287 
L 56.109608 137.85287 
z
" clip-path="url(#p7aa9c07914)" style="fill: #f77189; stroke: #ffffff; stroke-width: 0.8"/>
    <path d="M 63.396951 153.061001 
L 65.896951 150.561001 
L 68.396951 153.061001 
L 70.896951 150.561001 
L 68.396951 148.061001 
L 70.896951 145.561001 
L 68.396951 143.061001 
L 65.896951 145.561001 
L 63.396951 143.061001 
L 60.896951 145.561001 
L 63.396951 148.061001 
L 60.896951 150.561001 
z
" clip-path="url(#p7aa9c07914)" style="fill: #f77189; stroke: #ffffff; stroke-width: 0.8"/>
    <path d="M 55.355197 150.323901 
L 57.855197 147.823901 
L 60.355197 150.323901 
L 62.855197 147.823901 
L 60.355197 145.323901 
L 62.855197 142.823901 
L 60.355197 140.323901 
L 57.855197 142.823901 
L 55.355197 140.323901 
L 52.855197 142.823901 
L 55.355197 145.323901 
L 52.855197 147.823901 
z
" clip-path="url(#p7aa9c07914)" style="fill: #f77189; stroke: #ffffff; stroke-width: 0.8"/>
    <path d="M 61.541799 141.408675 
L 64.041799 138.908675 
L 66.541799 141.408675 
L 69.041799 138.908675 
L 66.541799 136.408675 
L 69.041799 133.908675 
L 66.541799 131.408675 
L 64.041799 133.908675 
L 61.541799 131.408675 
L 59.041799 133.908675 
L 61.541799 136.408675 
L 59.041799 138.908675 
z
" clip-path="url(#p7aa9c07914)" style="fill: #f77189; stroke: #ffffff; stroke-width: 0.8"/>
    <path d="M 71.843901 162.518307 
L 74.343901 160.018307 
L 76.843901 162.518307 
L 79.343901 160.018307 
L 76.843901 157.518307 
L 79.343901 155.018307 
L 76.843901 152.518307 
L 74.343901 155.018307 
L 71.843901 152.518307 
L 69.343901 155.018307 
L 71.843901 157.518307 
L 69.343901 160.018307 
z
" clip-path="url(#p7aa9c07914)" style="fill: #38a9c5; stroke: #ffffff; stroke-width: 0.8"/>
    <path d="M 115.814941 126.238151 
L 118.314941 123.738151 
L 120.814941 126.238151 
L 123.314941 123.738151 
L 120.814941 121.238151 
L 123.314941 118.738151 
L 120.814941 116.238151 
L 118.314941 118.738151 
L 115.814941 116.238151 
L 113.314941 118.738151 
L 115.814941 121.238151 
L 113.314941 123.738151 
z
" clip-path="url(#p7aa9c07914)" style="fill: #cc7af4; stroke: #ffffff; stroke-width: 0.8"/>
    <path d="M 79.485815 167.24696 
L 81.985815 164.74696 
L 84.485815 167.24696 
L 86.985815 164.74696 
L 84.485815 162.24696 
L 86.985815 159.74696 
L 84.485815 157.24696 
L 81.985815 159.74696 
L 79.485815 157.24696 
L 76.985815 159.74696 
L 79.485815 162.24696 
L 76.985815 164.74696 
z
" clip-path="url(#p7aa9c07914)" style="fill: #cc7af4; stroke: #ffffff; stroke-width: 0.8"/>
    <path d="M 47.98712 218.900284 
L 47.98712 225.971352 
L 55.058188 225.971352 
L 55.058188 218.900284 
z
" clip-path="url(#p7aa9c07914)" style="fill: #f77189; stroke: #ffffff; stroke-width: 0.8"/>
    <path d="M 90.04937 158.149789 
L 90.04937 165.220857 
L 97.120437 165.220857 
L 97.120437 158.149789 
z
" clip-path="url(#p7aa9c07914)" style="fill: #f77189; stroke: #ffffff; stroke-width: 0.8"/>
    <path d="M 51.92529 154.81299 
L 51.92529 161.884057 
L 58.996357 161.884057 
L 58.996357 154.81299 
z
" clip-path="url(#p7aa9c07914)" style="fill: #f77189; stroke: #ffffff; stroke-width: 0.8"/>
    <path d="M 114.886869 140.24316 
L 114.886869 147.314228 
L 121.957936 147.314228 
L 121.957936 140.24316 
z
" clip-path="url(#p7aa9c07914)" style="fill: #ae9d31; stroke: #ffffff; stroke-width: 0.8"/>
    <path d="M 63.971646 143.723516 
L 63.971646 150.794584 
L 71.042714 150.794584 
L 71.042714 143.723516 
z
" clip-path="url(#p7aa9c07914)" style="fill: #ae9d31; stroke: #ffffff; stroke-width: 0.8"/>
    <path d="M 129.248526 136.883321 
L 129.248526 143.954389 
L 136.319594 143.954389 
L 136.319594 136.883321 
z
" clip-path="url(#p7aa9c07914)" style="fill: #ae9d31; stroke: #ffffff; stroke-width: 0.8"/>
    <path d="M 113.284472 121.195722 
L 113.284472 128.26679 
L 120.35554 128.26679 
L 120.35554 121.195722 
z
" clip-path="url(#p7aa9c07914)" style="fill: #ae9d31; stroke: #ffffff; stroke-width: 0.8"/>
    <path d="M 98.015309 168.133472 
L 98.015309 175.20454 
L 105.086377 175.20454 
L 105.086377 168.133472 
z
" clip-path="url(#p7aa9c07914)" style="fill: #33b07a; stroke: #ffffff; stroke-width: 0.8"/>
    <path d="M 109.374121 140.442594 
L 109.374121 147.513662 
L 116.445189 147.513662 
L 116.445189 140.442594 
z
" clip-path="url(#p7aa9c07914)" style="fill: #38a9c5; stroke: #ffffff; stroke-width: 0.8"/>
    <path d="M 77.871041 112.894043 
L 77.871041 119.965111 
L 84.942109 119.965111 
L 84.942109 112.894043 
z
" clip-path="url(#p7aa9c07914)" style="fill: #f77189; stroke: #ffffff; stroke-width: 0.8"/>
    <path d="M 91.142481 125.609629 
L 91.142481 132.680697 
L 98.213549 132.680697 
L 98.213549 125.609629 
z
" clip-path="url(#p7aa9c07914)" style="fill: #f77189; stroke: #ffffff; stroke-width: 0.8"/>
    <path d="M 67.168473 137.826764 
L 67.168473 144.897832 
L 74.23954 144.897832 
L 74.23954 137.826764 
z
" clip-path="url(#p7aa9c07914)" style="fill: #f77189; stroke: #ffffff; stroke-width: 0.8"/>
    <path d="M 69.272147 127.136798 
L 69.272147 134.207866 
L 76.343215 134.207866 
L 76.343215 127.136798 
z
" clip-path="url(#p7aa9c07914)" style="fill: #f77189; stroke: #ffffff; stroke-width: 0.8"/>
    <path d="M 95.358599 143.968063 
L 95.358599 151.039131 
L 102.429667 151.039131 
L 102.429667 143.968063 
z
" clip-path="url(#p7aa9c07914)" style="fill: #38a9c5; stroke: #ffffff; stroke-width: 0.8"/>
    <path d="M 80.838714 176.02641 
L 80.838714 183.097478 
L 87.909782 183.097478 
L 87.909782 176.02641 
z
" clip-path="url(#p7aa9c07914)" style="fill: #cc7af4; stroke: #ffffff; stroke-width: 0.8"/>
    <path d="M 60.268613 204.571505 
L 60.268613 211.642573 
L 67.33968 211.642573 
L 67.33968 204.571505 
z
" clip-path="url(#p7aa9c07914)" style="fill: #cc7af4; stroke: #ffffff; stroke-width: 0.8"/>
    <path d="M 66.810224 208.700417 
L 70.143558 208.700417 
L 70.143558 205.367084 
L 73.476891 205.367084 
L 73.476891 202.03375 
L 70.143558 202.03375 
L 70.143558 198.700417 
L 66.810224 198.700417 
L 66.810224 202.03375 
L 63.476891 202.03375 
L 63.476891 205.367084 
L 66.810224 205.367084 
z
" clip-path="url(#p7aa9c07914)" style="fill: #f77189; stroke: #ffffff; stroke-width: 0.8"/>
    <path d="M 72.639639 213.088517 
L 75.972972 213.088517 
L 75.972972 209.755184 
L 79.306306 209.755184 
L 79.306306 206.42185 
L 75.972972 206.42185 
L 75.972972 203.088517 
L 72.639639 203.088517 
L 72.639639 206.42185 
L 69.306306 206.42185 
L 69.306306 209.755184 
L 72.639639 209.755184 
z
" clip-path="url(#p7aa9c07914)" style="fill: #f77189; stroke: #ffffff; stroke-width: 0.8"/>
    <path d="M 63.54794 152.800948 
L 66.881274 152.800948 
L 66.881274 149.467615 
L 70.214607 149.467615 
L 70.214607 146.134281 
L 66.881274 146.134281 
L 66.881274 142.800948 
L 63.54794 142.800948 
L 63.54794 146.134281 
L 60.214607 146.134281 
L 60.214607 149.467615 
L 63.54794 149.467615 
z
" clip-path="url(#p7aa9c07914)" style="fill: #f77189; stroke: #ffffff; stroke-width: 0.8"/>
    <path d="M 56.826194 209.630019 
L 60.159528 209.630019 
L 60.159528 206.296686 
L 63.492861 206.296686 
L 63.492861 202.963352 
L 60.159528 202.963352 
L 60.159528 199.630019 
L 56.826194 199.630019 
L 56.826194 202.963352 
L 53.492861 202.963352 
L 53.492861 206.296686 
L 56.826194 206.296686 
z
" clip-path="url(#p7aa9c07914)" style="fill: #ae9d31; stroke: #ffffff; stroke-width: 0.8"/>
    <path d="M 104.638092 169.780816 
L 107.971425 169.780816 
L 107.971425 166.447483 
L 111.304758 166.447483 
L 111.304758 163.11415 
L 107.971425 163.11415 
L 107.971425 159.780816 
L 104.638092 159.780816 
L 104.638092 163.11415 
L 101.304758 163.11415 
L 101.304758 166.447483 
L 104.638092 166.447483 
z
" clip-path="url(#p7aa9c07914)" style="fill: #ae9d31; stroke: #ffffff; stroke-width: 0.8"/>
    <path d="M 81.532542 187.630847 
L 84.865875 187.630847 
L 84.865875 184.297514 
L 88.199208 184.297514 
L 88.199208 180.964181 
L 84.865875 180.964181 
L 84.865875 177.630847 
L 81.532542 177.630847 
L 81.532542 180.964181 
L 78.199208 180.964181 
L 78.199208 184.297514 
L 81.532542 184.297514 
z
" clip-path="url(#p7aa9c07914)" style="fill: #ae9d31; stroke: #ffffff; stroke-width: 0.8"/>
    <path d="M 103.153424 175.656736 
L 106.486757 175.656736 
L 106.486757 172.323403 
L 109.820091 172.323403 
L 109.820091 168.99007 
L 106.486757 168.99007 
L 106.486757 165.656736 
L 103.153424 165.656736 
L 103.153424 168.99007 
L 99.820091 168.99007 
L 99.820091 172.323403 
L 103.153424 172.323403 
z
" clip-path="url(#p7aa9c07914)" style="fill: #ae9d31; stroke: #ffffff; stroke-width: 0.8"/>
    <path d="M 95.286363 167.218066 
L 98.619697 167.218066 
L 98.619697 163.884733 
L 101.95303 163.884733 
L 101.95303 160.551399 
L 98.619697 160.551399 
L 98.619697 157.218066 
L 95.286363 157.218066 
L 95.286363 160.551399 
L 91.95303 160.551399 
L 91.95303 163.884733 
L 95.286363 163.884733 
z
" clip-path="url(#p7aa9c07914)" style="fill: #ae9d31; stroke: #ffffff; stroke-width: 0.8"/>
    <path d="M 71.955141 160.371573 
L 75.288474 160.371573 
L 75.288474 157.03824 
L 78.621807 157.03824 
L 78.621807 153.704906 
L 75.288474 153.704906 
L 75.288474 150.371573 
L 71.955141 150.371573 
L 71.955141 153.704906 
L 68.621807 153.704906 
L 68.621807 157.03824 
L 71.955141 157.03824 
z
" clip-path="url(#p7aa9c07914)" style="fill: #38a9c5; stroke: #ffffff; stroke-width: 0.8"/>
    <path d="M 71.462278 127.041161 
L 74.795611 127.041161 
L 74.795611 123.707828 
L 78.128945 123.707828 
L 78.128945 120.374494 
L 74.795611 120.374494 
L 74.795611 117.041161 
L 71.462278 117.041161 
L 71.462278 120.374494 
L 68.128945 120.374494 
L 68.128945 123.707828 
L 71.462278 123.707828 
z
" clip-path="url(#p7aa9c07914)" style="fill: #f77189; stroke: #ffffff; stroke-width: 0.8"/>
    <path d="M 51.955306 179.627681 
L 55.28864 179.627681 
L 55.28864 176.294347 
L 58.621973 176.294347 
L 58.621973 172.961014 
L 55.28864 172.961014 
L 55.28864 169.627681 
L 51.955306 169.627681 
L 51.955306 172.961014 
L 48.621973 172.961014 
L 48.621973 176.294347 
L 51.955306 176.294347 
z
" clip-path="url(#p7aa9c07914)" style="fill: #f77189; stroke: #ffffff; stroke-width: 0.8"/>
    <path d="M 60.745089 162.96517 
L 64.078423 162.96517 
L 64.078423 159.631836 
L 67.411756 159.631836 
L 67.411756 156.298503 
L 64.078423 156.298503 
L 64.078423 152.96517 
L 60.745089 152.96517 
L 60.745089 156.298503 
L 57.411756 156.298503 
L 57.411756 159.631836 
L 60.745089 159.631836 
z
" clip-path="url(#p7aa9c07914)" style="fill: #f77189; stroke: #ffffff; stroke-width: 0.8"/>
    <path d="M 59.326766 150.972192 
L 62.6601 150.972192 
L 62.6601 147.638859 
L 65.993433 147.638859 
L 65.993433 144.305525 
L 62.6601 144.305525 
L 62.6601 140.972192 
L 59.326766 140.972192 
L 59.326766 144.305525 
L 55.993433 144.305525 
L 55.993433 147.638859 
L 59.326766 147.638859 
z
" clip-path="url(#p7aa9c07914)" style="fill: #f77189; stroke: #ffffff; stroke-width: 0.8"/>
    <path d="M 67.663414 169.659922 
L 70.996748 169.659922 
L 70.996748 166.326589 
L 74.330081 166.326589 
L 74.330081 162.993256 
L 70.996748 162.993256 
L 70.996748 159.659922 
L 67.663414 159.659922 
L 67.663414 162.993256 
L 64.330081 162.993256 
L 64.330081 166.326589 
L 67.663414 166.326589 
z
" clip-path="url(#p7aa9c07914)" style="fill: #38a9c5; stroke: #ffffff; stroke-width: 0.8"/>
    <path d="M 61.139507 201.724256 
L 64.472841 201.724256 
L 64.472841 198.390923 
L 67.806174 198.390923 
L 67.806174 195.057589 
L 64.472841 195.057589 
L 64.472841 191.724256 
L 61.139507 191.724256 
L 61.139507 195.057589 
L 57.806174 195.057589 
L 57.806174 198.390923 
L 61.139507 198.390923 
z
" clip-path="url(#p7aa9c07914)" style="fill: #cc7af4; stroke: #ffffff; stroke-width: 0.8"/>
    <path d="M 65.289387 187.874657 
L 68.62272 187.874657 
L 68.62272 184.541324 
L 71.956053 184.541324 
L 71.956053 181.207991 
L 68.62272 181.207991 
L 68.62272 177.874657 
L 65.289387 177.874657 
L 65.289387 181.207991 
L 61.956053 181.207991 
L 61.956053 184.541324 
L 65.289387 184.541324 
z
" clip-path="url(#p7aa9c07914)" style="fill: #cc7af4; stroke: #ffffff; stroke-width: 0.8"/>
    <path d="M 47.617067 188.703666 
L 42.617067 193.703666 
L 47.617067 198.703666 
L 52.617067 193.703666 
z
" clip-path="url(#p7aa9c07914)" style="fill: #f77189; stroke: #ffffff; stroke-width: 0.8"/>
    <path d="M 104.032292 133.2249 
L 99.032292 138.2249 
L 104.032292 143.2249 
L 109.032292 138.2249 
z
" clip-path="url(#p7aa9c07914)" style="fill: #f77189; stroke: #ffffff; stroke-width: 0.8"/>
    <path d="M 57.643746 170.933847 
L 52.643746 175.933847 
L 57.643746 180.933847 
L 62.643746 175.933847 
z
" clip-path="url(#p7aa9c07914)" style="fill: #f77189; stroke: #ffffff; stroke-width: 0.8"/>
    <path d="M 183.909475 61.788915 
L 178.909475 66.788915 
L 183.909475 71.788915 
L 188.909475 66.788915 
z
" clip-path="url(#p7aa9c07914)" style="fill: #ae9d31; stroke: #ffffff; stroke-width: 0.8"/>
    <path d="M 200.481673 76.747818 
L 195.481673 81.747818 
L 200.481673 86.747818 
L 205.481673 81.747818 
z
" clip-path="url(#p7aa9c07914)" style="fill: #ae9d31; stroke: #ffffff; stroke-width: 0.8"/>
    <path d="M 113.247535 144.561065 
L 108.247535 149.561065 
L 113.247535 154.561065 
L 118.247535 149.561065 
z
" clip-path="url(#p7aa9c07914)" style="fill: #ae9d31; stroke: #ffffff; stroke-width: 0.8"/>
    <path d="M 218.542093 62.281752 
L 213.542093 67.281752 
L 218.542093 72.281752 
L 223.542093 67.281752 
z
" clip-path="url(#p7aa9c07914)" style="fill: #ae9d31; stroke: #ffffff; stroke-width: 0.8"/>
    <path d="M 208.190028 51.792335 
L 203.190028 56.792335 
L 208.190028 61.792335 
L 213.190028 56.792335 
z
" clip-path="url(#p7aa9c07914)" style="fill: #ae9d31; stroke: #ffffff; stroke-width: 0.8"/>
    <path d="M 89.53473 188.728275 
L 84.53473 193.728275 
L 89.53473 198.728275 
L 94.53473 193.728275 
z
" clip-path="url(#p7aa9c07914)" style="fill: #33b07a; stroke: #ffffff; stroke-width: 0.8"/>
    <path d="M 95.15844 143.502437 
L 90.15844 148.502437 
L 95.15844 153.502437 
L 100.15844 148.502437 
z
" clip-path="url(#p7aa9c07914)" style="fill: #38a9c5; stroke: #ffffff; stroke-width: 0.8"/>
    <path d="M 61.793362 128.617655 
L 56.793362 133.617655 
L 61.793362 138.617655 
L 66.793362 133.617655 
z
" clip-path="url(#p7aa9c07914)" style="fill: #f77189; stroke: #ffffff; stroke-width: 0.8"/>
    <path d="M 67.76447 171.210056 
L 62.76447 176.210056 
L 67.76447 181.210056 
L 72.76447 176.210056 
z
" clip-path="url(#p7aa9c07914)" style="fill: #f77189; stroke: #ffffff; stroke-width: 0.8"/>
    <path d="M 47.322787 183.299368 
L 42.322787 188.299368 
L 47.322787 193.299368 
L 52.322787 188.299368 
z
" clip-path="url(#p7aa9c07914)" style="fill: #f77189; stroke: #ffffff; stroke-width: 0.8"/>
    <path d="M 58.369047 168.655076 
L 53.369047 173.655076 
L 58.369047 178.655076 
L 63.369047 173.655076 
z
" clip-path="url(#p7aa9c07914)" style="fill: #f77189; stroke: #ffffff; stroke-width: 0.8"/>
    <path d="M 95.562072 152.203892 
L 90.562072 157.203892 
L 95.562072 162.203892 
L 100.562072 157.203892 
z
" clip-path="url(#p7aa9c07914)" style="fill: #38a9c5; stroke: #ffffff; stroke-width: 0.8"/>
    <path d="M 173.385655 79.314588 
L 168.385655 84.314588 
L 173.385655 89.314588 
L 178.385655 84.314588 
z
" clip-path="url(#p7aa9c07914)" style="fill: #cc7af4; stroke: #ffffff; stroke-width: 0.8"/>
    <path d="M 91.967988 146.374531 
L 86.967988 151.374531 
L 91.967988 156.374531 
L 96.967988 151.374531 
z
" clip-path="url(#p7aa9c07914)" style="fill: #cc7af4; stroke: #ffffff; stroke-width: 0.8"/>
    <path d="M 66.404275 168.188397 
L 64.636508 171.42063 
L 61.404275 173.188397 
L 64.636508 174.956164 
L 66.404275 178.188397 
L 68.172042 174.956164 
L 71.404275 173.188397 
L 68.172042 171.42063 
z
" clip-path="url(#p7aa9c07914)" style="fill: #f77189; stroke: #ffffff; stroke-width: 0.8"/>
    <path d="M 105.844197 152.579369 
L 104.076431 155.811602 
L 100.844197 157.579369 
L 104.076431 159.347136 
L 105.844197 162.579369 
L 107.611964 159.347136 
L 110.844197 157.579369 
L 107.611964 155.811602 
z
" clip-path="url(#p7aa9c07914)" style="fill: #f77189; stroke: #ffffff; stroke-width: 0.8"/>
    <path d="M 92.998967 125.436644 
L 91.231201 128.668877 
L 87.998967 130.436644 
L 91.231201 132.204411 
L 92.998967 135.436644 
L 94.766734 132.204411 
L 97.998967 130.436644 
L 94.766734 128.668877 
z
" clip-path="url(#p7aa9c07914)" style="fill: #f77189; stroke: #ffffff; stroke-width: 0.8"/>
    <path d="M 123.698158 109.796354 
L 121.930391 113.028587 
L 118.698158 114.796354 
L 121.930391 116.564121 
L 123.698158 119.796354 
L 125.465925 116.564121 
L 128.698158 114.796354 
L 125.465925 113.028587 
z
" clip-path="url(#p7aa9c07914)" style="fill: #ae9d31; stroke: #ffffff; stroke-width: 0.8"/>
    <path d="M 204.942709 74.140578 
L 203.174942 77.372811 
L 199.942709 79.140578 
L 203.174942 80.908345 
L 204.942709 84.140578 
L 206.710476 80.908345 
L 209.942709 79.140578 
L 206.710476 77.372811 
z
" clip-path="url(#p7aa9c07914)" style="fill: #ae9d31; stroke: #ffffff; stroke-width: 0.8"/>
    <path d="M 116.242456 133.541964 
L 114.474689 136.774197 
L 111.242456 138.541964 
L 114.474689 140.309731 
L 116.242456 143.541964 
L 118.010223 140.309731 
L 121.242456 138.541964 
L 118.010223 136.774197 
z
" clip-path="url(#p7aa9c07914)" style="fill: #ae9d31; stroke: #ffffff; stroke-width: 0.8"/>
    <path d="M 211.435161 67.415681 
L 209.667394 70.647914 
L 206.435161 72.415681 
L 209.667394 74.183448 
L 211.435161 77.415681 
L 213.202928 74.183448 
L 216.435161 72.415681 
L 213.202928 70.647914 
z
" clip-path="url(#p7aa9c07914)" style="fill: #ae9d31; stroke: #ffffff; stroke-width: 0.8"/>
    <path d="M 185.982257 69.375065 
L 184.21449 72.607298 
L 180.982257 74.375065 
L 184.21449 76.142832 
L 185.982257 79.375065 
L 187.750024 76.142832 
L 190.982257 74.375065 
L 187.750024 72.607298 
z
" clip-path="url(#p7aa9c07914)" style="fill: #ae9d31; stroke: #ffffff; stroke-width: 0.8"/>
    <path d="M 78.335224 142.587714 
L 76.567457 145.819947 
L 73.335224 147.587714 
L 76.567457 149.355481 
L 78.335224 152.587714 
L 80.102991 149.355481 
L 83.335224 147.587714 
L 80.102991 145.819947 
z
" clip-path="url(#p7aa9c07914)" style="fill: #33b07a; stroke: #ffffff; stroke-width: 0.8"/>
    <path d="M 120.518671 120.174327 
L 118.750904 123.40656 
L 115.518671 125.174327 
L 118.750904 126.942094 
L 120.518671 130.174327 
L 122.286438 126.942094 
L 125.518671 125.174327 
L 122.286438 123.40656 
z
" clip-path="url(#p7aa9c07914)" style="fill: #38a9c5; stroke: #ffffff; stroke-width: 0.8"/>
    <path d="M 111.165549 90.431907 
L 109.397782 93.66414 
L 106.165549 95.431907 
L 109.397782 97.199674 
L 111.165549 100.431907 
L 112.933316 97.199674 
L 116.165549 95.431907 
L 112.933316 93.66414 
z
" clip-path="url(#p7aa9c07914)" style="fill: #f77189; stroke: #ffffff; stroke-width: 0.8"/>
    <path d="M 122.340067 92.822934 
L 120.5723 96.055167 
L 117.340067 97.822934 
L 120.5723 99.590701 
L 122.340067 102.822934 
L 124.107834 99.590701 
L 127.340067 97.822934 
L 124.107834 96.055167 
z
" clip-path="url(#p7aa9c07914)" style="fill: #f77189; stroke: #ffffff; stroke-width: 0.8"/>
    <path d="M 68.025226 140.912679 
L 66.257459 144.144912 
L 63.025226 145.912679 
L 66.257459 147.680446 
L 68.025226 150.912679 
L 69.792993 147.680446 
L 73.025226 145.912679 
L 69.792993 144.144912 
z
" clip-path="url(#p7aa9c07914)" style="fill: #f77189; stroke: #ffffff; stroke-width: 0.8"/>
    <path d="M 101.106778 102.109299 
L 99.339011 105.341533 
L 96.106778 107.109299 
L 99.339011 108.877066 
L 101.106778 112.109299 
L 102.874545 108.877066 
L 106.106778 107.109299 
L 102.874545 105.341533 
z
" clip-path="url(#p7aa9c07914)" style="fill: #f77189; stroke: #ffffff; stroke-width: 0.8"/>
    <path d="M 116.59221 120.972699 
L 114.824443 124.204932 
L 111.59221 125.972699 
L 114.824443 127.740466 
L 116.59221 130.972699 
L 118.359977 127.740466 
L 121.59221 125.972699 
L 118.359977 124.204932 
z
" clip-path="url(#p7aa9c07914)" style="fill: #38a9c5; stroke: #ffffff; stroke-width: 0.8"/>
    <path d="M 122.496322 125.183373 
L 120.728555 128.415606 
L 117.496322 130.183373 
L 120.728555 131.95114 
L 122.496322 135.183373 
L 124.264089 131.95114 
L 127.496322 130.183373 
L 124.264089 128.415606 
z
" clip-path="url(#p7aa9c07914)" style="fill: #cc7af4; stroke: #ffffff; stroke-width: 0.8"/>
    <path d="M 75.439996 133.135872 
L 73.672229 136.368105 
L 70.439996 138.135872 
L 73.672229 139.903639 
L 75.439996 143.135872 
L 77.207763 139.903639 
L 80.439996 138.135872 
L 77.207763 136.368105 
z
" clip-path="url(#p7aa9c07914)" style="fill: #cc7af4; stroke: #ffffff; stroke-width: 0.8"/>
    <path d="M 54.593985 184.416601 
L 49.593985 194.416601 
L 59.593985 194.416601 
z
" clip-path="url(#p7aa9c07914)" style="fill: #f77189; stroke: #ffffff; stroke-width: 0.8"/>
    <path d="M 110.664745 137.276449 
L 105.664745 147.276449 
L 115.664745 147.276449 
z
" clip-path="url(#p7aa9c07914)" style="fill: #f77189; stroke: #ffffff; stroke-width: 0.8"/>
    <path d="M 46.287251 156.908928 
L 41.287251 166.908928 
L 51.287251 166.908928 
z
" clip-path="url(#p7aa9c07914)" style="fill: #f77189; stroke: #ffffff; stroke-width: 0.8"/>
    <path d="M 119.744137 88.609702 
L 114.744137 98.609702 
L 124.744137 98.609702 
z
" clip-path="url(#p7aa9c07914)" style="fill: #ae9d31; stroke: #ffffff; stroke-width: 0.8"/>
    <path d="M 142.753298 117.27263 
L 137.753298 127.27263 
L 147.753298 127.27263 
z
" clip-path="url(#p7aa9c07914)" style="fill: #ae9d31; stroke: #ffffff; stroke-width: 0.8"/>
    <path d="M 98.292103 120.575805 
L 93.292103 130.575805 
L 103.292103 130.575805 
z
" clip-path="url(#p7aa9c07914)" style="fill: #ae9d31; stroke: #ffffff; stroke-width: 0.8"/>
    <path d="M 152.357885 105.263485 
L 147.357885 115.263485 
L 157.357885 115.263485 
z
" clip-path="url(#p7aa9c07914)" style="fill: #ae9d31; stroke: #ffffff; stroke-width: 0.8"/>
    <path d="M 132.576952 95.802934 
L 127.576952 105.802934 
L 137.576952 105.802934 
z
" clip-path="url(#p7aa9c07914)" style="fill: #ae9d31; stroke: #ffffff; stroke-width: 0.8"/>
    <path d="M 155.19438 132.281868 
L 150.19438 142.281868 
L 160.19438 142.281868 
z
" clip-path="url(#p7aa9c07914)" style="fill: #33b07a; stroke: #ffffff; stroke-width: 0.8"/>
    <path d="M 76.595888 157.745935 
L 71.595888 167.745935 
L 81.595888 167.745935 
z
" clip-path="url(#p7aa9c07914)" style="fill: #38a9c5; stroke: #ffffff; stroke-width: 0.8"/>
    <path d="M 58.832718 131.635485 
L 53.832718 141.635485 
L 63.832718 141.635485 
z
" clip-path="url(#p7aa9c07914)" style="fill: #f77189; stroke: #ffffff; stroke-width: 0.8"/>
    <path d="M 58.915929 153.075313 
L 53.915929 163.075313 
L 63.915929 163.075313 
z
" clip-path="url(#p7aa9c07914)" style="fill: #f77189; stroke: #ffffff; stroke-width: 0.8"/>
    <path d="M 52.131558 125.787398 
L 47.131558 135.787398 
L 57.131558 135.787398 
z
" clip-path="url(#p7aa9c07914)" style="fill: #f77189; stroke: #ffffff; stroke-width: 0.8"/>
    <path d="M 46.145455 147.060538 
L 41.145455 157.060538 
L 51.145455 157.060538 
z
" clip-path="url(#p7aa9c07914)" style="fill: #f77189; stroke: #ffffff; stroke-width: 0.8"/>
    <path d="M 76.424107 170.676046 
L 71.424107 180.676046 
L 81.424107 180.676046 
z
" clip-path="url(#p7aa9c07914)" style="fill: #38a9c5; stroke: #ffffff; stroke-width: 0.8"/>
    <path d="M 116.034797 114.290814 
L 111.034797 124.290814 
L 121.034797 124.290814 
z
" clip-path="url(#p7aa9c07914)" style="fill: #cc7af4; stroke: #ffffff; stroke-width: 0.8"/>
    <path d="M 94.823002 115.361076 
L 89.823002 125.361076 
L 99.823002 125.361076 
z
" clip-path="url(#p7aa9c07914)" style="fill: #cc7af4; stroke: #ffffff; stroke-width: 0.8"/>
   </g>
   <g id="PathCollection_2"/>
   <g id="PathCollection_3"/>
   <g id="PathCollection_4"/>
   <g id="PathCollection_5"/>
   <g id="PathCollection_6"/>
   <g id="PathCollection_7"/>
   <g id="PathCollection_8"/>
   <g id="PathCollection_9"/>
   <g id="PathCollection_10"/>
   <g id="PathCollection_11"/>
   <g id="PathCollection_12"/>
   <g id="PathCollection_13"/>
   <g id="matplotlib.axis_1">
    <g id="xtick_1">
     <g id="line2d_1">
      <defs>
       <path id="m22499ca4e1" d="M 0 0 
L 0 3.5 
" style="stroke: #000000; stroke-width: 0.8"/>
      </defs>
      <g>
       <use xlink:href="#m22499ca4e1" x="46.458804" y="252" style="stroke: #000000; stroke-width: 0.8"/>
      </g>
     </g>
     <g id="text_1">
      <!-- 0.0 -->
      <g transform="translate(38.507242 266.598437)scale(0.1 -0.1)">
       <defs>
        <path id="DejaVuSans-30" d="M 2034 4250 
Q 1547 4250 1301 3770 
Q 1056 3291 1056 2328 
Q 1056 1369 1301 889 
Q 1547 409 2034 409 
Q 2525 409 2770 889 
Q 3016 1369 3016 2328 
Q 3016 3291 2770 3770 
Q 2525 4250 2034 4250 
z
M 2034 4750 
Q 2819 4750 3233 4129 
Q 3647 3509 3647 2328 
Q 3647 1150 3233 529 
Q 2819 -91 2034 -91 
Q 1250 -91 836 529 
Q 422 1150 422 2328 
Q 422 3509 836 4129 
Q 1250 4750 2034 4750 
z
" transform="scale(0.015625)"/>
        <path id="DejaVuSans-2e" d="M 684 794 
L 1344 794 
L 1344 0 
L 684 0 
L 684 794 
z
" transform="scale(0.015625)"/>
       </defs>
       <use xlink:href="#DejaVuSans-30"/>
       <use xlink:href="#DejaVuSans-2e" x="63.623047"/>
       <use xlink:href="#DejaVuSans-30" x="95.410156"/>
      </g>
     </g>
    </g>
    <g id="xtick_2">
     <g id="line2d_2">
      <g>
       <use xlink:href="#m22499ca4e1" x="90.985341" y="252" style="stroke: #000000; stroke-width: 0.8"/>
      </g>
     </g>
     <g id="text_2">
      <!-- 0.2 -->
      <g transform="translate(83.033778 266.598437)scale(0.1 -0.1)">
       <defs>
        <path id="DejaVuSans-32" d="M 1228 531 
L 3431 531 
L 3431 0 
L 469 0 
L 469 531 
Q 828 903 1448 1529 
Q 2069 2156 2228 2338 
Q 2531 2678 2651 2914 
Q 2772 3150 2772 3378 
Q 2772 3750 2511 3984 
Q 2250 4219 1831 4219 
Q 1534 4219 1204 4116 
Q 875 4013 500 3803 
L 500 4441 
Q 881 4594 1212 4672 
Q 1544 4750 1819 4750 
Q 2544 4750 2975 4387 
Q 3406 4025 3406 3419 
Q 3406 3131 3298 2873 
Q 3191 2616 2906 2266 
Q 2828 2175 2409 1742 
Q 1991 1309 1228 531 
z
" transform="scale(0.015625)"/>
       </defs>
       <use xlink:href="#DejaVuSans-30"/>
       <use xlink:href="#DejaVuSans-2e" x="63.623047"/>
       <use xlink:href="#DejaVuSans-32" x="95.410156"/>
      </g>
     </g>
    </g>
    <g id="xtick_3">
     <g id="line2d_3">
      <g>
       <use xlink:href="#m22499ca4e1" x="135.511877" y="252" style="stroke: #000000; stroke-width: 0.8"/>
      </g>
     </g>
     <g id="text_3">
      <!-- 0.4 -->
      <g transform="translate(127.560315 266.598437)scale(0.1 -0.1)">
       <defs>
        <path id="DejaVuSans-34" d="M 2419 4116 
L 825 1625 
L 2419 1625 
L 2419 4116 
z
M 2253 4666 
L 3047 4666 
L 3047 1625 
L 3713 1625 
L 3713 1100 
L 3047 1100 
L 3047 0 
L 2419 0 
L 2419 1100 
L 313 1100 
L 313 1709 
L 2253 4666 
z
" transform="scale(0.015625)"/>
       </defs>
       <use xlink:href="#DejaVuSans-30"/>
       <use xlink:href="#DejaVuSans-2e" x="63.623047"/>
       <use xlink:href="#DejaVuSans-34" x="95.410156"/>
      </g>
     </g>
    </g>
    <g id="xtick_4">
     <g id="line2d_4">
      <g>
       <use xlink:href="#m22499ca4e1" x="180.038414" y="252" style="stroke: #000000; stroke-width: 0.8"/>
      </g>
     </g>
     <g id="text_4">
      <!-- 0.6 -->
      <g transform="translate(172.086851 266.598437)scale(0.1 -0.1)">
       <defs>
        <path id="DejaVuSans-36" d="M 2113 2584 
Q 1688 2584 1439 2293 
Q 1191 2003 1191 1497 
Q 1191 994 1439 701 
Q 1688 409 2113 409 
Q 2538 409 2786 701 
Q 3034 994 3034 1497 
Q 3034 2003 2786 2293 
Q 2538 2584 2113 2584 
z
M 3366 4563 
L 3366 3988 
Q 3128 4100 2886 4159 
Q 2644 4219 2406 4219 
Q 1781 4219 1451 3797 
Q 1122 3375 1075 2522 
Q 1259 2794 1537 2939 
Q 1816 3084 2150 3084 
Q 2853 3084 3261 2657 
Q 3669 2231 3669 1497 
Q 3669 778 3244 343 
Q 2819 -91 2113 -91 
Q 1303 -91 875 529 
Q 447 1150 447 2328 
Q 447 3434 972 4092 
Q 1497 4750 2381 4750 
Q 2619 4750 2861 4703 
Q 3103 4656 3366 4563 
z
" transform="scale(0.015625)"/>
       </defs>
       <use xlink:href="#DejaVuSans-30"/>
       <use xlink:href="#DejaVuSans-2e" x="63.623047"/>
       <use xlink:href="#DejaVuSans-36" x="95.410156"/>
      </g>
     </g>
    </g>
    <g id="xtick_5">
     <g id="line2d_5">
      <g>
       <use xlink:href="#m22499ca4e1" x="224.56495" y="252" style="stroke: #000000; stroke-width: 0.8"/>
      </g>
     </g>
     <g id="text_5">
      <!-- 0.8 -->
      <g transform="translate(216.613388 266.598437)scale(0.1 -0.1)">
       <defs>
        <path id="DejaVuSans-38" d="M 2034 2216 
Q 1584 2216 1326 1975 
Q 1069 1734 1069 1313 
Q 1069 891 1326 650 
Q 1584 409 2034 409 
Q 2484 409 2743 651 
Q 3003 894 3003 1313 
Q 3003 1734 2745 1975 
Q 2488 2216 2034 2216 
z
M 1403 2484 
Q 997 2584 770 2862 
Q 544 3141 544 3541 
Q 544 4100 942 4425 
Q 1341 4750 2034 4750 
Q 2731 4750 3128 4425 
Q 3525 4100 3525 3541 
Q 3525 3141 3298 2862 
Q 3072 2584 2669 2484 
Q 3125 2378 3379 2068 
Q 3634 1759 3634 1313 
Q 3634 634 3220 271 
Q 2806 -91 2034 -91 
Q 1263 -91 848 271 
Q 434 634 434 1313 
Q 434 1759 690 2068 
Q 947 2378 1403 2484 
z
M 1172 3481 
Q 1172 3119 1398 2916 
Q 1625 2713 2034 2713 
Q 2441 2713 2670 2916 
Q 2900 3119 2900 3481 
Q 2900 3844 2670 4047 
Q 2441 4250 2034 4250 
Q 1625 4250 1398 4047 
Q 1172 3844 1172 3481 
z
" transform="scale(0.015625)"/>
       </defs>
       <use xlink:href="#DejaVuSans-30"/>
       <use xlink:href="#DejaVuSans-2e" x="63.623047"/>
       <use xlink:href="#DejaVuSans-38" x="95.410156"/>
      </g>
     </g>
    </g>
    <g id="text_6">
     <!-- pop -->
     <g transform="translate(138.192187 280.276563)scale(0.1 -0.1)">
      <defs>
       <path id="DejaVuSans-70" d="M 1159 525 
L 1159 -1331 
L 581 -1331 
L 581 3500 
L 1159 3500 
L 1159 2969 
Q 1341 3281 1617 3432 
Q 1894 3584 2278 3584 
Q 2916 3584 3314 3078 
Q 3713 2572 3713 1747 
Q 3713 922 3314 415 
Q 2916 -91 2278 -91 
Q 1894 -91 1617 61 
Q 1341 213 1159 525 
z
M 3116 1747 
Q 3116 2381 2855 2742 
Q 2594 3103 2138 3103 
Q 1681 3103 1420 2742 
Q 1159 2381 1159 1747 
Q 1159 1113 1420 752 
Q 1681 391 2138 391 
Q 2594 391 2855 752 
Q 3116 1113 3116 1747 
z
" transform="scale(0.015625)"/>
       <path id="DejaVuSans-6f" d="M 1959 3097 
Q 1497 3097 1228 2736 
Q 959 2375 959 1747 
Q 959 1119 1226 758 
Q 1494 397 1959 397 
Q 2419 397 2687 759 
Q 2956 1122 2956 1747 
Q 2956 2369 2687 2733 
Q 2419 3097 1959 3097 
z
M 1959 3584 
Q 2709 3584 3137 3096 
Q 3566 2609 3566 1747 
Q 3566 888 3137 398 
Q 2709 -91 1959 -91 
Q 1206 -91 779 398 
Q 353 888 353 1747 
Q 353 2609 779 3096 
Q 1206 3584 1959 3584 
z
" transform="scale(0.015625)"/>
      </defs>
      <use xlink:href="#DejaVuSans-70"/>
      <use xlink:href="#DejaVuSans-6f" x="63.476562"/>
      <use xlink:href="#DejaVuSans-70" x="124.658203"/>
     </g>
    </g>
   </g>
   <g id="matplotlib.axis_2">
    <g id="ytick_1">
     <g id="line2d_6">
      <defs>
       <path id="m0fdb389f1f" d="M 0 0 
L -3.5 0 
" style="stroke: #000000; stroke-width: 0.8"/>
      </defs>
      <g>
       <use xlink:href="#m0fdb389f1f" x="36" y="242.116364" style="stroke: #000000; stroke-width: 0.8"/>
      </g>
     </g>
     <g id="text_7">
      <!-- 0.0 -->
      <g transform="translate(13.096875 245.915582)scale(0.1 -0.1)">
       <use xlink:href="#DejaVuSans-30"/>
       <use xlink:href="#DejaVuSans-2e" x="63.623047"/>
       <use xlink:href="#DejaVuSans-30" x="95.410156"/>
      </g>
     </g>
    </g>
    <g id="ytick_2">
     <g id="line2d_7">
      <g>
       <use xlink:href="#m0fdb389f1f" x="36" y="198.671808" style="stroke: #000000; stroke-width: 0.8"/>
      </g>
     </g>
     <g id="text_8">
      <!-- 0.2 -->
      <g transform="translate(13.096875 202.471027)scale(0.1 -0.1)">
       <use xlink:href="#DejaVuSans-30"/>
       <use xlink:href="#DejaVuSans-2e" x="63.623047"/>
       <use xlink:href="#DejaVuSans-32" x="95.410156"/>
      </g>
     </g>
    </g>
    <g id="ytick_3">
     <g id="line2d_8">
      <g>
       <use xlink:href="#m0fdb389f1f" x="36" y="155.227253" style="stroke: #000000; stroke-width: 0.8"/>
      </g>
     </g>
     <g id="text_9">
      <!-- 0.4 -->
      <g transform="translate(13.096875 159.026471)scale(0.1 -0.1)">
       <use xlink:href="#DejaVuSans-30"/>
       <use xlink:href="#DejaVuSans-2e" x="63.623047"/>
       <use xlink:href="#DejaVuSans-34" x="95.410156"/>
      </g>
     </g>
    </g>
    <g id="ytick_4">
     <g id="line2d_9">
      <g>
       <use xlink:href="#m0fdb389f1f" x="36" y="111.782697" style="stroke: #000000; stroke-width: 0.8"/>
      </g>
     </g>
     <g id="text_10">
      <!-- 0.6 -->
      <g transform="translate(13.096875 115.581916)scale(0.1 -0.1)">
       <use xlink:href="#DejaVuSans-30"/>
       <use xlink:href="#DejaVuSans-2e" x="63.623047"/>
       <use xlink:href="#DejaVuSans-36" x="95.410156"/>
      </g>
     </g>
    </g>
    <g id="ytick_5">
     <g id="line2d_10">
      <g>
       <use xlink:href="#m0fdb389f1f" x="36" y="68.338142" style="stroke: #000000; stroke-width: 0.8"/>
      </g>
     </g>
     <g id="text_11">
      <!-- 0.8 -->
      <g transform="translate(13.096875 72.137361)scale(0.1 -0.1)">
       <use xlink:href="#DejaVuSans-30"/>
       <use xlink:href="#DejaVuSans-2e" x="63.623047"/>
       <use xlink:href="#DejaVuSans-38" x="95.410156"/>
      </g>
     </g>
    </g>
    <g id="text_12">
     <!-- gsv -->
     <g transform="translate(7.017187 152.018281)rotate(-90)scale(0.1 -0.1)">
      <defs>
       <path id="DejaVuSans-67" d="M 2906 1791 
Q 2906 2416 2648 2759 
Q 2391 3103 1925 3103 
Q 1463 3103 1205 2759 
Q 947 2416 947 1791 
Q 947 1169 1205 825 
Q 1463 481 1925 481 
Q 2391 481 2648 825 
Q 2906 1169 2906 1791 
z
M 3481 434 
Q 3481 -459 3084 -895 
Q 2688 -1331 1869 -1331 
Q 1566 -1331 1297 -1286 
Q 1028 -1241 775 -1147 
L 775 -588 
Q 1028 -725 1275 -790 
Q 1522 -856 1778 -856 
Q 2344 -856 2625 -561 
Q 2906 -266 2906 331 
L 2906 616 
Q 2728 306 2450 153 
Q 2172 0 1784 0 
Q 1141 0 747 490 
Q 353 981 353 1791 
Q 353 2603 747 3093 
Q 1141 3584 1784 3584 
Q 2172 3584 2450 3431 
Q 2728 3278 2906 2969 
L 2906 3500 
L 3481 3500 
L 3481 434 
z
" transform="scale(0.015625)"/>
       <path id="DejaVuSans-73" d="M 2834 3397 
L 2834 2853 
Q 2591 2978 2328 3040 
Q 2066 3103 1784 3103 
Q 1356 3103 1142 2972 
Q 928 2841 928 2578 
Q 928 2378 1081 2264 
Q 1234 2150 1697 2047 
L 1894 2003 
Q 2506 1872 2764 1633 
Q 3022 1394 3022 966 
Q 3022 478 2636 193 
Q 2250 -91 1575 -91 
Q 1294 -91 989 -36 
Q 684 19 347 128 
L 347 722 
Q 666 556 975 473 
Q 1284 391 1588 391 
Q 1994 391 2212 530 
Q 2431 669 2431 922 
Q 2431 1156 2273 1281 
Q 2116 1406 1581 1522 
L 1381 1569 
Q 847 1681 609 1914 
Q 372 2147 372 2553 
Q 372 3047 722 3315 
Q 1072 3584 1716 3584 
Q 2034 3584 2315 3537 
Q 2597 3491 2834 3397 
z
" transform="scale(0.015625)"/>
       <path id="DejaVuSans-76" d="M 191 3500 
L 800 3500 
L 1894 563 
L 2988 3500 
L 3597 3500 
L 2284 0 
L 1503 0 
L 191 3500 
z
" transform="scale(0.015625)"/>
      </defs>
      <use xlink:href="#DejaVuSans-67"/>
      <use xlink:href="#DejaVuSans-73" x="63.476562"/>
      <use xlink:href="#DejaVuSans-76" x="115.576172"/>
     </g>
    </g>
   </g>
   <g id="line2d_11">
    <path d="M 46.458804 242.116364 
L 249.054545 44.443636 
" clip-path="url(#p7aa9c07914)" style="fill: none; stroke-dasharray: 10,6; stroke-dashoffset: 0; stroke: #000000"/>
   </g>
   <g id="patch_3">
    <path d="M 36 252 
L 36 34.56 
" style="fill: none; stroke: #000000; stroke-width: 0.8; stroke-linejoin: miter; stroke-linecap: square"/>
   </g>
   <g id="patch_4">
    <path d="M 36 252 
L 259.2 252 
" style="fill: none; stroke: #000000; stroke-width: 0.8; stroke-linejoin: miter; stroke-linecap: square"/>
   </g>
   <g id="legend_1">
    <g id="patch_5">
     <path d="M 267.6 246 
L 416.16 246 
Q 418.56 246 418.56 243.6 
L 418.56 -1.7925 
Q 418.56 -4.1925 416.16 -4.1925 
L 267.6 -4.1925 
Q 265.2 -4.1925 265.2 -1.7925 
L 265.2 243.6 
Q 265.2 246 267.6 246 
z
" style="fill: #ffffff; opacity: 0.8; stroke: #cccccc; stroke-linejoin: miter"/>
    </g>
    <g id="text_13">
     <!-- topic -->
     <g transform="translate(303.6 9.725625)scale(0.12 -0.12)">
      <defs>
       <path id="DejaVuSans-74" d="M 1172 4494 
L 1172 3500 
L 2356 3500 
L 2356 3053 
L 1172 3053 
L 1172 1153 
Q 1172 725 1289 603 
Q 1406 481 1766 481 
L 2356 481 
L 2356 0 
L 1766 0 
Q 1100 0 847 248 
Q 594 497 594 1153 
L 594 3053 
L 172 3053 
L 172 3500 
L 594 3500 
L 594 4494 
L 1172 4494 
z
" transform="scale(0.015625)"/>
       <path id="DejaVuSans-69" d="M 603 3500 
L 1178 3500 
L 1178 0 
L 603 0 
L 603 3500 
z
M 603 4863 
L 1178 4863 
L 1178 4134 
L 603 4134 
L 603 4863 
z
" transform="scale(0.015625)"/>
       <path id="DejaVuSans-63" d="M 3122 3366 
L 3122 2828 
Q 2878 2963 2633 3030 
Q 2388 3097 2138 3097 
Q 1578 3097 1268 2742 
Q 959 2388 959 1747 
Q 959 1106 1268 751 
Q 1578 397 2138 397 
Q 2388 397 2633 464 
Q 2878 531 3122 666 
L 3122 134 
Q 2881 22 2623 -34 
Q 2366 -91 2075 -91 
Q 1284 -91 818 406 
Q 353 903 353 1747 
Q 353 2603 823 3093 
Q 1294 3584 2113 3584 
Q 2378 3584 2631 3529 
Q 2884 3475 3122 3366 
z
" transform="scale(0.015625)"/>
      </defs>
      <use xlink:href="#DejaVuSans-74"/>
      <use xlink:href="#DejaVuSans-6f" x="39.208984"/>
      <use xlink:href="#DejaVuSans-70" x="100.390625"/>
      <use xlink:href="#DejaVuSans-69" x="163.867188"/>
      <use xlink:href="#DejaVuSans-63" x="191.650391"/>
     </g>
    </g>
    <g id="PathCollection_14">
     <defs>
      <path id="mde1c4e0388" d="M 0 3 
C 0.795609 3 1.55874 2.683901 2.12132 2.12132 
C 2.683901 1.55874 3 0.795609 3 0 
C 3 -0.795609 2.683901 -1.55874 2.12132 -2.12132 
C 1.55874 -2.683901 0.795609 -3 0 -3 
C -0.795609 -3 -1.55874 -2.683901 -2.12132 -2.12132 
C -2.683901 -1.55874 -3 -0.795609 -3 0 
C -3 0.795609 -2.683901 1.55874 -2.12132 2.12132 
C -1.55874 2.683901 -0.795609 3 0 3 
z
" style="stroke: #f77189"/>
     </defs>
     <g>
      <use xlink:href="#mde1c4e0388" x="282" y="24.189375" style="fill: #f77189; stroke: #f77189"/>
     </g>
    </g>
    <g id="text_14">
     <!-- Health -->
     <g transform="translate(303.6 27.339375)scale(0.12 -0.12)">
      <defs>
       <path id="DejaVuSans-48" d="M 628 4666 
L 1259 4666 
L 1259 2753 
L 3553 2753 
L 3553 4666 
L 4184 4666 
L 4184 0 
L 3553 0 
L 3553 2222 
L 1259 2222 
L 1259 0 
L 628 0 
L 628 4666 
z
" transform="scale(0.015625)"/>
       <path id="DejaVuSans-65" d="M 3597 1894 
L 3597 1613 
L 953 1613 
Q 991 1019 1311 708 
Q 1631 397 2203 397 
Q 2534 397 2845 478 
Q 3156 559 3463 722 
L 3463 178 
Q 3153 47 2828 -22 
Q 2503 -91 2169 -91 
Q 1331 -91 842 396 
Q 353 884 353 1716 
Q 353 2575 817 3079 
Q 1281 3584 2069 3584 
Q 2775 3584 3186 3129 
Q 3597 2675 3597 1894 
z
M 3022 2063 
Q 3016 2534 2758 2815 
Q 2500 3097 2075 3097 
Q 1594 3097 1305 2825 
Q 1016 2553 972 2059 
L 3022 2063 
z
" transform="scale(0.015625)"/>
       <path id="DejaVuSans-61" d="M 2194 1759 
Q 1497 1759 1228 1600 
Q 959 1441 959 1056 
Q 959 750 1161 570 
Q 1363 391 1709 391 
Q 2188 391 2477 730 
Q 2766 1069 2766 1631 
L 2766 1759 
L 2194 1759 
z
M 3341 1997 
L 3341 0 
L 2766 0 
L 2766 531 
Q 2569 213 2275 61 
Q 1981 -91 1556 -91 
Q 1019 -91 701 211 
Q 384 513 384 1019 
Q 384 1609 779 1909 
Q 1175 2209 1959 2209 
L 2766 2209 
L 2766 2266 
Q 2766 2663 2505 2880 
Q 2244 3097 1772 3097 
Q 1472 3097 1187 3025 
Q 903 2953 641 2809 
L 641 3341 
Q 956 3463 1253 3523 
Q 1550 3584 1831 3584 
Q 2591 3584 2966 3190 
Q 3341 2797 3341 1997 
z
" transform="scale(0.015625)"/>
       <path id="DejaVuSans-6c" d="M 603 4863 
L 1178 4863 
L 1178 0 
L 603 0 
L 603 4863 
z
" transform="scale(0.015625)"/>
       <path id="DejaVuSans-68" d="M 3513 2113 
L 3513 0 
L 2938 0 
L 2938 2094 
Q 2938 2591 2744 2837 
Q 2550 3084 2163 3084 
Q 1697 3084 1428 2787 
Q 1159 2491 1159 1978 
L 1159 0 
L 581 0 
L 581 4863 
L 1159 4863 
L 1159 2956 
Q 1366 3272 1645 3428 
Q 1925 3584 2291 3584 
Q 2894 3584 3203 3211 
Q 3513 2838 3513 2113 
z
" transform="scale(0.015625)"/>
      </defs>
      <use xlink:href="#DejaVuSans-48"/>
      <use xlink:href="#DejaVuSans-65" x="75.195312"/>
      <use xlink:href="#DejaVuSans-61" x="136.71875"/>
      <use xlink:href="#DejaVuSans-6c" x="197.998047"/>
      <use xlink:href="#DejaVuSans-74" x="225.78125"/>
      <use xlink:href="#DejaVuSans-68" x="264.990234"/>
     </g>
    </g>
    <g id="PathCollection_15">
     <defs>
      <path id="m29375ba4c5" d="M 0 3 
C 0.795609 3 1.55874 2.683901 2.12132 2.12132 
C 2.683901 1.55874 3 0.795609 3 0 
C 3 -0.795609 2.683901 -1.55874 2.12132 -2.12132 
C 1.55874 -2.683901 0.795609 -3 0 -3 
C -0.795609 -3 -1.55874 -2.683901 -2.12132 -2.12132 
C -2.683901 -1.55874 -3 -0.795609 -3 0 
C -3 0.795609 -2.683901 1.55874 -2.12132 2.12132 
C -1.55874 2.683901 -0.795609 3 0 3 
z
" style="stroke: #ae9d31"/>
     </defs>
     <g>
      <use xlink:href="#m29375ba4c5" x="282" y="41.803125" style="fill: #ae9d31; stroke: #ae9d31"/>
     </g>
    </g>
    <g id="text_15">
     <!-- Vehicle Travel -->
     <g transform="translate(303.6 44.953125)scale(0.12 -0.12)">
      <defs>
       <path id="DejaVuSans-56" d="M 1831 0 
L 50 4666 
L 709 4666 
L 2188 738 
L 3669 4666 
L 4325 4666 
L 2547 0 
L 1831 0 
z
" transform="scale(0.015625)"/>
       <path id="DejaVuSans-20" transform="scale(0.015625)"/>
       <path id="DejaVuSans-54" d="M -19 4666 
L 3928 4666 
L 3928 4134 
L 2272 4134 
L 2272 0 
L 1638 0 
L 1638 4134 
L -19 4134 
L -19 4666 
z
" transform="scale(0.015625)"/>
       <path id="DejaVuSans-72" d="M 2631 2963 
Q 2534 3019 2420 3045 
Q 2306 3072 2169 3072 
Q 1681 3072 1420 2755 
Q 1159 2438 1159 1844 
L 1159 0 
L 581 0 
L 581 3500 
L 1159 3500 
L 1159 2956 
Q 1341 3275 1631 3429 
Q 1922 3584 2338 3584 
Q 2397 3584 2469 3576 
Q 2541 3569 2628 3553 
L 2631 2963 
z
" transform="scale(0.015625)"/>
      </defs>
      <use xlink:href="#DejaVuSans-56"/>
      <use xlink:href="#DejaVuSans-65" x="60.658203"/>
      <use xlink:href="#DejaVuSans-68" x="122.181641"/>
      <use xlink:href="#DejaVuSans-69" x="185.560547"/>
      <use xlink:href="#DejaVuSans-63" x="213.34375"/>
      <use xlink:href="#DejaVuSans-6c" x="268.324219"/>
      <use xlink:href="#DejaVuSans-65" x="296.107422"/>
      <use xlink:href="#DejaVuSans-20" x="357.630859"/>
      <use xlink:href="#DejaVuSans-54" x="389.417969"/>
      <use xlink:href="#DejaVuSans-72" x="435.751953"/>
      <use xlink:href="#DejaVuSans-61" x="476.865234"/>
      <use xlink:href="#DejaVuSans-76" x="538.144531"/>
      <use xlink:href="#DejaVuSans-65" x="597.324219"/>
      <use xlink:href="#DejaVuSans-6c" x="658.847656"/>
     </g>
    </g>
    <g id="PathCollection_16">
     <defs>
      <path id="mf27436ea7c" d="M 0 3 
C 0.795609 3 1.55874 2.683901 2.12132 2.12132 
C 2.683901 1.55874 3 0.795609 3 0 
C 3 -0.795609 2.683901 -1.55874 2.12132 -2.12132 
C 1.55874 -2.683901 0.795609 -3 0 -3 
C -0.795609 -3 -1.55874 -2.683901 -2.12132 -2.12132 
C -2.683901 -1.55874 -3 -0.795609 -3 0 
C -3 0.795609 -2.683901 1.55874 -2.12132 2.12132 
C -1.55874 2.683901 -0.795609 3 0 3 
z
" style="stroke: #33b07a"/>
     </defs>
     <g>
      <use xlink:href="#mf27436ea7c" x="282" y="59.416875" style="fill: #33b07a; stroke: #33b07a"/>
     </g>
    </g>
    <g id="text_16">
     <!-- Crime -->
     <g transform="translate(303.6 62.566875)scale(0.12 -0.12)">
      <defs>
       <path id="DejaVuSans-43" d="M 4122 4306 
L 4122 3641 
Q 3803 3938 3442 4084 
Q 3081 4231 2675 4231 
Q 1875 4231 1450 3742 
Q 1025 3253 1025 2328 
Q 1025 1406 1450 917 
Q 1875 428 2675 428 
Q 3081 428 3442 575 
Q 3803 722 4122 1019 
L 4122 359 
Q 3791 134 3420 21 
Q 3050 -91 2638 -91 
Q 1578 -91 968 557 
Q 359 1206 359 2328 
Q 359 3453 968 4101 
Q 1578 4750 2638 4750 
Q 3056 4750 3426 4639 
Q 3797 4528 4122 4306 
z
" transform="scale(0.015625)"/>
       <path id="DejaVuSans-6d" d="M 3328 2828 
Q 3544 3216 3844 3400 
Q 4144 3584 4550 3584 
Q 5097 3584 5394 3201 
Q 5691 2819 5691 2113 
L 5691 0 
L 5113 0 
L 5113 2094 
Q 5113 2597 4934 2840 
Q 4756 3084 4391 3084 
Q 3944 3084 3684 2787 
Q 3425 2491 3425 1978 
L 3425 0 
L 2847 0 
L 2847 2094 
Q 2847 2600 2669 2842 
Q 2491 3084 2119 3084 
Q 1678 3084 1418 2786 
Q 1159 2488 1159 1978 
L 1159 0 
L 581 0 
L 581 3500 
L 1159 3500 
L 1159 2956 
Q 1356 3278 1631 3431 
Q 1906 3584 2284 3584 
Q 2666 3584 2933 3390 
Q 3200 3197 3328 2828 
z
" transform="scale(0.015625)"/>
      </defs>
      <use xlink:href="#DejaVuSans-43"/>
      <use xlink:href="#DejaVuSans-72" x="69.824219"/>
      <use xlink:href="#DejaVuSans-69" x="110.9375"/>
      <use xlink:href="#DejaVuSans-6d" x="138.720703"/>
      <use xlink:href="#DejaVuSans-65" x="236.132812"/>
     </g>
    </g>
    <g id="PathCollection_17">
     <defs>
      <path id="m2b4ece49dd" d="M 0 3 
C 0.795609 3 1.55874 2.683901 2.12132 2.12132 
C 2.683901 1.55874 3 0.795609 3 0 
C 3 -0.795609 2.683901 -1.55874 2.12132 -2.12132 
C 1.55874 -2.683901 0.795609 -3 0 -3 
C -0.795609 -3 -1.55874 -2.683901 -2.12132 -2.12132 
C -2.683901 -1.55874 -3 -0.795609 -3 0 
C -3 0.795609 -2.683901 1.55874 -2.12132 2.12132 
C -1.55874 2.683901 -0.795609 3 0 3 
z
" style="stroke: #38a9c5"/>
     </defs>
     <g>
      <use xlink:href="#m2b4ece49dd" x="282" y="77.030625" style="fill: #38a9c5; stroke: #38a9c5"/>
     </g>
    </g>
    <g id="text_17">
     <!-- Poverty -->
     <g transform="translate(303.6 80.180625)scale(0.12 -0.12)">
      <defs>
       <path id="DejaVuSans-50" d="M 1259 4147 
L 1259 2394 
L 2053 2394 
Q 2494 2394 2734 2622 
Q 2975 2850 2975 3272 
Q 2975 3691 2734 3919 
Q 2494 4147 2053 4147 
L 1259 4147 
z
M 628 4666 
L 2053 4666 
Q 2838 4666 3239 4311 
Q 3641 3956 3641 3272 
Q 3641 2581 3239 2228 
Q 2838 1875 2053 1875 
L 1259 1875 
L 1259 0 
L 628 0 
L 628 4666 
z
" transform="scale(0.015625)"/>
       <path id="DejaVuSans-79" d="M 2059 -325 
Q 1816 -950 1584 -1140 
Q 1353 -1331 966 -1331 
L 506 -1331 
L 506 -850 
L 844 -850 
Q 1081 -850 1212 -737 
Q 1344 -625 1503 -206 
L 1606 56 
L 191 3500 
L 800 3500 
L 1894 763 
L 2988 3500 
L 3597 3500 
L 2059 -325 
z
" transform="scale(0.015625)"/>
      </defs>
      <use xlink:href="#DejaVuSans-50"/>
      <use xlink:href="#DejaVuSans-6f" x="56.677734"/>
      <use xlink:href="#DejaVuSans-76" x="117.859375"/>
      <use xlink:href="#DejaVuSans-65" x="177.039062"/>
      <use xlink:href="#DejaVuSans-72" x="238.5625"/>
      <use xlink:href="#DejaVuSans-74" x="279.675781"/>
      <use xlink:href="#DejaVuSans-79" x="318.884766"/>
     </g>
    </g>
    <g id="PathCollection_18">
     <defs>
      <path id="me12174076d" d="M 0 3 
C 0.795609 3 1.55874 2.683901 2.12132 2.12132 
C 2.683901 1.55874 3 0.795609 3 0 
C 3 -0.795609 2.683901 -1.55874 2.12132 -2.12132 
C 1.55874 -2.683901 0.795609 -3 0 -3 
C -0.795609 -3 -1.55874 -2.683901 -2.12132 -2.12132 
C -2.683901 -1.55874 -3 -0.795609 -3 0 
C -3 0.795609 -2.683901 1.55874 -2.12132 2.12132 
C -1.55874 2.683901 -0.795609 3 0 3 
z
" style="stroke: #cc7af4"/>
     </defs>
     <g>
      <use xlink:href="#me12174076d" x="282" y="94.644375" style="fill: #cc7af4; stroke: #cc7af4"/>
     </g>
    </g>
    <g id="text_18">
     <!-- Non-vehicle Travel -->
     <g transform="translate(303.6 97.794375)scale(0.12 -0.12)">
      <defs>
       <path id="DejaVuSans-4e" d="M 628 4666 
L 1478 4666 
L 3547 763 
L 3547 4666 
L 4159 4666 
L 4159 0 
L 3309 0 
L 1241 3903 
L 1241 0 
L 628 0 
L 628 4666 
z
" transform="scale(0.015625)"/>
       <path id="DejaVuSans-6e" d="M 3513 2113 
L 3513 0 
L 2938 0 
L 2938 2094 
Q 2938 2591 2744 2837 
Q 2550 3084 2163 3084 
Q 1697 3084 1428 2787 
Q 1159 2491 1159 1978 
L 1159 0 
L 581 0 
L 581 3500 
L 1159 3500 
L 1159 2956 
Q 1366 3272 1645 3428 
Q 1925 3584 2291 3584 
Q 2894 3584 3203 3211 
Q 3513 2838 3513 2113 
z
" transform="scale(0.015625)"/>
       <path id="DejaVuSans-2d" d="M 313 2009 
L 1997 2009 
L 1997 1497 
L 313 1497 
L 313 2009 
z
" transform="scale(0.015625)"/>
      </defs>
      <use xlink:href="#DejaVuSans-4e"/>
      <use xlink:href="#DejaVuSans-6f" x="74.804688"/>
      <use xlink:href="#DejaVuSans-6e" x="135.986328"/>
      <use xlink:href="#DejaVuSans-2d" x="199.365234"/>
      <use xlink:href="#DejaVuSans-76" x="232.824219"/>
      <use xlink:href="#DejaVuSans-65" x="292.003906"/>
      <use xlink:href="#DejaVuSans-68" x="353.527344"/>
      <use xlink:href="#DejaVuSans-69" x="416.90625"/>
      <use xlink:href="#DejaVuSans-63" x="444.689453"/>
      <use xlink:href="#DejaVuSans-6c" x="499.669922"/>
      <use xlink:href="#DejaVuSans-65" x="527.453125"/>
      <use xlink:href="#DejaVuSans-20" x="588.976562"/>
      <use xlink:href="#DejaVuSans-54" x="620.763672"/>
      <use xlink:href="#DejaVuSans-72" x="667.097656"/>
      <use xlink:href="#DejaVuSans-61" x="708.210938"/>
      <use xlink:href="#DejaVuSans-76" x="769.490234"/>
      <use xlink:href="#DejaVuSans-65" x="828.669922"/>
      <use xlink:href="#DejaVuSans-6c" x="890.193359"/>
     </g>
    </g>
    <g id="text_19">
     <!-- city -->
     <g transform="translate(303.6 115.408125)scale(0.12 -0.12)">
      <use xlink:href="#DejaVuSans-63"/>
      <use xlink:href="#DejaVuSans-69" x="54.980469"/>
      <use xlink:href="#DejaVuSans-74" x="82.763672"/>
      <use xlink:href="#DejaVuSans-79" x="121.972656"/>
     </g>
    </g>
    <g id="PathCollection_19">
     <defs>
      <path id="mb0b9011a2e" d="M 0 3 
C 0.795609 3 1.55874 2.683901 2.12132 2.12132 
C 2.683901 1.55874 3 0.795609 3 0 
C 3 -0.795609 2.683901 -1.55874 2.12132 -2.12132 
C 1.55874 -2.683901 0.795609 -3 0 -3 
C -0.795609 -3 -1.55874 -2.683901 -2.12132 -2.12132 
C -2.683901 -1.55874 -3 -0.795609 -3 0 
C -3 0.795609 -2.683901 1.55874 -2.12132 2.12132 
C -1.55874 2.683901 -0.795609 3 0 3 
z
" style="stroke: #333333"/>
     </defs>
     <g>
      <use xlink:href="#mb0b9011a2e" x="282" y="129.871875" style="fill: #333333; stroke: #333333"/>
     </g>
    </g>
    <g id="text_20">
     <!-- boston -->
     <g transform="translate(303.6 133.021875)scale(0.12 -0.12)">
      <defs>
       <path id="DejaVuSans-62" d="M 3116 1747 
Q 3116 2381 2855 2742 
Q 2594 3103 2138 3103 
Q 1681 3103 1420 2742 
Q 1159 2381 1159 1747 
Q 1159 1113 1420 752 
Q 1681 391 2138 391 
Q 2594 391 2855 752 
Q 3116 1113 3116 1747 
z
M 1159 2969 
Q 1341 3281 1617 3432 
Q 1894 3584 2278 3584 
Q 2916 3584 3314 3078 
Q 3713 2572 3713 1747 
Q 3713 922 3314 415 
Q 2916 -91 2278 -91 
Q 1894 -91 1617 61 
Q 1341 213 1159 525 
L 1159 0 
L 581 0 
L 581 4863 
L 1159 4863 
L 1159 2969 
z
" transform="scale(0.015625)"/>
      </defs>
      <use xlink:href="#DejaVuSans-62"/>
      <use xlink:href="#DejaVuSans-6f" x="63.476562"/>
      <use xlink:href="#DejaVuSans-73" x="124.658203"/>
      <use xlink:href="#DejaVuSans-74" x="176.757812"/>
      <use xlink:href="#DejaVuSans-6f" x="215.966797"/>
      <use xlink:href="#DejaVuSans-6e" x="277.148438"/>
     </g>
    </g>
    <g id="PathCollection_20">
     <defs>
      <path id="mab57f02673" d="M -1.5 3 
L 0 1.5 
L 1.5 3 
L 3 1.5 
L 1.5 0 
L 3 -1.5 
L 1.5 -3 
L 0 -1.5 
L -1.5 -3 
L -3 -1.5 
L -1.5 0 
L -3 1.5 
z
" style="stroke: #333333"/>
     </defs>
     <g>
      <use xlink:href="#mab57f02673" x="282" y="147.485625" style="fill: #333333; stroke: #333333"/>
     </g>
    </g>
    <g id="text_21">
     <!-- chicago -->
     <g transform="translate(303.6 150.635625)scale(0.12 -0.12)">
      <use xlink:href="#DejaVuSans-63"/>
      <use xlink:href="#DejaVuSans-68" x="54.980469"/>
      <use xlink:href="#DejaVuSans-69" x="118.359375"/>
      <use xlink:href="#DejaVuSans-63" x="146.142578"/>
      <use xlink:href="#DejaVuSans-61" x="201.123047"/>
      <use xlink:href="#DejaVuSans-67" x="262.402344"/>
      <use xlink:href="#DejaVuSans-6f" x="325.878906"/>
     </g>
    </g>
    <g id="PathCollection_21">
     <defs>
      <path id="mbad7c376b4" d="M -2.12132 -2.12132 
L -2.12132 2.12132 
L 2.12132 2.12132 
L 2.12132 -2.12132 
z
" style="stroke: #333333"/>
     </defs>
     <g>
      <use xlink:href="#mbad7c376b4" x="282" y="165.099375" style="fill: #333333; stroke: #333333"/>
     </g>
    </g>
    <g id="text_22">
     <!-- losangeles -->
     <g transform="translate(303.6 168.249375)scale(0.12 -0.12)">
      <use xlink:href="#DejaVuSans-6c"/>
      <use xlink:href="#DejaVuSans-6f" x="27.783203"/>
      <use xlink:href="#DejaVuSans-73" x="88.964844"/>
      <use xlink:href="#DejaVuSans-61" x="141.064453"/>
      <use xlink:href="#DejaVuSans-6e" x="202.34375"/>
      <use xlink:href="#DejaVuSans-67" x="265.722656"/>
      <use xlink:href="#DejaVuSans-65" x="329.199219"/>
      <use xlink:href="#DejaVuSans-6c" x="390.722656"/>
      <use xlink:href="#DejaVuSans-65" x="418.505859"/>
      <use xlink:href="#DejaVuSans-73" x="480.029297"/>
     </g>
    </g>
    <g id="PathCollection_22">
     <defs>
      <path id="m95a8893b76" d="M -1 3 
L 1 3 
L 1 1 
L 3 1 
L 3 -1 
L 1 -1 
L 1 -3 
L -1 -3 
L -1 -1 
L -3 -1 
L -3 1 
L -1 1 
z
" style="stroke: #333333"/>
     </defs>
     <g>
      <use xlink:href="#m95a8893b76" x="282" y="182.713125" style="fill: #333333; stroke: #333333"/>
     </g>
    </g>
    <g id="text_23">
     <!-- miami -->
     <g transform="translate(303.6 185.863125)scale(0.12 -0.12)">
      <use xlink:href="#DejaVuSans-6d"/>
      <use xlink:href="#DejaVuSans-69" x="97.412109"/>
      <use xlink:href="#DejaVuSans-61" x="125.195312"/>
      <use xlink:href="#DejaVuSans-6d" x="186.474609"/>
      <use xlink:href="#DejaVuSans-69" x="283.886719"/>
     </g>
    </g>
    <g id="PathCollection_23">
     <defs>
      <path id="m3310914706" d="M 0 -3 
L -3 -0 
L -0 3 
L 3 0 
z
" style="stroke: #333333"/>
     </defs>
     <g>
      <use xlink:href="#m3310914706" x="282" y="200.326875" style="fill: #333333; stroke: #333333"/>
     </g>
    </g>
    <g id="text_24">
     <!-- newyork -->
     <g transform="translate(303.6 203.476875)scale(0.12 -0.12)">
      <defs>
       <path id="DejaVuSans-77" d="M 269 3500 
L 844 3500 
L 1563 769 
L 2278 3500 
L 2956 3500 
L 3675 769 
L 4391 3500 
L 4966 3500 
L 4050 0 
L 3372 0 
L 2619 2869 
L 1863 0 
L 1184 0 
L 269 3500 
z
" transform="scale(0.015625)"/>
       <path id="DejaVuSans-6b" d="M 581 4863 
L 1159 4863 
L 1159 1991 
L 2875 3500 
L 3609 3500 
L 1753 1863 
L 3688 0 
L 2938 0 
L 1159 1709 
L 1159 0 
L 581 0 
L 581 4863 
z
" transform="scale(0.015625)"/>
      </defs>
      <use xlink:href="#DejaVuSans-6e"/>
      <use xlink:href="#DejaVuSans-65" x="63.378906"/>
      <use xlink:href="#DejaVuSans-77" x="124.902344"/>
      <use xlink:href="#DejaVuSans-79" x="206.689453"/>
      <use xlink:href="#DejaVuSans-6f" x="265.869141"/>
      <use xlink:href="#DejaVuSans-72" x="327.050781"/>
      <use xlink:href="#DejaVuSans-6b" x="368.164062"/>
     </g>
    </g>
    <g id="PathCollection_24">
     <defs>
      <path id="m5a9e3e020d" d="M 0 -3 
L -1.06066 -1.06066 
L -3 -0 
L -1.06066 1.06066 
L -0 3 
L 1.06066 1.06066 
L 3 0 
L 1.06066 -1.06066 
z
" style="stroke: #333333"/>
     </defs>
     <g>
      <use xlink:href="#m5a9e3e020d" x="282" y="217.940625" style="fill: #333333; stroke: #333333"/>
     </g>
    </g>
    <g id="text_25">
     <!-- philadelphia -->
     <g transform="translate(303.6 221.090625)scale(0.12 -0.12)">
      <defs>
       <path id="DejaVuSans-64" d="M 2906 2969 
L 2906 4863 
L 3481 4863 
L 3481 0 
L 2906 0 
L 2906 525 
Q 2725 213 2448 61 
Q 2172 -91 1784 -91 
Q 1150 -91 751 415 
Q 353 922 353 1747 
Q 353 2572 751 3078 
Q 1150 3584 1784 3584 
Q 2172 3584 2448 3432 
Q 2725 3281 2906 2969 
z
M 947 1747 
Q 947 1113 1208 752 
Q 1469 391 1925 391 
Q 2381 391 2643 752 
Q 2906 1113 2906 1747 
Q 2906 2381 2643 2742 
Q 2381 3103 1925 3103 
Q 1469 3103 1208 2742 
Q 947 2381 947 1747 
z
" transform="scale(0.015625)"/>
      </defs>
      <use xlink:href="#DejaVuSans-70"/>
      <use xlink:href="#DejaVuSans-68" x="63.476562"/>
      <use xlink:href="#DejaVuSans-69" x="126.855469"/>
      <use xlink:href="#DejaVuSans-6c" x="154.638672"/>
      <use xlink:href="#DejaVuSans-61" x="182.421875"/>
      <use xlink:href="#DejaVuSans-64" x="243.701172"/>
      <use xlink:href="#DejaVuSans-65" x="307.177734"/>
      <use xlink:href="#DejaVuSans-6c" x="368.701172"/>
      <use xlink:href="#DejaVuSans-70" x="396.484375"/>
      <use xlink:href="#DejaVuSans-68" x="459.960938"/>
      <use xlink:href="#DejaVuSans-69" x="523.339844"/>
      <use xlink:href="#DejaVuSans-61" x="551.123047"/>
     </g>
    </g>
    <g id="PathCollection_25">
     <defs>
      <path id="m531e16da75" d="M 0 -3 
L -3 3 
L 3 3 
z
" style="stroke: #333333"/>
     </defs>
     <g>
      <use xlink:href="#m531e16da75" x="282" y="235.554375" style="fill: #333333; stroke: #333333"/>
     </g>
    </g>
    <g id="text_26">
     <!-- sanfrancisco -->
     <g transform="translate(303.6 238.704375)scale(0.12 -0.12)">
      <defs>
       <path id="DejaVuSans-66" d="M 2375 4863 
L 2375 4384 
L 1825 4384 
Q 1516 4384 1395 4259 
Q 1275 4134 1275 3809 
L 1275 3500 
L 2222 3500 
L 2222 3053 
L 1275 3053 
L 1275 0 
L 697 0 
L 697 3053 
L 147 3053 
L 147 3500 
L 697 3500 
L 697 3744 
Q 697 4328 969 4595 
Q 1241 4863 1831 4863 
L 2375 4863 
z
" transform="scale(0.015625)"/>
      </defs>
      <use xlink:href="#DejaVuSans-73"/>
      <use xlink:href="#DejaVuSans-61" x="52.099609"/>
      <use xlink:href="#DejaVuSans-6e" x="113.378906"/>
      <use xlink:href="#DejaVuSans-66" x="176.757812"/>
      <use xlink:href="#DejaVuSans-72" x="211.962891"/>
      <use xlink:href="#DejaVuSans-61" x="253.076172"/>
      <use xlink:href="#DejaVuSans-6e" x="314.355469"/>
      <use xlink:href="#DejaVuSans-63" x="377.734375"/>
      <use xlink:href="#DejaVuSans-69" x="432.714844"/>
      <use xlink:href="#DejaVuSans-73" x="460.498047"/>
      <use xlink:href="#DejaVuSans-63" x="512.597656"/>
      <use xlink:href="#DejaVuSans-6f" x="567.578125"/>
     </g>
    </g>
   </g>
  </g>
 </g>
 <defs>
  <clipPath id="p7aa9c07914">
   <rect x="36" y="34.56" width="223.2" height="217.44"/>
  </clipPath>
 </defs>
</svg>
