<?xml version="1.0" encoding="utf-8" standalone="no"?>
<!DOCTYPE svg PUBLIC "-//W3C//DTD SVG 1.1//EN"
  "http://www.w3.org/Graphics/SVG/1.1/DTD/svg11.dtd">
<svg xmlns:xlink="http://www.w3.org/1999/xlink" width="432pt" height="309.6pt" viewBox="0 0 432 309.6" xmlns="http://www.w3.org/2000/svg" version="1.1">
 <metadata>
  <rdf:RDF xmlns:dc="http://purl.org/dc/elements/1.1/" xmlns:cc="http://creativecommons.org/ns#" xmlns:rdf="http://www.w3.org/1999/02/22-rdf-syntax-ns#">
   <cc:Work>
    <dc:type rdf:resource="http://purl.org/dc/dcmitype/StillImage"/>
    <dc:date>2023-03-17T12:22:06.226472</dc:date>
    <dc:format>image/svg+xml</dc:format>
    <dc:creator>
     <cc:Agent>
      <dc:title>Matplotlib v3.5.1, https://matplotlib.org/</dc:title>
     </cc:Agent>
    </dc:creator>
   </cc:Work>
  </rdf:RDF>
 </metadata>
 <defs>
  <style type="text/css">*{stroke-linejoin: round; stroke-linecap: butt}</style>
 </defs>
 <g id="figure_1">
  <g id="patch_1">
   <path d="M 0 309.6 
L 432 309.6 
L 432 0 
L 0 0 
L 0 309.6 
z
" style="fill: none"/>
  </g>
  <g id="axes_1">
   <g id="patch_2">
    <path d="M 47.38125 268.44375 
L 261.84 268.44375 
L 261.84 33.2445 
L 47.38125 33.2445 
z
" style="fill: #ffffff"/>
   </g>
   <g id="PathCollection_1">
    <path d="M 145.719068 148.723595 
C 147.045084 148.723595 148.316968 148.196763 149.254602 147.259129 
C 150.192237 146.321494 150.719068 145.04961 150.719068 143.723595 
C 150.719068 142.397579 150.192237 141.125696 149.254602 140.188061 
C 148.316968 139.250427 147.045084 138.723595 145.719068 138.723595 
C 144.393053 138.723595 143.121169 139.250427 142.183534 140.188061 
C 141.2459 141.125696 140.719068 142.397579 140.719068 143.723595 
C 140.719068 145.04961 141.2459 146.321494 142.183534 147.259129 
C 143.121169 148.196763 144.393053 148.723595 145.719068 148.723595 
z
" clip-path="url(#p58c47ebf22)" style="fill: #f77189; stroke: #ffffff; stroke-width: 0.8"/>
    <path d="M 58.687416 191.284813 
C 60.013432 191.284813 61.285316 190.757981 62.22295 189.820347 
C 63.160585 188.882712 63.687416 187.610829 63.687416 186.284813 
C 63.687416 184.958798 63.160585 183.686914 62.22295 182.749279 
C 61.285316 181.811645 60.013432 181.284813 58.687416 181.284813 
C 57.361401 181.284813 56.089517 181.811645 55.151882 182.749279 
C 54.214248 183.686914 53.687416 184.958798 53.687416 186.284813 
C 53.687416 187.610829 54.214248 188.882712 55.151882 189.820347 
C 56.089517 190.757981 57.361401 191.284813 58.687416 191.284813 
z
" clip-path="url(#p58c47ebf22)" style="fill: #f77189; stroke: #ffffff; stroke-width: 0.8"/>
    <path d="M 182.05638 89.789491 
C 183.382396 89.789491 184.65428 89.262659 185.591914 88.325025 
C 186.529549 87.38739 187.05638 86.115506 187.05638 84.789491 
C 187.05638 83.463475 186.529549 82.191591 185.591914 81.253957 
C 184.65428 80.316322 183.382396 79.789491 182.05638 79.789491 
C 180.730365 79.789491 179.458481 80.316322 178.520847 81.253957 
C 177.583212 82.191591 177.05638 83.463475 177.05638 84.789491 
C 177.05638 86.115506 177.583212 87.38739 178.520847 88.325025 
C 179.458481 89.262659 180.730365 89.789491 182.05638 89.789491 
z
" clip-path="url(#p58c47ebf22)" style="fill: #ae9d31; stroke: #ffffff; stroke-width: 0.8"/>
    <path d="M 226.768086 111.247484 
C 228.094102 111.247484 229.365985 110.720653 230.30362 109.783018 
C 231.241254 108.845384 231.768086 107.5735 231.768086 106.247484 
C 231.768086 104.921469 231.241254 103.649585 230.30362 102.71195 
C 229.365985 101.774316 228.094102 101.247484 226.768086 101.247484 
C 225.442071 101.247484 224.170187 101.774316 223.232552 102.71195 
C 222.294918 103.649585 221.768086 104.921469 221.768086 106.247484 
C 221.768086 107.5735 222.294918 108.845384 223.232552 109.783018 
C 224.170187 110.720653 225.442071 111.247484 226.768086 111.247484 
z
" clip-path="url(#p58c47ebf22)" style="fill: #ae9d31; stroke: #ffffff; stroke-width: 0.8"/>
    <path d="M 144.866756 155.796216 
C 146.192771 155.796216 147.464655 155.269385 148.402289 154.33175 
C 149.339924 153.394116 149.866756 152.122232 149.866756 150.796216 
C 149.866756 149.470201 149.339924 148.198317 148.402289 147.260682 
C 147.464655 146.323048 146.192771 145.796216 144.866756 145.796216 
C 143.54074 145.796216 142.268856 146.323048 141.331222 147.260682 
C 140.393587 148.198317 139.866756 149.470201 139.866756 150.796216 
C 139.866756 152.122232 140.393587 153.394116 141.331222 154.33175 
C 142.268856 155.269385 143.54074 155.796216 144.866756 155.796216 
z
" clip-path="url(#p58c47ebf22)" style="fill: #ae9d31; stroke: #ffffff; stroke-width: 0.8"/>
    <path d="M 240.196296 104.182238 
C 241.522311 104.182238 242.794195 103.655406 243.73183 102.717772 
C 244.669464 101.780137 245.196296 100.508253 245.196296 99.182238 
C 245.196296 97.856222 244.669464 96.584339 243.73183 95.646704 
C 242.794195 94.709069 241.522311 94.182238 240.196296 94.182238 
C 238.87028 94.182238 237.598397 94.709069 236.660762 95.646704 
C 235.723127 96.584339 235.196296 97.856222 235.196296 99.182238 
C 235.196296 100.508253 235.723127 101.780137 236.660762 102.717772 
C 237.598397 103.655406 238.87028 104.182238 240.196296 104.182238 
z
" clip-path="url(#p58c47ebf22)" style="fill: #ae9d31; stroke: #ffffff; stroke-width: 0.8"/>
    <path d="M 225.719234 97.660446 
C 227.045249 97.660446 228.317133 97.133614 229.254767 96.19598 
C 230.192402 95.258345 230.719234 93.986461 230.719234 92.660446 
C 230.719234 91.33443 230.192402 90.062547 229.254767 89.124912 
C 228.317133 88.187277 227.045249 87.660446 225.719234 87.660446 
C 224.393218 87.660446 223.121334 88.187277 222.1837 89.124912 
C 221.246065 90.062547 220.719234 91.33443 220.719234 92.660446 
C 220.719234 93.986461 221.246065 95.258345 222.1837 96.19598 
C 223.121334 97.133614 224.393218 97.660446 225.719234 97.660446 
z
" clip-path="url(#p58c47ebf22)" style="fill: #ae9d31; stroke: #ffffff; stroke-width: 0.8"/>
    <path d="M 108.62798 228.831147 
C 109.953995 228.831147 111.225879 228.304315 112.163513 227.366681 
C 113.101148 226.429046 113.62798 225.157162 113.62798 223.831147 
C 113.62798 222.505131 113.101148 221.233247 112.163513 220.295613 
C 111.225879 219.357978 109.953995 218.831147 108.62798 218.831147 
C 107.301964 218.831147 106.03008 219.357978 105.092446 220.295613 
C 104.154811 221.233247 103.62798 222.505131 103.62798 223.831147 
C 103.62798 225.157162 104.154811 226.429046 105.092446 227.366681 
C 106.03008 228.304315 107.301964 228.831147 108.62798 228.831147 
z
" clip-path="url(#p58c47ebf22)" style="fill: #33b07a; stroke: #ffffff; stroke-width: 0.8"/>
    <path d="M 122.380007 173.027582 
C 123.706022 173.027582 124.977906 172.500751 125.91554 171.563116 
C 126.853175 170.625481 127.380007 169.353598 127.380007 168.027582 
C 127.380007 166.701567 126.853175 165.429683 125.91554 164.492048 
C 124.977906 163.554414 123.706022 163.027582 122.380007 163.027582 
C 121.053991 163.027582 119.782107 163.554414 118.844473 164.492048 
C 117.906838 165.429683 117.380007 166.701567 117.380007 168.027582 
C 117.380007 169.353598 117.906838 170.625481 118.844473 171.563116 
C 119.782107 172.500751 121.053991 173.027582 122.380007 173.027582 
z
" clip-path="url(#p58c47ebf22)" style="fill: #38a9c5; stroke: #ffffff; stroke-width: 0.8"/>
    <path d="M 77.503119 173.58276 
C 78.829135 173.58276 80.101018 173.055929 81.038653 172.118294 
C 81.976288 171.18066 82.503119 169.908776 82.503119 168.58276 
C 82.503119 167.256745 81.976288 165.984861 81.038653 165.047226 
C 80.101018 164.109592 78.829135 163.58276 77.503119 163.58276 
C 76.177104 163.58276 74.90522 164.109592 73.967585 165.047226 
C 73.029951 165.984861 72.503119 167.256745 72.503119 168.58276 
C 72.503119 169.908776 73.029951 171.18066 73.967585 172.118294 
C 74.90522 173.055929 76.177104 173.58276 77.503119 173.58276 
z
" clip-path="url(#p58c47ebf22)" style="fill: #f77189; stroke: #ffffff; stroke-width: 0.8"/>
    <path d="M 106.474675 168.03716 
C 107.80069 168.03716 109.072574 167.510329 110.010209 166.572694 
C 110.947843 165.63506 111.474675 164.363176 111.474675 163.03716 
C 111.474675 161.711145 110.947843 160.439261 110.010209 159.501626 
C 109.072574 158.563992 107.80069 158.03716 106.474675 158.03716 
C 105.148659 158.03716 103.876775 158.563992 102.939141 159.501626 
C 102.001506 160.439261 101.474675 161.711145 101.474675 163.03716 
C 101.474675 164.363176 102.001506 165.63506 102.939141 166.572694 
C 103.876775 167.510329 105.148659 168.03716 106.474675 168.03716 
z
" clip-path="url(#p58c47ebf22)" style="fill: #f77189; stroke: #ffffff; stroke-width: 0.8"/>
    <path d="M 57.129375 155.903715 
C 58.455391 155.903715 59.727274 155.376884 60.664909 154.439249 
C 61.602543 153.501615 62.129375 152.229731 62.129375 150.903715 
C 62.129375 149.5777 61.602543 148.305816 60.664909 147.368182 
C 59.727274 146.430547 58.455391 145.903715 57.129375 145.903715 
C 55.80336 145.903715 54.531476 146.430547 53.593841 147.368182 
C 52.656207 148.305816 52.129375 149.5777 52.129375 150.903715 
C 52.129375 152.229731 52.656207 153.501615 53.593841 154.439249 
C 54.531476 155.376884 55.80336 155.903715 57.129375 155.903715 
z
" clip-path="url(#p58c47ebf22)" style="fill: #f77189; stroke: #ffffff; stroke-width: 0.8"/>
    <path d="M 63.227936 176.160953 
C 64.553952 176.160953 65.825836 175.634122 66.76347 174.696487 
C 67.701105 173.758853 68.227936 172.486969 68.227936 171.160953 
C 68.227936 169.834938 67.701105 168.563054 66.76347 167.625419 
C 65.825836 166.687785 64.553952 166.160953 63.227936 166.160953 
C 61.901921 166.160953 60.630037 166.687785 59.692402 167.625419 
C 58.754768 168.563054 58.227936 169.834938 58.227936 171.160953 
C 58.227936 172.486969 58.754768 173.758853 59.692402 174.696487 
C 60.630037 175.634122 61.901921 176.160953 63.227936 176.160953 
z
" clip-path="url(#p58c47ebf22)" style="fill: #f77189; stroke: #ffffff; stroke-width: 0.8"/>
    <path d="M 134.836147 181.809059 
C 136.162163 181.809059 137.434047 181.282227 138.371681 180.344592 
C 139.309316 179.406958 139.836147 178.135074 139.836147 176.809059 
C 139.836147 175.483043 139.309316 174.211159 138.371681 173.273525 
C 137.434047 172.33589 136.162163 171.809059 134.836147 171.809059 
C 133.510132 171.809059 132.238248 172.33589 131.300613 173.273525 
C 130.362979 174.211159 129.836147 175.483043 129.836147 176.809059 
C 129.836147 178.135074 130.362979 179.406958 131.300613 180.344592 
C 132.238248 181.282227 133.510132 181.809059 134.836147 181.809059 
z
" clip-path="url(#p58c47ebf22)" style="fill: #38a9c5; stroke: #ffffff; stroke-width: 0.8"/>
    <path d="M 138.857859 164.460589 
C 140.183874 164.460589 141.455758 163.933757 142.393393 162.996122 
C 143.331027 162.058488 143.857859 160.786604 143.857859 159.460589 
C 143.857859 158.134573 143.331027 156.862689 142.393393 155.925055 
C 141.455758 154.98742 140.183874 154.460589 138.857859 154.460589 
C 137.531843 154.460589 136.259959 154.98742 135.322325 155.925055 
C 134.38469 156.862689 133.857859 158.134573 133.857859 159.460589 
C 133.857859 160.786604 134.38469 162.058488 135.322325 162.996122 
C 136.259959 163.933757 137.531843 164.460589 138.857859 164.460589 
z
" clip-path="url(#p58c47ebf22)" style="fill: #38a9c5; stroke: #ffffff; stroke-width: 0.8"/>
    <path d="M 146.089883 118.506661 
C 147.415899 118.506661 148.687783 117.97983 149.625417 117.042195 
C 150.563052 116.104561 151.089883 114.832677 151.089883 113.506661 
C 151.089883 112.180646 150.563052 110.908762 149.625417 109.971127 
C 148.687783 109.033493 147.415899 108.506661 146.089883 108.506661 
C 144.763868 108.506661 143.491984 109.033493 142.55435 109.971127 
C 141.616715 110.908762 141.089883 112.180646 141.089883 113.506661 
C 141.089883 114.832677 141.616715 116.104561 142.55435 117.042195 
C 143.491984 117.97983 144.763868 118.506661 146.089883 118.506661 
z
" clip-path="url(#p58c47ebf22)" style="fill: #cc7af4; stroke: #ffffff; stroke-width: 0.8"/>
    <path d="M 124.296938 139.614026 
C 125.622953 139.614026 126.894837 139.087194 127.832472 138.14956 
C 128.770106 137.211925 129.296938 135.940041 129.296938 134.614026 
C 129.296938 133.28801 128.770106 132.016127 127.832472 131.078492 
C 126.894837 130.140857 125.622953 129.614026 124.296938 129.614026 
C 122.970922 129.614026 121.699038 130.140857 120.761404 131.078492 
C 119.823769 132.016127 119.296938 133.28801 119.296938 134.614026 
C 119.296938 135.940041 119.823769 137.211925 120.761404 138.14956 
C 121.699038 139.087194 122.970922 139.614026 124.296938 139.614026 
z
" clip-path="url(#p58c47ebf22)" style="fill: #cc7af4; stroke: #ffffff; stroke-width: 0.8"/>
    <path d="M 106.502839 179.891747 
L 109.002839 177.391747 
L 111.502839 179.891747 
L 114.002839 177.391747 
L 111.502839 174.891747 
L 114.002839 172.391747 
L 111.502839 169.891747 
L 109.002839 172.391747 
L 106.502839 169.891747 
L 104.002839 172.391747 
L 106.502839 174.891747 
L 104.002839 177.391747 
z
" clip-path="url(#p58c47ebf22)" style="fill: #f77189; stroke: #ffffff; stroke-width: 0.8"/>
    <path d="M 81.668087 122.20978 
L 84.168087 119.70978 
L 86.668087 122.20978 
L 89.168087 119.70978 
L 86.668087 117.20978 
L 89.168087 114.70978 
L 86.668087 112.20978 
L 84.168087 114.70978 
L 81.668087 112.20978 
L 79.168087 114.70978 
L 81.668087 117.20978 
L 79.168087 119.70978 
z
" clip-path="url(#p58c47ebf22)" style="fill: #f77189; stroke: #ffffff; stroke-width: 0.8"/>
    <path d="M 170.965758 116.230503 
L 173.465758 113.730503 
L 175.965758 116.230503 
L 178.465758 113.730503 
L 175.965758 111.230503 
L 178.465758 108.730503 
L 175.965758 106.230503 
L 173.465758 108.730503 
L 170.965758 106.230503 
L 168.465758 108.730503 
L 170.965758 111.230503 
L 168.465758 113.730503 
z
" clip-path="url(#p58c47ebf22)" style="fill: #ae9d31; stroke: #ffffff; stroke-width: 0.8"/>
    <path d="M 169.174009 135.689746 
L 171.674009 133.189746 
L 174.174009 135.689746 
L 176.674009 133.189746 
L 174.174009 130.689746 
L 176.674009 128.189746 
L 174.174009 125.689746 
L 171.674009 128.189746 
L 169.174009 125.689746 
L 166.674009 128.189746 
L 169.174009 130.689746 
L 166.674009 133.189746 
z
" clip-path="url(#p58c47ebf22)" style="fill: #ae9d31; stroke: #ffffff; stroke-width: 0.8"/>
    <path d="M 125.249031 179.994973 
L 127.749031 177.494973 
L 130.249031 179.994973 
L 132.749031 177.494973 
L 130.249031 174.994973 
L 132.749031 172.494973 
L 130.249031 169.994973 
L 127.749031 172.494973 
L 125.249031 169.994973 
L 122.749031 172.494973 
L 125.249031 174.994973 
L 122.749031 177.494973 
z
" clip-path="url(#p58c47ebf22)" style="fill: #ae9d31; stroke: #ffffff; stroke-width: 0.8"/>
    <path d="M 177.567251 121.330161 
L 180.067251 118.830161 
L 182.567251 121.330161 
L 185.067251 118.830161 
L 182.567251 116.330161 
L 185.067251 113.830161 
L 182.567251 111.330161 
L 180.067251 113.830161 
L 177.567251 111.330161 
L 175.067251 113.830161 
L 177.567251 116.330161 
L 175.067251 118.830161 
z
" clip-path="url(#p58c47ebf22)" style="fill: #ae9d31; stroke: #ffffff; stroke-width: 0.8"/>
    <path d="M 167.844084 122.797401 
L 170.344084 120.297401 
L 172.844084 122.797401 
L 175.344084 120.297401 
L 172.844084 117.797401 
L 175.344084 115.297401 
L 172.844084 112.797401 
L 170.344084 115.297401 
L 167.844084 112.797401 
L 165.344084 115.297401 
L 167.844084 117.797401 
L 165.344084 120.297401 
z
" clip-path="url(#p58c47ebf22)" style="fill: #ae9d31; stroke: #ffffff; stroke-width: 0.8"/>
    <path d="M 87.100145 151.001508 
L 89.600145 148.501508 
L 92.100145 151.001508 
L 94.600145 148.501508 
L 92.100145 146.001508 
L 94.600145 143.501508 
L 92.100145 141.001508 
L 89.600145 143.501508 
L 87.100145 141.001508 
L 84.600145 143.501508 
L 87.100145 146.001508 
L 84.600145 148.501508 
z
" clip-path="url(#p58c47ebf22)" style="fill: #33b07a; stroke: #ffffff; stroke-width: 0.8"/>
    <path d="M 95.370795 124.34173 
L 97.870795 121.84173 
L 100.370795 124.34173 
L 102.870795 121.84173 
L 100.370795 119.34173 
L 102.870795 116.84173 
L 100.370795 114.34173 
L 97.870795 116.84173 
L 95.370795 114.34173 
L 92.870795 116.84173 
L 95.370795 119.34173 
L 92.870795 121.84173 
z
" clip-path="url(#p58c47ebf22)" style="fill: #38a9c5; stroke: #ffffff; stroke-width: 0.8"/>
    <path d="M 77.929595 113.084602 
L 80.429595 110.584602 
L 82.929595 113.084602 
L 85.429595 110.584602 
L 82.929595 108.084602 
L 85.429595 105.584602 
L 82.929595 103.084602 
L 80.429595 105.584602 
L 77.929595 103.084602 
L 75.429595 105.584602 
L 77.929595 108.084602 
L 75.429595 110.584602 
z
" clip-path="url(#p58c47ebf22)" style="fill: #f77189; stroke: #ffffff; stroke-width: 0.8"/>
    <path d="M 86.533252 129.805808 
L 89.033252 127.305808 
L 91.533252 129.805808 
L 94.033252 127.305808 
L 91.533252 124.805808 
L 94.033252 122.305808 
L 91.533252 119.805808 
L 89.033252 122.305808 
L 86.533252 119.805808 
L 84.033252 122.305808 
L 86.533252 124.805808 
L 84.033252 127.305808 
z
" clip-path="url(#p58c47ebf22)" style="fill: #f77189; stroke: #ffffff; stroke-width: 0.8"/>
    <path d="M 79.410996 128.776457 
L 81.910996 126.276457 
L 84.410996 128.776457 
L 86.910996 126.276457 
L 84.410996 123.776457 
L 86.910996 121.276457 
L 84.410996 118.776457 
L 81.910996 121.276457 
L 79.410996 118.776457 
L 76.910996 121.276457 
L 79.410996 123.776457 
L 76.910996 126.276457 
z
" clip-path="url(#p58c47ebf22)" style="fill: #f77189; stroke: #ffffff; stroke-width: 0.8"/>
    <path d="M 78.200013 124.44583 
L 80.700013 121.94583 
L 83.200013 124.44583 
L 85.700013 121.94583 
L 83.200013 119.44583 
L 85.700013 116.94583 
L 83.200013 114.44583 
L 80.700013 116.94583 
L 78.200013 114.44583 
L 75.700013 116.94583 
L 78.200013 119.44583 
L 75.700013 121.94583 
z
" clip-path="url(#p58c47ebf22)" style="fill: #f77189; stroke: #ffffff; stroke-width: 0.8"/>
    <path d="M 103.412073 142.828935 
L 105.912073 140.328935 
L 108.412073 142.828935 
L 110.912073 140.328935 
L 108.412073 137.828935 
L 110.912073 135.328935 
L 108.412073 132.828935 
L 105.912073 135.328935 
L 103.412073 132.828935 
L 100.912073 135.328935 
L 103.412073 137.828935 
L 100.912073 140.328935 
z
" clip-path="url(#p58c47ebf22)" style="fill: #38a9c5; stroke: #ffffff; stroke-width: 0.8"/>
    <path d="M 101.232872 119.857457 
L 103.732872 117.357457 
L 106.232872 119.857457 
L 108.732872 117.357457 
L 106.232872 114.857457 
L 108.732872 112.357457 
L 106.232872 109.857457 
L 103.732872 112.357457 
L 101.232872 109.857457 
L 98.732872 112.357457 
L 101.232872 114.857457 
L 98.732872 117.357457 
z
" clip-path="url(#p58c47ebf22)" style="fill: #38a9c5; stroke: #ffffff; stroke-width: 0.8"/>
    <path d="M 162.161441 115.780582 
L 164.661441 113.280582 
L 167.161441 115.780582 
L 169.661441 113.280582 
L 167.161441 110.780582 
L 169.661441 108.280582 
L 167.161441 105.780582 
L 164.661441 108.280582 
L 162.161441 105.780582 
L 159.661441 108.280582 
L 162.161441 110.780582 
L 159.661441 113.280582 
z
" clip-path="url(#p58c47ebf22)" style="fill: #cc7af4; stroke: #ffffff; stroke-width: 0.8"/>
    <path d="M 103.802326 185.072321 
L 106.302326 182.572321 
L 108.802326 185.072321 
L 111.302326 182.572321 
L 108.802326 180.072321 
L 111.302326 177.572321 
L 108.802326 175.072321 
L 106.302326 177.572321 
L 103.802326 175.072321 
L 101.302326 177.572321 
L 103.802326 180.072321 
L 101.302326 182.572321 
z
" clip-path="url(#p58c47ebf22)" style="fill: #cc7af4; stroke: #ffffff; stroke-width: 0.8"/>
    <path d="M 107.192185 162.030747 
L 107.192185 169.101815 
L 114.263253 169.101815 
L 114.263253 162.030747 
z
" clip-path="url(#p58c47ebf22)" style="fill: #f77189; stroke: #ffffff; stroke-width: 0.8"/>
    <path d="M 69.962155 155.671491 
L 69.962155 162.742559 
L 77.033223 162.742559 
L 77.033223 155.671491 
z
" clip-path="url(#p58c47ebf22)" style="fill: #f77189; stroke: #ffffff; stroke-width: 0.8"/>
    <path d="M 103.238228 198.628389 
L 103.238228 205.699457 
L 110.309295 205.699457 
L 110.309295 198.628389 
z
" clip-path="url(#p58c47ebf22)" style="fill: #ae9d31; stroke: #ffffff; stroke-width: 0.8"/>
    <path d="M 90.884823 182.798579 
L 90.884823 189.869647 
L 97.95589 189.869647 
L 97.95589 182.798579 
z
" clip-path="url(#p58c47ebf22)" style="fill: #ae9d31; stroke: #ffffff; stroke-width: 0.8"/>
    <path d="M 145.124733 239.791646 
L 145.124733 246.862714 
L 152.1958 246.862714 
L 152.1958 239.791646 
z
" clip-path="url(#p58c47ebf22)" style="fill: #ae9d31; stroke: #ffffff; stroke-width: 0.8"/>
    <path d="M 112.984275 142.45733 
L 112.984275 149.528398 
L 120.055343 149.528398 
L 120.055343 142.45733 
z
" clip-path="url(#p58c47ebf22)" style="fill: #33b07a; stroke: #ffffff; stroke-width: 0.8"/>
    <path d="M 138.318947 137.804644 
L 138.318947 144.875712 
L 145.390015 144.875712 
L 145.390015 137.804644 
z
" clip-path="url(#p58c47ebf22)" style="fill: #38a9c5; stroke: #ffffff; stroke-width: 0.8"/>
    <path d="M 99.368228 101.21001 
L 99.368228 108.281078 
L 106.439295 108.281078 
L 106.439295 101.21001 
z
" clip-path="url(#p58c47ebf22)" style="fill: #f77189; stroke: #ffffff; stroke-width: 0.8"/>
    <path d="M 106.544905 150.311089 
L 106.544905 157.382157 
L 113.615973 157.382157 
L 113.615973 150.311089 
z
" clip-path="url(#p58c47ebf22)" style="fill: #f77189; stroke: #ffffff; stroke-width: 0.8"/>
    <path d="M 83.766157 136.932463 
L 83.766157 144.003531 
L 90.837225 144.003531 
L 90.837225 136.932463 
z
" clip-path="url(#p58c47ebf22)" style="fill: #f77189; stroke: #ffffff; stroke-width: 0.8"/>
    <path d="M 87.042431 146.624895 
L 87.042431 153.695963 
L 94.113498 153.695963 
L 94.113498 146.624895 
z
" clip-path="url(#p58c47ebf22)" style="fill: #f77189; stroke: #ffffff; stroke-width: 0.8"/>
    <path d="M 103.64238 184.966853 
L 103.64238 192.037921 
L 110.713448 192.037921 
L 110.713448 184.966853 
z
" clip-path="url(#p58c47ebf22)" style="fill: #38a9c5; stroke: #ffffff; stroke-width: 0.8"/>
    <path d="M 122.399826 143.260333 
L 122.399826 150.331401 
L 129.470894 150.331401 
L 129.470894 143.260333 
z
" clip-path="url(#p58c47ebf22)" style="fill: #38a9c5; stroke: #ffffff; stroke-width: 0.8"/>
    <path d="M 113.506474 179.750948 
L 113.506474 186.822016 
L 120.577542 186.822016 
L 120.577542 179.750948 
z
" clip-path="url(#p58c47ebf22)" style="fill: #cc7af4; stroke: #ffffff; stroke-width: 0.8"/>
    <path d="M 76.949662 248.980366 
L 76.949662 256.051434 
L 84.020729 256.051434 
L 84.020729 248.980366 
z
" clip-path="url(#p58c47ebf22)" style="fill: #cc7af4; stroke: #ffffff; stroke-width: 0.8"/>
    <path d="M 119.396347 180.708299 
L 122.729681 180.708299 
L 122.729681 177.374966 
L 126.063014 177.374966 
L 126.063014 174.041632 
L 122.729681 174.041632 
L 122.729681 170.708299 
L 119.396347 170.708299 
L 119.396347 174.041632 
L 116.063014 174.041632 
L 116.063014 177.374966 
L 119.396347 177.374966 
z
" clip-path="url(#p58c47ebf22)" style="fill: #f77189; stroke: #ffffff; stroke-width: 0.8"/>
    <path d="M 85.357915 183.597401 
L 88.691248 183.597401 
L 88.691248 180.264068 
L 92.024581 180.264068 
L 92.024581 176.930735 
L 88.691248 176.930735 
L 88.691248 173.597401 
L 85.357915 173.597401 
L 85.357915 176.930735 
L 82.024581 176.930735 
L 82.024581 180.264068 
L 85.357915 180.264068 
z
" clip-path="url(#p58c47ebf22)" style="fill: #f77189; stroke: #ffffff; stroke-width: 0.8"/>
    <path d="M 88.831674 218.956478 
L 92.165008 218.956478 
L 92.165008 215.623145 
L 95.498341 215.623145 
L 95.498341 212.289811 
L 92.165008 212.289811 
L 92.165008 208.956478 
L 88.831674 208.956478 
L 88.831674 212.289811 
L 85.498341 212.289811 
L 85.498341 215.623145 
L 88.831674 215.623145 
z
" clip-path="url(#p58c47ebf22)" style="fill: #ae9d31; stroke: #ffffff; stroke-width: 0.8"/>
    <path d="M 131.694434 191.846974 
L 135.027768 191.846974 
L 135.027768 188.513641 
L 138.361101 188.513641 
L 138.361101 185.180308 
L 135.027768 185.180308 
L 135.027768 181.846974 
L 131.694434 181.846974 
L 131.694434 185.180308 
L 128.361101 185.180308 
L 128.361101 188.513641 
L 131.694434 188.513641 
z
" clip-path="url(#p58c47ebf22)" style="fill: #ae9d31; stroke: #ffffff; stroke-width: 0.8"/>
    <path d="M 104.023734 190.374341 
L 107.357067 190.374341 
L 107.357067 187.041007 
L 110.6904 187.041007 
L 110.6904 183.707674 
L 107.357067 183.707674 
L 107.357067 180.374341 
L 104.023734 180.374341 
L 104.023734 183.707674 
L 100.6904 183.707674 
L 100.6904 187.041007 
L 104.023734 187.041007 
z
" clip-path="url(#p58c47ebf22)" style="fill: #ae9d31; stroke: #ffffff; stroke-width: 0.8"/>
    <path d="M 131.791568 193.951332 
L 135.124902 193.951332 
L 135.124902 190.617999 
L 138.458235 190.617999 
L 138.458235 187.284666 
L 135.124902 187.284666 
L 135.124902 183.951332 
L 131.791568 183.951332 
L 131.791568 187.284666 
L 128.458235 187.284666 
L 128.458235 190.617999 
L 131.791568 190.617999 
z
" clip-path="url(#p58c47ebf22)" style="fill: #ae9d31; stroke: #ffffff; stroke-width: 0.8"/>
    <path d="M 121.519582 189.258018 
L 124.852915 189.258018 
L 124.852915 185.924684 
L 128.186248 185.924684 
L 128.186248 182.591351 
L 124.852915 182.591351 
L 124.852915 179.258018 
L 121.519582 179.258018 
L 121.519582 182.591351 
L 118.186248 182.591351 
L 118.186248 185.924684 
L 121.519582 185.924684 
z
" clip-path="url(#p58c47ebf22)" style="fill: #ae9d31; stroke: #ffffff; stroke-width: 0.8"/>
    <path d="M 97.261648 179.701107 
L 100.594981 179.701107 
L 100.594981 176.367773 
L 103.928314 176.367773 
L 103.928314 173.03444 
L 100.594981 173.03444 
L 100.594981 169.701107 
L 97.261648 169.701107 
L 97.261648 173.03444 
L 93.928314 173.03444 
L 93.928314 176.367773 
L 97.261648 176.367773 
z
" clip-path="url(#p58c47ebf22)" style="fill: #38a9c5; stroke: #ffffff; stroke-width: 0.8"/>
    <path d="M 105.792709 138.409234 
L 109.126042 138.409234 
L 109.126042 135.075901 
L 112.459375 135.075901 
L 112.459375 131.742567 
L 109.126042 131.742567 
L 109.126042 128.409234 
L 105.792709 128.409234 
L 105.792709 131.742567 
L 102.459375 131.742567 
L 102.459375 135.075901 
L 105.792709 135.075901 
z
" clip-path="url(#p58c47ebf22)" style="fill: #f77189; stroke: #ffffff; stroke-width: 0.8"/>
    <path d="M 76.03736 188.856148 
L 79.370694 188.856148 
L 79.370694 185.522815 
L 82.704027 185.522815 
L 82.704027 182.189481 
L 79.370694 182.189481 
L 79.370694 178.856148 
L 76.03736 178.856148 
L 76.03736 182.189481 
L 72.704027 182.189481 
L 72.704027 185.522815 
L 76.03736 185.522815 
z
" clip-path="url(#p58c47ebf22)" style="fill: #f77189; stroke: #ffffff; stroke-width: 0.8"/>
    <path d="M 95.851647 159.484587 
L 99.18498 159.484587 
L 99.18498 156.151253 
L 102.518314 156.151253 
L 102.518314 152.81792 
L 99.18498 152.81792 
L 99.18498 149.484587 
L 95.851647 149.484587 
L 95.851647 152.81792 
L 92.518314 152.81792 
L 92.518314 156.151253 
L 95.851647 156.151253 
z
" clip-path="url(#p58c47ebf22)" style="fill: #f77189; stroke: #ffffff; stroke-width: 0.8"/>
    <path d="M 82.765688 180.5892 
L 86.099021 180.5892 
L 86.099021 177.255866 
L 89.432354 177.255866 
L 89.432354 173.922533 
L 86.099021 173.922533 
L 86.099021 170.5892 
L 82.765688 170.5892 
L 82.765688 173.922533 
L 79.432354 173.922533 
L 79.432354 177.255866 
L 82.765688 177.255866 
z
" clip-path="url(#p58c47ebf22)" style="fill: #f77189; stroke: #ffffff; stroke-width: 0.8"/>
    <path d="M 74.782101 192.815997 
L 78.115434 192.815997 
L 78.115434 189.482664 
L 81.448768 189.482664 
L 81.448768 186.149331 
L 78.115434 186.149331 
L 78.115434 182.815997 
L 74.782101 182.815997 
L 74.782101 186.149331 
L 71.448768 186.149331 
L 71.448768 189.482664 
L 74.782101 189.482664 
z
" clip-path="url(#p58c47ebf22)" style="fill: #38a9c5; stroke: #ffffff; stroke-width: 0.8"/>
    <path d="M 90.627858 168.40865 
L 93.961192 168.40865 
L 93.961192 165.075317 
L 97.294525 165.075317 
L 97.294525 161.741983 
L 93.961192 161.741983 
L 93.961192 158.40865 
L 90.627858 158.40865 
L 90.627858 161.741983 
L 87.294525 161.741983 
L 87.294525 165.075317 
L 90.627858 165.075317 
z
" clip-path="url(#p58c47ebf22)" style="fill: #38a9c5; stroke: #ffffff; stroke-width: 0.8"/>
    <path d="M 85.146013 209.560549 
L 88.479347 209.560549 
L 88.479347 206.227216 
L 91.81268 206.227216 
L 91.81268 202.893882 
L 88.479347 202.893882 
L 88.479347 199.560549 
L 85.146013 199.560549 
L 85.146013 202.893882 
L 81.81268 202.893882 
L 81.81268 206.227216 
L 85.146013 206.227216 
z
" clip-path="url(#p58c47ebf22)" style="fill: #cc7af4; stroke: #ffffff; stroke-width: 0.8"/>
    <path d="M 102.079362 210.87484 
L 105.412695 210.87484 
L 105.412695 207.541507 
L 108.746028 207.541507 
L 108.746028 204.208174 
L 105.412695 204.208174 
L 105.412695 200.87484 
L 102.079362 200.87484 
L 102.079362 204.208174 
L 98.746028 204.208174 
L 98.746028 207.541507 
L 102.079362 207.541507 
z
" clip-path="url(#p58c47ebf22)" style="fill: #cc7af4; stroke: #ffffff; stroke-width: 0.8"/>
    <path d="M 116.45625 244.240262 
L 111.45625 249.240262 
L 116.45625 254.240262 
L 121.45625 249.240262 
z
" clip-path="url(#p58c47ebf22)" style="fill: #f77189; stroke: #ffffff; stroke-width: 0.8"/>
    <path d="M 77.743329 172.830016 
L 72.743329 177.830016 
L 77.743329 182.830016 
L 82.743329 177.830016 
z
" clip-path="url(#p58c47ebf22)" style="fill: #f77189; stroke: #ffffff; stroke-width: 0.8"/>
    <path d="M 210.018312 86.039151 
L 205.018312 91.039151 
L 210.018312 96.039151 
L 215.018312 91.039151 
z
" clip-path="url(#p58c47ebf22)" style="fill: #ae9d31; stroke: #ffffff; stroke-width: 0.8"/>
    <path d="M 214.636797 124.840836 
L 209.636797 129.840836 
L 214.636797 134.840836 
L 219.636797 129.840836 
z
" clip-path="url(#p58c47ebf22)" style="fill: #ae9d31; stroke: #ffffff; stroke-width: 0.8"/>
    <path d="M 117.877059 190.698411 
L 112.877059 195.698411 
L 117.877059 200.698411 
L 122.877059 195.698411 
z
" clip-path="url(#p58c47ebf22)" style="fill: #ae9d31; stroke: #ffffff; stroke-width: 0.8"/>
    <path d="M 235.466381 99.970073 
L 230.466381 104.970073 
L 235.466381 109.970073 
L 240.466381 104.970073 
z
" clip-path="url(#p58c47ebf22)" style="fill: #ae9d31; stroke: #ffffff; stroke-width: 0.8"/>
    <path d="M 220.211086 88.141214 
L 215.211086 93.141214 
L 220.211086 98.141214 
L 225.211086 93.141214 
z
" clip-path="url(#p58c47ebf22)" style="fill: #ae9d31; stroke: #ffffff; stroke-width: 0.8"/>
    <path d="M 127.281225 175.322349 
L 122.281225 180.322349 
L 127.281225 185.322349 
L 132.281225 180.322349 
z
" clip-path="url(#p58c47ebf22)" style="fill: #33b07a; stroke: #ffffff; stroke-width: 0.8"/>
    <path d="M 115.078351 151.200914 
L 110.078351 156.200914 
L 115.078351 161.200914 
L 120.078351 156.200914 
z
" clip-path="url(#p58c47ebf22)" style="fill: #38a9c5; stroke: #ffffff; stroke-width: 0.8"/>
    <path d="M 84.72209 157.679119 
L 79.72209 162.679119 
L 84.72209 167.679119 
L 89.72209 162.679119 
z
" clip-path="url(#p58c47ebf22)" style="fill: #f77189; stroke: #ffffff; stroke-width: 0.8"/>
    <path d="M 84.651755 176.123505 
L 79.651755 181.123505 
L 84.651755 186.123505 
L 89.651755 181.123505 
z
" clip-path="url(#p58c47ebf22)" style="fill: #f77189; stroke: #ffffff; stroke-width: 0.8"/>
    <path d="M 65.72811 170.416734 
L 60.72811 175.416734 
L 65.72811 180.416734 
L 70.72811 175.416734 
z
" clip-path="url(#p58c47ebf22)" style="fill: #f77189; stroke: #ffffff; stroke-width: 0.8"/>
    <path d="M 76.58513 182.351981 
L 71.58513 187.351981 
L 76.58513 192.351981 
L 81.58513 187.351981 
z
" clip-path="url(#p58c47ebf22)" style="fill: #f77189; stroke: #ffffff; stroke-width: 0.8"/>
    <path d="M 107.647823 169.121276 
L 102.647823 174.121276 
L 107.647823 179.121276 
L 112.647823 174.121276 
z
" clip-path="url(#p58c47ebf22)" style="fill: #38a9c5; stroke: #ffffff; stroke-width: 0.8"/>
    <path d="M 121.379489 147.180928 
L 116.379489 152.180928 
L 121.379489 157.180928 
L 126.379489 152.180928 
z
" clip-path="url(#p58c47ebf22)" style="fill: #38a9c5; stroke: #ffffff; stroke-width: 0.8"/>
    <path d="M 200.098493 88.329591 
L 195.098493 93.329591 
L 200.098493 98.329591 
L 205.098493 93.329591 
z
" clip-path="url(#p58c47ebf22)" style="fill: #cc7af4; stroke: #ffffff; stroke-width: 0.8"/>
    <path d="M 110.667542 184.391821 
L 105.667542 189.391821 
L 110.667542 194.391821 
L 115.667542 189.391821 
z
" clip-path="url(#p58c47ebf22)" style="fill: #cc7af4; stroke: #ffffff; stroke-width: 0.8"/>
    <path d="M 113.233628 168.389229 
L 111.465862 171.621462 
L 108.233628 173.389229 
L 111.465862 175.156996 
L 113.233628 178.389229 
L 115.001395 175.156996 
L 118.233628 173.389229 
L 115.001395 171.621462 
z
" clip-path="url(#p58c47ebf22)" style="fill: #f77189; stroke: #ffffff; stroke-width: 0.8"/>
    <path d="M 93.920549 147.758526 
L 92.152782 150.990759 
L 88.920549 152.758526 
L 92.152782 154.526293 
L 93.920549 157.758526 
L 95.688316 154.526293 
L 98.920549 152.758526 
L 95.688316 150.990759 
z
" clip-path="url(#p58c47ebf22)" style="fill: #f77189; stroke: #ffffff; stroke-width: 0.8"/>
    <path d="M 160.640606 100.98148 
L 158.872839 104.213713 
L 155.640606 105.98148 
L 158.872839 107.749247 
L 160.640606 110.98148 
L 162.408373 107.749247 
L 165.640606 105.98148 
L 162.408373 104.213713 
z
" clip-path="url(#p58c47ebf22)" style="fill: #ae9d31; stroke: #ffffff; stroke-width: 0.8"/>
    <path d="M 223.583615 105.48993 
L 221.815848 108.722163 
L 218.583615 110.48993 
L 221.815848 112.257697 
L 223.583615 115.48993 
L 225.351381 112.257697 
L 228.583615 110.48993 
L 225.351381 108.722163 
z
" clip-path="url(#p58c47ebf22)" style="fill: #ae9d31; stroke: #ffffff; stroke-width: 0.8"/>
    <path d="M 131.781737 175.714468 
L 130.01397 178.946701 
L 126.781737 180.714468 
L 130.01397 182.482235 
L 131.781737 185.714468 
L 133.549504 182.482235 
L 136.781737 180.714468 
L 133.549504 178.946701 
z
" clip-path="url(#p58c47ebf22)" style="fill: #ae9d31; stroke: #ffffff; stroke-width: 0.8"/>
    <path d="M 229.141388 100.446038 
L 227.373621 103.678271 
L 224.141388 105.446038 
L 227.373621 107.213804 
L 229.141388 110.446038 
L 230.909155 107.213804 
L 234.141388 105.446038 
L 230.909155 103.678271 
z
" clip-path="url(#p58c47ebf22)" style="fill: #ae9d31; stroke: #ffffff; stroke-width: 0.8"/>
    <path d="M 198.256868 99.868365 
L 196.489101 103.100599 
L 193.256868 104.868365 
L 196.489101 106.636132 
L 198.256868 109.868365 
L 200.024635 106.636132 
L 203.256868 104.868365 
L 200.024635 103.100599 
z
" clip-path="url(#p58c47ebf22)" style="fill: #ae9d31; stroke: #ffffff; stroke-width: 0.8"/>
    <path d="M 114.256202 151.546796 
L 112.488435 154.779029 
L 109.256202 156.546796 
L 112.488435 158.314563 
L 114.256202 161.546796 
L 116.023969 158.314563 
L 119.256202 156.546796 
L 116.023969 154.779029 
z
" clip-path="url(#p58c47ebf22)" style="fill: #33b07a; stroke: #ffffff; stroke-width: 0.8"/>
    <path d="M 137.505352 129.742979 
L 135.737585 132.975212 
L 132.505352 134.742979 
L 135.737585 136.510746 
L 137.505352 139.742979 
L 139.273119 136.510746 
L 142.505352 134.742979 
L 139.273119 132.975212 
z
" clip-path="url(#p58c47ebf22)" style="fill: #38a9c5; stroke: #ffffff; stroke-width: 0.8"/>
    <path d="M 114.121175 123.007863 
L 112.353408 126.240096 
L 109.121175 128.007863 
L 112.353408 129.77563 
L 114.121175 133.007863 
L 115.888942 129.77563 
L 119.121175 128.007863 
L 115.888942 126.240096 
z
" clip-path="url(#p58c47ebf22)" style="fill: #f77189; stroke: #ffffff; stroke-width: 0.8"/>
    <path d="M 125.996049 131.471398 
L 124.228282 134.703631 
L 120.996049 136.471398 
L 124.228282 138.239164 
L 125.996049 141.471398 
L 127.763816 138.239164 
L 130.996049 136.471398 
L 127.763816 134.703631 
z
" clip-path="url(#p58c47ebf22)" style="fill: #f77189; stroke: #ffffff; stroke-width: 0.8"/>
    <path d="M 73.299575 164.920246 
L 71.531808 168.152479 
L 68.299575 169.920246 
L 71.531808 171.688013 
L 73.299575 174.920246 
L 75.067342 171.688013 
L 78.299575 169.920246 
L 75.067342 168.152479 
z
" clip-path="url(#p58c47ebf22)" style="fill: #f77189; stroke: #ffffff; stroke-width: 0.8"/>
    <path d="M 101.608497 135.85129 
L 99.84073 139.083523 
L 96.608497 140.85129 
L 99.84073 142.619057 
L 101.608497 145.85129 
L 103.376264 142.619057 
L 106.608497 140.85129 
L 103.376264 139.083523 
z
" clip-path="url(#p58c47ebf22)" style="fill: #f77189; stroke: #ffffff; stroke-width: 0.8"/>
    <path d="M 127.157553 156.473058 
L 125.389786 159.705291 
L 122.157553 161.473058 
L 125.389786 163.240825 
L 127.157553 166.473058 
L 128.92532 163.240825 
L 132.157553 161.473058 
L 128.92532 159.705291 
z
" clip-path="url(#p58c47ebf22)" style="fill: #38a9c5; stroke: #ffffff; stroke-width: 0.8"/>
    <path d="M 136.813578 134.289445 
L 135.045811 137.521678 
L 131.813578 139.289445 
L 135.045811 141.057212 
L 136.813578 144.289445 
L 138.581345 141.057212 
L 141.813578 139.289445 
L 138.581345 137.521678 
z
" clip-path="url(#p58c47ebf22)" style="fill: #38a9c5; stroke: #ffffff; stroke-width: 0.8"/>
    <path d="M 157.774647 118.818516 
L 156.00688 122.05075 
L 152.774647 123.818516 
L 156.00688 125.586283 
L 157.774647 128.818516 
L 159.542414 125.586283 
L 162.774647 123.818516 
L 159.542414 122.05075 
z
" clip-path="url(#p58c47ebf22)" style="fill: #cc7af4; stroke: #ffffff; stroke-width: 0.8"/>
    <path d="M 105.614143 152.426985 
L 103.846376 155.659218 
L 100.614143 157.426985 
L 103.846376 159.194751 
L 105.614143 162.426985 
L 107.38191 159.194751 
L 110.614143 157.426985 
L 107.38191 155.659218 
z
" clip-path="url(#p58c47ebf22)" style="fill: #cc7af4; stroke: #ffffff; stroke-width: 0.8"/>
    <path d="M 59.155621 187.78189 
L 54.155621 197.78189 
L 64.155621 197.78189 
z
" clip-path="url(#p58c47ebf22)" style="fill: #f77189; stroke: #ffffff; stroke-width: 0.8"/>
    <path d="M 156.227566 125.632343 
L 151.227566 135.632343 
L 161.227566 135.632343 
z
" clip-path="url(#p58c47ebf22)" style="fill: #ae9d31; stroke: #ffffff; stroke-width: 0.8"/>
    <path d="M 170.070081 166.127065 
L 165.070081 176.127065 
L 175.070081 176.127065 
z
" clip-path="url(#p58c47ebf22)" style="fill: #ae9d31; stroke: #ffffff; stroke-width: 0.8"/>
    <path d="M 119.268644 156.549086 
L 114.268644 166.549086 
L 124.268644 166.549086 
z
" clip-path="url(#p58c47ebf22)" style="fill: #ae9d31; stroke: #ffffff; stroke-width: 0.8"/>
    <path d="M 181.399584 178.828896 
L 176.399584 188.828896 
L 186.399584 188.828896 
z
" clip-path="url(#p58c47ebf22)" style="fill: #ae9d31; stroke: #ffffff; stroke-width: 0.8"/>
    <path d="M 150.253182 146.941963 
L 145.253182 156.941963 
L 155.253182 156.941963 
z
" clip-path="url(#p58c47ebf22)" style="fill: #ae9d31; stroke: #ffffff; stroke-width: 0.8"/>
    <path d="M 131.128194 121.657883 
L 126.128194 131.657883 
L 136.128194 131.657883 
z
" clip-path="url(#p58c47ebf22)" style="fill: #33b07a; stroke: #ffffff; stroke-width: 0.8"/>
    <path d="M 85.481639 194.670447 
L 80.481639 204.670447 
L 90.481639 204.670447 
z
" clip-path="url(#p58c47ebf22)" style="fill: #38a9c5; stroke: #ffffff; stroke-width: 0.8"/>
    <path d="M 65.638617 160.38603 
L 60.638617 170.38603 
L 70.638617 170.38603 
z
" clip-path="url(#p58c47ebf22)" style="fill: #f77189; stroke: #ffffff; stroke-width: 0.8"/>
    <path d="M 66.48779 206.965709 
L 61.48779 216.965709 
L 71.48779 216.965709 
z
" clip-path="url(#p58c47ebf22)" style="fill: #f77189; stroke: #ffffff; stroke-width: 0.8"/>
    <path d="M 63.27081 195.625246 
L 58.27081 205.625246 
L 68.27081 205.625246 
z
" clip-path="url(#p58c47ebf22)" style="fill: #f77189; stroke: #ffffff; stroke-width: 0.8"/>
    <path d="M 58.300569 181.030206 
L 53.300569 191.030206 
L 63.300569 191.030206 
z
" clip-path="url(#p58c47ebf22)" style="fill: #f77189; stroke: #ffffff; stroke-width: 0.8"/>
    <path d="M 84.262251 209.61503 
L 79.262251 219.61503 
L 89.262251 219.61503 
z
" clip-path="url(#p58c47ebf22)" style="fill: #38a9c5; stroke: #ffffff; stroke-width: 0.8"/>
    <path d="M 85.825042 194.654805 
L 80.825042 204.654805 
L 90.825042 204.654805 
z
" clip-path="url(#p58c47ebf22)" style="fill: #38a9c5; stroke: #ffffff; stroke-width: 0.8"/>
    <path d="M 145.889504 129.241605 
L 140.889504 139.241605 
L 150.889504 139.241605 
z
" clip-path="url(#p58c47ebf22)" style="fill: #cc7af4; stroke: #ffffff; stroke-width: 0.8"/>
    <path d="M 123.539521 134.367088 
L 118.539521 144.367088 
L 128.539521 144.367088 
z
" clip-path="url(#p58c47ebf22)" style="fill: #cc7af4; stroke: #ffffff; stroke-width: 0.8"/>
   </g>
   <g id="PathCollection_2"/>
   <g id="PathCollection_3"/>
   <g id="PathCollection_4"/>
   <g id="PathCollection_5"/>
   <g id="PathCollection_6"/>
   <g id="PathCollection_7"/>
   <g id="PathCollection_8"/>
   <g id="PathCollection_9"/>
   <g id="PathCollection_10"/>
   <g id="PathCollection_11"/>
   <g id="PathCollection_12"/>
   <g id="PathCollection_13"/>
   <g id="matplotlib.axis_1">
    <g id="xtick_1">
     <g id="line2d_1">
      <defs>
       <path id="m45bf9aa139" d="M 0 0 
L 0 3.5 
" style="stroke: #000000; stroke-width: 0.8"/>
      </defs>
      <g>
       <use xlink:href="#m45bf9aa139" x="60.172267" y="268.44375" style="stroke: #000000; stroke-width: 0.8"/>
      </g>
     </g>
     <g id="text_1">
      <text style="font: 10px 'sans-serif'; text-anchor: middle" x="60.172267" y="283.042187" transform="rotate(-0, 60.172267, 283.042187)">0.0</text>
     </g>
    </g>
    <g id="xtick_2">
     <g id="line2d_2">
      <g>
       <use xlink:href="#m45bf9aa139" x="102.352401" y="268.44375" style="stroke: #000000; stroke-width: 0.8"/>
      </g>
     </g>
     <g id="text_2">
      <text style="font: 10px 'sans-serif'; text-anchor: middle" x="102.352401" y="283.042187" transform="rotate(-0, 102.352401, 283.042187)">0.2</text>
     </g>
    </g>
    <g id="xtick_3">
     <g id="line2d_3">
      <g>
       <use xlink:href="#m45bf9aa139" x="144.532534" y="268.44375" style="stroke: #000000; stroke-width: 0.8"/>
      </g>
     </g>
     <g id="text_3">
      <text style="font: 10px 'sans-serif'; text-anchor: middle" x="144.532534" y="283.042187" transform="rotate(-0, 144.532534, 283.042187)">0.4</text>
     </g>
    </g>
    <g id="xtick_4">
     <g id="line2d_4">
      <g>
       <use xlink:href="#m45bf9aa139" x="186.712668" y="268.44375" style="stroke: #000000; stroke-width: 0.8"/>
      </g>
     </g>
     <g id="text_4">
      <text style="font: 10px 'sans-serif'; text-anchor: middle" x="186.712668" y="283.042187" transform="rotate(-0, 186.712668, 283.042187)">0.6</text>
     </g>
    </g>
    <g id="xtick_5">
     <g id="line2d_5">
      <g>
       <use xlink:href="#m45bf9aa139" x="228.892802" y="268.44375" style="stroke: #000000; stroke-width: 0.8"/>
      </g>
     </g>
     <g id="text_5">
      <text style="font: 10px 'sans-serif'; text-anchor: middle" x="228.892802" y="283.042187" transform="rotate(-0, 228.892802, 283.042187)">0.8</text>
     </g>
    </g>
    <g id="text_6">
     <text style="font: 10px 'sans-serif'; text-anchor: middle" x="154.610625" y="296.720312" transform="rotate(-0, 154.610625, 296.720312)">pop</text>
    </g>
   </g>
   <g id="matplotlib.axis_2">
    <g id="ytick_1">
     <g id="line2d_6">
      <defs>
       <path id="mf68eb15ee8" d="M 0 0 
L -3.5 0 
" style="stroke: #000000; stroke-width: 0.8"/>
      </defs>
      <g>
       <use xlink:href="#mf68eb15ee8" x="47.38125" y="257.752875" style="stroke: #000000; stroke-width: 0.8"/>
      </g>
     </g>
     <g id="text_7">
      <text style="font: 10px 'sans-serif'; text-anchor: end" x="40.38125" y="261.552094" transform="rotate(-0, 40.38125, 261.552094)">0.0</text>
     </g>
    </g>
    <g id="ytick_2">
     <g id="line2d_7">
      <g>
       <use xlink:href="#mf68eb15ee8" x="47.38125" y="210.760018" style="stroke: #000000; stroke-width: 0.8"/>
      </g>
     </g>
     <g id="text_8">
      <text style="font: 10px 'sans-serif'; text-anchor: end" x="40.38125" y="214.559237" transform="rotate(-0, 40.38125, 214.559237)">0.2</text>
     </g>
    </g>
    <g id="ytick_3">
     <g id="line2d_8">
      <g>
       <use xlink:href="#mf68eb15ee8" x="47.38125" y="163.767161" style="stroke: #000000; stroke-width: 0.8"/>
      </g>
     </g>
     <g id="text_9">
      <text style="font: 10px 'sans-serif'; text-anchor: end" x="40.38125" y="167.566379" transform="rotate(-0, 40.38125, 167.566379)">0.4</text>
     </g>
    </g>
    <g id="ytick_4">
     <g id="line2d_9">
      <g>
       <use xlink:href="#mf68eb15ee8" x="47.38125" y="116.774304" style="stroke: #000000; stroke-width: 0.8"/>
      </g>
     </g>
     <g id="text_10">
      <text style="font: 10px 'sans-serif'; text-anchor: end" x="40.38125" y="120.573522" transform="rotate(-0, 40.38125, 120.573522)">0.6</text>
     </g>
    </g>
    <g id="ytick_5">
     <g id="line2d_10">
      <g>
       <use xlink:href="#mf68eb15ee8" x="47.38125" y="69.781446" style="stroke: #000000; stroke-width: 0.8"/>
      </g>
     </g>
     <g id="text_11">
      <text style="font: 10px 'sans-serif'; text-anchor: end" x="40.38125" y="73.580665" transform="rotate(-0, 40.38125, 73.580665)">0.8</text>
     </g>
    </g>
    <g id="text_12">
     <text style="font: 10px 'sans-serif'; text-anchor: middle" x="18.398438" y="150.844125" transform="rotate(-90, 18.398438, 150.844125)">poi</text>
    </g>
   </g>
   <g id="line2d_11">
    <path d="M 60.172267 257.752875 
L 252.091875 43.935375 
" clip-path="url(#p58c47ebf22)" style="fill: none; stroke-dasharray: 10,6; stroke-dashoffset: 0; stroke: #000000"/>
   </g>
   <g id="patch_3">
    <path d="M 47.38125 268.44375 
L 47.38125 33.2445 
" style="fill: none; stroke: #000000; stroke-width: 0.8; stroke-linejoin: miter; stroke-linecap: square"/>
   </g>
   <g id="patch_4">
    <path d="M 47.38125 268.44375 
L 261.84 268.44375 
" style="fill: none; stroke: #000000; stroke-width: 0.8; stroke-linejoin: miter; stroke-linecap: square"/>
   </g>
   <g id="legend_1">
    <g id="patch_5">
     <path d="M 270.24 262.44375 
L 418.8 262.44375 
Q 421.2 262.44375 421.2 260.04375 
L 421.2 14.65125 
Q 421.2 12.25125 418.8 12.25125 
L 270.24 12.25125 
Q 267.84 12.25125 267.84 14.65125 
L 267.84 260.04375 
Q 267.84 262.44375 270.24 262.44375 
z
" style="fill: #ffffff; opacity: 0.8; stroke: #cccccc; stroke-linejoin: miter"/>
    </g>
    <g id="text_13">
     <text style="font: 12px 'sans-serif'; text-anchor: start" x="306.24" y="26.169375" transform="rotate(-0, 306.24, 26.169375)">topic</text>
    </g>
    <g id="PathCollection_14">
     <defs>
      <path id="m2d162d1aab" d="M 0 3 
C 0.795609 3 1.55874 2.683901 2.12132 2.12132 
C 2.683901 1.55874 3 0.795609 3 0 
C 3 -0.795609 2.683901 -1.55874 2.12132 -2.12132 
C 1.55874 -2.683901 0.795609 -3 0 -3 
C -0.795609 -3 -1.55874 -2.683901 -2.12132 -2.12132 
C -2.683901 -1.55874 -3 -0.795609 -3 0 
C -3 0.795609 -2.683901 1.55874 -2.12132 2.12132 
C -1.55874 2.683901 -0.795609 3 0 3 
z
" style="stroke: #f77189"/>
     </defs>
     <g>
      <use xlink:href="#m2d162d1aab" x="284.64" y="40.633125" style="fill: #f77189; stroke: #f77189"/>
     </g>
    </g>
    <g id="text_14">
     <text style="font: 12px 'sans-serif'; text-anchor: start" x="306.24" y="43.783125" transform="rotate(-0, 306.24, 43.783125)">Health</text>
    </g>
    <g id="PathCollection_15">
     <defs>
      <path id="m52b83f3f33" d="M 0 3 
C 0.795609 3 1.55874 2.683901 2.12132 2.12132 
C 2.683901 1.55874 3 0.795609 3 0 
C 3 -0.795609 2.683901 -1.55874 2.12132 -2.12132 
C 1.55874 -2.683901 0.795609 -3 0 -3 
C -0.795609 -3 -1.55874 -2.683901 -2.12132 -2.12132 
C -2.683901 -1.55874 -3 -0.795609 -3 0 
C -3 0.795609 -2.683901 1.55874 -2.12132 2.12132 
C -1.55874 2.683901 -0.795609 3 0 3 
z
" style="stroke: #ae9d31"/>
     </defs>
     <g>
      <use xlink:href="#m52b83f3f33" x="284.64" y="58.246875" style="fill: #ae9d31; stroke: #ae9d31"/>
     </g>
    </g>
    <g id="text_15">
     <text style="font: 12px 'sans-serif'; text-anchor: start" x="306.24" y="61.396875" transform="rotate(-0, 306.24, 61.396875)">Vehicle Travel</text>
    </g>
    <g id="PathCollection_16">
     <defs>
      <path id="m3e95a3f6aa" d="M 0 3 
C 0.795609 3 1.55874 2.683901 2.12132 2.12132 
C 2.683901 1.55874 3 0.795609 3 0 
C 3 -0.795609 2.683901 -1.55874 2.12132 -2.12132 
C 1.55874 -2.683901 0.795609 -3 0 -3 
C -0.795609 -3 -1.55874 -2.683901 -2.12132 -2.12132 
C -2.683901 -1.55874 -3 -0.795609 -3 0 
C -3 0.795609 -2.683901 1.55874 -2.12132 2.12132 
C -1.55874 2.683901 -0.795609 3 0 3 
z
" style="stroke: #33b07a"/>
     </defs>
     <g>
      <use xlink:href="#m3e95a3f6aa" x="284.64" y="75.860625" style="fill: #33b07a; stroke: #33b07a"/>
     </g>
    </g>
    <g id="text_16">
     <text style="font: 12px 'sans-serif'; text-anchor: start" x="306.24" y="79.010625" transform="rotate(-0, 306.24, 79.010625)">Crime</text>
    </g>
    <g id="PathCollection_17">
     <defs>
      <path id="maeccf608ef" d="M 0 3 
C 0.795609 3 1.55874 2.683901 2.12132 2.12132 
C 2.683901 1.55874 3 0.795609 3 0 
C 3 -0.795609 2.683901 -1.55874 2.12132 -2.12132 
C 1.55874 -2.683901 0.795609 -3 0 -3 
C -0.795609 -3 -1.55874 -2.683901 -2.12132 -2.12132 
C -2.683901 -1.55874 -3 -0.795609 -3 0 
C -3 0.795609 -2.683901 1.55874 -2.12132 2.12132 
C -1.55874 2.683901 -0.795609 3 0 3 
z
" style="stroke: #38a9c5"/>
     </defs>
     <g>
      <use xlink:href="#maeccf608ef" x="284.64" y="93.474375" style="fill: #38a9c5; stroke: #38a9c5"/>
     </g>
    </g>
    <g id="text_17">
     <text style="font: 12px 'sans-serif'; text-anchor: start" x="306.24" y="96.624375" transform="rotate(-0, 306.24, 96.624375)">Poverty</text>
    </g>
    <g id="PathCollection_18">
     <defs>
      <path id="m2f47c75f03" d="M 0 3 
C 0.795609 3 1.55874 2.683901 2.12132 2.12132 
C 2.683901 1.55874 3 0.795609 3 0 
C 3 -0.795609 2.683901 -1.55874 2.12132 -2.12132 
C 1.55874 -2.683901 0.795609 -3 0 -3 
C -0.795609 -3 -1.55874 -2.683901 -2.12132 -2.12132 
C -2.683901 -1.55874 -3 -0.795609 -3 0 
C -3 0.795609 -2.683901 1.55874 -2.12132 2.12132 
C -1.55874 2.683901 -0.795609 3 0 3 
z
" style="stroke: #cc7af4"/>
     </defs>
     <g>
      <use xlink:href="#m2f47c75f03" x="284.64" y="111.088125" style="fill: #cc7af4; stroke: #cc7af4"/>
     </g>
    </g>
    <g id="text_18">
     <text style="font: 12px 'sans-serif'; text-anchor: start" x="306.24" y="114.238125" transform="rotate(-0, 306.24, 114.238125)">Non-vehicle Travel</text>
    </g>
    <g id="text_19">
     <text style="font: 12px 'sans-serif'; text-anchor: start" x="306.24" y="131.851875" transform="rotate(-0, 306.24, 131.851875)">city</text>
    </g>
    <g id="PathCollection_19">
     <defs>
      <path id="m61a910179f" d="M 0 3 
C 0.795609 3 1.55874 2.683901 2.12132 2.12132 
C 2.683901 1.55874 3 0.795609 3 0 
C 3 -0.795609 2.683901 -1.55874 2.12132 -2.12132 
C 1.55874 -2.683901 0.795609 -3 0 -3 
C -0.795609 -3 -1.55874 -2.683901 -2.12132 -2.12132 
C -2.683901 -1.55874 -3 -0.795609 -3 0 
C -3 0.795609 -2.683901 1.55874 -2.12132 2.12132 
C -1.55874 2.683901 -0.795609 3 0 3 
z
" style="stroke: #333333"/>
     </defs>
     <g>
      <use xlink:href="#m61a910179f" x="284.64" y="146.315625" style="fill: #333333; stroke: #333333"/>
     </g>
    </g>
    <g id="text_20">
     <text style="font: 12px 'sans-serif'; text-anchor: start" x="306.24" y="149.465625" transform="rotate(-0, 306.24, 149.465625)">boston</text>
    </g>
    <g id="PathCollection_20">
     <defs>
      <path id="m14cd72861c" d="M -1.5 3 
L 0 1.5 
L 1.5 3 
L 3 1.5 
L 1.5 0 
L 3 -1.5 
L 1.5 -3 
L 0 -1.5 
L -1.5 -3 
L -3 -1.5 
L -1.5 0 
L -3 1.5 
z
" style="stroke: #333333"/>
     </defs>
     <g>
      <use xlink:href="#m14cd72861c" x="284.64" y="163.929375" style="fill: #333333; stroke: #333333"/>
     </g>
    </g>
    <g id="text_21">
     <text style="font: 12px 'sans-serif'; text-anchor: start" x="306.24" y="167.079375" transform="rotate(-0, 306.24, 167.079375)">chicago</text>
    </g>
    <g id="PathCollection_21">
     <defs>
      <path id="m03d51f3c7a" d="M -2.12132 -2.12132 
L -2.12132 2.12132 
L 2.12132 2.12132 
L 2.12132 -2.12132 
z
" style="stroke: #333333"/>
     </defs>
     <g>
      <use xlink:href="#m03d51f3c7a" x="284.64" y="181.543125" style="fill: #333333; stroke: #333333"/>
     </g>
    </g>
    <g id="text_22">
     <text style="font: 12px 'sans-serif'; text-anchor: start" x="306.24" y="184.693125" transform="rotate(-0, 306.24, 184.693125)">losangeles</text>
    </g>
    <g id="PathCollection_22">
     <defs>
      <path id="ma1e6ea774c" d="M -1 3 
L 1 3 
L 1 1 
L 3 1 
L 3 -1 
L 1 -1 
L 1 -3 
L -1 -3 
L -1 -1 
L -3 -1 
L -3 1 
L -1 1 
z
" style="stroke: #333333"/>
     </defs>
     <g>
      <use xlink:href="#ma1e6ea774c" x="284.64" y="199.156875" style="fill: #333333; stroke: #333333"/>
     </g>
    </g>
    <g id="text_23">
     <text style="font: 12px 'sans-serif'; text-anchor: start" x="306.24" y="202.306875" transform="rotate(-0, 306.24, 202.306875)">miami</text>
    </g>
    <g id="PathCollection_23">
     <defs>
      <path id="m73c8fcdae2" d="M 0 -3 
L -3 -0 
L -0 3 
L 3 0 
z
" style="stroke: #333333"/>
     </defs>
     <g>
      <use xlink:href="#m73c8fcdae2" x="284.64" y="216.770625" style="fill: #333333; stroke: #333333"/>
     </g>
    </g>
    <g id="text_24">
     <text style="font: 12px 'sans-serif'; text-anchor: start" x="306.24" y="219.920625" transform="rotate(-0, 306.24, 219.920625)">newyork</text>
    </g>
    <g id="PathCollection_24">
     <defs>
      <path id="m16ec0b321b" d="M 0 -3 
L -1.06066 -1.06066 
L -3 -0 
L -1.06066 1.06066 
L -0 3 
L 1.06066 1.06066 
L 3 0 
L 1.06066 -1.06066 
z
" style="stroke: #333333"/>
     </defs>
     <g>
      <use xlink:href="#m16ec0b321b" x="284.64" y="234.384375" style="fill: #333333; stroke: #333333"/>
     </g>
    </g>
    <g id="text_25">
     <text style="font: 12px 'sans-serif'; text-anchor: start" x="306.24" y="237.534375" transform="rotate(-0, 306.24, 237.534375)">philadelphia</text>
    </g>
    <g id="PathCollection_25">
     <defs>
      <path id="m9af242bf28" d="M 0 -3 
L -3 3 
L 3 3 
z
" style="stroke: #333333"/>
     </defs>
     <g>
      <use xlink:href="#m9af242bf28" x="284.64" y="251.998125" style="fill: #333333; stroke: #333333"/>
     </g>
    </g>
    <g id="text_26">
     <text style="font: 12px 'sans-serif'; text-anchor: start" x="306.24" y="255.148125" transform="rotate(-0, 306.24, 255.148125)">sanfrancisco</text>
    </g>
   </g>
  </g>
 </g>
 <defs>
  <clipPath id="p58c47ebf22">
   <rect x="47.38125" y="33.2445" width="214.45875" height="235.19925"/>
  </clipPath>
 </defs>
</svg>
