<?xml version="1.0" encoding="utf-8" standalone="no"?>
<!DOCTYPE svg PUBLIC "-//W3C//DTD SVG 1.1//EN"
  "http://www.w3.org/Graphics/SVG/1.1/DTD/svg11.dtd">
<svg xmlns:xlink="http://www.w3.org/1999/xlink" width="288pt" height="288pt" viewBox="0 0 288 288" xmlns="http://www.w3.org/2000/svg" version="1.1">
 <metadata>
  <rdf:RDF xmlns:dc="http://purl.org/dc/elements/1.1/" xmlns:cc="http://creativecommons.org/ns#" xmlns:rdf="http://www.w3.org/1999/02/22-rdf-syntax-ns#">
   <cc:Work>
    <dc:type rdf:resource="http://purl.org/dc/dcmitype/StillImage"/>
    <dc:date>2023-03-16T23:16:13.945481</dc:date>
    <dc:format>image/svg+xml</dc:format>
    <dc:creator>
     <cc:Agent>
      <dc:title>Matplotlib v3.5.1, https://matplotlib.org/</dc:title>
     </cc:Agent>
    </dc:creator>
   </cc:Work>
  </rdf:RDF>
 </metadata>
 <defs>
  <style type="text/css">*{stroke-linejoin: round; stroke-linecap: butt}</style>
 </defs>
 <g id="figure_1">
  <g id="patch_1">
   <path d="M 0 288 
L 288 288 
L 288 0 
L 0 0 
L 0 288 
z
" style="fill: none"/>
  </g>
  <g id="axes_1">
   <g id="patch_2">
    <path d="M 36 252 
L 259.2 252 
L 259.2 34.56 
L 36 34.56 
z
" style="fill: #ffffff"/>
   </g>
   <g id="PathCollection_1">
    <path d="M 67.203859 182.334638 
C 68.529875 182.334638 69.801759 181.807806 70.739393 180.870172 
C 71.677028 179.932537 72.203859 178.660653 72.203859 177.334638 
C 72.203859 176.008622 71.677028 174.736738 70.739393 173.799104 
C 69.801759 172.861469 68.529875 172.334638 67.203859 172.334638 
C 65.877844 172.334638 64.60596 172.861469 63.668325 173.799104 
C 62.730691 174.736738 62.203859 176.008622 62.203859 177.334638 
C 62.203859 178.660653 62.730691 179.932537 63.668325 180.870172 
C 64.60596 181.807806 65.877844 182.334638 67.203859 182.334638 
z
" clip-path="url(#paacfb48819)" style="fill: #f77189; stroke: #ffffff; stroke-width: 0.8"/>
    <path d="M 136.187103 152.571802 
C 137.513118 152.571802 138.785002 152.04497 139.722637 151.107336 
C 140.660271 150.169701 141.187103 148.897817 141.187103 147.571802 
C 141.187103 146.245786 140.660271 144.973903 139.722637 144.036268 
C 138.785002 143.098634 137.513118 142.571802 136.187103 142.571802 
C 134.861087 142.571802 133.589203 143.098634 132.651569 144.036268 
C 131.713934 144.973903 131.187103 146.245786 131.187103 147.571802 
C 131.187103 148.897817 131.713934 150.169701 132.651569 151.107336 
C 133.589203 152.04497 134.861087 152.571802 136.187103 152.571802 
z
" clip-path="url(#paacfb48819)" style="fill: #f77189; stroke: #ffffff; stroke-width: 0.8"/>
    <path d="M 48.065431 200.305287 
C 49.391446 200.305287 50.66333 199.778456 51.600965 198.840821 
C 52.538599 197.903186 53.065431 196.631303 53.065431 195.305287 
C 53.065431 193.979272 52.538599 192.707388 51.600965 191.769753 
C 50.66333 190.832119 49.391446 190.305287 48.065431 190.305287 
C 46.739415 190.305287 45.467532 190.832119 44.529897 191.769753 
C 43.592262 192.707388 43.065431 193.979272 43.065431 195.305287 
C 43.065431 196.631303 43.592262 197.903186 44.529897 198.840821 
C 45.467532 199.778456 46.739415 200.305287 48.065431 200.305287 
z
" clip-path="url(#paacfb48819)" style="fill: #f77189; stroke: #ffffff; stroke-width: 0.8"/>
    <path d="M 145.496554 131.959391 
C 146.822569 131.959391 148.094453 131.43256 149.032088 130.494925 
C 149.969722 129.557291 150.496554 128.285407 150.496554 126.959391 
C 150.496554 125.633376 149.969722 124.361492 149.032088 123.423857 
C 148.094453 122.486223 146.822569 121.959391 145.496554 121.959391 
C 144.170538 121.959391 142.898654 122.486223 141.96102 123.423857 
C 141.023385 124.361492 140.496554 125.633376 140.496554 126.959391 
C 140.496554 128.285407 141.023385 129.557291 141.96102 130.494925 
C 142.898654 131.43256 144.170538 131.959391 145.496554 131.959391 
z
" clip-path="url(#paacfb48819)" style="fill: #ae9d31; stroke: #ffffff; stroke-width: 0.8"/>
    <path d="M 203.613994 134.917461 
C 204.940009 134.917461 206.211893 134.39063 207.149528 133.452995 
C 208.087162 132.51536 208.613994 131.243477 208.613994 129.917461 
C 208.613994 128.591446 208.087162 127.319562 207.149528 126.381927 
C 206.211893 125.444293 204.940009 124.917461 203.613994 124.917461 
C 202.287978 124.917461 201.016094 125.444293 200.07846 126.381927 
C 199.140825 127.319562 198.613994 128.591446 198.613994 129.917461 
C 198.613994 131.243477 199.140825 132.51536 200.07846 133.452995 
C 201.016094 134.39063 202.287978 134.917461 203.613994 134.917461 
z
" clip-path="url(#paacfb48819)" style="fill: #ae9d31; stroke: #ffffff; stroke-width: 0.8"/>
    <path d="M 122.317691 167.668882 
C 123.643706 167.668882 124.91559 167.14205 125.853225 166.204416 
C 126.790859 165.266781 127.317691 163.994897 127.317691 162.668882 
C 127.317691 161.342866 126.790859 160.070982 125.853225 159.133348 
C 124.91559 158.195713 123.643706 157.668882 122.317691 157.668882 
C 120.991675 157.668882 119.719791 158.195713 118.782157 159.133348 
C 117.844522 160.070982 117.317691 161.342866 117.317691 162.668882 
C 117.317691 163.994897 117.844522 165.266781 118.782157 166.204416 
C 119.719791 167.14205 120.991675 167.668882 122.317691 167.668882 
z
" clip-path="url(#paacfb48819)" style="fill: #ae9d31; stroke: #ffffff; stroke-width: 0.8"/>
    <path d="M 217.93618 126.88359 
C 219.262196 126.88359 220.53408 126.356758 221.471714 125.419124 
C 222.409349 124.481489 222.93618 123.209605 222.93618 121.88359 
C 222.93618 120.557574 222.409349 119.28569 221.471714 118.348056 
C 220.53408 117.410421 219.262196 116.88359 217.93618 116.88359 
C 216.610165 116.88359 215.338281 117.410421 214.400646 118.348056 
C 213.463012 119.28569 212.93618 120.557574 212.93618 121.88359 
C 212.93618 123.209605 213.463012 124.481489 214.400646 125.419124 
C 215.338281 126.356758 216.610165 126.88359 217.93618 126.88359 
z
" clip-path="url(#paacfb48819)" style="fill: #ae9d31; stroke: #ffffff; stroke-width: 0.8"/>
    <path d="M 202.996667 121.012492 
C 204.322683 121.012492 205.594567 120.485661 206.532201 119.548026 
C 207.469836 118.610392 207.996667 117.338508 207.996667 116.012492 
C 207.996667 114.686477 207.469836 113.414593 206.532201 112.476958 
C 205.594567 111.539324 204.322683 111.012492 202.996667 111.012492 
C 201.670652 111.012492 200.398768 111.539324 199.461134 112.476958 
C 198.523499 113.414593 197.996667 114.686477 197.996667 116.012492 
C 197.996667 117.338508 198.523499 118.610392 199.461134 119.548026 
C 200.398768 120.485661 201.670652 121.012492 202.996667 121.012492 
z
" clip-path="url(#paacfb48819)" style="fill: #ae9d31; stroke: #ffffff; stroke-width: 0.8"/>
    <path d="M 100.008787 210.879491 
C 101.334803 210.879491 102.606686 210.352659 103.544321 209.415025 
C 104.481955 208.47739 105.008787 207.205506 105.008787 205.879491 
C 105.008787 204.553475 104.481955 203.281591 103.544321 202.343957 
C 102.606686 201.406322 101.334803 200.879491 100.008787 200.879491 
C 98.682772 200.879491 97.410888 201.406322 96.473253 202.343957 
C 95.535619 203.281591 95.008787 204.553475 95.008787 205.879491 
C 95.008787 207.205506 95.535619 208.47739 96.473253 209.415025 
C 97.410888 210.352659 98.682772 210.879491 100.008787 210.879491 
z
" clip-path="url(#paacfb48819)" style="fill: #33b07a; stroke: #ffffff; stroke-width: 0.8"/>
    <path d="M 98.69716 194.990573 
C 100.023175 194.990573 101.295059 194.463742 102.232694 193.526107 
C 103.170328 192.588473 103.69716 191.316589 103.69716 189.990573 
C 103.69716 188.664558 103.170328 187.392674 102.232694 186.455039 
C 101.295059 185.517405 100.023175 184.990573 98.69716 184.990573 
C 97.371144 184.990573 96.09926 185.517405 95.161626 186.455039 
C 94.223991 187.392674 93.69716 188.664558 93.69716 189.990573 
C 93.69716 191.316589 94.223991 192.588473 95.161626 193.526107 
C 96.09926 194.463742 97.371144 194.990573 98.69716 194.990573 
z
" clip-path="url(#paacfb48819)" style="fill: #38a9c5; stroke: #ffffff; stroke-width: 0.8"/>
    <path d="M 67.878555 186.970881 
C 69.204571 186.970881 70.476455 186.444049 71.414089 185.506414 
C 72.351724 184.56878 72.878555 183.296896 72.878555 181.970881 
C 72.878555 180.644865 72.351724 179.372981 71.414089 178.435347 
C 70.476455 177.497712 69.204571 176.970881 67.878555 176.970881 
C 66.55254 176.970881 65.280656 177.497712 64.343021 178.435347 
C 63.405387 179.372981 62.878555 180.644865 62.878555 181.970881 
C 62.878555 183.296896 63.405387 184.56878 64.343021 185.506414 
C 65.280656 186.444049 66.55254 186.970881 67.878555 186.970881 
z
" clip-path="url(#paacfb48819)" style="fill: #f77189; stroke: #ffffff; stroke-width: 0.8"/>
    <path d="M 94.687508 175.021903 
C 96.013523 175.021903 97.285407 174.495071 98.223042 173.557437 
C 99.160676 172.619802 99.687508 171.347918 99.687508 170.021903 
C 99.687508 168.695887 99.160676 167.424003 98.223042 166.486369 
C 97.285407 165.548734 96.013523 165.021903 94.687508 165.021903 
C 93.361492 165.021903 92.089608 165.548734 91.151974 166.486369 
C 90.214339 167.424003 89.687508 168.695887 89.687508 170.021903 
C 89.687508 171.347918 90.214339 172.619802 91.151974 173.557437 
C 92.089608 174.495071 93.361492 175.021903 94.687508 175.021903 
z
" clip-path="url(#paacfb48819)" style="fill: #f77189; stroke: #ffffff; stroke-width: 0.8"/>
    <path d="M 46.460887 174.976961 
C 47.786902 174.976961 49.058786 174.450129 49.996421 173.512494 
C 50.934055 172.57486 51.460887 171.302976 51.460887 169.976961 
C 51.460887 168.650945 50.934055 167.379061 49.996421 166.441427 
C 49.058786 165.503792 47.786902 164.976961 46.460887 164.976961 
C 45.134871 164.976961 43.862988 165.503792 42.925353 166.441427 
C 41.987718 167.379061 41.460887 168.650945 41.460887 169.976961 
C 41.460887 171.302976 41.987718 172.57486 42.925353 173.512494 
C 43.862988 174.450129 45.134871 174.976961 46.460887 174.976961 
z
" clip-path="url(#paacfb48819)" style="fill: #f77189; stroke: #ffffff; stroke-width: 0.8"/>
    <path d="M 54.213602 187.102833 
C 55.539618 187.102833 56.811501 186.576002 57.749136 185.638367 
C 58.686771 184.700733 59.213602 183.428849 59.213602 182.102833 
C 59.213602 180.776818 58.686771 179.504934 57.749136 178.5673 
C 56.811501 177.629665 55.539618 177.102833 54.213602 177.102833 
C 52.887587 177.102833 51.615703 177.629665 50.678068 178.5673 
C 49.740434 179.504934 49.213602 180.776818 49.213602 182.102833 
C 49.213602 183.428849 49.740434 184.700733 50.678068 185.638367 
C 51.615703 186.576002 52.887587 187.102833 54.213602 187.102833 
z
" clip-path="url(#paacfb48819)" style="fill: #f77189; stroke: #ffffff; stroke-width: 0.8"/>
    <path d="M 111.479617 196.644231 
C 112.805633 196.644231 114.077516 196.1174 115.015151 195.179765 
C 115.952785 194.242131 116.479617 192.970247 116.479617 191.644231 
C 116.479617 190.318216 115.952785 189.046332 115.015151 188.108698 
C 114.077516 187.171063 112.805633 186.644231 111.479617 186.644231 
C 110.153602 186.644231 108.881718 187.171063 107.944083 188.108698 
C 107.006449 189.046332 106.479617 190.318216 106.479617 191.644231 
C 106.479617 192.970247 107.006449 194.242131 107.944083 195.179765 
C 108.881718 196.1174 110.153602 196.644231 111.479617 196.644231 
z
" clip-path="url(#paacfb48819)" style="fill: #38a9c5; stroke: #ffffff; stroke-width: 0.8"/>
    <path d="M 124.140523 153.201126 
C 125.466539 153.201126 126.738423 152.674295 127.676057 151.73666 
C 128.613692 150.799026 129.140523 149.527142 129.140523 148.201126 
C 129.140523 146.875111 128.613692 145.603227 127.676057 144.665592 
C 126.738423 143.727958 125.466539 143.201126 124.140523 143.201126 
C 122.814508 143.201126 121.542624 143.727958 120.604989 144.665592 
C 119.667355 145.603227 119.140523 146.875111 119.140523 148.201126 
C 119.140523 149.527142 119.667355 150.799026 120.604989 151.73666 
C 121.542624 152.674295 122.814508 153.201126 124.140523 153.201126 
z
" clip-path="url(#paacfb48819)" style="fill: #cc7af4; stroke: #ffffff; stroke-width: 0.8"/>
    <path d="M 102.955891 156.733883 
C 104.281906 156.733883 105.55379 156.207051 106.491424 155.269416 
C 107.429059 154.331782 107.955891 153.059898 107.955891 151.733883 
C 107.955891 150.407867 107.429059 149.135983 106.491424 148.198349 
C 105.55379 147.260714 104.281906 146.733883 102.955891 146.733883 
C 101.629875 146.733883 100.357991 147.260714 99.420357 148.198349 
C 98.482722 149.135983 97.955891 150.407867 97.955891 151.733883 
C 97.955891 153.059898 98.482722 154.331782 99.420357 155.269416 
C 100.357991 156.207051 101.629875 156.733883 102.955891 156.733883 
z
" clip-path="url(#paacfb48819)" style="fill: #cc7af4; stroke: #ffffff; stroke-width: 0.8"/>
    <path d="M 67.89623 174.934895 
L 70.39623 172.434895 
L 72.89623 174.934895 
L 75.39623 172.434895 
L 72.89623 169.934895 
L 75.39623 167.434895 
L 72.89623 164.934895 
L 70.39623 167.434895 
L 67.89623 164.934895 
L 65.39623 167.434895 
L 67.89623 169.934895 
L 65.39623 172.434895 
z
" clip-path="url(#paacfb48819)" style="fill: #f77189; stroke: #ffffff; stroke-width: 0.8"/>
    <path d="M 83.60192 183.953861 
L 86.10192 181.453861 
L 88.60192 183.953861 
L 91.10192 181.453861 
L 88.60192 178.953861 
L 91.10192 176.453861 
L 88.60192 173.953861 
L 86.10192 176.453861 
L 83.60192 173.953861 
L 81.10192 176.453861 
L 83.60192 178.953861 
L 81.10192 181.453861 
z
" clip-path="url(#paacfb48819)" style="fill: #f77189; stroke: #ffffff; stroke-width: 0.8"/>
    <path d="M 64.628106 150.542245 
L 67.128106 148.042245 
L 69.628106 150.542245 
L 72.128106 148.042245 
L 69.628106 145.542245 
L 72.128106 143.042245 
L 69.628106 140.542245 
L 67.128106 143.042245 
L 64.628106 140.542245 
L 62.128106 143.042245 
L 64.628106 145.542245 
L 62.128106 148.042245 
z
" clip-path="url(#paacfb48819)" style="fill: #f77189; stroke: #ffffff; stroke-width: 0.8"/>
    <path d="M 120.849984 155.497279 
L 123.349984 152.997279 
L 125.849984 155.497279 
L 128.349984 152.997279 
L 125.849984 150.497279 
L 128.349984 147.997279 
L 125.849984 145.497279 
L 123.349984 147.997279 
L 120.849984 145.497279 
L 118.349984 147.997279 
L 120.849984 150.497279 
L 118.349984 152.997279 
z
" clip-path="url(#paacfb48819)" style="fill: #ae9d31; stroke: #ffffff; stroke-width: 0.8"/>
    <path d="M 148.829219 146.743332 
L 151.329219 144.243332 
L 153.829219 146.743332 
L 156.329219 144.243332 
L 153.829219 141.743332 
L 156.329219 139.243332 
L 153.829219 136.743332 
L 151.329219 139.243332 
L 148.829219 136.743332 
L 146.329219 139.243332 
L 148.829219 141.743332 
L 146.329219 144.243332 
z
" clip-path="url(#paacfb48819)" style="fill: #ae9d31; stroke: #ffffff; stroke-width: 0.8"/>
    <path d="M 106.549805 182.431773 
L 109.049805 179.931773 
L 111.549805 182.431773 
L 114.049805 179.931773 
L 111.549805 177.431773 
L 114.049805 174.931773 
L 111.549805 172.431773 
L 109.049805 174.931773 
L 106.549805 172.431773 
L 104.049805 174.931773 
L 106.549805 177.431773 
L 104.049805 179.931773 
z
" clip-path="url(#paacfb48819)" style="fill: #ae9d31; stroke: #ffffff; stroke-width: 0.8"/>
    <path d="M 156.557214 134.537793 
L 159.057214 132.037793 
L 161.557214 134.537793 
L 164.057214 132.037793 
L 161.557214 129.537793 
L 164.057214 127.037793 
L 161.557214 124.537793 
L 159.057214 127.037793 
L 156.557214 124.537793 
L 154.057214 127.037793 
L 156.557214 129.537793 
L 154.057214 132.037793 
z
" clip-path="url(#paacfb48819)" style="fill: #ae9d31; stroke: #ffffff; stroke-width: 0.8"/>
    <path d="M 137.098241 142.127277 
L 139.598241 139.627277 
L 142.098241 142.127277 
L 144.598241 139.627277 
L 142.098241 137.127277 
L 144.598241 134.627277 
L 142.098241 132.127277 
L 139.598241 134.627277 
L 137.098241 132.127277 
L 134.598241 134.627277 
L 137.098241 137.127277 
L 134.598241 139.627277 
z
" clip-path="url(#paacfb48819)" style="fill: #ae9d31; stroke: #ffffff; stroke-width: 0.8"/>
    <path d="M 74.86661 169.437634 
L 77.36661 166.937634 
L 79.86661 169.437634 
L 82.36661 166.937634 
L 79.86661 164.437634 
L 82.36661 161.937634 
L 79.86661 159.437634 
L 77.36661 161.937634 
L 74.86661 159.437634 
L 72.36661 161.937634 
L 74.86661 164.437634 
L 72.36661 166.937634 
z
" clip-path="url(#paacfb48819)" style="fill: #33b07a; stroke: #ffffff; stroke-width: 0.8"/>
    <path d="M 69.447928 164.512809 
L 71.947928 162.012809 
L 74.447928 164.512809 
L 76.947928 162.012809 
L 74.447928 159.512809 
L 76.947928 157.012809 
L 74.447928 154.512809 
L 71.947928 157.012809 
L 69.447928 154.512809 
L 66.947928 157.012809 
L 69.447928 159.512809 
L 66.947928 162.012809 
z
" clip-path="url(#paacfb48819)" style="fill: #38a9c5; stroke: #ffffff; stroke-width: 0.8"/>
    <path d="M 58.609608 139.333576 
L 61.109608 136.833576 
L 63.609608 139.333576 
L 66.109608 136.833576 
L 63.609608 134.333576 
L 66.109608 131.833576 
L 63.609608 129.333576 
L 61.109608 131.833576 
L 58.609608 129.333576 
L 56.109608 131.833576 
L 58.609608 134.333576 
L 56.109608 136.833576 
z
" clip-path="url(#paacfb48819)" style="fill: #f77189; stroke: #ffffff; stroke-width: 0.8"/>
    <path d="M 63.396951 150.876792 
L 65.896951 148.376792 
L 68.396951 150.876792 
L 70.896951 148.376792 
L 68.396951 145.876792 
L 70.896951 143.376792 
L 68.396951 140.876792 
L 65.896951 143.376792 
L 63.396951 140.876792 
L 60.896951 143.376792 
L 63.396951 145.876792 
L 60.896951 148.376792 
z
" clip-path="url(#paacfb48819)" style="fill: #f77189; stroke: #ffffff; stroke-width: 0.8"/>
    <path d="M 55.355197 165.830453 
L 57.855197 163.330453 
L 60.355197 165.830453 
L 62.855197 163.330453 
L 60.355197 160.830453 
L 62.855197 158.330453 
L 60.355197 155.830453 
L 57.855197 158.330453 
L 55.355197 155.830453 
L 52.855197 158.330453 
L 55.355197 160.830453 
L 52.855197 163.330453 
z
" clip-path="url(#paacfb48819)" style="fill: #f77189; stroke: #ffffff; stroke-width: 0.8"/>
    <path d="M 61.541799 147.292437 
L 64.041799 144.792437 
L 66.541799 147.292437 
L 69.041799 144.792437 
L 66.541799 142.292437 
L 69.041799 139.792437 
L 66.541799 137.292437 
L 64.041799 139.792437 
L 61.541799 137.292437 
L 59.041799 139.792437 
L 61.541799 142.292437 
L 59.041799 144.792437 
z
" clip-path="url(#paacfb48819)" style="fill: #f77189; stroke: #ffffff; stroke-width: 0.8"/>
    <path d="M 71.843901 166.188127 
L 74.343901 163.688127 
L 76.843901 166.188127 
L 79.343901 163.688127 
L 76.843901 161.188127 
L 79.343901 158.688127 
L 76.843901 156.188127 
L 74.343901 158.688127 
L 71.843901 156.188127 
L 69.343901 158.688127 
L 71.843901 161.188127 
L 69.343901 163.688127 
z
" clip-path="url(#paacfb48819)" style="fill: #38a9c5; stroke: #ffffff; stroke-width: 0.8"/>
    <path d="M 115.814941 157.595758 
L 118.314941 155.095758 
L 120.814941 157.595758 
L 123.314941 155.095758 
L 120.814941 152.595758 
L 123.314941 150.095758 
L 120.814941 147.595758 
L 118.314941 150.095758 
L 115.814941 147.595758 
L 113.314941 150.095758 
L 115.814941 152.595758 
L 113.314941 155.095758 
z
" clip-path="url(#paacfb48819)" style="fill: #cc7af4; stroke: #ffffff; stroke-width: 0.8"/>
    <path d="M 79.485815 195.091658 
L 81.985815 192.591658 
L 84.485815 195.091658 
L 86.985815 192.591658 
L 84.485815 190.091658 
L 86.985815 187.591658 
L 84.485815 185.091658 
L 81.985815 187.591658 
L 79.485815 185.091658 
L 76.985815 187.591658 
L 79.485815 190.091658 
L 76.985815 192.591658 
z
" clip-path="url(#paacfb48819)" style="fill: #cc7af4; stroke: #ffffff; stroke-width: 0.8"/>
    <path d="M 47.98712 221.846395 
L 47.98712 228.917463 
L 55.058188 228.917463 
L 55.058188 221.846395 
z
" clip-path="url(#paacfb48819)" style="fill: #f77189; stroke: #ffffff; stroke-width: 0.8"/>
    <path d="M 90.04937 160.430712 
L 90.04937 167.50178 
L 97.120437 167.50178 
L 97.120437 160.430712 
z
" clip-path="url(#paacfb48819)" style="fill: #f77189; stroke: #ffffff; stroke-width: 0.8"/>
    <path d="M 51.92529 157.372554 
L 51.92529 164.443622 
L 58.996357 164.443622 
L 58.996357 157.372554 
z
" clip-path="url(#paacfb48819)" style="fill: #f77189; stroke: #ffffff; stroke-width: 0.8"/>
    <path d="M 114.886869 184.16113 
L 114.886869 191.232198 
L 121.957936 191.232198 
L 121.957936 184.16113 
z
" clip-path="url(#paacfb48819)" style="fill: #ae9d31; stroke: #ffffff; stroke-width: 0.8"/>
    <path d="M 63.971646 185.020651 
L 63.971646 192.091719 
L 71.042714 192.091719 
L 71.042714 185.020651 
z
" clip-path="url(#paacfb48819)" style="fill: #ae9d31; stroke: #ffffff; stroke-width: 0.8"/>
    <path d="M 129.248526 176.72182 
L 129.248526 183.792888 
L 136.319594 183.792888 
L 136.319594 176.72182 
z
" clip-path="url(#paacfb48819)" style="fill: #ae9d31; stroke: #ffffff; stroke-width: 0.8"/>
    <path d="M 113.284472 176.860302 
L 113.284472 183.93137 
L 120.35554 183.93137 
L 120.35554 176.860302 
z
" clip-path="url(#paacfb48819)" style="fill: #ae9d31; stroke: #ffffff; stroke-width: 0.8"/>
    <path d="M 98.015309 172.119254 
L 98.015309 179.190322 
L 105.086377 179.190322 
L 105.086377 172.119254 
z
" clip-path="url(#paacfb48819)" style="fill: #33b07a; stroke: #ffffff; stroke-width: 0.8"/>
    <path d="M 109.374121 161.939696 
L 109.374121 169.010764 
L 116.445189 169.010764 
L 116.445189 161.939696 
z
" clip-path="url(#paacfb48819)" style="fill: #38a9c5; stroke: #ffffff; stroke-width: 0.8"/>
    <path d="M 77.871041 125.935334 
L 77.871041 133.006402 
L 84.942109 133.006402 
L 84.942109 125.935334 
z
" clip-path="url(#paacfb48819)" style="fill: #f77189; stroke: #ffffff; stroke-width: 0.8"/>
    <path d="M 91.142481 157.746529 
L 91.142481 164.817597 
L 98.213549 164.817597 
L 98.213549 157.746529 
z
" clip-path="url(#paacfb48819)" style="fill: #f77189; stroke: #ffffff; stroke-width: 0.8"/>
    <path d="M 67.168473 148.001425 
L 67.168473 155.072493 
L 74.23954 155.072493 
L 74.23954 148.001425 
z
" clip-path="url(#paacfb48819)" style="fill: #f77189; stroke: #ffffff; stroke-width: 0.8"/>
    <path d="M 69.272147 146.94059 
L 69.272147 154.011658 
L 76.343215 154.011658 
L 76.343215 146.94059 
z
" clip-path="url(#paacfb48819)" style="fill: #f77189; stroke: #ffffff; stroke-width: 0.8"/>
    <path d="M 95.358599 164.605312 
L 95.358599 171.67638 
L 102.429667 171.67638 
L 102.429667 164.605312 
z
" clip-path="url(#paacfb48819)" style="fill: #38a9c5; stroke: #ffffff; stroke-width: 0.8"/>
    <path d="M 80.838714 187.512023 
L 80.838714 194.583091 
L 87.909782 194.583091 
L 87.909782 187.512023 
z
" clip-path="url(#paacfb48819)" style="fill: #cc7af4; stroke: #ffffff; stroke-width: 0.8"/>
    <path d="M 60.268613 209.133743 
L 60.268613 216.204811 
L 67.33968 216.204811 
L 67.33968 209.133743 
z
" clip-path="url(#paacfb48819)" style="fill: #cc7af4; stroke: #ffffff; stroke-width: 0.8"/>
    <path d="M 66.810224 216.755911 
L 70.143558 216.755911 
L 70.143558 213.422578 
L 73.476891 213.422578 
L 73.476891 210.089245 
L 70.143558 210.089245 
L 70.143558 206.755911 
L 66.810224 206.755911 
L 66.810224 210.089245 
L 63.476891 210.089245 
L 63.476891 213.422578 
L 66.810224 213.422578 
z
" clip-path="url(#paacfb48819)" style="fill: #f77189; stroke: #ffffff; stroke-width: 0.8"/>
    <path d="M 72.639639 196.89451 
L 75.972972 196.89451 
L 75.972972 193.561177 
L 79.306306 193.561177 
L 79.306306 190.227844 
L 75.972972 190.227844 
L 75.972972 186.89451 
L 72.639639 186.89451 
L 72.639639 190.227844 
L 69.306306 190.227844 
L 69.306306 193.561177 
L 72.639639 193.561177 
z
" clip-path="url(#paacfb48819)" style="fill: #f77189; stroke: #ffffff; stroke-width: 0.8"/>
    <path d="M 63.54794 180.758114 
L 66.881274 180.758114 
L 66.881274 177.424781 
L 70.214607 177.424781 
L 70.214607 174.091448 
L 66.881274 174.091448 
L 66.881274 170.758114 
L 63.54794 170.758114 
L 63.54794 174.091448 
L 60.214607 174.091448 
L 60.214607 177.424781 
L 63.54794 177.424781 
z
" clip-path="url(#paacfb48819)" style="fill: #f77189; stroke: #ffffff; stroke-width: 0.8"/>
    <path d="M 56.826194 229.520184 
L 60.159528 229.520184 
L 60.159528 226.186851 
L 63.492861 226.186851 
L 63.492861 222.853518 
L 60.159528 222.853518 
L 60.159528 219.520184 
L 56.826194 219.520184 
L 56.826194 222.853518 
L 53.492861 222.853518 
L 53.492861 226.186851 
L 56.826194 226.186851 
z
" clip-path="url(#paacfb48819)" style="fill: #ae9d31; stroke: #ffffff; stroke-width: 0.8"/>
    <path d="M 104.638092 194.157512 
L 107.971425 194.157512 
L 107.971425 190.824179 
L 111.304758 190.824179 
L 111.304758 187.490845 
L 107.971425 187.490845 
L 107.971425 184.157512 
L 104.638092 184.157512 
L 104.638092 187.490845 
L 101.304758 187.490845 
L 101.304758 190.824179 
L 104.638092 190.824179 
z
" clip-path="url(#paacfb48819)" style="fill: #ae9d31; stroke: #ffffff; stroke-width: 0.8"/>
    <path d="M 81.532542 198.561553 
L 84.865875 198.561553 
L 84.865875 195.228219 
L 88.199208 195.228219 
L 88.199208 191.894886 
L 84.865875 191.894886 
L 84.865875 188.561553 
L 81.532542 188.561553 
L 81.532542 191.894886 
L 78.199208 191.894886 
L 78.199208 195.228219 
L 81.532542 195.228219 
z
" clip-path="url(#paacfb48819)" style="fill: #ae9d31; stroke: #ffffff; stroke-width: 0.8"/>
    <path d="M 103.153424 201.018504 
L 106.486757 201.018504 
L 106.486757 197.68517 
L 109.820091 197.68517 
L 109.820091 194.351837 
L 106.486757 194.351837 
L 106.486757 191.018504 
L 103.153424 191.018504 
L 103.153424 194.351837 
L 99.820091 194.351837 
L 99.820091 197.68517 
L 103.153424 197.68517 
z
" clip-path="url(#paacfb48819)" style="fill: #ae9d31; stroke: #ffffff; stroke-width: 0.8"/>
    <path d="M 95.286363 196.977104 
L 98.619697 196.977104 
L 98.619697 193.64377 
L 101.95303 193.64377 
L 101.95303 190.310437 
L 98.619697 190.310437 
L 98.619697 186.977104 
L 95.286363 186.977104 
L 95.286363 190.310437 
L 91.95303 190.310437 
L 91.95303 193.64377 
L 95.286363 193.64377 
z
" clip-path="url(#paacfb48819)" style="fill: #ae9d31; stroke: #ffffff; stroke-width: 0.8"/>
    <path d="M 71.955141 200.062962 
L 75.288474 200.062962 
L 75.288474 196.729629 
L 78.621807 196.729629 
L 78.621807 193.396296 
L 75.288474 193.396296 
L 75.288474 190.062962 
L 71.955141 190.062962 
L 71.955141 193.396296 
L 68.621807 193.396296 
L 68.621807 196.729629 
L 71.955141 196.729629 
z
" clip-path="url(#paacfb48819)" style="fill: #38a9c5; stroke: #ffffff; stroke-width: 0.8"/>
    <path d="M 71.462278 154.165374 
L 74.795611 154.165374 
L 74.795611 150.83204 
L 78.128945 150.83204 
L 78.128945 147.498707 
L 74.795611 147.498707 
L 74.795611 144.165374 
L 71.462278 144.165374 
L 71.462278 147.498707 
L 68.128945 147.498707 
L 68.128945 150.83204 
L 71.462278 150.83204 
z
" clip-path="url(#paacfb48819)" style="fill: #f77189; stroke: #ffffff; stroke-width: 0.8"/>
    <path d="M 51.955306 191.295012 
L 55.28864 191.295012 
L 55.28864 187.961679 
L 58.621973 187.961679 
L 58.621973 184.628345 
L 55.28864 184.628345 
L 55.28864 181.295012 
L 51.955306 181.295012 
L 51.955306 184.628345 
L 48.621973 184.628345 
L 48.621973 187.961679 
L 51.955306 187.961679 
z
" clip-path="url(#paacfb48819)" style="fill: #f77189; stroke: #ffffff; stroke-width: 0.8"/>
    <path d="M 60.745089 171.431194 
L 64.078423 171.431194 
L 64.078423 168.097861 
L 67.411756 168.097861 
L 67.411756 164.764528 
L 64.078423 164.764528 
L 64.078423 161.431194 
L 60.745089 161.431194 
L 60.745089 164.764528 
L 57.411756 164.764528 
L 57.411756 168.097861 
L 60.745089 168.097861 
z
" clip-path="url(#paacfb48819)" style="fill: #f77189; stroke: #ffffff; stroke-width: 0.8"/>
    <path d="M 59.326766 181.026747 
L 62.6601 181.026747 
L 62.6601 177.693414 
L 65.993433 177.693414 
L 65.993433 174.36008 
L 62.6601 174.36008 
L 62.6601 171.026747 
L 59.326766 171.026747 
L 59.326766 174.36008 
L 55.993433 174.36008 
L 55.993433 177.693414 
L 59.326766 177.693414 
z
" clip-path="url(#paacfb48819)" style="fill: #f77189; stroke: #ffffff; stroke-width: 0.8"/>
    <path d="M 67.663414 192.192619 
L 70.996748 192.192619 
L 70.996748 188.859286 
L 74.330081 188.859286 
L 74.330081 185.525953 
L 70.996748 185.525953 
L 70.996748 182.192619 
L 67.663414 182.192619 
L 67.663414 185.525953 
L 64.330081 185.525953 
L 64.330081 188.859286 
L 67.663414 188.859286 
z
" clip-path="url(#paacfb48819)" style="fill: #38a9c5; stroke: #ffffff; stroke-width: 0.8"/>
    <path d="M 61.139507 225.702626 
L 64.472841 225.702626 
L 64.472841 222.369293 
L 67.806174 222.369293 
L 67.806174 219.035959 
L 64.472841 219.035959 
L 64.472841 215.702626 
L 61.139507 215.702626 
L 61.139507 219.035959 
L 57.806174 219.035959 
L 57.806174 222.369293 
L 61.139507 222.369293 
z
" clip-path="url(#paacfb48819)" style="fill: #cc7af4; stroke: #ffffff; stroke-width: 0.8"/>
    <path d="M 65.289387 219.845222 
L 68.62272 219.845222 
L 68.62272 216.511889 
L 71.956053 216.511889 
L 71.956053 213.178555 
L 68.62272 213.178555 
L 68.62272 209.845222 
L 65.289387 209.845222 
L 65.289387 213.178555 
L 61.956053 213.178555 
L 61.956053 216.511889 
L 65.289387 216.511889 
z
" clip-path="url(#paacfb48819)" style="fill: #cc7af4; stroke: #ffffff; stroke-width: 0.8"/>
    <path d="M 47.617067 180.991296 
L 42.617067 185.991296 
L 47.617067 190.991296 
L 52.617067 185.991296 
z
" clip-path="url(#paacfb48819)" style="fill: #f77189; stroke: #ffffff; stroke-width: 0.8"/>
    <path d="M 104.032292 147.306727 
L 99.032292 152.306727 
L 104.032292 157.306727 
L 109.032292 152.306727 
z
" clip-path="url(#paacfb48819)" style="fill: #f77189; stroke: #ffffff; stroke-width: 0.8"/>
    <path d="M 57.643746 172.021643 
L 52.643746 177.021643 
L 57.643746 182.021643 
L 62.643746 177.021643 
z
" clip-path="url(#paacfb48819)" style="fill: #f77189; stroke: #ffffff; stroke-width: 0.8"/>
    <path d="M 183.909475 110.206965 
L 178.909475 115.206965 
L 183.909475 120.206965 
L 188.909475 115.206965 
z
" clip-path="url(#paacfb48819)" style="fill: #ae9d31; stroke: #ffffff; stroke-width: 0.8"/>
    <path d="M 200.481673 119.659679 
L 195.481673 124.659679 
L 200.481673 129.659679 
L 205.481673 124.659679 
z
" clip-path="url(#paacfb48819)" style="fill: #ae9d31; stroke: #ffffff; stroke-width: 0.8"/>
    <path d="M 113.247535 181.2329 
L 108.247535 186.2329 
L 113.247535 191.2329 
L 118.247535 186.2329 
z
" clip-path="url(#paacfb48819)" style="fill: #ae9d31; stroke: #ffffff; stroke-width: 0.8"/>
    <path d="M 218.542093 106.56633 
L 213.542093 111.56633 
L 218.542093 116.56633 
L 223.542093 111.56633 
z
" clip-path="url(#paacfb48819)" style="fill: #ae9d31; stroke: #ffffff; stroke-width: 0.8"/>
    <path d="M 208.190028 102.112707 
L 203.190028 107.112707 
L 208.190028 112.112707 
L 213.190028 107.112707 
z
" clip-path="url(#paacfb48819)" style="fill: #ae9d31; stroke: #ffffff; stroke-width: 0.8"/>
    <path d="M 89.53473 192.685801 
L 84.53473 197.685801 
L 89.53473 202.685801 
L 94.53473 197.685801 
z
" clip-path="url(#paacfb48819)" style="fill: #33b07a; stroke: #ffffff; stroke-width: 0.8"/>
    <path d="M 95.15844 176.212606 
L 90.15844 181.212606 
L 95.15844 186.212606 
L 100.15844 181.212606 
z
" clip-path="url(#paacfb48819)" style="fill: #38a9c5; stroke: #ffffff; stroke-width: 0.8"/>
    <path d="M 61.793362 162.856645 
L 56.793362 167.856645 
L 61.793362 172.856645 
L 66.793362 167.856645 
z
" clip-path="url(#paacfb48819)" style="fill: #f77189; stroke: #ffffff; stroke-width: 0.8"/>
    <path d="M 67.76447 173.677387 
L 62.76447 178.677387 
L 67.76447 183.677387 
L 72.76447 178.677387 
z
" clip-path="url(#paacfb48819)" style="fill: #f77189; stroke: #ffffff; stroke-width: 0.8"/>
    <path d="M 47.322787 172.736667 
L 42.322787 177.736667 
L 47.322787 182.736667 
L 52.322787 177.736667 
z
" clip-path="url(#paacfb48819)" style="fill: #f77189; stroke: #ffffff; stroke-width: 0.8"/>
    <path d="M 58.369047 179.304673 
L 53.369047 184.304673 
L 58.369047 189.304673 
L 63.369047 184.304673 
z
" clip-path="url(#paacfb48819)" style="fill: #f77189; stroke: #ffffff; stroke-width: 0.8"/>
    <path d="M 95.562072 175.481527 
L 90.562072 180.481527 
L 95.562072 185.481527 
L 100.562072 180.481527 
z
" clip-path="url(#paacfb48819)" style="fill: #38a9c5; stroke: #ffffff; stroke-width: 0.8"/>
    <path d="M 173.385655 115.064913 
L 168.385655 120.064913 
L 173.385655 125.064913 
L 178.385655 120.064913 
z
" clip-path="url(#paacfb48819)" style="fill: #cc7af4; stroke: #ffffff; stroke-width: 0.8"/>
    <path d="M 91.967988 183.918983 
L 86.967988 188.918983 
L 91.967988 193.918983 
L 96.967988 188.918983 
z
" clip-path="url(#paacfb48819)" style="fill: #cc7af4; stroke: #ffffff; stroke-width: 0.8"/>
    <path d="M 66.404275 175.351129 
L 64.636508 178.583362 
L 61.404275 180.351129 
L 64.636508 182.118896 
L 66.404275 185.351129 
L 68.172042 182.118896 
L 71.404275 180.351129 
L 68.172042 178.583362 
z
" clip-path="url(#paacfb48819)" style="fill: #f77189; stroke: #ffffff; stroke-width: 0.8"/>
    <path d="M 105.844197 173.179179 
L 104.076431 176.411412 
L 100.844197 178.179179 
L 104.076431 179.946946 
L 105.844197 183.179179 
L 107.611964 179.946946 
L 110.844197 178.179179 
L 107.611964 176.411412 
z
" clip-path="url(#paacfb48819)" style="fill: #f77189; stroke: #ffffff; stroke-width: 0.8"/>
    <path d="M 92.998967 155.293958 
L 91.231201 158.526191 
L 87.998967 160.293958 
L 91.231201 162.061725 
L 92.998967 165.293958 
L 94.766734 162.061725 
L 97.998967 160.293958 
L 94.766734 158.526191 
z
" clip-path="url(#paacfb48819)" style="fill: #f77189; stroke: #ffffff; stroke-width: 0.8"/>
    <path d="M 123.698158 150.424505 
L 121.930391 153.656738 
L 118.698158 155.424505 
L 121.930391 157.192272 
L 123.698158 160.424505 
L 125.465925 157.192272 
L 128.698158 155.424505 
L 125.465925 153.656738 
z
" clip-path="url(#paacfb48819)" style="fill: #ae9d31; stroke: #ffffff; stroke-width: 0.8"/>
    <path d="M 204.942709 117.98279 
L 203.174942 121.215024 
L 199.942709 122.98279 
L 203.174942 124.750557 
L 204.942709 127.98279 
L 206.710476 124.750557 
L 209.942709 122.98279 
L 206.710476 121.215024 
z
" clip-path="url(#paacfb48819)" style="fill: #ae9d31; stroke: #ffffff; stroke-width: 0.8"/>
    <path d="M 116.242456 180.791393 
L 114.474689 184.023626 
L 111.242456 185.791393 
L 114.474689 187.55916 
L 116.242456 190.791393 
L 118.010223 187.55916 
L 121.242456 185.791393 
L 118.010223 184.023626 
z
" clip-path="url(#paacfb48819)" style="fill: #ae9d31; stroke: #ffffff; stroke-width: 0.8"/>
    <path d="M 211.435161 111.291343 
L 209.667394 114.523576 
L 206.435161 116.291343 
L 209.667394 118.05911 
L 211.435161 121.291343 
L 213.202928 118.05911 
L 216.435161 116.291343 
L 213.202928 114.523576 
z
" clip-path="url(#paacfb48819)" style="fill: #ae9d31; stroke: #ffffff; stroke-width: 0.8"/>
    <path d="M 185.982257 114.775853 
L 184.21449 118.008086 
L 180.982257 119.775853 
L 184.21449 121.54362 
L 185.982257 124.775853 
L 187.750024 121.54362 
L 190.982257 119.775853 
L 187.750024 118.008086 
z
" clip-path="url(#paacfb48819)" style="fill: #ae9d31; stroke: #ffffff; stroke-width: 0.8"/>
    <path d="M 78.335224 193.772539 
L 76.567457 197.004772 
L 73.335224 198.772539 
L 76.567457 200.540306 
L 78.335224 203.772539 
L 80.102991 200.540306 
L 83.335224 198.772539 
L 80.102991 197.004772 
z
" clip-path="url(#paacfb48819)" style="fill: #33b07a; stroke: #ffffff; stroke-width: 0.8"/>
    <path d="M 120.518671 158.106402 
L 118.750904 161.338635 
L 115.518671 163.106402 
L 118.750904 164.874168 
L 120.518671 168.106402 
L 122.286438 164.874168 
L 125.518671 163.106402 
L 122.286438 161.338635 
z
" clip-path="url(#paacfb48819)" style="fill: #38a9c5; stroke: #ffffff; stroke-width: 0.8"/>
    <path d="M 111.165549 135.787277 
L 109.397782 139.01951 
L 106.165549 140.787277 
L 109.397782 142.555044 
L 111.165549 145.787277 
L 112.933316 142.555044 
L 116.165549 140.787277 
L 112.933316 139.01951 
z
" clip-path="url(#paacfb48819)" style="fill: #f77189; stroke: #ffffff; stroke-width: 0.8"/>
    <path d="M 122.340067 138.314217 
L 120.5723 141.54645 
L 117.340067 143.314217 
L 120.5723 145.081984 
L 122.340067 148.314217 
L 124.107834 145.081984 
L 127.340067 143.314217 
L 124.107834 141.54645 
z
" clip-path="url(#paacfb48819)" style="fill: #f77189; stroke: #ffffff; stroke-width: 0.8"/>
    <path d="M 68.025226 169.259195 
L 66.257459 172.491428 
L 63.025226 174.259195 
L 66.257459 176.026962 
L 68.025226 179.259195 
L 69.792993 176.026962 
L 73.025226 174.259195 
L 69.792993 172.491428 
z
" clip-path="url(#paacfb48819)" style="fill: #f77189; stroke: #ffffff; stroke-width: 0.8"/>
    <path d="M 101.106778 143.939441 
L 99.339011 147.171674 
L 96.106778 148.939441 
L 99.339011 150.707208 
L 101.106778 153.939441 
L 102.874545 150.707208 
L 106.106778 148.939441 
L 102.874545 147.171674 
z
" clip-path="url(#paacfb48819)" style="fill: #f77189; stroke: #ffffff; stroke-width: 0.8"/>
    <path d="M 116.59221 162.518093 
L 114.824443 165.750326 
L 111.59221 167.518093 
L 114.824443 169.28586 
L 116.59221 172.518093 
L 118.359977 169.28586 
L 121.59221 167.518093 
L 118.359977 165.750326 
z
" clip-path="url(#paacfb48819)" style="fill: #38a9c5; stroke: #ffffff; stroke-width: 0.8"/>
    <path d="M 122.496322 153.06544 
L 120.728555 156.297673 
L 117.496322 158.06544 
L 120.728555 159.833207 
L 122.496322 163.06544 
L 124.264089 159.833207 
L 127.496322 158.06544 
L 124.264089 156.297673 
z
" clip-path="url(#paacfb48819)" style="fill: #cc7af4; stroke: #ffffff; stroke-width: 0.8"/>
    <path d="M 75.439996 181.169726 
L 73.672229 184.401959 
L 70.439996 186.169726 
L 73.672229 187.937493 
L 75.439996 191.169726 
L 77.207763 187.937493 
L 80.439996 186.169726 
L 77.207763 184.401959 
z
" clip-path="url(#paacfb48819)" style="fill: #cc7af4; stroke: #ffffff; stroke-width: 0.8"/>
    <path d="M 54.593985 205.456775 
L 49.593985 215.456775 
L 59.593985 215.456775 
z
" clip-path="url(#paacfb48819)" style="fill: #f77189; stroke: #ffffff; stroke-width: 0.8"/>
    <path d="M 110.664745 168.200675 
L 105.664745 178.200675 
L 115.664745 178.200675 
z
" clip-path="url(#paacfb48819)" style="fill: #f77189; stroke: #ffffff; stroke-width: 0.8"/>
    <path d="M 46.287251 185.450526 
L 41.287251 195.450526 
L 51.287251 195.450526 
z
" clip-path="url(#paacfb48819)" style="fill: #f77189; stroke: #ffffff; stroke-width: 0.8"/>
    <path d="M 119.744137 141.321005 
L 114.744137 151.321005 
L 124.744137 151.321005 
z
" clip-path="url(#paacfb48819)" style="fill: #ae9d31; stroke: #ffffff; stroke-width: 0.8"/>
    <path d="M 142.753298 168.247907 
L 137.753298 178.247907 
L 147.753298 178.247907 
z
" clip-path="url(#paacfb48819)" style="fill: #ae9d31; stroke: #ffffff; stroke-width: 0.8"/>
    <path d="M 98.292103 161.650699 
L 93.292103 171.650699 
L 103.292103 171.650699 
z
" clip-path="url(#paacfb48819)" style="fill: #ae9d31; stroke: #ffffff; stroke-width: 0.8"/>
    <path d="M 152.357885 160.93362 
L 147.357885 170.93362 
L 157.357885 170.93362 
z
" clip-path="url(#paacfb48819)" style="fill: #ae9d31; stroke: #ffffff; stroke-width: 0.8"/>
    <path d="M 132.576952 155.311602 
L 127.576952 165.311602 
L 137.576952 165.311602 
z
" clip-path="url(#paacfb48819)" style="fill: #ae9d31; stroke: #ffffff; stroke-width: 0.8"/>
    <path d="M 155.19438 136.498224 
L 150.19438 146.498224 
L 160.19438 146.498224 
z
" clip-path="url(#paacfb48819)" style="fill: #33b07a; stroke: #ffffff; stroke-width: 0.8"/>
    <path d="M 76.595888 193.070583 
L 71.595888 203.070583 
L 81.595888 203.070583 
z
" clip-path="url(#paacfb48819)" style="fill: #38a9c5; stroke: #ffffff; stroke-width: 0.8"/>
    <path d="M 58.832718 162.766275 
L 53.832718 172.766275 
L 63.832718 172.766275 
z
" clip-path="url(#paacfb48819)" style="fill: #f77189; stroke: #ffffff; stroke-width: 0.8"/>
    <path d="M 58.915929 184.005323 
L 53.915929 194.005323 
L 63.915929 194.005323 
z
" clip-path="url(#paacfb48819)" style="fill: #f77189; stroke: #ffffff; stroke-width: 0.8"/>
    <path d="M 52.131558 179.627119 
L 47.131558 189.627119 
L 57.131558 189.627119 
z
" clip-path="url(#paacfb48819)" style="fill: #f77189; stroke: #ffffff; stroke-width: 0.8"/>
    <path d="M 46.145455 179.164284 
L 41.145455 189.164284 
L 51.145455 189.164284 
z
" clip-path="url(#paacfb48819)" style="fill: #f77189; stroke: #ffffff; stroke-width: 0.8"/>
    <path d="M 76.424107 196.318455 
L 71.424107 206.318455 
L 81.424107 206.318455 
z
" clip-path="url(#paacfb48819)" style="fill: #38a9c5; stroke: #ffffff; stroke-width: 0.8"/>
    <path d="M 116.034797 149.139322 
L 111.034797 159.139322 
L 121.034797 159.139322 
z
" clip-path="url(#paacfb48819)" style="fill: #cc7af4; stroke: #ffffff; stroke-width: 0.8"/>
    <path d="M 94.823002 158.392655 
L 89.823002 168.392655 
L 99.823002 168.392655 
z
" clip-path="url(#paacfb48819)" style="fill: #cc7af4; stroke: #ffffff; stroke-width: 0.8"/>
   </g>
   <g id="PathCollection_2"/>
   <g id="PathCollection_3"/>
   <g id="PathCollection_4"/>
   <g id="PathCollection_5"/>
   <g id="PathCollection_6"/>
   <g id="PathCollection_7"/>
   <g id="PathCollection_8"/>
   <g id="PathCollection_9"/>
   <g id="PathCollection_10"/>
   <g id="PathCollection_11"/>
   <g id="PathCollection_12"/>
   <g id="PathCollection_13"/>
   <g id="matplotlib.axis_1">
    <g id="xtick_1">
     <g id="line2d_1">
      <defs>
       <path id="m2d00a40623" d="M 0 0 
L 0 3.5 
" style="stroke: #000000; stroke-width: 0.8"/>
      </defs>
      <g>
       <use xlink:href="#m2d00a40623" x="46.458804" y="252" style="stroke: #000000; stroke-width: 0.8"/>
      </g>
     </g>
     <g id="text_1">
      <!-- 0.0 -->
      <g transform="translate(38.507242 266.598437)scale(0.1 -0.1)">
       <defs>
        <path id="DejaVuSans-30" d="M 2034 4250 
Q 1547 4250 1301 3770 
Q 1056 3291 1056 2328 
Q 1056 1369 1301 889 
Q 1547 409 2034 409 
Q 2525 409 2770 889 
Q 3016 1369 3016 2328 
Q 3016 3291 2770 3770 
Q 2525 4250 2034 4250 
z
M 2034 4750 
Q 2819 4750 3233 4129 
Q 3647 3509 3647 2328 
Q 3647 1150 3233 529 
Q 2819 -91 2034 -91 
Q 1250 -91 836 529 
Q 422 1150 422 2328 
Q 422 3509 836 4129 
Q 1250 4750 2034 4750 
z
" transform="scale(0.015625)"/>
        <path id="DejaVuSans-2e" d="M 684 794 
L 1344 794 
L 1344 0 
L 684 0 
L 684 794 
z
" transform="scale(0.015625)"/>
       </defs>
       <use xlink:href="#DejaVuSans-30"/>
       <use xlink:href="#DejaVuSans-2e" x="63.623047"/>
       <use xlink:href="#DejaVuSans-30" x="95.410156"/>
      </g>
     </g>
    </g>
    <g id="xtick_2">
     <g id="line2d_2">
      <g>
       <use xlink:href="#m2d00a40623" x="90.985341" y="252" style="stroke: #000000; stroke-width: 0.8"/>
      </g>
     </g>
     <g id="text_2">
      <!-- 0.2 -->
      <g transform="translate(83.033778 266.598437)scale(0.1 -0.1)">
       <defs>
        <path id="DejaVuSans-32" d="M 1228 531 
L 3431 531 
L 3431 0 
L 469 0 
L 469 531 
Q 828 903 1448 1529 
Q 2069 2156 2228 2338 
Q 2531 2678 2651 2914 
Q 2772 3150 2772 3378 
Q 2772 3750 2511 3984 
Q 2250 4219 1831 4219 
Q 1534 4219 1204 4116 
Q 875 4013 500 3803 
L 500 4441 
Q 881 4594 1212 4672 
Q 1544 4750 1819 4750 
Q 2544 4750 2975 4387 
Q 3406 4025 3406 3419 
Q 3406 3131 3298 2873 
Q 3191 2616 2906 2266 
Q 2828 2175 2409 1742 
Q 1991 1309 1228 531 
z
" transform="scale(0.015625)"/>
       </defs>
       <use xlink:href="#DejaVuSans-30"/>
       <use xlink:href="#DejaVuSans-2e" x="63.623047"/>
       <use xlink:href="#DejaVuSans-32" x="95.410156"/>
      </g>
     </g>
    </g>
    <g id="xtick_3">
     <g id="line2d_3">
      <g>
       <use xlink:href="#m2d00a40623" x="135.511877" y="252" style="stroke: #000000; stroke-width: 0.8"/>
      </g>
     </g>
     <g id="text_3">
      <!-- 0.4 -->
      <g transform="translate(127.560315 266.598437)scale(0.1 -0.1)">
       <defs>
        <path id="DejaVuSans-34" d="M 2419 4116 
L 825 1625 
L 2419 1625 
L 2419 4116 
z
M 2253 4666 
L 3047 4666 
L 3047 1625 
L 3713 1625 
L 3713 1100 
L 3047 1100 
L 3047 0 
L 2419 0 
L 2419 1100 
L 313 1100 
L 313 1709 
L 2253 4666 
z
" transform="scale(0.015625)"/>
       </defs>
       <use xlink:href="#DejaVuSans-30"/>
       <use xlink:href="#DejaVuSans-2e" x="63.623047"/>
       <use xlink:href="#DejaVuSans-34" x="95.410156"/>
      </g>
     </g>
    </g>
    <g id="xtick_4">
     <g id="line2d_4">
      <g>
       <use xlink:href="#m2d00a40623" x="180.038414" y="252" style="stroke: #000000; stroke-width: 0.8"/>
      </g>
     </g>
     <g id="text_4">
      <!-- 0.6 -->
      <g transform="translate(172.086851 266.598437)scale(0.1 -0.1)">
       <defs>
        <path id="DejaVuSans-36" d="M 2113 2584 
Q 1688 2584 1439 2293 
Q 1191 2003 1191 1497 
Q 1191 994 1439 701 
Q 1688 409 2113 409 
Q 2538 409 2786 701 
Q 3034 994 3034 1497 
Q 3034 2003 2786 2293 
Q 2538 2584 2113 2584 
z
M 3366 4563 
L 3366 3988 
Q 3128 4100 2886 4159 
Q 2644 4219 2406 4219 
Q 1781 4219 1451 3797 
Q 1122 3375 1075 2522 
Q 1259 2794 1537 2939 
Q 1816 3084 2150 3084 
Q 2853 3084 3261 2657 
Q 3669 2231 3669 1497 
Q 3669 778 3244 343 
Q 2819 -91 2113 -91 
Q 1303 -91 875 529 
Q 447 1150 447 2328 
Q 447 3434 972 4092 
Q 1497 4750 2381 4750 
Q 2619 4750 2861 4703 
Q 3103 4656 3366 4563 
z
" transform="scale(0.015625)"/>
       </defs>
       <use xlink:href="#DejaVuSans-30"/>
       <use xlink:href="#DejaVuSans-2e" x="63.623047"/>
       <use xlink:href="#DejaVuSans-36" x="95.410156"/>
      </g>
     </g>
    </g>
    <g id="xtick_5">
     <g id="line2d_5">
      <g>
       <use xlink:href="#m2d00a40623" x="224.56495" y="252" style="stroke: #000000; stroke-width: 0.8"/>
      </g>
     </g>
     <g id="text_5">
      <!-- 0.8 -->
      <g transform="translate(216.613388 266.598437)scale(0.1 -0.1)">
       <defs>
        <path id="DejaVuSans-38" d="M 2034 2216 
Q 1584 2216 1326 1975 
Q 1069 1734 1069 1313 
Q 1069 891 1326 650 
Q 1584 409 2034 409 
Q 2484 409 2743 651 
Q 3003 894 3003 1313 
Q 3003 1734 2745 1975 
Q 2488 2216 2034 2216 
z
M 1403 2484 
Q 997 2584 770 2862 
Q 544 3141 544 3541 
Q 544 4100 942 4425 
Q 1341 4750 2034 4750 
Q 2731 4750 3128 4425 
Q 3525 4100 3525 3541 
Q 3525 3141 3298 2862 
Q 3072 2584 2669 2484 
Q 3125 2378 3379 2068 
Q 3634 1759 3634 1313 
Q 3634 634 3220 271 
Q 2806 -91 2034 -91 
Q 1263 -91 848 271 
Q 434 634 434 1313 
Q 434 1759 690 2068 
Q 947 2378 1403 2484 
z
M 1172 3481 
Q 1172 3119 1398 2916 
Q 1625 2713 2034 2713 
Q 2441 2713 2670 2916 
Q 2900 3119 2900 3481 
Q 2900 3844 2670 4047 
Q 2441 4250 2034 4250 
Q 1625 4250 1398 4047 
Q 1172 3844 1172 3481 
z
" transform="scale(0.015625)"/>
       </defs>
       <use xlink:href="#DejaVuSans-30"/>
       <use xlink:href="#DejaVuSans-2e" x="63.623047"/>
       <use xlink:href="#DejaVuSans-38" x="95.410156"/>
      </g>
     </g>
    </g>
    <g id="text_6">
     <!-- pop -->
     <g transform="translate(138.192187 280.276563)scale(0.1 -0.1)">
      <defs>
       <path id="DejaVuSans-70" d="M 1159 525 
L 1159 -1331 
L 581 -1331 
L 581 3500 
L 1159 3500 
L 1159 2969 
Q 1341 3281 1617 3432 
Q 1894 3584 2278 3584 
Q 2916 3584 3314 3078 
Q 3713 2572 3713 1747 
Q 3713 922 3314 415 
Q 2916 -91 2278 -91 
Q 1894 -91 1617 61 
Q 1341 213 1159 525 
z
M 3116 1747 
Q 3116 2381 2855 2742 
Q 2594 3103 2138 3103 
Q 1681 3103 1420 2742 
Q 1159 2381 1159 1747 
Q 1159 1113 1420 752 
Q 1681 391 2138 391 
Q 2594 391 2855 752 
Q 3116 1113 3116 1747 
z
" transform="scale(0.015625)"/>
       <path id="DejaVuSans-6f" d="M 1959 3097 
Q 1497 3097 1228 2736 
Q 959 2375 959 1747 
Q 959 1119 1226 758 
Q 1494 397 1959 397 
Q 2419 397 2687 759 
Q 2956 1122 2956 1747 
Q 2956 2369 2687 2733 
Q 2419 3097 1959 3097 
z
M 1959 3584 
Q 2709 3584 3137 3096 
Q 3566 2609 3566 1747 
Q 3566 888 3137 398 
Q 2709 -91 1959 -91 
Q 1206 -91 779 398 
Q 353 888 353 1747 
Q 353 2609 779 3096 
Q 1206 3584 1959 3584 
z
" transform="scale(0.015625)"/>
      </defs>
      <use xlink:href="#DejaVuSans-70"/>
      <use xlink:href="#DejaVuSans-6f" x="63.476562"/>
      <use xlink:href="#DejaVuSans-70" x="124.658203"/>
     </g>
    </g>
   </g>
   <g id="matplotlib.axis_2">
    <g id="ytick_1">
     <g id="line2d_6">
      <defs>
       <path id="m8688a7b295" d="M 0 0 
L -3.5 0 
" style="stroke: #000000; stroke-width: 0.8"/>
      </defs>
      <g>
       <use xlink:href="#m8688a7b295" x="36" y="242.116364" style="stroke: #000000; stroke-width: 0.8"/>
      </g>
     </g>
     <g id="text_7">
      <!-- 0.0 -->
      <g transform="translate(13.096875 245.915582)scale(0.1 -0.1)">
       <use xlink:href="#DejaVuSans-30"/>
       <use xlink:href="#DejaVuSans-2e" x="63.623047"/>
       <use xlink:href="#DejaVuSans-30" x="95.410156"/>
      </g>
     </g>
    </g>
    <g id="ytick_2">
     <g id="line2d_7">
      <g>
       <use xlink:href="#m8688a7b295" x="36" y="198.671808" style="stroke: #000000; stroke-width: 0.8"/>
      </g>
     </g>
     <g id="text_8">
      <!-- 0.2 -->
      <g transform="translate(13.096875 202.471027)scale(0.1 -0.1)">
       <use xlink:href="#DejaVuSans-30"/>
       <use xlink:href="#DejaVuSans-2e" x="63.623047"/>
       <use xlink:href="#DejaVuSans-32" x="95.410156"/>
      </g>
     </g>
    </g>
    <g id="ytick_3">
     <g id="line2d_8">
      <g>
       <use xlink:href="#m8688a7b295" x="36" y="155.227253" style="stroke: #000000; stroke-width: 0.8"/>
      </g>
     </g>
     <g id="text_9">
      <!-- 0.4 -->
      <g transform="translate(13.096875 159.026471)scale(0.1 -0.1)">
       <use xlink:href="#DejaVuSans-30"/>
       <use xlink:href="#DejaVuSans-2e" x="63.623047"/>
       <use xlink:href="#DejaVuSans-34" x="95.410156"/>
      </g>
     </g>
    </g>
    <g id="ytick_4">
     <g id="line2d_9">
      <g>
       <use xlink:href="#m8688a7b295" x="36" y="111.782697" style="stroke: #000000; stroke-width: 0.8"/>
      </g>
     </g>
     <g id="text_10">
      <!-- 0.6 -->
      <g transform="translate(13.096875 115.581916)scale(0.1 -0.1)">
       <use xlink:href="#DejaVuSans-30"/>
       <use xlink:href="#DejaVuSans-2e" x="63.623047"/>
       <use xlink:href="#DejaVuSans-36" x="95.410156"/>
      </g>
     </g>
    </g>
    <g id="ytick_5">
     <g id="line2d_10">
      <g>
       <use xlink:href="#m8688a7b295" x="36" y="68.338142" style="stroke: #000000; stroke-width: 0.8"/>
      </g>
     </g>
     <g id="text_11">
      <!-- 0.8 -->
      <g transform="translate(13.096875 72.137361)scale(0.1 -0.1)">
       <use xlink:href="#DejaVuSans-30"/>
       <use xlink:href="#DejaVuSans-2e" x="63.623047"/>
       <use xlink:href="#DejaVuSans-38" x="95.410156"/>
      </g>
     </g>
    </g>
    <g id="text_12">
     <!-- poi -->
     <g transform="translate(7.017187 150.902656)rotate(-90)scale(0.1 -0.1)">
      <defs>
       <path id="DejaVuSans-69" d="M 603 3500 
L 1178 3500 
L 1178 0 
L 603 0 
L 603 3500 
z
M 603 4863 
L 1178 4863 
L 1178 4134 
L 603 4134 
L 603 4863 
z
" transform="scale(0.015625)"/>
      </defs>
      <use xlink:href="#DejaVuSans-70"/>
      <use xlink:href="#DejaVuSans-6f" x="63.476562"/>
      <use xlink:href="#DejaVuSans-69" x="124.658203"/>
     </g>
    </g>
   </g>
   <g id="line2d_11">
    <path d="M 46.458804 242.116364 
L 249.054545 44.443636 
" clip-path="url(#paacfb48819)" style="fill: none; stroke-dasharray: 10,6; stroke-dashoffset: 0; stroke: #000000"/>
   </g>
   <g id="patch_3">
    <path d="M 36 252 
L 36 34.56 
" style="fill: none; stroke: #000000; stroke-width: 0.8; stroke-linejoin: miter; stroke-linecap: square"/>
   </g>
   <g id="patch_4">
    <path d="M 36 252 
L 259.2 252 
" style="fill: none; stroke: #000000; stroke-width: 0.8; stroke-linejoin: miter; stroke-linecap: square"/>
   </g>
   <g id="legend_1">
    <g id="patch_5">
     <path d="M 267.6 246 
L 416.16 246 
Q 418.56 246 418.56 243.6 
L 418.56 -1.7925 
Q 418.56 -4.1925 416.16 -4.1925 
L 267.6 -4.1925 
Q 265.2 -4.1925 265.2 -1.7925 
L 265.2 243.6 
Q 265.2 246 267.6 246 
z
" style="fill: #ffffff; opacity: 0.8; stroke: #cccccc; stroke-linejoin: miter"/>
    </g>
    <g id="text_13">
     <!-- topic -->
     <g transform="translate(303.6 9.725625)scale(0.12 -0.12)">
      <defs>
       <path id="DejaVuSans-74" d="M 1172 4494 
L 1172 3500 
L 2356 3500 
L 2356 3053 
L 1172 3053 
L 1172 1153 
Q 1172 725 1289 603 
Q 1406 481 1766 481 
L 2356 481 
L 2356 0 
L 1766 0 
Q 1100 0 847 248 
Q 594 497 594 1153 
L 594 3053 
L 172 3053 
L 172 3500 
L 594 3500 
L 594 4494 
L 1172 4494 
z
" transform="scale(0.015625)"/>
       <path id="DejaVuSans-63" d="M 3122 3366 
L 3122 2828 
Q 2878 2963 2633 3030 
Q 2388 3097 2138 3097 
Q 1578 3097 1268 2742 
Q 959 2388 959 1747 
Q 959 1106 1268 751 
Q 1578 397 2138 397 
Q 2388 397 2633 464 
Q 2878 531 3122 666 
L 3122 134 
Q 2881 22 2623 -34 
Q 2366 -91 2075 -91 
Q 1284 -91 818 406 
Q 353 903 353 1747 
Q 353 2603 823 3093 
Q 1294 3584 2113 3584 
Q 2378 3584 2631 3529 
Q 2884 3475 3122 3366 
z
" transform="scale(0.015625)"/>
      </defs>
      <use xlink:href="#DejaVuSans-74"/>
      <use xlink:href="#DejaVuSans-6f" x="39.208984"/>
      <use xlink:href="#DejaVuSans-70" x="100.390625"/>
      <use xlink:href="#DejaVuSans-69" x="163.867188"/>
      <use xlink:href="#DejaVuSans-63" x="191.650391"/>
     </g>
    </g>
    <g id="PathCollection_14">
     <defs>
      <path id="mf0eda7124f" d="M 0 3 
C 0.795609 3 1.55874 2.683901 2.12132 2.12132 
C 2.683901 1.55874 3 0.795609 3 0 
C 3 -0.795609 2.683901 -1.55874 2.12132 -2.12132 
C 1.55874 -2.683901 0.795609 -3 0 -3 
C -0.795609 -3 -1.55874 -2.683901 -2.12132 -2.12132 
C -2.683901 -1.55874 -3 -0.795609 -3 0 
C -3 0.795609 -2.683901 1.55874 -2.12132 2.12132 
C -1.55874 2.683901 -0.795609 3 0 3 
z
" style="stroke: #f77189"/>
     </defs>
     <g>
      <use xlink:href="#mf0eda7124f" x="282" y="24.189375" style="fill: #f77189; stroke: #f77189"/>
     </g>
    </g>
    <g id="text_14">
     <!-- Health -->
     <g transform="translate(303.6 27.339375)scale(0.12 -0.12)">
      <defs>
       <path id="DejaVuSans-48" d="M 628 4666 
L 1259 4666 
L 1259 2753 
L 3553 2753 
L 3553 4666 
L 4184 4666 
L 4184 0 
L 3553 0 
L 3553 2222 
L 1259 2222 
L 1259 0 
L 628 0 
L 628 4666 
z
" transform="scale(0.015625)"/>
       <path id="DejaVuSans-65" d="M 3597 1894 
L 3597 1613 
L 953 1613 
Q 991 1019 1311 708 
Q 1631 397 2203 397 
Q 2534 397 2845 478 
Q 3156 559 3463 722 
L 3463 178 
Q 3153 47 2828 -22 
Q 2503 -91 2169 -91 
Q 1331 -91 842 396 
Q 353 884 353 1716 
Q 353 2575 817 3079 
Q 1281 3584 2069 3584 
Q 2775 3584 3186 3129 
Q 3597 2675 3597 1894 
z
M 3022 2063 
Q 3016 2534 2758 2815 
Q 2500 3097 2075 3097 
Q 1594 3097 1305 2825 
Q 1016 2553 972 2059 
L 3022 2063 
z
" transform="scale(0.015625)"/>
       <path id="DejaVuSans-61" d="M 2194 1759 
Q 1497 1759 1228 1600 
Q 959 1441 959 1056 
Q 959 750 1161 570 
Q 1363 391 1709 391 
Q 2188 391 2477 730 
Q 2766 1069 2766 1631 
L 2766 1759 
L 2194 1759 
z
M 3341 1997 
L 3341 0 
L 2766 0 
L 2766 531 
Q 2569 213 2275 61 
Q 1981 -91 1556 -91 
Q 1019 -91 701 211 
Q 384 513 384 1019 
Q 384 1609 779 1909 
Q 1175 2209 1959 2209 
L 2766 2209 
L 2766 2266 
Q 2766 2663 2505 2880 
Q 2244 3097 1772 3097 
Q 1472 3097 1187 3025 
Q 903 2953 641 2809 
L 641 3341 
Q 956 3463 1253 3523 
Q 1550 3584 1831 3584 
Q 2591 3584 2966 3190 
Q 3341 2797 3341 1997 
z
" transform="scale(0.015625)"/>
       <path id="DejaVuSans-6c" d="M 603 4863 
L 1178 4863 
L 1178 0 
L 603 0 
L 603 4863 
z
" transform="scale(0.015625)"/>
       <path id="DejaVuSans-68" d="M 3513 2113 
L 3513 0 
L 2938 0 
L 2938 2094 
Q 2938 2591 2744 2837 
Q 2550 3084 2163 3084 
Q 1697 3084 1428 2787 
Q 1159 2491 1159 1978 
L 1159 0 
L 581 0 
L 581 4863 
L 1159 4863 
L 1159 2956 
Q 1366 3272 1645 3428 
Q 1925 3584 2291 3584 
Q 2894 3584 3203 3211 
Q 3513 2838 3513 2113 
z
" transform="scale(0.015625)"/>
      </defs>
      <use xlink:href="#DejaVuSans-48"/>
      <use xlink:href="#DejaVuSans-65" x="75.195312"/>
      <use xlink:href="#DejaVuSans-61" x="136.71875"/>
      <use xlink:href="#DejaVuSans-6c" x="197.998047"/>
      <use xlink:href="#DejaVuSans-74" x="225.78125"/>
      <use xlink:href="#DejaVuSans-68" x="264.990234"/>
     </g>
    </g>
    <g id="PathCollection_15">
     <defs>
      <path id="m5211f6d923" d="M 0 3 
C 0.795609 3 1.55874 2.683901 2.12132 2.12132 
C 2.683901 1.55874 3 0.795609 3 0 
C 3 -0.795609 2.683901 -1.55874 2.12132 -2.12132 
C 1.55874 -2.683901 0.795609 -3 0 -3 
C -0.795609 -3 -1.55874 -2.683901 -2.12132 -2.12132 
C -2.683901 -1.55874 -3 -0.795609 -3 0 
C -3 0.795609 -2.683901 1.55874 -2.12132 2.12132 
C -1.55874 2.683901 -0.795609 3 0 3 
z
" style="stroke: #ae9d31"/>
     </defs>
     <g>
      <use xlink:href="#m5211f6d923" x="282" y="41.803125" style="fill: #ae9d31; stroke: #ae9d31"/>
     </g>
    </g>
    <g id="text_15">
     <!-- Vehicle Travel -->
     <g transform="translate(303.6 44.953125)scale(0.12 -0.12)">
      <defs>
       <path id="DejaVuSans-56" d="M 1831 0 
L 50 4666 
L 709 4666 
L 2188 738 
L 3669 4666 
L 4325 4666 
L 2547 0 
L 1831 0 
z
" transform="scale(0.015625)"/>
       <path id="DejaVuSans-20" transform="scale(0.015625)"/>
       <path id="DejaVuSans-54" d="M -19 4666 
L 3928 4666 
L 3928 4134 
L 2272 4134 
L 2272 0 
L 1638 0 
L 1638 4134 
L -19 4134 
L -19 4666 
z
" transform="scale(0.015625)"/>
       <path id="DejaVuSans-72" d="M 2631 2963 
Q 2534 3019 2420 3045 
Q 2306 3072 2169 3072 
Q 1681 3072 1420 2755 
Q 1159 2438 1159 1844 
L 1159 0 
L 581 0 
L 581 3500 
L 1159 3500 
L 1159 2956 
Q 1341 3275 1631 3429 
Q 1922 3584 2338 3584 
Q 2397 3584 2469 3576 
Q 2541 3569 2628 3553 
L 2631 2963 
z
" transform="scale(0.015625)"/>
       <path id="DejaVuSans-76" d="M 191 3500 
L 800 3500 
L 1894 563 
L 2988 3500 
L 3597 3500 
L 2284 0 
L 1503 0 
L 191 3500 
z
" transform="scale(0.015625)"/>
      </defs>
      <use xlink:href="#DejaVuSans-56"/>
      <use xlink:href="#DejaVuSans-65" x="60.658203"/>
      <use xlink:href="#DejaVuSans-68" x="122.181641"/>
      <use xlink:href="#DejaVuSans-69" x="185.560547"/>
      <use xlink:href="#DejaVuSans-63" x="213.34375"/>
      <use xlink:href="#DejaVuSans-6c" x="268.324219"/>
      <use xlink:href="#DejaVuSans-65" x="296.107422"/>
      <use xlink:href="#DejaVuSans-20" x="357.630859"/>
      <use xlink:href="#DejaVuSans-54" x="389.417969"/>
      <use xlink:href="#DejaVuSans-72" x="435.751953"/>
      <use xlink:href="#DejaVuSans-61" x="476.865234"/>
      <use xlink:href="#DejaVuSans-76" x="538.144531"/>
      <use xlink:href="#DejaVuSans-65" x="597.324219"/>
      <use xlink:href="#DejaVuSans-6c" x="658.847656"/>
     </g>
    </g>
    <g id="PathCollection_16">
     <defs>
      <path id="m59bd4d33c8" d="M 0 3 
C 0.795609 3 1.55874 2.683901 2.12132 2.12132 
C 2.683901 1.55874 3 0.795609 3 0 
C 3 -0.795609 2.683901 -1.55874 2.12132 -2.12132 
C 1.55874 -2.683901 0.795609 -3 0 -3 
C -0.795609 -3 -1.55874 -2.683901 -2.12132 -2.12132 
C -2.683901 -1.55874 -3 -0.795609 -3 0 
C -3 0.795609 -2.683901 1.55874 -2.12132 2.12132 
C -1.55874 2.683901 -0.795609 3 0 3 
z
" style="stroke: #33b07a"/>
     </defs>
     <g>
      <use xlink:href="#m59bd4d33c8" x="282" y="59.416875" style="fill: #33b07a; stroke: #33b07a"/>
     </g>
    </g>
    <g id="text_16">
     <!-- Crime -->
     <g transform="translate(303.6 62.566875)scale(0.12 -0.12)">
      <defs>
       <path id="DejaVuSans-43" d="M 4122 4306 
L 4122 3641 
Q 3803 3938 3442 4084 
Q 3081 4231 2675 4231 
Q 1875 4231 1450 3742 
Q 1025 3253 1025 2328 
Q 1025 1406 1450 917 
Q 1875 428 2675 428 
Q 3081 428 3442 575 
Q 3803 722 4122 1019 
L 4122 359 
Q 3791 134 3420 21 
Q 3050 -91 2638 -91 
Q 1578 -91 968 557 
Q 359 1206 359 2328 
Q 359 3453 968 4101 
Q 1578 4750 2638 4750 
Q 3056 4750 3426 4639 
Q 3797 4528 4122 4306 
z
" transform="scale(0.015625)"/>
       <path id="DejaVuSans-6d" d="M 3328 2828 
Q 3544 3216 3844 3400 
Q 4144 3584 4550 3584 
Q 5097 3584 5394 3201 
Q 5691 2819 5691 2113 
L 5691 0 
L 5113 0 
L 5113 2094 
Q 5113 2597 4934 2840 
Q 4756 3084 4391 3084 
Q 3944 3084 3684 2787 
Q 3425 2491 3425 1978 
L 3425 0 
L 2847 0 
L 2847 2094 
Q 2847 2600 2669 2842 
Q 2491 3084 2119 3084 
Q 1678 3084 1418 2786 
Q 1159 2488 1159 1978 
L 1159 0 
L 581 0 
L 581 3500 
L 1159 3500 
L 1159 2956 
Q 1356 3278 1631 3431 
Q 1906 3584 2284 3584 
Q 2666 3584 2933 3390 
Q 3200 3197 3328 2828 
z
" transform="scale(0.015625)"/>
      </defs>
      <use xlink:href="#DejaVuSans-43"/>
      <use xlink:href="#DejaVuSans-72" x="69.824219"/>
      <use xlink:href="#DejaVuSans-69" x="110.9375"/>
      <use xlink:href="#DejaVuSans-6d" x="138.720703"/>
      <use xlink:href="#DejaVuSans-65" x="236.132812"/>
     </g>
    </g>
    <g id="PathCollection_17">
     <defs>
      <path id="m695245f67d" d="M 0 3 
C 0.795609 3 1.55874 2.683901 2.12132 2.12132 
C 2.683901 1.55874 3 0.795609 3 0 
C 3 -0.795609 2.683901 -1.55874 2.12132 -2.12132 
C 1.55874 -2.683901 0.795609 -3 0 -3 
C -0.795609 -3 -1.55874 -2.683901 -2.12132 -2.12132 
C -2.683901 -1.55874 -3 -0.795609 -3 0 
C -3 0.795609 -2.683901 1.55874 -2.12132 2.12132 
C -1.55874 2.683901 -0.795609 3 0 3 
z
" style="stroke: #38a9c5"/>
     </defs>
     <g>
      <use xlink:href="#m695245f67d" x="282" y="77.030625" style="fill: #38a9c5; stroke: #38a9c5"/>
     </g>
    </g>
    <g id="text_17">
     <!-- Poverty -->
     <g transform="translate(303.6 80.180625)scale(0.12 -0.12)">
      <defs>
       <path id="DejaVuSans-50" d="M 1259 4147 
L 1259 2394 
L 2053 2394 
Q 2494 2394 2734 2622 
Q 2975 2850 2975 3272 
Q 2975 3691 2734 3919 
Q 2494 4147 2053 4147 
L 1259 4147 
z
M 628 4666 
L 2053 4666 
Q 2838 4666 3239 4311 
Q 3641 3956 3641 3272 
Q 3641 2581 3239 2228 
Q 2838 1875 2053 1875 
L 1259 1875 
L 1259 0 
L 628 0 
L 628 4666 
z
" transform="scale(0.015625)"/>
       <path id="DejaVuSans-79" d="M 2059 -325 
Q 1816 -950 1584 -1140 
Q 1353 -1331 966 -1331 
L 506 -1331 
L 506 -850 
L 844 -850 
Q 1081 -850 1212 -737 
Q 1344 -625 1503 -206 
L 1606 56 
L 191 3500 
L 800 3500 
L 1894 763 
L 2988 3500 
L 3597 3500 
L 2059 -325 
z
" transform="scale(0.015625)"/>
      </defs>
      <use xlink:href="#DejaVuSans-50"/>
      <use xlink:href="#DejaVuSans-6f" x="56.677734"/>
      <use xlink:href="#DejaVuSans-76" x="117.859375"/>
      <use xlink:href="#DejaVuSans-65" x="177.039062"/>
      <use xlink:href="#DejaVuSans-72" x="238.5625"/>
      <use xlink:href="#DejaVuSans-74" x="279.675781"/>
      <use xlink:href="#DejaVuSans-79" x="318.884766"/>
     </g>
    </g>
    <g id="PathCollection_18">
     <defs>
      <path id="m58d3e66a63" d="M 0 3 
C 0.795609 3 1.55874 2.683901 2.12132 2.12132 
C 2.683901 1.55874 3 0.795609 3 0 
C 3 -0.795609 2.683901 -1.55874 2.12132 -2.12132 
C 1.55874 -2.683901 0.795609 -3 0 -3 
C -0.795609 -3 -1.55874 -2.683901 -2.12132 -2.12132 
C -2.683901 -1.55874 -3 -0.795609 -3 0 
C -3 0.795609 -2.683901 1.55874 -2.12132 2.12132 
C -1.55874 2.683901 -0.795609 3 0 3 
z
" style="stroke: #cc7af4"/>
     </defs>
     <g>
      <use xlink:href="#m58d3e66a63" x="282" y="94.644375" style="fill: #cc7af4; stroke: #cc7af4"/>
     </g>
    </g>
    <g id="text_18">
     <!-- Non-vehicle Travel -->
     <g transform="translate(303.6 97.794375)scale(0.12 -0.12)">
      <defs>
       <path id="DejaVuSans-4e" d="M 628 4666 
L 1478 4666 
L 3547 763 
L 3547 4666 
L 4159 4666 
L 4159 0 
L 3309 0 
L 1241 3903 
L 1241 0 
L 628 0 
L 628 4666 
z
" transform="scale(0.015625)"/>
       <path id="DejaVuSans-6e" d="M 3513 2113 
L 3513 0 
L 2938 0 
L 2938 2094 
Q 2938 2591 2744 2837 
Q 2550 3084 2163 3084 
Q 1697 3084 1428 2787 
Q 1159 2491 1159 1978 
L 1159 0 
L 581 0 
L 581 3500 
L 1159 3500 
L 1159 2956 
Q 1366 3272 1645 3428 
Q 1925 3584 2291 3584 
Q 2894 3584 3203 3211 
Q 3513 2838 3513 2113 
z
" transform="scale(0.015625)"/>
       <path id="DejaVuSans-2d" d="M 313 2009 
L 1997 2009 
L 1997 1497 
L 313 1497 
L 313 2009 
z
" transform="scale(0.015625)"/>
      </defs>
      <use xlink:href="#DejaVuSans-4e"/>
      <use xlink:href="#DejaVuSans-6f" x="74.804688"/>
      <use xlink:href="#DejaVuSans-6e" x="135.986328"/>
      <use xlink:href="#DejaVuSans-2d" x="199.365234"/>
      <use xlink:href="#DejaVuSans-76" x="232.824219"/>
      <use xlink:href="#DejaVuSans-65" x="292.003906"/>
      <use xlink:href="#DejaVuSans-68" x="353.527344"/>
      <use xlink:href="#DejaVuSans-69" x="416.90625"/>
      <use xlink:href="#DejaVuSans-63" x="444.689453"/>
      <use xlink:href="#DejaVuSans-6c" x="499.669922"/>
      <use xlink:href="#DejaVuSans-65" x="527.453125"/>
      <use xlink:href="#DejaVuSans-20" x="588.976562"/>
      <use xlink:href="#DejaVuSans-54" x="620.763672"/>
      <use xlink:href="#DejaVuSans-72" x="667.097656"/>
      <use xlink:href="#DejaVuSans-61" x="708.210938"/>
      <use xlink:href="#DejaVuSans-76" x="769.490234"/>
      <use xlink:href="#DejaVuSans-65" x="828.669922"/>
      <use xlink:href="#DejaVuSans-6c" x="890.193359"/>
     </g>
    </g>
    <g id="text_19">
     <!-- city -->
     <g transform="translate(303.6 115.408125)scale(0.12 -0.12)">
      <use xlink:href="#DejaVuSans-63"/>
      <use xlink:href="#DejaVuSans-69" x="54.980469"/>
      <use xlink:href="#DejaVuSans-74" x="82.763672"/>
      <use xlink:href="#DejaVuSans-79" x="121.972656"/>
     </g>
    </g>
    <g id="PathCollection_19">
     <defs>
      <path id="m894fe621c7" d="M 0 3 
C 0.795609 3 1.55874 2.683901 2.12132 2.12132 
C 2.683901 1.55874 3 0.795609 3 0 
C 3 -0.795609 2.683901 -1.55874 2.12132 -2.12132 
C 1.55874 -2.683901 0.795609 -3 0 -3 
C -0.795609 -3 -1.55874 -2.683901 -2.12132 -2.12132 
C -2.683901 -1.55874 -3 -0.795609 -3 0 
C -3 0.795609 -2.683901 1.55874 -2.12132 2.12132 
C -1.55874 2.683901 -0.795609 3 0 3 
z
" style="stroke: #333333"/>
     </defs>
     <g>
      <use xlink:href="#m894fe621c7" x="282" y="129.871875" style="fill: #333333; stroke: #333333"/>
     </g>
    </g>
    <g id="text_20">
     <!-- boston -->
     <g transform="translate(303.6 133.021875)scale(0.12 -0.12)">
      <defs>
       <path id="DejaVuSans-62" d="M 3116 1747 
Q 3116 2381 2855 2742 
Q 2594 3103 2138 3103 
Q 1681 3103 1420 2742 
Q 1159 2381 1159 1747 
Q 1159 1113 1420 752 
Q 1681 391 2138 391 
Q 2594 391 2855 752 
Q 3116 1113 3116 1747 
z
M 1159 2969 
Q 1341 3281 1617 3432 
Q 1894 3584 2278 3584 
Q 2916 3584 3314 3078 
Q 3713 2572 3713 1747 
Q 3713 922 3314 415 
Q 2916 -91 2278 -91 
Q 1894 -91 1617 61 
Q 1341 213 1159 525 
L 1159 0 
L 581 0 
L 581 4863 
L 1159 4863 
L 1159 2969 
z
" transform="scale(0.015625)"/>
       <path id="DejaVuSans-73" d="M 2834 3397 
L 2834 2853 
Q 2591 2978 2328 3040 
Q 2066 3103 1784 3103 
Q 1356 3103 1142 2972 
Q 928 2841 928 2578 
Q 928 2378 1081 2264 
Q 1234 2150 1697 2047 
L 1894 2003 
Q 2506 1872 2764 1633 
Q 3022 1394 3022 966 
Q 3022 478 2636 193 
Q 2250 -91 1575 -91 
Q 1294 -91 989 -36 
Q 684 19 347 128 
L 347 722 
Q 666 556 975 473 
Q 1284 391 1588 391 
Q 1994 391 2212 530 
Q 2431 669 2431 922 
Q 2431 1156 2273 1281 
Q 2116 1406 1581 1522 
L 1381 1569 
Q 847 1681 609 1914 
Q 372 2147 372 2553 
Q 372 3047 722 3315 
Q 1072 3584 1716 3584 
Q 2034 3584 2315 3537 
Q 2597 3491 2834 3397 
z
" transform="scale(0.015625)"/>
      </defs>
      <use xlink:href="#DejaVuSans-62"/>
      <use xlink:href="#DejaVuSans-6f" x="63.476562"/>
      <use xlink:href="#DejaVuSans-73" x="124.658203"/>
      <use xlink:href="#DejaVuSans-74" x="176.757812"/>
      <use xlink:href="#DejaVuSans-6f" x="215.966797"/>
      <use xlink:href="#DejaVuSans-6e" x="277.148438"/>
     </g>
    </g>
    <g id="PathCollection_20">
     <defs>
      <path id="m3b7ce9b576" d="M -1.5 3 
L 0 1.5 
L 1.5 3 
L 3 1.5 
L 1.5 0 
L 3 -1.5 
L 1.5 -3 
L 0 -1.5 
L -1.5 -3 
L -3 -1.5 
L -1.5 0 
L -3 1.5 
z
" style="stroke: #333333"/>
     </defs>
     <g>
      <use xlink:href="#m3b7ce9b576" x="282" y="147.485625" style="fill: #333333; stroke: #333333"/>
     </g>
    </g>
    <g id="text_21">
     <!-- chicago -->
     <g transform="translate(303.6 150.635625)scale(0.12 -0.12)">
      <defs>
       <path id="DejaVuSans-67" d="M 2906 1791 
Q 2906 2416 2648 2759 
Q 2391 3103 1925 3103 
Q 1463 3103 1205 2759 
Q 947 2416 947 1791 
Q 947 1169 1205 825 
Q 1463 481 1925 481 
Q 2391 481 2648 825 
Q 2906 1169 2906 1791 
z
M 3481 434 
Q 3481 -459 3084 -895 
Q 2688 -1331 1869 -1331 
Q 1566 -1331 1297 -1286 
Q 1028 -1241 775 -1147 
L 775 -588 
Q 1028 -725 1275 -790 
Q 1522 -856 1778 -856 
Q 2344 -856 2625 -561 
Q 2906 -266 2906 331 
L 2906 616 
Q 2728 306 2450 153 
Q 2172 0 1784 0 
Q 1141 0 747 490 
Q 353 981 353 1791 
Q 353 2603 747 3093 
Q 1141 3584 1784 3584 
Q 2172 3584 2450 3431 
Q 2728 3278 2906 2969 
L 2906 3500 
L 3481 3500 
L 3481 434 
z
" transform="scale(0.015625)"/>
      </defs>
      <use xlink:href="#DejaVuSans-63"/>
      <use xlink:href="#DejaVuSans-68" x="54.980469"/>
      <use xlink:href="#DejaVuSans-69" x="118.359375"/>
      <use xlink:href="#DejaVuSans-63" x="146.142578"/>
      <use xlink:href="#DejaVuSans-61" x="201.123047"/>
      <use xlink:href="#DejaVuSans-67" x="262.402344"/>
      <use xlink:href="#DejaVuSans-6f" x="325.878906"/>
     </g>
    </g>
    <g id="PathCollection_21">
     <defs>
      <path id="mc96bbc9036" d="M -2.12132 -2.12132 
L -2.12132 2.12132 
L 2.12132 2.12132 
L 2.12132 -2.12132 
z
" style="stroke: #333333"/>
     </defs>
     <g>
      <use xlink:href="#mc96bbc9036" x="282" y="165.099375" style="fill: #333333; stroke: #333333"/>
     </g>
    </g>
    <g id="text_22">
     <!-- losangeles -->
     <g transform="translate(303.6 168.249375)scale(0.12 -0.12)">
      <use xlink:href="#DejaVuSans-6c"/>
      <use xlink:href="#DejaVuSans-6f" x="27.783203"/>
      <use xlink:href="#DejaVuSans-73" x="88.964844"/>
      <use xlink:href="#DejaVuSans-61" x="141.064453"/>
      <use xlink:href="#DejaVuSans-6e" x="202.34375"/>
      <use xlink:href="#DejaVuSans-67" x="265.722656"/>
      <use xlink:href="#DejaVuSans-65" x="329.199219"/>
      <use xlink:href="#DejaVuSans-6c" x="390.722656"/>
      <use xlink:href="#DejaVuSans-65" x="418.505859"/>
      <use xlink:href="#DejaVuSans-73" x="480.029297"/>
     </g>
    </g>
    <g id="PathCollection_22">
     <defs>
      <path id="m5cf9810a36" d="M -1 3 
L 1 3 
L 1 1 
L 3 1 
L 3 -1 
L 1 -1 
L 1 -3 
L -1 -3 
L -1 -1 
L -3 -1 
L -3 1 
L -1 1 
z
" style="stroke: #333333"/>
     </defs>
     <g>
      <use xlink:href="#m5cf9810a36" x="282" y="182.713125" style="fill: #333333; stroke: #333333"/>
     </g>
    </g>
    <g id="text_23">
     <!-- miami -->
     <g transform="translate(303.6 185.863125)scale(0.12 -0.12)">
      <use xlink:href="#DejaVuSans-6d"/>
      <use xlink:href="#DejaVuSans-69" x="97.412109"/>
      <use xlink:href="#DejaVuSans-61" x="125.195312"/>
      <use xlink:href="#DejaVuSans-6d" x="186.474609"/>
      <use xlink:href="#DejaVuSans-69" x="283.886719"/>
     </g>
    </g>
    <g id="PathCollection_23">
     <defs>
      <path id="m478ffc8301" d="M 0 -3 
L -3 -0 
L -0 3 
L 3 0 
z
" style="stroke: #333333"/>
     </defs>
     <g>
      <use xlink:href="#m478ffc8301" x="282" y="200.326875" style="fill: #333333; stroke: #333333"/>
     </g>
    </g>
    <g id="text_24">
     <!-- newyork -->
     <g transform="translate(303.6 203.476875)scale(0.12 -0.12)">
      <defs>
       <path id="DejaVuSans-77" d="M 269 3500 
L 844 3500 
L 1563 769 
L 2278 3500 
L 2956 3500 
L 3675 769 
L 4391 3500 
L 4966 3500 
L 4050 0 
L 3372 0 
L 2619 2869 
L 1863 0 
L 1184 0 
L 269 3500 
z
" transform="scale(0.015625)"/>
       <path id="DejaVuSans-6b" d="M 581 4863 
L 1159 4863 
L 1159 1991 
L 2875 3500 
L 3609 3500 
L 1753 1863 
L 3688 0 
L 2938 0 
L 1159 1709 
L 1159 0 
L 581 0 
L 581 4863 
z
" transform="scale(0.015625)"/>
      </defs>
      <use xlink:href="#DejaVuSans-6e"/>
      <use xlink:href="#DejaVuSans-65" x="63.378906"/>
      <use xlink:href="#DejaVuSans-77" x="124.902344"/>
      <use xlink:href="#DejaVuSans-79" x="206.689453"/>
      <use xlink:href="#DejaVuSans-6f" x="265.869141"/>
      <use xlink:href="#DejaVuSans-72" x="327.050781"/>
      <use xlink:href="#DejaVuSans-6b" x="368.164062"/>
     </g>
    </g>
    <g id="PathCollection_24">
     <defs>
      <path id="md9cb95753c" d="M 0 -3 
L -1.06066 -1.06066 
L -3 -0 
L -1.06066 1.06066 
L -0 3 
L 1.06066 1.06066 
L 3 0 
L 1.06066 -1.06066 
z
" style="stroke: #333333"/>
     </defs>
     <g>
      <use xlink:href="#md9cb95753c" x="282" y="217.940625" style="fill: #333333; stroke: #333333"/>
     </g>
    </g>
    <g id="text_25">
     <!-- philadelphia -->
     <g transform="translate(303.6 221.090625)scale(0.12 -0.12)">
      <defs>
       <path id="DejaVuSans-64" d="M 2906 2969 
L 2906 4863 
L 3481 4863 
L 3481 0 
L 2906 0 
L 2906 525 
Q 2725 213 2448 61 
Q 2172 -91 1784 -91 
Q 1150 -91 751 415 
Q 353 922 353 1747 
Q 353 2572 751 3078 
Q 1150 3584 1784 3584 
Q 2172 3584 2448 3432 
Q 2725 3281 2906 2969 
z
M 947 1747 
Q 947 1113 1208 752 
Q 1469 391 1925 391 
Q 2381 391 2643 752 
Q 2906 1113 2906 1747 
Q 2906 2381 2643 2742 
Q 2381 3103 1925 3103 
Q 1469 3103 1208 2742 
Q 947 2381 947 1747 
z
" transform="scale(0.015625)"/>
      </defs>
      <use xlink:href="#DejaVuSans-70"/>
      <use xlink:href="#DejaVuSans-68" x="63.476562"/>
      <use xlink:href="#DejaVuSans-69" x="126.855469"/>
      <use xlink:href="#DejaVuSans-6c" x="154.638672"/>
      <use xlink:href="#DejaVuSans-61" x="182.421875"/>
      <use xlink:href="#DejaVuSans-64" x="243.701172"/>
      <use xlink:href="#DejaVuSans-65" x="307.177734"/>
      <use xlink:href="#DejaVuSans-6c" x="368.701172"/>
      <use xlink:href="#DejaVuSans-70" x="396.484375"/>
      <use xlink:href="#DejaVuSans-68" x="459.960938"/>
      <use xlink:href="#DejaVuSans-69" x="523.339844"/>
      <use xlink:href="#DejaVuSans-61" x="551.123047"/>
     </g>
    </g>
    <g id="PathCollection_25">
     <defs>
      <path id="m247a973e6a" d="M 0 -3 
L -3 3 
L 3 3 
z
" style="stroke: #333333"/>
     </defs>
     <g>
      <use xlink:href="#m247a973e6a" x="282" y="235.554375" style="fill: #333333; stroke: #333333"/>
     </g>
    </g>
    <g id="text_26">
     <!-- sanfrancisco -->
     <g transform="translate(303.6 238.704375)scale(0.12 -0.12)">
      <defs>
       <path id="DejaVuSans-66" d="M 2375 4863 
L 2375 4384 
L 1825 4384 
Q 1516 4384 1395 4259 
Q 1275 4134 1275 3809 
L 1275 3500 
L 2222 3500 
L 2222 3053 
L 1275 3053 
L 1275 0 
L 697 0 
L 697 3053 
L 147 3053 
L 147 3500 
L 697 3500 
L 697 3744 
Q 697 4328 969 4595 
Q 1241 4863 1831 4863 
L 2375 4863 
z
" transform="scale(0.015625)"/>
      </defs>
      <use xlink:href="#DejaVuSans-73"/>
      <use xlink:href="#DejaVuSans-61" x="52.099609"/>
      <use xlink:href="#DejaVuSans-6e" x="113.378906"/>
      <use xlink:href="#DejaVuSans-66" x="176.757812"/>
      <use xlink:href="#DejaVuSans-72" x="211.962891"/>
      <use xlink:href="#DejaVuSans-61" x="253.076172"/>
      <use xlink:href="#DejaVuSans-6e" x="314.355469"/>
      <use xlink:href="#DejaVuSans-63" x="377.734375"/>
      <use xlink:href="#DejaVuSans-69" x="432.714844"/>
      <use xlink:href="#DejaVuSans-73" x="460.498047"/>
      <use xlink:href="#DejaVuSans-63" x="512.597656"/>
      <use xlink:href="#DejaVuSans-6f" x="567.578125"/>
     </g>
    </g>
   </g>
  </g>
 </g>
 <defs>
  <clipPath id="paacfb48819">
   <rect x="36" y="34.56" width="223.2" height="217.44"/>
  </clipPath>
 </defs>
</svg>
