<?xml version="1.0" encoding="utf-8" standalone="no"?>
<!DOCTYPE svg PUBLIC "-//W3C//DTD SVG 1.1//EN"
  "http://www.w3.org/Graphics/SVG/1.1/DTD/svg11.dtd">
<svg xmlns:xlink="http://www.w3.org/1999/xlink" width="432pt" height="309.6pt" viewBox="0 0 432 309.6" xmlns="http://www.w3.org/2000/svg" version="1.1">
 <metadata>
  <rdf:RDF xmlns:dc="http://purl.org/dc/elements/1.1/" xmlns:cc="http://creativecommons.org/ns#" xmlns:rdf="http://www.w3.org/1999/02/22-rdf-syntax-ns#">
   <cc:Work>
    <dc:type rdf:resource="http://purl.org/dc/dcmitype/StillImage"/>
    <dc:date>2023-03-17T12:22:01.375646</dc:date>
    <dc:format>image/svg+xml</dc:format>
    <dc:creator>
     <cc:Agent>
      <dc:title>Matplotlib v3.5.1, https://matplotlib.org/</dc:title>
     </cc:Agent>
    </dc:creator>
   </cc:Work>
  </rdf:RDF>
 </metadata>
 <defs>
  <style type="text/css">*{stroke-linejoin: round; stroke-linecap: butt}</style>
 </defs>
 <g id="figure_1">
  <g id="patch_1">
   <path d="M 0 309.6 
L 432 309.6 
L 432 0 
L 0 0 
L 0 309.6 
z
" style="fill: none"/>
  </g>
  <g id="axes_1">
   <g id="patch_2">
    <path d="M 47.38125 268.44375 
L 261.84 268.44375 
L 261.84 33.2445 
L 47.38125 33.2445 
z
" style="fill: #ffffff"/>
   </g>
   <g id="PathCollection_1">
    <path d="M 145.719068 149.820658 
C 147.045084 149.820658 148.316968 149.293826 149.254602 148.356192 
C 150.192237 147.418557 150.719068 146.146673 150.719068 144.820658 
C 150.719068 143.494642 150.192237 142.222758 149.254602 141.285124 
C 148.316968 140.347489 147.045084 139.820658 145.719068 139.820658 
C 144.393053 139.820658 143.121169 140.347489 142.183534 141.285124 
C 141.2459 142.222758 140.719068 143.494642 140.719068 144.820658 
C 140.719068 146.146673 141.2459 147.418557 142.183534 148.356192 
C 143.121169 149.293826 144.393053 149.820658 145.719068 149.820658 
z
" clip-path="url(#p2a7442522a)" style="fill: #f77189; stroke: #ffffff; stroke-width: 0.8"/>
    <path d="M 58.687416 193.651155 
C 60.013432 193.651155 61.285316 193.124323 62.22295 192.186689 
C 63.160585 191.249054 63.687416 189.97717 63.687416 188.651155 
C 63.687416 187.325139 63.160585 186.053256 62.22295 185.115621 
C 61.285316 184.177986 60.013432 183.651155 58.687416 183.651155 
C 57.361401 183.651155 56.089517 184.177986 55.151882 185.115621 
C 54.214248 186.053256 53.687416 187.325139 53.687416 188.651155 
C 53.687416 189.97717 54.214248 191.249054 55.151882 192.186689 
C 56.089517 193.124323 57.361401 193.651155 58.687416 193.651155 
z
" clip-path="url(#p2a7442522a)" style="fill: #f77189; stroke: #ffffff; stroke-width: 0.8"/>
    <path d="M 182.05638 80.249897 
C 183.382396 80.249897 184.65428 79.723065 185.591914 78.785431 
C 186.529549 77.847796 187.05638 76.575912 187.05638 75.249897 
C 187.05638 73.923881 186.529549 72.651998 185.591914 71.714363 
C 184.65428 70.776728 183.382396 70.249897 182.05638 70.249897 
C 180.730365 70.249897 179.458481 70.776728 178.520847 71.714363 
C 177.583212 72.651998 177.05638 73.923881 177.05638 75.249897 
C 177.05638 76.575912 177.583212 77.847796 178.520847 78.785431 
C 179.458481 79.723065 180.730365 80.249897 182.05638 80.249897 
z
" clip-path="url(#p2a7442522a)" style="fill: #ae9d31; stroke: #ffffff; stroke-width: 0.8"/>
    <path d="M 226.768086 79.393725 
C 228.094102 79.393725 229.365985 78.866893 230.30362 77.929259 
C 231.241254 76.991624 231.768086 75.71974 231.768086 74.393725 
C 231.768086 73.067709 231.241254 71.795826 230.30362 70.858191 
C 229.365985 69.920557 228.094102 69.393725 226.768086 69.393725 
C 225.442071 69.393725 224.170187 69.920557 223.232552 70.858191 
C 222.294918 71.795826 221.768086 73.067709 221.768086 74.393725 
C 221.768086 75.71974 222.294918 76.991624 223.232552 77.929259 
C 224.170187 78.866893 225.442071 79.393725 226.768086 79.393725 
z
" clip-path="url(#p2a7442522a)" style="fill: #ae9d31; stroke: #ffffff; stroke-width: 0.8"/>
    <path d="M 144.866756 143.923052 
C 146.192771 143.923052 147.464655 143.39622 148.402289 142.458585 
C 149.339924 141.520951 149.866756 140.249067 149.866756 138.923052 
C 149.866756 137.597036 149.339924 136.325152 148.402289 135.387518 
C 147.464655 134.449883 146.192771 133.923052 144.866756 133.923052 
C 143.54074 133.923052 142.268856 134.449883 141.331222 135.387518 
C 140.393587 136.325152 139.866756 137.597036 139.866756 138.923052 
C 139.866756 140.249067 140.393587 141.520951 141.331222 142.458585 
C 142.268856 143.39622 143.54074 143.923052 144.866756 143.923052 
z
" clip-path="url(#p2a7442522a)" style="fill: #ae9d31; stroke: #ffffff; stroke-width: 0.8"/>
    <path d="M 240.196296 68.719917 
C 241.522311 68.719917 242.794195 68.193085 243.73183 67.255451 
C 244.669464 66.317816 245.196296 65.045933 245.196296 63.719917 
C 245.196296 62.393902 244.669464 61.122018 243.73183 60.184383 
C 242.794195 59.246749 241.522311 58.719917 240.196296 58.719917 
C 238.87028 58.719917 237.598397 59.246749 236.660762 60.184383 
C 235.723127 61.122018 235.196296 62.393902 235.196296 63.719917 
C 235.196296 65.045933 235.723127 66.317816 236.660762 67.255451 
C 237.598397 68.193085 238.87028 68.719917 240.196296 68.719917 
z
" clip-path="url(#p2a7442522a)" style="fill: #ae9d31; stroke: #ffffff; stroke-width: 0.8"/>
    <path d="M 225.719234 71.385555 
C 227.045249 71.385555 228.317133 70.858723 229.254767 69.921088 
C 230.192402 68.983454 230.719234 67.71157 230.719234 66.385555 
C 230.719234 65.059539 230.192402 63.787655 229.254767 62.850021 
C 228.317133 61.912386 227.045249 61.385555 225.719234 61.385555 
C 224.393218 61.385555 223.121334 61.912386 222.1837 62.850021 
C 221.246065 63.787655 220.719234 65.059539 220.719234 66.385555 
C 220.719234 67.71157 221.246065 68.983454 222.1837 69.921088 
C 223.121334 70.858723 224.393218 71.385555 225.719234 71.385555 
z
" clip-path="url(#p2a7442522a)" style="fill: #ae9d31; stroke: #ffffff; stroke-width: 0.8"/>
    <path d="M 108.62798 230.00636 
C 109.953995 230.00636 111.225879 229.479529 112.163513 228.541894 
C 113.101148 227.60426 113.62798 226.332376 113.62798 225.00636 
C 113.62798 223.680345 113.101148 222.408461 112.163513 221.470826 
C 111.225879 220.533192 109.953995 220.00636 108.62798 220.00636 
C 107.301964 220.00636 106.03008 220.533192 105.092446 221.470826 
C 104.154811 222.408461 103.62798 223.680345 103.62798 225.00636 
C 103.62798 226.332376 104.154811 227.60426 105.092446 228.541894 
C 106.03008 229.479529 107.301964 230.00636 108.62798 230.00636 
z
" clip-path="url(#p2a7442522a)" style="fill: #33b07a; stroke: #ffffff; stroke-width: 0.8"/>
    <path d="M 122.380007 147.40403 
C 123.706022 147.40403 124.977906 146.877198 125.91554 145.939564 
C 126.853175 145.001929 127.380007 143.730045 127.380007 142.40403 
C 127.380007 141.078014 126.853175 139.806131 125.91554 138.868496 
C 124.977906 137.930861 123.706022 137.40403 122.380007 137.40403 
C 121.053991 137.40403 119.782107 137.930861 118.844473 138.868496 
C 117.906838 139.806131 117.380007 141.078014 117.380007 142.40403 
C 117.380007 143.730045 117.906838 145.001929 118.844473 145.939564 
C 119.782107 146.877198 121.053991 147.40403 122.380007 147.40403 
z
" clip-path="url(#p2a7442522a)" style="fill: #38a9c5; stroke: #ffffff; stroke-width: 0.8"/>
    <path d="M 77.503119 164.699249 
C 78.829135 164.699249 80.101018 164.172418 81.038653 163.234783 
C 81.976288 162.297149 82.503119 161.025265 82.503119 159.699249 
C 82.503119 158.373234 81.976288 157.10135 81.038653 156.163715 
C 80.101018 155.226081 78.829135 154.699249 77.503119 154.699249 
C 76.177104 154.699249 74.90522 155.226081 73.967585 156.163715 
C 73.029951 157.10135 72.503119 158.373234 72.503119 159.699249 
C 72.503119 161.025265 73.029951 162.297149 73.967585 163.234783 
C 74.90522 164.172418 76.177104 164.699249 77.503119 164.699249 
z
" clip-path="url(#p2a7442522a)" style="fill: #f77189; stroke: #ffffff; stroke-width: 0.8"/>
    <path d="M 106.474675 166.546448 
C 107.80069 166.546448 109.072574 166.019616 110.010209 165.081982 
C 110.947843 164.144347 111.474675 162.872463 111.474675 161.546448 
C 111.474675 160.220432 110.947843 158.948549 110.010209 158.010914 
C 109.072574 157.073279 107.80069 156.546448 106.474675 156.546448 
C 105.148659 156.546448 103.876775 157.073279 102.939141 158.010914 
C 102.001506 158.948549 101.474675 160.220432 101.474675 161.546448 
C 101.474675 162.872463 102.001506 164.144347 102.939141 165.081982 
C 103.876775 166.019616 105.148659 166.546448 106.474675 166.546448 
z
" clip-path="url(#p2a7442522a)" style="fill: #f77189; stroke: #ffffff; stroke-width: 0.8"/>
    <path d="M 57.129375 185.868635 
C 58.455391 185.868635 59.727274 185.341803 60.664909 184.404169 
C 61.602543 183.466534 62.129375 182.19465 62.129375 180.868635 
C 62.129375 179.542619 61.602543 178.270735 60.664909 177.333101 
C 59.727274 176.395466 58.455391 175.868635 57.129375 175.868635 
C 55.80336 175.868635 54.531476 176.395466 53.593841 177.333101 
C 52.656207 178.270735 52.129375 179.542619 52.129375 180.868635 
C 52.129375 182.19465 52.656207 183.466534 53.593841 184.404169 
C 54.531476 185.341803 55.80336 185.868635 57.129375 185.868635 
z
" clip-path="url(#p2a7442522a)" style="fill: #f77189; stroke: #ffffff; stroke-width: 0.8"/>
    <path d="M 63.227936 176.583875 
C 64.553952 176.583875 65.825836 176.057044 66.76347 175.119409 
C 67.701105 174.181775 68.227936 172.909891 68.227936 171.583875 
C 68.227936 170.25786 67.701105 168.985976 66.76347 168.048341 
C 65.825836 167.110707 64.553952 166.583875 63.227936 166.583875 
C 61.901921 166.583875 60.630037 167.110707 59.692402 168.048341 
C 58.754768 168.985976 58.227936 170.25786 58.227936 171.583875 
C 58.227936 172.909891 58.754768 174.181775 59.692402 175.119409 
C 60.630037 176.057044 61.901921 176.583875 63.227936 176.583875 
z
" clip-path="url(#p2a7442522a)" style="fill: #f77189; stroke: #ffffff; stroke-width: 0.8"/>
    <path d="M 134.836147 166.764808 
C 136.162163 166.764808 137.434047 166.237976 138.371681 165.300342 
C 139.309316 164.362707 139.836147 163.090824 139.836147 161.764808 
C 139.836147 160.438793 139.309316 159.166909 138.371681 158.229274 
C 137.434047 157.29164 136.162163 156.764808 134.836147 156.764808 
C 133.510132 156.764808 132.238248 157.29164 131.300613 158.229274 
C 130.362979 159.166909 129.836147 160.438793 129.836147 161.764808 
C 129.836147 163.090824 130.362979 164.362707 131.300613 165.300342 
C 132.238248 166.237976 133.510132 166.764808 134.836147 166.764808 
z
" clip-path="url(#p2a7442522a)" style="fill: #38a9c5; stroke: #ffffff; stroke-width: 0.8"/>
    <path d="M 138.857859 145.992899 
C 140.183874 145.992899 141.455758 145.466067 142.393393 144.528433 
C 143.331027 143.590798 143.857859 142.318914 143.857859 140.992899 
C 143.857859 139.666883 143.331027 138.394999 142.393393 137.457365 
C 141.455758 136.51973 140.183874 135.992899 138.857859 135.992899 
C 137.531843 135.992899 136.259959 136.51973 135.322325 137.457365 
C 134.38469 138.394999 133.857859 139.666883 133.857859 140.992899 
C 133.857859 142.318914 134.38469 143.590798 135.322325 144.528433 
C 136.259959 145.466067 137.531843 145.992899 138.857859 145.992899 
z
" clip-path="url(#p2a7442522a)" style="fill: #38a9c5; stroke: #ffffff; stroke-width: 0.8"/>
    <path d="M 146.089883 120.114832 
C 147.415899 120.114832 148.687783 119.588001 149.625417 118.650366 
C 150.563052 117.712731 151.089883 116.440848 151.089883 115.114832 
C 151.089883 113.788817 150.563052 112.516933 149.625417 111.579298 
C 148.687783 110.641664 147.415899 110.114832 146.089883 110.114832 
C 144.763868 110.114832 143.491984 110.641664 142.55435 111.579298 
C 141.616715 112.516933 141.089883 113.788817 141.089883 115.114832 
C 141.089883 116.440848 141.616715 117.712731 142.55435 118.650366 
C 143.491984 119.588001 144.763868 120.114832 146.089883 120.114832 
z
" clip-path="url(#p2a7442522a)" style="fill: #cc7af4; stroke: #ffffff; stroke-width: 0.8"/>
    <path d="M 124.296938 87.481595 
C 125.622953 87.481595 126.894837 86.954763 127.832472 86.017129 
C 128.770106 85.079494 129.296938 83.80761 129.296938 82.481595 
C 129.296938 81.155579 128.770106 79.883695 127.832472 78.946061 
C 126.894837 78.008426 125.622953 77.481595 124.296938 77.481595 
C 122.970922 77.481595 121.699038 78.008426 120.761404 78.946061 
C 119.823769 79.883695 119.296938 81.155579 119.296938 82.481595 
C 119.296938 83.80761 119.823769 85.079494 120.761404 86.017129 
C 121.699038 86.954763 122.970922 87.481595 124.296938 87.481595 
z
" clip-path="url(#p2a7442522a)" style="fill: #cc7af4; stroke: #ffffff; stroke-width: 0.8"/>
    <path d="M 106.502839 175.513471 
L 109.002839 173.013471 
L 111.502839 175.513471 
L 114.002839 173.013471 
L 111.502839 170.513471 
L 114.002839 168.013471 
L 111.502839 165.513471 
L 109.002839 168.013471 
L 106.502839 165.513471 
L 104.002839 168.013471 
L 106.502839 170.513471 
L 104.002839 173.013471 
z
" clip-path="url(#p2a7442522a)" style="fill: #f77189; stroke: #ffffff; stroke-width: 0.8"/>
    <path d="M 81.668087 123.293148 
L 84.168087 120.793148 
L 86.668087 123.293148 
L 89.168087 120.793148 
L 86.668087 118.293148 
L 89.168087 115.793148 
L 86.668087 113.293148 
L 84.168087 115.793148 
L 81.668087 113.293148 
L 79.168087 115.793148 
L 81.668087 118.293148 
L 79.168087 120.793148 
z
" clip-path="url(#p2a7442522a)" style="fill: #f77189; stroke: #ffffff; stroke-width: 0.8"/>
    <path d="M 170.965758 81.400506 
L 173.465758 78.900506 
L 175.965758 81.400506 
L 178.465758 78.900506 
L 175.965758 76.400506 
L 178.465758 73.900506 
L 175.965758 71.400506 
L 173.465758 73.900506 
L 170.965758 71.400506 
L 168.465758 73.900506 
L 170.965758 76.400506 
L 168.465758 78.900506 
z
" clip-path="url(#p2a7442522a)" style="fill: #ae9d31; stroke: #ffffff; stroke-width: 0.8"/>
    <path d="M 169.174009 112.737574 
L 171.674009 110.237574 
L 174.174009 112.737574 
L 176.674009 110.237574 
L 174.174009 107.737574 
L 176.674009 105.237574 
L 174.174009 102.737574 
L 171.674009 105.237574 
L 169.174009 102.737574 
L 166.674009 105.237574 
L 169.174009 107.737574 
L 166.674009 110.237574 
z
" clip-path="url(#p2a7442522a)" style="fill: #ae9d31; stroke: #ffffff; stroke-width: 0.8"/>
    <path d="M 125.249031 149.027761 
L 127.749031 146.527761 
L 130.249031 149.027761 
L 132.749031 146.527761 
L 130.249031 144.027761 
L 132.749031 141.527761 
L 130.249031 139.027761 
L 127.749031 141.527761 
L 125.249031 139.027761 
L 122.749031 141.527761 
L 125.249031 144.027761 
L 122.749031 146.527761 
z
" clip-path="url(#p2a7442522a)" style="fill: #ae9d31; stroke: #ffffff; stroke-width: 0.8"/>
    <path d="M 177.567251 107.041773 
L 180.067251 104.541773 
L 182.567251 107.041773 
L 185.067251 104.541773 
L 182.567251 102.041773 
L 185.067251 99.541773 
L 182.567251 97.041773 
L 180.067251 99.541773 
L 177.567251 97.041773 
L 175.067251 99.541773 
L 177.567251 102.041773 
L 175.067251 104.541773 
z
" clip-path="url(#p2a7442522a)" style="fill: #ae9d31; stroke: #ffffff; stroke-width: 0.8"/>
    <path d="M 167.844084 101.8774 
L 170.344084 99.3774 
L 172.844084 101.8774 
L 175.344084 99.3774 
L 172.844084 96.8774 
L 175.344084 94.3774 
L 172.844084 91.8774 
L 170.344084 94.3774 
L 167.844084 91.8774 
L 165.344084 94.3774 
L 167.844084 96.8774 
L 165.344084 99.3774 
z
" clip-path="url(#p2a7442522a)" style="fill: #ae9d31; stroke: #ffffff; stroke-width: 0.8"/>
    <path d="M 87.100145 178.597863 
L 89.600145 176.097863 
L 92.100145 178.597863 
L 94.600145 176.097863 
L 92.100145 173.597863 
L 94.600145 171.097863 
L 92.100145 168.597863 
L 89.600145 171.097863 
L 87.100145 168.597863 
L 84.600145 171.097863 
L 87.100145 173.597863 
L 84.600145 176.097863 
z
" clip-path="url(#p2a7442522a)" style="fill: #33b07a; stroke: #ffffff; stroke-width: 0.8"/>
    <path d="M 95.370795 130.280875 
L 97.870795 127.780875 
L 100.370795 130.280875 
L 102.870795 127.780875 
L 100.370795 125.280875 
L 102.870795 122.780875 
L 100.370795 120.280875 
L 97.870795 122.780875 
L 95.370795 120.280875 
L 92.870795 122.780875 
L 95.370795 125.280875 
L 92.870795 127.780875 
z
" clip-path="url(#p2a7442522a)" style="fill: #38a9c5; stroke: #ffffff; stroke-width: 0.8"/>
    <path d="M 77.929595 127.425537 
L 80.429595 124.925537 
L 82.929595 127.425537 
L 85.429595 124.925537 
L 82.929595 122.425537 
L 85.429595 119.925537 
L 82.929595 117.425537 
L 80.429595 119.925537 
L 77.929595 117.425537 
L 75.429595 119.925537 
L 77.929595 122.425537 
L 75.429595 124.925537 
z
" clip-path="url(#p2a7442522a)" style="fill: #f77189; stroke: #ffffff; stroke-width: 0.8"/>
    <path d="M 86.533252 147.68172 
L 89.033252 145.18172 
L 91.533252 147.68172 
L 94.033252 145.18172 
L 91.533252 142.68172 
L 94.033252 140.18172 
L 91.533252 137.68172 
L 89.033252 140.18172 
L 86.533252 137.68172 
L 84.033252 140.18172 
L 86.533252 142.68172 
L 84.033252 145.18172 
z
" clip-path="url(#p2a7442522a)" style="fill: #f77189; stroke: #ffffff; stroke-width: 0.8"/>
    <path d="M 79.410996 139.101458 
L 81.910996 136.601458 
L 84.410996 139.101458 
L 86.910996 136.601458 
L 84.410996 134.101458 
L 86.910996 131.601458 
L 84.410996 129.101458 
L 81.910996 131.601458 
L 79.410996 129.101458 
L 76.910996 131.601458 
L 79.410996 134.101458 
L 76.910996 136.601458 
z
" clip-path="url(#p2a7442522a)" style="fill: #f77189; stroke: #ffffff; stroke-width: 0.8"/>
    <path d="M 78.200013 128.750122 
L 80.700013 126.250122 
L 83.200013 128.750122 
L 85.700013 126.250122 
L 83.200013 123.750122 
L 85.700013 121.250122 
L 83.200013 118.750122 
L 80.700013 121.250122 
L 78.200013 118.750122 
L 75.700013 121.250122 
L 78.200013 123.750122 
L 75.700013 126.250122 
z
" clip-path="url(#p2a7442522a)" style="fill: #f77189; stroke: #ffffff; stroke-width: 0.8"/>
    <path d="M 103.412073 146.630782 
L 105.912073 144.130782 
L 108.412073 146.630782 
L 110.912073 144.130782 
L 108.412073 141.630782 
L 110.912073 139.130782 
L 108.412073 136.630782 
L 105.912073 139.130782 
L 103.412073 136.630782 
L 100.912073 139.130782 
L 103.412073 141.630782 
L 100.912073 144.130782 
z
" clip-path="url(#p2a7442522a)" style="fill: #38a9c5; stroke: #ffffff; stroke-width: 0.8"/>
    <path d="M 101.232872 134.939234 
L 103.732872 132.439234 
L 106.232872 134.939234 
L 108.732872 132.439234 
L 106.232872 129.939234 
L 108.732872 127.439234 
L 106.232872 124.939234 
L 103.732872 127.439234 
L 101.232872 124.939234 
L 98.732872 127.439234 
L 101.232872 129.939234 
L 98.732872 132.439234 
z
" clip-path="url(#p2a7442522a)" style="fill: #38a9c5; stroke: #ffffff; stroke-width: 0.8"/>
    <path d="M 162.161441 102.454653 
L 164.661441 99.954653 
L 167.161441 102.454653 
L 169.661441 99.954653 
L 167.161441 97.454653 
L 169.661441 94.954653 
L 167.161441 92.454653 
L 164.661441 94.954653 
L 162.161441 92.454653 
L 159.661441 94.954653 
L 162.161441 97.454653 
L 159.661441 99.954653 
z
" clip-path="url(#p2a7442522a)" style="fill: #cc7af4; stroke: #ffffff; stroke-width: 0.8"/>
    <path d="M 103.802326 163.669407 
L 106.302326 161.169407 
L 108.802326 163.669407 
L 111.302326 161.169407 
L 108.802326 158.669407 
L 111.302326 156.169407 
L 108.802326 153.669407 
L 106.302326 156.169407 
L 103.802326 153.669407 
L 101.302326 156.169407 
L 103.802326 158.669407 
L 101.302326 161.169407 
z
" clip-path="url(#p2a7442522a)" style="fill: #cc7af4; stroke: #ffffff; stroke-width: 0.8"/>
    <path d="M 107.192185 150.173122 
L 107.192185 157.24419 
L 114.263253 157.24419 
L 114.263253 150.173122 
z
" clip-path="url(#p2a7442522a)" style="fill: #f77189; stroke: #ffffff; stroke-width: 0.8"/>
    <path d="M 69.962155 153.677433 
L 69.962155 160.748501 
L 77.033223 160.748501 
L 77.033223 153.677433 
z
" clip-path="url(#p2a7442522a)" style="fill: #f77189; stroke: #ffffff; stroke-width: 0.8"/>
    <path d="M 103.238228 146.902536 
L 103.238228 153.973604 
L 110.309295 153.973604 
L 110.309295 146.902536 
z
" clip-path="url(#p2a7442522a)" style="fill: #ae9d31; stroke: #ffffff; stroke-width: 0.8"/>
    <path d="M 146.398559 137.839566 
L 146.398559 144.910634 
L 153.469627 144.910634 
L 153.469627 137.839566 
z
" clip-path="url(#p2a7442522a)" style="fill: #ae9d31; stroke: #ffffff; stroke-width: 0.8"/>
    <path d="M 90.884823 143.549294 
L 90.884823 150.620362 
L 97.95589 150.620362 
L 97.95589 143.549294 
z
" clip-path="url(#p2a7442522a)" style="fill: #ae9d31; stroke: #ffffff; stroke-width: 0.8"/>
    <path d="M 168.98952 129.10469 
L 168.98952 136.175758 
L 176.060588 136.175758 
L 176.060588 129.10469 
z
" clip-path="url(#p2a7442522a)" style="fill: #ae9d31; stroke: #ffffff; stroke-width: 0.8"/>
    <path d="M 145.124733 123.836575 
L 145.124733 130.907643 
L 152.1958 130.907643 
L 152.1958 123.836575 
z
" clip-path="url(#p2a7442522a)" style="fill: #ae9d31; stroke: #ffffff; stroke-width: 0.8"/>
    <path d="M 112.984275 151.007532 
L 112.984275 158.0786 
L 120.055343 158.0786 
L 120.055343 151.007532 
z
" clip-path="url(#p2a7442522a)" style="fill: #33b07a; stroke: #ffffff; stroke-width: 0.8"/>
    <path d="M 138.318947 120.675304 
L 138.318947 127.746372 
L 145.390015 127.746372 
L 145.390015 120.675304 
z
" clip-path="url(#p2a7442522a)" style="fill: #38a9c5; stroke: #ffffff; stroke-width: 0.8"/>
    <path d="M 99.368228 100.05824 
L 99.368228 107.129307 
L 106.439295 107.129307 
L 106.439295 100.05824 
z
" clip-path="url(#p2a7442522a)" style="fill: #f77189; stroke: #ffffff; stroke-width: 0.8"/>
    <path d="M 106.544905 122.034519 
L 106.544905 129.105587 
L 113.615973 129.105587 
L 113.615973 122.034519 
z
" clip-path="url(#p2a7442522a)" style="fill: #f77189; stroke: #ffffff; stroke-width: 0.8"/>
    <path d="M 83.766157 131.880616 
L 83.766157 138.951684 
L 90.837225 138.951684 
L 90.837225 131.880616 
z
" clip-path="url(#p2a7442522a)" style="fill: #f77189; stroke: #ffffff; stroke-width: 0.8"/>
    <path d="M 87.042431 122.60056 
L 87.042431 129.671628 
L 94.113498 129.671628 
L 94.113498 122.60056 
z
" clip-path="url(#p2a7442522a)" style="fill: #f77189; stroke: #ffffff; stroke-width: 0.8"/>
    <path d="M 103.64238 162.685685 
L 103.64238 169.756753 
L 110.713448 169.756753 
L 110.713448 162.685685 
z
" clip-path="url(#p2a7442522a)" style="fill: #38a9c5; stroke: #ffffff; stroke-width: 0.8"/>
    <path d="M 122.399826 121.656452 
L 122.399826 128.72752 
L 129.470894 128.72752 
L 129.470894 121.656452 
z
" clip-path="url(#p2a7442522a)" style="fill: #38a9c5; stroke: #ffffff; stroke-width: 0.8"/>
    <path d="M 113.506474 139.626771 
L 113.506474 146.697839 
L 120.577542 146.697839 
L 120.577542 139.626771 
z
" clip-path="url(#p2a7442522a)" style="fill: #cc7af4; stroke: #ffffff; stroke-width: 0.8"/>
    <path d="M 76.949662 213.916223 
L 76.949662 220.987291 
L 84.020729 220.987291 
L 84.020729 213.916223 
z
" clip-path="url(#p2a7442522a)" style="fill: #cc7af4; stroke: #ffffff; stroke-width: 0.8"/>
    <path d="M 119.396347 212.981597 
L 122.729681 212.981597 
L 122.729681 209.648264 
L 126.063014 209.648264 
L 126.063014 206.31493 
L 122.729681 206.31493 
L 122.729681 202.981597 
L 119.396347 202.981597 
L 119.396347 206.31493 
L 116.063014 206.31493 
L 116.063014 209.648264 
L 119.396347 209.648264 
z
" clip-path="url(#p2a7442522a)" style="fill: #f77189; stroke: #ffffff; stroke-width: 0.8"/>
    <path d="M 85.357915 163.192769 
L 88.691248 163.192769 
L 88.691248 159.859436 
L 92.024581 159.859436 
L 92.024581 156.526102 
L 88.691248 156.526102 
L 88.691248 153.192769 
L 85.357915 153.192769 
L 85.357915 156.526102 
L 82.024581 156.526102 
L 82.024581 159.859436 
L 85.357915 159.859436 
z
" clip-path="url(#p2a7442522a)" style="fill: #f77189; stroke: #ffffff; stroke-width: 0.8"/>
    <path d="M 88.831674 174.700914 
L 92.165008 174.700914 
L 92.165008 171.36758 
L 95.498341 171.36758 
L 95.498341 168.034247 
L 92.165008 168.034247 
L 92.165008 164.700914 
L 88.831674 164.700914 
L 88.831674 168.034247 
L 85.498341 168.034247 
L 85.498341 171.36758 
L 88.831674 171.36758 
z
" clip-path="url(#p2a7442522a)" style="fill: #ae9d31; stroke: #ffffff; stroke-width: 0.8"/>
    <path d="M 131.694434 169.372324 
L 135.027768 169.372324 
L 135.027768 166.03899 
L 138.361101 166.03899 
L 138.361101 162.705657 
L 135.027768 162.705657 
L 135.027768 159.372324 
L 131.694434 159.372324 
L 131.694434 162.705657 
L 128.361101 162.705657 
L 128.361101 166.03899 
L 131.694434 166.03899 
z
" clip-path="url(#p2a7442522a)" style="fill: #ae9d31; stroke: #ffffff; stroke-width: 0.8"/>
    <path d="M 104.023734 185.786068 
L 107.357067 185.786068 
L 107.357067 182.452735 
L 110.6904 182.452735 
L 110.6904 179.119401 
L 107.357067 179.119401 
L 107.357067 175.786068 
L 104.023734 175.786068 
L 104.023734 179.119401 
L 100.6904 179.119401 
L 100.6904 182.452735 
L 104.023734 182.452735 
z
" clip-path="url(#p2a7442522a)" style="fill: #ae9d31; stroke: #ffffff; stroke-width: 0.8"/>
    <path d="M 131.791568 169.899287 
L 135.124902 169.899287 
L 135.124902 166.565953 
L 138.458235 166.565953 
L 138.458235 163.23262 
L 135.124902 163.23262 
L 135.124902 159.899287 
L 131.791568 159.899287 
L 131.791568 163.23262 
L 128.458235 163.23262 
L 128.458235 166.565953 
L 131.791568 166.565953 
z
" clip-path="url(#p2a7442522a)" style="fill: #ae9d31; stroke: #ffffff; stroke-width: 0.8"/>
    <path d="M 121.519582 165.141549 
L 124.852915 165.141549 
L 124.852915 161.808216 
L 128.186248 161.808216 
L 128.186248 158.474883 
L 124.852915 158.474883 
L 124.852915 155.141549 
L 121.519582 155.141549 
L 121.519582 158.474883 
L 118.186248 158.474883 
L 118.186248 161.808216 
L 121.519582 161.808216 
z
" clip-path="url(#p2a7442522a)" style="fill: #ae9d31; stroke: #ffffff; stroke-width: 0.8"/>
    <path d="M 97.261648 143.360241 
L 100.594981 143.360241 
L 100.594981 140.026907 
L 103.928314 140.026907 
L 103.928314 136.693574 
L 100.594981 136.693574 
L 100.594981 133.360241 
L 97.261648 133.360241 
L 97.261648 136.693574 
L 93.928314 136.693574 
L 93.928314 140.026907 
L 97.261648 140.026907 
z
" clip-path="url(#p2a7442522a)" style="fill: #38a9c5; stroke: #ffffff; stroke-width: 0.8"/>
    <path d="M 105.792709 124.19504 
L 109.126042 124.19504 
L 109.126042 120.861707 
L 112.459375 120.861707 
L 112.459375 117.528373 
L 109.126042 117.528373 
L 109.126042 114.19504 
L 105.792709 114.19504 
L 105.792709 117.528373 
L 102.459375 117.528373 
L 102.459375 120.861707 
L 105.792709 120.861707 
z
" clip-path="url(#p2a7442522a)" style="fill: #f77189; stroke: #ffffff; stroke-width: 0.8"/>
    <path d="M 76.03736 189.573965 
L 79.370694 189.573965 
L 79.370694 186.240632 
L 82.704027 186.240632 
L 82.704027 182.907298 
L 79.370694 182.907298 
L 79.370694 179.573965 
L 76.03736 179.573965 
L 76.03736 182.907298 
L 72.704027 182.907298 
L 72.704027 186.240632 
L 76.03736 186.240632 
z
" clip-path="url(#p2a7442522a)" style="fill: #f77189; stroke: #ffffff; stroke-width: 0.8"/>
    <path d="M 95.851647 167.418328 
L 99.18498 167.418328 
L 99.18498 164.084994 
L 102.518314 164.084994 
L 102.518314 160.751661 
L 99.18498 160.751661 
L 99.18498 157.418328 
L 95.851647 157.418328 
L 95.851647 160.751661 
L 92.518314 160.751661 
L 92.518314 164.084994 
L 95.851647 164.084994 
z
" clip-path="url(#p2a7442522a)" style="fill: #f77189; stroke: #ffffff; stroke-width: 0.8"/>
    <path d="M 82.765688 157.577028 
L 86.099021 157.577028 
L 86.099021 154.243695 
L 89.432354 154.243695 
L 89.432354 150.910362 
L 86.099021 150.910362 
L 86.099021 147.577028 
L 82.765688 147.577028 
L 82.765688 150.910362 
L 79.432354 150.910362 
L 79.432354 154.243695 
L 82.765688 154.243695 
z
" clip-path="url(#p2a7442522a)" style="fill: #f77189; stroke: #ffffff; stroke-width: 0.8"/>
    <path d="M 74.782101 183.54539 
L 78.115434 183.54539 
L 78.115434 180.212056 
L 81.448768 180.212056 
L 81.448768 176.878723 
L 78.115434 176.878723 
L 78.115434 173.54539 
L 74.782101 173.54539 
L 74.782101 176.878723 
L 71.448768 176.878723 
L 71.448768 180.212056 
L 74.782101 180.212056 
z
" clip-path="url(#p2a7442522a)" style="fill: #38a9c5; stroke: #ffffff; stroke-width: 0.8"/>
    <path d="M 90.627858 149.387282 
L 93.961192 149.387282 
L 93.961192 146.053949 
L 97.294525 146.053949 
L 97.294525 142.720616 
L 93.961192 142.720616 
L 93.961192 139.387282 
L 90.627858 139.387282 
L 90.627858 142.720616 
L 87.294525 142.720616 
L 87.294525 146.053949 
L 90.627858 146.053949 
z
" clip-path="url(#p2a7442522a)" style="fill: #38a9c5; stroke: #ffffff; stroke-width: 0.8"/>
    <path d="M 85.146013 172.545991 
L 88.479347 172.545991 
L 88.479347 169.212658 
L 91.81268 169.212658 
L 91.81268 165.879325 
L 88.479347 165.879325 
L 88.479347 162.545991 
L 85.146013 162.545991 
L 85.146013 165.879325 
L 81.81268 165.879325 
L 81.81268 169.212658 
L 85.146013 169.212658 
z
" clip-path="url(#p2a7442522a)" style="fill: #cc7af4; stroke: #ffffff; stroke-width: 0.8"/>
    <path d="M 102.079362 169.459595 
L 105.412695 169.459595 
L 105.412695 166.126262 
L 108.746028 166.126262 
L 108.746028 162.792928 
L 105.412695 162.792928 
L 105.412695 159.459595 
L 102.079362 159.459595 
L 102.079362 162.792928 
L 98.746028 162.792928 
L 98.746028 166.126262 
L 102.079362 166.126262 
z
" clip-path="url(#p2a7442522a)" style="fill: #cc7af4; stroke: #ffffff; stroke-width: 0.8"/>
    <path d="M 116.45625 155.591994 
L 111.45625 160.591994 
L 116.45625 165.591994 
L 121.45625 160.591994 
z
" clip-path="url(#p2a7442522a)" style="fill: #f77189; stroke: #ffffff; stroke-width: 0.8"/>
    <path d="M 77.743329 147.400027 
L 72.743329 152.400027 
L 77.743329 157.400027 
L 82.743329 152.400027 
z
" clip-path="url(#p2a7442522a)" style="fill: #f77189; stroke: #ffffff; stroke-width: 0.8"/>
    <path d="M 210.018312 46.235613 
L 205.018312 51.235613 
L 210.018312 56.235613 
L 215.018312 51.235613 
z
" clip-path="url(#p2a7442522a)" style="fill: #ae9d31; stroke: #ffffff; stroke-width: 0.8"/>
    <path d="M 214.636797 78.018957 
L 209.636797 83.018957 
L 214.636797 88.018957 
L 219.636797 83.018957 
z
" clip-path="url(#p2a7442522a)" style="fill: #ae9d31; stroke: #ffffff; stroke-width: 0.8"/>
    <path d="M 117.877059 159.751494 
L 112.877059 164.751494 
L 117.877059 169.751494 
L 122.877059 164.751494 
z
" clip-path="url(#p2a7442522a)" style="fill: #ae9d31; stroke: #ffffff; stroke-width: 0.8"/>
    <path d="M 235.466381 60.874522 
L 230.466381 65.874522 
L 235.466381 70.874522 
L 240.466381 65.874522 
z
" clip-path="url(#p2a7442522a)" style="fill: #ae9d31; stroke: #ffffff; stroke-width: 0.8"/>
    <path d="M 220.211086 54.169026 
L 215.211086 59.169026 
L 220.211086 64.169026 
L 225.211086 59.169026 
z
" clip-path="url(#p2a7442522a)" style="fill: #ae9d31; stroke: #ffffff; stroke-width: 0.8"/>
    <path d="M 127.281225 183.622523 
L 122.281225 188.622523 
L 127.281225 193.622523 
L 132.281225 188.622523 
z
" clip-path="url(#p2a7442522a)" style="fill: #33b07a; stroke: #ffffff; stroke-width: 0.8"/>
    <path d="M 115.078351 133.351321 
L 110.078351 138.351321 
L 115.078351 143.351321 
L 120.078351 138.351321 
z
" clip-path="url(#p2a7442522a)" style="fill: #38a9c5; stroke: #ffffff; stroke-width: 0.8"/>
    <path d="M 84.72209 132.316497 
L 79.72209 137.316497 
L 84.72209 142.316497 
L 89.72209 137.316497 
z
" clip-path="url(#p2a7442522a)" style="fill: #f77189; stroke: #ffffff; stroke-width: 0.8"/>
    <path d="M 84.651755 171.45681 
L 79.651755 176.45681 
L 84.651755 181.45681 
L 89.651755 176.45681 
z
" clip-path="url(#p2a7442522a)" style="fill: #f77189; stroke: #ffffff; stroke-width: 0.8"/>
    <path d="M 65.72811 161.106522 
L 60.72811 166.106522 
L 65.72811 171.106522 
L 70.72811 166.106522 
z
" clip-path="url(#p2a7442522a)" style="fill: #f77189; stroke: #ffffff; stroke-width: 0.8"/>
    <path d="M 76.58513 163.73088 
L 71.58513 168.73088 
L 76.58513 173.73088 
L 81.58513 168.73088 
z
" clip-path="url(#p2a7442522a)" style="fill: #f77189; stroke: #ffffff; stroke-width: 0.8"/>
    <path d="M 107.647823 159.549981 
L 102.647823 164.549981 
L 107.647823 169.549981 
L 112.647823 164.549981 
z
" clip-path="url(#p2a7442522a)" style="fill: #38a9c5; stroke: #ffffff; stroke-width: 0.8"/>
    <path d="M 121.379489 140.206419 
L 116.379489 145.206419 
L 121.379489 150.206419 
L 126.379489 145.206419 
z
" clip-path="url(#p2a7442522a)" style="fill: #38a9c5; stroke: #ffffff; stroke-width: 0.8"/>
    <path d="M 200.098493 60.252838 
L 195.098493 65.252838 
L 200.098493 70.252838 
L 205.098493 65.252838 
z
" clip-path="url(#p2a7442522a)" style="fill: #cc7af4; stroke: #ffffff; stroke-width: 0.8"/>
    <path d="M 110.667542 134.934504 
L 105.667542 139.934504 
L 110.667542 144.934504 
L 115.667542 139.934504 
z
" clip-path="url(#p2a7442522a)" style="fill: #cc7af4; stroke: #ffffff; stroke-width: 0.8"/>
    <path d="M 113.233628 166.78759 
L 111.465862 170.019823 
L 108.233628 171.78759 
L 111.465862 173.555357 
L 113.233628 176.78759 
L 115.001395 173.555357 
L 118.233628 171.78759 
L 115.001395 170.019823 
z
" clip-path="url(#p2a7442522a)" style="fill: #f77189; stroke: #ffffff; stroke-width: 0.8"/>
    <path d="M 93.920549 144.16252 
L 92.152782 147.394753 
L 88.920549 149.16252 
L 92.152782 150.930287 
L 93.920549 154.16252 
L 95.688316 150.930287 
L 98.920549 149.16252 
L 95.688316 147.394753 
z
" clip-path="url(#p2a7442522a)" style="fill: #f77189; stroke: #ffffff; stroke-width: 0.8"/>
    <path d="M 160.640606 69.050808 
L 158.872839 72.283041 
L 155.640606 74.050808 
L 158.872839 75.818575 
L 160.640606 79.050808 
L 162.408373 75.818575 
L 165.640606 74.050808 
L 162.408373 72.283041 
z
" clip-path="url(#p2a7442522a)" style="fill: #ae9d31; stroke: #ffffff; stroke-width: 0.8"/>
    <path d="M 223.583615 79.017978 
L 221.815848 82.250211 
L 218.583615 84.017978 
L 221.815848 85.785745 
L 223.583615 89.017978 
L 225.351381 85.785745 
L 228.583615 84.017978 
L 225.351381 82.250211 
z
" clip-path="url(#p2a7442522a)" style="fill: #ae9d31; stroke: #ffffff; stroke-width: 0.8"/>
    <path d="M 131.781737 147.528599 
L 130.01397 150.760832 
L 126.781737 152.528599 
L 130.01397 154.296366 
L 131.781737 157.528599 
L 133.549504 154.296366 
L 136.781737 152.528599 
L 133.549504 150.760832 
z
" clip-path="url(#p2a7442522a)" style="fill: #ae9d31; stroke: #ffffff; stroke-width: 0.8"/>
    <path d="M 229.141388 74.518785 
L 227.373621 77.751019 
L 224.141388 79.518785 
L 227.373621 81.286552 
L 229.141388 84.518785 
L 230.909155 81.286552 
L 234.141388 79.518785 
L 230.909155 77.751019 
z
" clip-path="url(#p2a7442522a)" style="fill: #ae9d31; stroke: #ffffff; stroke-width: 0.8"/>
    <path d="M 198.256868 72.085856 
L 196.489101 75.318089 
L 193.256868 77.085856 
L 196.489101 78.853623 
L 198.256868 82.085856 
L 200.024635 78.853623 
L 203.256868 77.085856 
L 200.024635 75.318089 
z
" clip-path="url(#p2a7442522a)" style="fill: #ae9d31; stroke: #ffffff; stroke-width: 0.8"/>
    <path d="M 114.256202 102.554153 
L 112.488435 105.786386 
L 109.256202 107.554153 
L 112.488435 109.32192 
L 114.256202 112.554153 
L 116.023969 109.32192 
L 119.256202 107.554153 
L 116.023969 105.786386 
z
" clip-path="url(#p2a7442522a)" style="fill: #33b07a; stroke: #ffffff; stroke-width: 0.8"/>
    <path d="M 137.505352 112.48874 
L 135.737585 115.720973 
L 132.505352 117.48874 
L 135.737585 119.256507 
L 137.505352 122.48874 
L 139.273119 119.256507 
L 142.505352 117.48874 
L 139.273119 115.720973 
z
" clip-path="url(#p2a7442522a)" style="fill: #38a9c5; stroke: #ffffff; stroke-width: 0.8"/>
    <path d="M 114.121175 101.68188 
L 112.353408 104.914114 
L 109.121175 106.68188 
L 112.353408 108.449647 
L 114.121175 111.68188 
L 115.888942 108.449647 
L 119.121175 106.68188 
L 115.888942 104.914114 
z
" clip-path="url(#p2a7442522a)" style="fill: #f77189; stroke: #ffffff; stroke-width: 0.8"/>
    <path d="M 125.996049 107.015971 
L 124.228282 110.248204 
L 120.996049 112.015971 
L 124.228282 113.783738 
L 125.996049 117.015971 
L 127.763816 113.783738 
L 130.996049 112.015971 
L 127.763816 110.248204 
z
" clip-path="url(#p2a7442522a)" style="fill: #f77189; stroke: #ffffff; stroke-width: 0.8"/>
    <path d="M 73.299575 159.853437 
L 71.531808 163.08567 
L 68.299575 164.853437 
L 71.531808 166.621204 
L 73.299575 169.853437 
L 75.067342 166.621204 
L 78.299575 164.853437 
L 75.067342 163.08567 
z
" clip-path="url(#p2a7442522a)" style="fill: #f77189; stroke: #ffffff; stroke-width: 0.8"/>
    <path d="M 101.608497 117.238879 
L 99.84073 120.471112 
L 96.608497 122.238879 
L 99.84073 124.006646 
L 101.608497 127.238879 
L 103.376264 124.006646 
L 106.608497 122.238879 
L 103.376264 120.471112 
z
" clip-path="url(#p2a7442522a)" style="fill: #f77189; stroke: #ffffff; stroke-width: 0.8"/>
    <path d="M 127.157553 123.749349 
L 125.389786 126.981582 
L 122.157553 128.749349 
L 125.389786 130.517116 
L 127.157553 133.749349 
L 128.92532 130.517116 
L 132.157553 128.749349 
L 128.92532 126.981582 
z
" clip-path="url(#p2a7442522a)" style="fill: #38a9c5; stroke: #ffffff; stroke-width: 0.8"/>
    <path d="M 136.813578 105.947761 
L 135.045811 109.179994 
L 131.813578 110.947761 
L 135.045811 112.715528 
L 136.813578 115.947761 
L 138.581345 112.715528 
L 141.813578 110.947761 
L 138.581345 109.179994 
z
" clip-path="url(#p2a7442522a)" style="fill: #38a9c5; stroke: #ffffff; stroke-width: 0.8"/>
    <path d="M 157.774647 92.302229 
L 156.00688 95.534462 
L 152.774647 97.302229 
L 156.00688 99.069996 
L 157.774647 102.302229 
L 159.542414 99.069996 
L 162.774647 97.302229 
L 159.542414 95.534462 
z
" clip-path="url(#p2a7442522a)" style="fill: #cc7af4; stroke: #ffffff; stroke-width: 0.8"/>
    <path d="M 105.614143 105.756139 
L 103.846376 108.988372 
L 100.614143 110.756139 
L 103.846376 112.523905 
L 105.614143 115.756139 
L 107.38191 112.523905 
L 110.614143 110.756139 
L 107.38191 108.988372 
z
" clip-path="url(#p2a7442522a)" style="fill: #cc7af4; stroke: #ffffff; stroke-width: 0.8"/>
    <path d="M 102.239604 149.269032 
L 97.239604 159.269032 
L 107.239604 159.269032 
z
" clip-path="url(#p2a7442522a)" style="fill: #f77189; stroke: #ffffff; stroke-width: 0.8"/>
    <path d="M 59.155621 172.44651 
L 54.155621 182.44651 
L 64.155621 182.44651 
z
" clip-path="url(#p2a7442522a)" style="fill: #f77189; stroke: #ffffff; stroke-width: 0.8"/>
    <path d="M 156.227566 58.499702 
L 151.227566 68.499702 
L 161.227566 68.499702 
z
" clip-path="url(#p2a7442522a)" style="fill: #ae9d31; stroke: #ffffff; stroke-width: 0.8"/>
    <path d="M 170.070081 108.83466 
L 165.070081 118.83466 
L 175.070081 118.83466 
z
" clip-path="url(#p2a7442522a)" style="fill: #ae9d31; stroke: #ffffff; stroke-width: 0.8"/>
    <path d="M 119.268644 132.838957 
L 114.268644 142.838957 
L 124.268644 142.838957 
z
" clip-path="url(#p2a7442522a)" style="fill: #ae9d31; stroke: #ffffff; stroke-width: 0.8"/>
    <path d="M 181.399584 100.719353 
L 176.399584 110.719353 
L 186.399584 110.719353 
z
" clip-path="url(#p2a7442522a)" style="fill: #ae9d31; stroke: #ffffff; stroke-width: 0.8"/>
    <path d="M 150.253182 100.237561 
L 145.253182 110.237561 
L 155.253182 110.237561 
z
" clip-path="url(#p2a7442522a)" style="fill: #ae9d31; stroke: #ffffff; stroke-width: 0.8"/>
    <path d="M 131.128194 141.925037 
L 126.128194 151.925037 
L 136.128194 151.925037 
z
" clip-path="url(#p2a7442522a)" style="fill: #33b07a; stroke: #ffffff; stroke-width: 0.8"/>
    <path d="M 85.481639 160.949033 
L 80.481639 170.949033 
L 90.481639 170.949033 
z
" clip-path="url(#p2a7442522a)" style="fill: #38a9c5; stroke: #ffffff; stroke-width: 0.8"/>
    <path d="M 65.638617 140.215953 
L 60.638617 150.215953 
L 70.638617 150.215953 
z
" clip-path="url(#p2a7442522a)" style="fill: #f77189; stroke: #ffffff; stroke-width: 0.8"/>
    <path d="M 66.48779 158.427412 
L 61.48779 168.427412 
L 71.48779 168.427412 
z
" clip-path="url(#p2a7442522a)" style="fill: #f77189; stroke: #ffffff; stroke-width: 0.8"/>
    <path d="M 63.27081 125.821314 
L 58.27081 135.821314 
L 68.27081 135.821314 
z
" clip-path="url(#p2a7442522a)" style="fill: #f77189; stroke: #ffffff; stroke-width: 0.8"/>
    <path d="M 58.300569 154.83386 
L 53.300569 164.83386 
L 63.300569 164.83386 
z
" clip-path="url(#p2a7442522a)" style="fill: #f77189; stroke: #ffffff; stroke-width: 0.8"/>
    <path d="M 84.262251 180.309317 
L 79.262251 190.309317 
L 89.262251 190.309317 
z
" clip-path="url(#p2a7442522a)" style="fill: #38a9c5; stroke: #ffffff; stroke-width: 0.8"/>
    <path d="M 85.825042 159.880283 
L 80.825042 169.880283 
L 90.825042 169.880283 
z
" clip-path="url(#p2a7442522a)" style="fill: #38a9c5; stroke: #ffffff; stroke-width: 0.8"/>
    <path d="M 145.889504 92.35293 
L 140.889504 102.35293 
L 150.889504 102.35293 
z
" clip-path="url(#p2a7442522a)" style="fill: #cc7af4; stroke: #ffffff; stroke-width: 0.8"/>
    <path d="M 123.539521 84.981533 
L 118.539521 94.981533 
L 128.539521 94.981533 
z
" clip-path="url(#p2a7442522a)" style="fill: #cc7af4; stroke: #ffffff; stroke-width: 0.8"/>
   </g>
   <g id="PathCollection_2"/>
   <g id="PathCollection_3"/>
   <g id="PathCollection_4"/>
   <g id="PathCollection_5"/>
   <g id="PathCollection_6"/>
   <g id="PathCollection_7"/>
   <g id="PathCollection_8"/>
   <g id="PathCollection_9"/>
   <g id="PathCollection_10"/>
   <g id="PathCollection_11"/>
   <g id="PathCollection_12"/>
   <g id="PathCollection_13"/>
   <g id="matplotlib.axis_1">
    <g id="xtick_1">
     <g id="line2d_1">
      <defs>
       <path id="m6ce684151f" d="M 0 0 
L 0 3.5 
" style="stroke: #000000; stroke-width: 0.8"/>
      </defs>
      <g>
       <use xlink:href="#m6ce684151f" x="60.172267" y="268.44375" style="stroke: #000000; stroke-width: 0.8"/>
      </g>
     </g>
     <g id="text_1">
      <text style="font: 10px 'sans-serif'; text-anchor: middle" x="60.172267" y="283.042187" transform="rotate(-0, 60.172267, 283.042187)">0.0</text>
     </g>
    </g>
    <g id="xtick_2">
     <g id="line2d_2">
      <g>
       <use xlink:href="#m6ce684151f" x="102.352401" y="268.44375" style="stroke: #000000; stroke-width: 0.8"/>
      </g>
     </g>
     <g id="text_2">
      <text style="font: 10px 'sans-serif'; text-anchor: middle" x="102.352401" y="283.042187" transform="rotate(-0, 102.352401, 283.042187)">0.2</text>
     </g>
    </g>
    <g id="xtick_3">
     <g id="line2d_3">
      <g>
       <use xlink:href="#m6ce684151f" x="144.532534" y="268.44375" style="stroke: #000000; stroke-width: 0.8"/>
      </g>
     </g>
     <g id="text_3">
      <text style="font: 10px 'sans-serif'; text-anchor: middle" x="144.532534" y="283.042187" transform="rotate(-0, 144.532534, 283.042187)">0.4</text>
     </g>
    </g>
    <g id="xtick_4">
     <g id="line2d_4">
      <g>
       <use xlink:href="#m6ce684151f" x="186.712668" y="268.44375" style="stroke: #000000; stroke-width: 0.8"/>
      </g>
     </g>
     <g id="text_4">
      <text style="font: 10px 'sans-serif'; text-anchor: middle" x="186.712668" y="283.042187" transform="rotate(-0, 186.712668, 283.042187)">0.6</text>
     </g>
    </g>
    <g id="xtick_5">
     <g id="line2d_5">
      <g>
       <use xlink:href="#m6ce684151f" x="228.892802" y="268.44375" style="stroke: #000000; stroke-width: 0.8"/>
      </g>
     </g>
     <g id="text_5">
      <text style="font: 10px 'sans-serif'; text-anchor: middle" x="228.892802" y="283.042187" transform="rotate(-0, 228.892802, 283.042187)">0.8</text>
     </g>
    </g>
    <g id="text_6">
     <text style="font: 10px 'sans-serif'; text-anchor: middle" x="154.610625" y="296.720312" transform="rotate(-0, 154.610625, 296.720312)">pop</text>
    </g>
   </g>
   <g id="matplotlib.axis_2">
    <g id="ytick_1">
     <g id="line2d_6">
      <defs>
       <path id="mff51ef65bb" d="M 0 0 
L -3.5 0 
" style="stroke: #000000; stroke-width: 0.8"/>
      </defs>
      <g>
       <use xlink:href="#mff51ef65bb" x="47.38125" y="257.752875" style="stroke: #000000; stroke-width: 0.8"/>
      </g>
     </g>
     <g id="text_7">
      <text style="font: 10px 'sans-serif'; text-anchor: end" x="40.38125" y="261.552094" transform="rotate(-0, 40.38125, 261.552094)">0.0</text>
     </g>
    </g>
    <g id="ytick_2">
     <g id="line2d_7">
      <g>
       <use xlink:href="#mff51ef65bb" x="47.38125" y="210.760018" style="stroke: #000000; stroke-width: 0.8"/>
      </g>
     </g>
     <g id="text_8">
      <text style="font: 10px 'sans-serif'; text-anchor: end" x="40.38125" y="214.559237" transform="rotate(-0, 40.38125, 214.559237)">0.2</text>
     </g>
    </g>
    <g id="ytick_3">
     <g id="line2d_8">
      <g>
       <use xlink:href="#mff51ef65bb" x="47.38125" y="163.767161" style="stroke: #000000; stroke-width: 0.8"/>
      </g>
     </g>
     <g id="text_9">
      <text style="font: 10px 'sans-serif'; text-anchor: end" x="40.38125" y="167.566379" transform="rotate(-0, 40.38125, 167.566379)">0.4</text>
     </g>
    </g>
    <g id="ytick_4">
     <g id="line2d_9">
      <g>
       <use xlink:href="#mff51ef65bb" x="47.38125" y="116.774304" style="stroke: #000000; stroke-width: 0.8"/>
      </g>
     </g>
     <g id="text_10">
      <text style="font: 10px 'sans-serif'; text-anchor: end" x="40.38125" y="120.573522" transform="rotate(-0, 40.38125, 120.573522)">0.6</text>
     </g>
    </g>
    <g id="ytick_5">
     <g id="line2d_10">
      <g>
       <use xlink:href="#mff51ef65bb" x="47.38125" y="69.781446" style="stroke: #000000; stroke-width: 0.8"/>
      </g>
     </g>
     <g id="text_11">
      <text style="font: 10px 'sans-serif'; text-anchor: end" x="40.38125" y="73.580665" transform="rotate(-0, 40.38125, 73.580665)">0.8</text>
     </g>
    </g>
    <g id="text_12">
     <text style="font: 10px 'sans-serif'; text-anchor: middle" x="18.398438" y="150.844125" transform="rotate(-90, 18.398438, 150.844125)">gsv</text>
    </g>
   </g>
   <g id="line2d_11">
    <path d="M 60.172267 257.752875 
L 252.091875 43.935375 
" clip-path="url(#p2a7442522a)" style="fill: none; stroke-dasharray: 10,6; stroke-dashoffset: 0; stroke: #000000"/>
   </g>
   <g id="patch_3">
    <path d="M 47.38125 268.44375 
L 47.38125 33.2445 
" style="fill: none; stroke: #000000; stroke-width: 0.8; stroke-linejoin: miter; stroke-linecap: square"/>
   </g>
   <g id="patch_4">
    <path d="M 47.38125 268.44375 
L 261.84 268.44375 
" style="fill: none; stroke: #000000; stroke-width: 0.8; stroke-linejoin: miter; stroke-linecap: square"/>
   </g>
   <g id="legend_1">
    <g id="patch_5">
     <path d="M 270.24 262.44375 
L 418.8 262.44375 
Q 421.2 262.44375 421.2 260.04375 
L 421.2 14.65125 
Q 421.2 12.25125 418.8 12.25125 
L 270.24 12.25125 
Q 267.84 12.25125 267.84 14.65125 
L 267.84 260.04375 
Q 267.84 262.44375 270.24 262.44375 
z
" style="fill: #ffffff; opacity: 0.8; stroke: #cccccc; stroke-linejoin: miter"/>
    </g>
    <g id="text_13">
     <text style="font: 12px 'sans-serif'; text-anchor: start" x="306.24" y="26.169375" transform="rotate(-0, 306.24, 26.169375)">topic</text>
    </g>
    <g id="PathCollection_14">
     <defs>
      <path id="mf5c47e625d" d="M 0 3 
C 0.795609 3 1.55874 2.683901 2.12132 2.12132 
C 2.683901 1.55874 3 0.795609 3 0 
C 3 -0.795609 2.683901 -1.55874 2.12132 -2.12132 
C 1.55874 -2.683901 0.795609 -3 0 -3 
C -0.795609 -3 -1.55874 -2.683901 -2.12132 -2.12132 
C -2.683901 -1.55874 -3 -0.795609 -3 0 
C -3 0.795609 -2.683901 1.55874 -2.12132 2.12132 
C -1.55874 2.683901 -0.795609 3 0 3 
z
" style="stroke: #f77189"/>
     </defs>
     <g>
      <use xlink:href="#mf5c47e625d" x="284.64" y="40.633125" style="fill: #f77189; stroke: #f77189"/>
     </g>
    </g>
    <g id="text_14">
     <text style="font: 12px 'sans-serif'; text-anchor: start" x="306.24" y="43.783125" transform="rotate(-0, 306.24, 43.783125)">Health</text>
    </g>
    <g id="PathCollection_15">
     <defs>
      <path id="m0d409e8ab8" d="M 0 3 
C 0.795609 3 1.55874 2.683901 2.12132 2.12132 
C 2.683901 1.55874 3 0.795609 3 0 
C 3 -0.795609 2.683901 -1.55874 2.12132 -2.12132 
C 1.55874 -2.683901 0.795609 -3 0 -3 
C -0.795609 -3 -1.55874 -2.683901 -2.12132 -2.12132 
C -2.683901 -1.55874 -3 -0.795609 -3 0 
C -3 0.795609 -2.683901 1.55874 -2.12132 2.12132 
C -1.55874 2.683901 -0.795609 3 0 3 
z
" style="stroke: #ae9d31"/>
     </defs>
     <g>
      <use xlink:href="#m0d409e8ab8" x="284.64" y="58.246875" style="fill: #ae9d31; stroke: #ae9d31"/>
     </g>
    </g>
    <g id="text_15">
     <text style="font: 12px 'sans-serif'; text-anchor: start" x="306.24" y="61.396875" transform="rotate(-0, 306.24, 61.396875)">Vehicle Travel</text>
    </g>
    <g id="PathCollection_16">
     <defs>
      <path id="m8a193aad9e" d="M 0 3 
C 0.795609 3 1.55874 2.683901 2.12132 2.12132 
C 2.683901 1.55874 3 0.795609 3 0 
C 3 -0.795609 2.683901 -1.55874 2.12132 -2.12132 
C 1.55874 -2.683901 0.795609 -3 0 -3 
C -0.795609 -3 -1.55874 -2.683901 -2.12132 -2.12132 
C -2.683901 -1.55874 -3 -0.795609 -3 0 
C -3 0.795609 -2.683901 1.55874 -2.12132 2.12132 
C -1.55874 2.683901 -0.795609 3 0 3 
z
" style="stroke: #33b07a"/>
     </defs>
     <g>
      <use xlink:href="#m8a193aad9e" x="284.64" y="75.860625" style="fill: #33b07a; stroke: #33b07a"/>
     </g>
    </g>
    <g id="text_16">
     <text style="font: 12px 'sans-serif'; text-anchor: start" x="306.24" y="79.010625" transform="rotate(-0, 306.24, 79.010625)">Crime</text>
    </g>
    <g id="PathCollection_17">
     <defs>
      <path id="maebbddca3f" d="M 0 3 
C 0.795609 3 1.55874 2.683901 2.12132 2.12132 
C 2.683901 1.55874 3 0.795609 3 0 
C 3 -0.795609 2.683901 -1.55874 2.12132 -2.12132 
C 1.55874 -2.683901 0.795609 -3 0 -3 
C -0.795609 -3 -1.55874 -2.683901 -2.12132 -2.12132 
C -2.683901 -1.55874 -3 -0.795609 -3 0 
C -3 0.795609 -2.683901 1.55874 -2.12132 2.12132 
C -1.55874 2.683901 -0.795609 3 0 3 
z
" style="stroke: #38a9c5"/>
     </defs>
     <g>
      <use xlink:href="#maebbddca3f" x="284.64" y="93.474375" style="fill: #38a9c5; stroke: #38a9c5"/>
     </g>
    </g>
    <g id="text_17">
     <text style="font: 12px 'sans-serif'; text-anchor: start" x="306.24" y="96.624375" transform="rotate(-0, 306.24, 96.624375)">Poverty</text>
    </g>
    <g id="PathCollection_18">
     <defs>
      <path id="m3965fe1697" d="M 0 3 
C 0.795609 3 1.55874 2.683901 2.12132 2.12132 
C 2.683901 1.55874 3 0.795609 3 0 
C 3 -0.795609 2.683901 -1.55874 2.12132 -2.12132 
C 1.55874 -2.683901 0.795609 -3 0 -3 
C -0.795609 -3 -1.55874 -2.683901 -2.12132 -2.12132 
C -2.683901 -1.55874 -3 -0.795609 -3 0 
C -3 0.795609 -2.683901 1.55874 -2.12132 2.12132 
C -1.55874 2.683901 -0.795609 3 0 3 
z
" style="stroke: #cc7af4"/>
     </defs>
     <g>
      <use xlink:href="#m3965fe1697" x="284.64" y="111.088125" style="fill: #cc7af4; stroke: #cc7af4"/>
     </g>
    </g>
    <g id="text_18">
     <text style="font: 12px 'sans-serif'; text-anchor: start" x="306.24" y="114.238125" transform="rotate(-0, 306.24, 114.238125)">Non-vehicle Travel</text>
    </g>
    <g id="text_19">
     <text style="font: 12px 'sans-serif'; text-anchor: start" x="306.24" y="131.851875" transform="rotate(-0, 306.24, 131.851875)">city</text>
    </g>
    <g id="PathCollection_19">
     <defs>
      <path id="mcd688a2d7e" d="M 0 3 
C 0.795609 3 1.55874 2.683901 2.12132 2.12132 
C 2.683901 1.55874 3 0.795609 3 0 
C 3 -0.795609 2.683901 -1.55874 2.12132 -2.12132 
C 1.55874 -2.683901 0.795609 -3 0 -3 
C -0.795609 -3 -1.55874 -2.683901 -2.12132 -2.12132 
C -2.683901 -1.55874 -3 -0.795609 -3 0 
C -3 0.795609 -2.683901 1.55874 -2.12132 2.12132 
C -1.55874 2.683901 -0.795609 3 0 3 
z
" style="stroke: #333333"/>
     </defs>
     <g>
      <use xlink:href="#mcd688a2d7e" x="284.64" y="146.315625" style="fill: #333333; stroke: #333333"/>
     </g>
    </g>
    <g id="text_20">
     <text style="font: 12px 'sans-serif'; text-anchor: start" x="306.24" y="149.465625" transform="rotate(-0, 306.24, 149.465625)">boston</text>
    </g>
    <g id="PathCollection_20">
     <defs>
      <path id="m9cfbf75270" d="M -1.5 3 
L 0 1.5 
L 1.5 3 
L 3 1.5 
L 1.5 0 
L 3 -1.5 
L 1.5 -3 
L 0 -1.5 
L -1.5 -3 
L -3 -1.5 
L -1.5 0 
L -3 1.5 
z
" style="stroke: #333333"/>
     </defs>
     <g>
      <use xlink:href="#m9cfbf75270" x="284.64" y="163.929375" style="fill: #333333; stroke: #333333"/>
     </g>
    </g>
    <g id="text_21">
     <text style="font: 12px 'sans-serif'; text-anchor: start" x="306.24" y="167.079375" transform="rotate(-0, 306.24, 167.079375)">chicago</text>
    </g>
    <g id="PathCollection_21">
     <defs>
      <path id="m00f133c217" d="M -2.12132 -2.12132 
L -2.12132 2.12132 
L 2.12132 2.12132 
L 2.12132 -2.12132 
z
" style="stroke: #333333"/>
     </defs>
     <g>
      <use xlink:href="#m00f133c217" x="284.64" y="181.543125" style="fill: #333333; stroke: #333333"/>
     </g>
    </g>
    <g id="text_22">
     <text style="font: 12px 'sans-serif'; text-anchor: start" x="306.24" y="184.693125" transform="rotate(-0, 306.24, 184.693125)">losangeles</text>
    </g>
    <g id="PathCollection_22">
     <defs>
      <path id="m2049a45750" d="M -1 3 
L 1 3 
L 1 1 
L 3 1 
L 3 -1 
L 1 -1 
L 1 -3 
L -1 -3 
L -1 -1 
L -3 -1 
L -3 1 
L -1 1 
z
" style="stroke: #333333"/>
     </defs>
     <g>
      <use xlink:href="#m2049a45750" x="284.64" y="199.156875" style="fill: #333333; stroke: #333333"/>
     </g>
    </g>
    <g id="text_23">
     <text style="font: 12px 'sans-serif'; text-anchor: start" x="306.24" y="202.306875" transform="rotate(-0, 306.24, 202.306875)">miami</text>
    </g>
    <g id="PathCollection_23">
     <defs>
      <path id="m3cd8e91dd2" d="M 0 -3 
L -3 -0 
L -0 3 
L 3 0 
z
" style="stroke: #333333"/>
     </defs>
     <g>
      <use xlink:href="#m3cd8e91dd2" x="284.64" y="216.770625" style="fill: #333333; stroke: #333333"/>
     </g>
    </g>
    <g id="text_24">
     <text style="font: 12px 'sans-serif'; text-anchor: start" x="306.24" y="219.920625" transform="rotate(-0, 306.24, 219.920625)">newyork</text>
    </g>
    <g id="PathCollection_24">
     <defs>
      <path id="mbe1f54c8bd" d="M 0 -3 
L -1.06066 -1.06066 
L -3 -0 
L -1.06066 1.06066 
L -0 3 
L 1.06066 1.06066 
L 3 0 
L 1.06066 -1.06066 
z
" style="stroke: #333333"/>
     </defs>
     <g>
      <use xlink:href="#mbe1f54c8bd" x="284.64" y="234.384375" style="fill: #333333; stroke: #333333"/>
     </g>
    </g>
    <g id="text_25">
     <text style="font: 12px 'sans-serif'; text-anchor: start" x="306.24" y="237.534375" transform="rotate(-0, 306.24, 237.534375)">philadelphia</text>
    </g>
    <g id="PathCollection_25">
     <defs>
      <path id="m7f48a5579f" d="M 0 -3 
L -3 3 
L 3 3 
z
" style="stroke: #333333"/>
     </defs>
     <g>
      <use xlink:href="#m7f48a5579f" x="284.64" y="251.998125" style="fill: #333333; stroke: #333333"/>
     </g>
    </g>
    <g id="text_26">
     <text style="font: 12px 'sans-serif'; text-anchor: start" x="306.24" y="255.148125" transform="rotate(-0, 306.24, 255.148125)">sanfrancisco</text>
    </g>
   </g>
  </g>
 </g>
 <defs>
  <clipPath id="p2a7442522a">
   <rect x="47.38125" y="33.2445" width="214.45875" height="235.19925"/>
  </clipPath>
 </defs>
</svg>
