<?xml version="1.0" encoding="utf-8" standalone="no"?>
<!DOCTYPE svg PUBLIC "-//W3C//DTD SVG 1.1//EN"
  "http://www.w3.org/Graphics/SVG/1.1/DTD/svg11.dtd">
<svg xmlns:xlink="http://www.w3.org/1999/xlink" width="288pt" height="360pt" viewBox="0 0 288 360" xmlns="http://www.w3.org/2000/svg" version="1.1">
 <metadata>
  <rdf:RDF xmlns:dc="http://purl.org/dc/elements/1.1/" xmlns:cc="http://creativecommons.org/ns#" xmlns:rdf="http://www.w3.org/1999/02/22-rdf-syntax-ns#">
   <cc:Work>
    <dc:type rdf:resource="http://purl.org/dc/dcmitype/StillImage"/>
    <dc:date>2023-03-17T12:02:09.727174</dc:date>
    <dc:format>image/svg+xml</dc:format>
    <dc:creator>
     <cc:Agent>
      <dc:title>Matplotlib v3.5.1, https://matplotlib.org/</dc:title>
     </cc:Agent>
    </dc:creator>
   </cc:Work>
  </rdf:RDF>
 </metadata>
 <defs>
  <style type="text/css">*{stroke-linejoin: round; stroke-linecap: butt}</style>
 </defs>
 <g id="figure_1">
  <g id="patch_1">
   <path d="M 0 360 
L 288 360 
L 288 0 
L 0 0 
L 0 360 
z
" style="fill: none"/>
  </g>
  <g id="axes_1">
   <g id="patch_2">
    <path d="M 97.425 336.2 
L 270.45 336.2 
L 270.45 22.8 
L 97.425 22.8 
L 97.425 336.2 
z
" style="fill: none"/>
   </g>
   <g id="patch_3">
    <path d="M 47.989286 27.408824 
L 201.441282 27.408824 
L 201.441282 32.939412 
L 47.989286 32.939412 
z
" clip-path="url(#pbff5d1a56f)" style="fill: #4eb1bc"/>
   </g>
   <g id="patch_4">
    <path d="M 47.989286 45.844118 
L 174.307807 45.844118 
L 174.307807 51.374706 
L 47.989286 51.374706 
z
" clip-path="url(#pbff5d1a56f)" style="fill: #4eb1bc"/>
   </g>
   <g id="patch_5">
    <path d="M 47.989286 64.279412 
L 215.104553 64.279412 
L 215.104553 69.81 
L 47.989286 69.81 
z
" clip-path="url(#pbff5d1a56f)" style="fill: #4eb1bc"/>
   </g>
   <g id="patch_6">
    <path d="M 47.989286 82.714706 
L 158.94791 82.714706 
L 158.94791 88.245294 
L 47.989286 88.245294 
z
" clip-path="url(#pbff5d1a56f)" style="fill: #4eb1bc"/>
   </g>
   <g id="patch_7">
    <path d="M 47.989286 101.15 
L 203.610691 101.15 
L 203.610691 106.680588 
L 47.989286 106.680588 
z
" clip-path="url(#pbff5d1a56f)" style="fill: #4eb1bc"/>
   </g>
   <g id="patch_8">
    <path d="M 47.989286 119.585294 
L 219.867566 119.585294 
L 219.867566 125.115882 
L 47.989286 125.115882 
z
" clip-path="url(#pbff5d1a56f)" style="fill: #4eb1bc"/>
   </g>
   <g id="patch_9">
    <path d="M 47.989286 138.020588 
L 211.776557 138.020588 
L 211.776557 143.551176 
L 47.989286 143.551176 
z
" clip-path="url(#pbff5d1a56f)" style="fill: #4eb1bc"/>
   </g>
   <g id="patch_10">
    <path d="M 47.989286 156.455882 
L 157.648698 156.455882 
L 157.648698 161.986471 
L 47.989286 161.986471 
z
" clip-path="url(#pbff5d1a56f)" style="fill: #4eb1bc"/>
   </g>
   <g id="patch_11">
    <path d="M 47.989286 174.891176 
L 153.625123 174.891176 
L 153.625123 180.421765 
L 47.989286 180.421765 
z
" clip-path="url(#pbff5d1a56f)" style="fill: #4eb1bc"/>
   </g>
   <g id="patch_12">
    <path d="M 47.989286 193.326471 
L 144.26038 193.326471 
L 144.26038 198.857059 
L 47.989286 198.857059 
z
" clip-path="url(#pbff5d1a56f)" style="fill: #4eb1bc"/>
   </g>
   <g id="patch_13">
    <path d="M 47.989286 211.761765 
L 165.123057 211.761765 
L 165.123057 217.292353 
L 47.989286 217.292353 
z
" clip-path="url(#pbff5d1a56f)" style="fill: #4eb1bc"/>
   </g>
   <g id="patch_14">
    <path d="M 47.989286 230.197059 
L 158.898073 230.197059 
L 158.898073 235.727647 
L 47.989286 235.727647 
z
" clip-path="url(#pbff5d1a56f)" style="fill: #4eb1bc"/>
   </g>
   <g id="patch_15">
    <path d="M 47.989286 248.632353 
L 184.768521 248.632353 
L 184.768521 254.162941 
L 47.989286 254.162941 
z
" clip-path="url(#pbff5d1a56f)" style="fill: #4eb1bc"/>
   </g>
   <g id="patch_16">
    <path d="M 47.989286 267.067647 
L 174.636727 267.067647 
L 174.636727 272.598235 
L 47.989286 272.598235 
z
" clip-path="url(#pbff5d1a56f)" style="fill: #4eb1bc"/>
   </g>
   <g id="patch_17">
    <path d="M 47.989286 285.502941 
L 149.80616 285.502941 
L 149.80616 291.033529 
L 47.989286 291.033529 
z
" clip-path="url(#pbff5d1a56f)" style="fill: #4eb1bc"/>
   </g>
   <g id="patch_18">
    <path d="M 47.989286 303.938235 
L 176.064537 303.938235 
L 176.064537 309.468824 
L 47.989286 309.468824 
z
" clip-path="url(#pbff5d1a56f)" style="fill: #4eb1bc"/>
   </g>
   <g id="patch_19">
    <path d="M 47.989286 322.373529 
L 144.468146 322.373529 
L 144.468146 327.904118 
L 47.989286 327.904118 
z
" clip-path="url(#pbff5d1a56f)" style="fill: #4eb1bc"/>
   </g>
   <g id="matplotlib.axis_1">
    <g id="xtick_1">
     <g id="line2d_1">
      <path d="M 97.425 336.2 
L 97.425 22.8 
" clip-path="url(#pbff5d1a56f)" style="fill: none; stroke-dasharray: 2.96,1.28; stroke-dashoffset: 0; stroke: #b0b0b0; stroke-width: 0.8"/>
     </g>
     <g id="line2d_2">
      <defs>
       <path id="m46bb4f406a" d="M 0 0 
L 0 -3.5 
" style="stroke: #000000; stroke-width: 0.8"/>
      </defs>
      <g>
       <use xlink:href="#m46bb4f406a" x="97.425" y="22.8" style="stroke: #000000; stroke-width: 0.8"/>
      </g>
     </g>
     <g id="text_1">
      <!-- 20% -->
      <g transform="translate(90.757031 14.552188)scale(0.06 -0.06)">
       <defs>
        <path id="DejaVuSans-32" d="M 1228 531 
L 3431 531 
L 3431 0 
L 469 0 
L 469 531 
Q 828 903 1448 1529 
Q 2069 2156 2228 2338 
Q 2531 2678 2651 2914 
Q 2772 3150 2772 3378 
Q 2772 3750 2511 3984 
Q 2250 4219 1831 4219 
Q 1534 4219 1204 4116 
Q 875 4013 500 3803 
L 500 4441 
Q 881 4594 1212 4672 
Q 1544 4750 1819 4750 
Q 2544 4750 2975 4387 
Q 3406 4025 3406 3419 
Q 3406 3131 3298 2873 
Q 3191 2616 2906 2266 
Q 2828 2175 2409 1742 
Q 1991 1309 1228 531 
z
" transform="scale(0.015625)"/>
        <path id="DejaVuSans-30" d="M 2034 4250 
Q 1547 4250 1301 3770 
Q 1056 3291 1056 2328 
Q 1056 1369 1301 889 
Q 1547 409 2034 409 
Q 2525 409 2770 889 
Q 3016 1369 3016 2328 
Q 3016 3291 2770 3770 
Q 2525 4250 2034 4250 
z
M 2034 4750 
Q 2819 4750 3233 4129 
Q 3647 3509 3647 2328 
Q 3647 1150 3233 529 
Q 2819 -91 2034 -91 
Q 1250 -91 836 529 
Q 422 1150 422 2328 
Q 422 3509 836 4129 
Q 1250 4750 2034 4750 
z
" transform="scale(0.015625)"/>
        <path id="DejaVuSans-25" d="M 4653 2053 
Q 4381 2053 4226 1822 
Q 4072 1591 4072 1178 
Q 4072 772 4226 539 
Q 4381 306 4653 306 
Q 4919 306 5073 539 
Q 5228 772 5228 1178 
Q 5228 1588 5073 1820 
Q 4919 2053 4653 2053 
z
M 4653 2450 
Q 5147 2450 5437 2106 
Q 5728 1763 5728 1178 
Q 5728 594 5436 251 
Q 5144 -91 4653 -91 
Q 4153 -91 3862 251 
Q 3572 594 3572 1178 
Q 3572 1766 3864 2108 
Q 4156 2450 4653 2450 
z
M 1428 4353 
Q 1159 4353 1004 4120 
Q 850 3888 850 3481 
Q 850 3069 1003 2837 
Q 1156 2606 1428 2606 
Q 1700 2606 1854 2837 
Q 2009 3069 2009 3481 
Q 2009 3884 1853 4118 
Q 1697 4353 1428 4353 
z
M 4250 4750 
L 4750 4750 
L 1831 -91 
L 1331 -91 
L 4250 4750 
z
M 1428 4750 
Q 1922 4750 2215 4408 
Q 2509 4066 2509 3481 
Q 2509 2891 2217 2550 
Q 1925 2209 1428 2209 
Q 931 2209 642 2551 
Q 353 2894 353 3481 
Q 353 4063 643 4406 
Q 934 4750 1428 4750 
z
" transform="scale(0.015625)"/>
       </defs>
       <use xlink:href="#DejaVuSans-32"/>
       <use xlink:href="#DejaVuSans-30" x="63.623047"/>
       <use xlink:href="#DejaVuSans-25" x="127.246094"/>
      </g>
     </g>
    </g>
    <g id="xtick_2">
     <g id="line2d_3">
      <path d="M 122.142857 336.2 
L 122.142857 22.8 
" clip-path="url(#pbff5d1a56f)" style="fill: none; stroke-dasharray: 2.96,1.28; stroke-dashoffset: 0; stroke: #b0b0b0; stroke-width: 0.8"/>
     </g>
     <g id="line2d_4">
      <g>
       <use xlink:href="#m46bb4f406a" x="122.142857" y="22.8" style="stroke: #000000; stroke-width: 0.8"/>
      </g>
     </g>
     <g id="text_2">
      <!-- 30% -->
      <g transform="translate(115.474888 14.552188)scale(0.06 -0.06)">
       <defs>
        <path id="DejaVuSans-33" d="M 2597 2516 
Q 3050 2419 3304 2112 
Q 3559 1806 3559 1356 
Q 3559 666 3084 287 
Q 2609 -91 1734 -91 
Q 1441 -91 1130 -33 
Q 819 25 488 141 
L 488 750 
Q 750 597 1062 519 
Q 1375 441 1716 441 
Q 2309 441 2620 675 
Q 2931 909 2931 1356 
Q 2931 1769 2642 2001 
Q 2353 2234 1838 2234 
L 1294 2234 
L 1294 2753 
L 1863 2753 
Q 2328 2753 2575 2939 
Q 2822 3125 2822 3475 
Q 2822 3834 2567 4026 
Q 2313 4219 1838 4219 
Q 1578 4219 1281 4162 
Q 984 4106 628 3988 
L 628 4550 
Q 988 4650 1302 4700 
Q 1616 4750 1894 4750 
Q 2613 4750 3031 4423 
Q 3450 4097 3450 3541 
Q 3450 3153 3228 2886 
Q 3006 2619 2597 2516 
z
" transform="scale(0.015625)"/>
       </defs>
       <use xlink:href="#DejaVuSans-33"/>
       <use xlink:href="#DejaVuSans-30" x="63.623047"/>
       <use xlink:href="#DejaVuSans-25" x="127.246094"/>
      </g>
     </g>
    </g>
    <g id="xtick_3">
     <g id="line2d_5">
      <path d="M 146.860714 336.2 
L 146.860714 22.8 
" clip-path="url(#pbff5d1a56f)" style="fill: none; stroke-dasharray: 2.96,1.28; stroke-dashoffset: 0; stroke: #b0b0b0; stroke-width: 0.8"/>
     </g>
     <g id="line2d_6">
      <g>
       <use xlink:href="#m46bb4f406a" x="146.860714" y="22.8" style="stroke: #000000; stroke-width: 0.8"/>
      </g>
     </g>
     <g id="text_3">
      <!-- 40% -->
      <g transform="translate(140.192746 14.552188)scale(0.06 -0.06)">
       <defs>
        <path id="DejaVuSans-34" d="M 2419 4116 
L 825 1625 
L 2419 1625 
L 2419 4116 
z
M 2253 4666 
L 3047 4666 
L 3047 1625 
L 3713 1625 
L 3713 1100 
L 3047 1100 
L 3047 0 
L 2419 0 
L 2419 1100 
L 313 1100 
L 313 1709 
L 2253 4666 
z
" transform="scale(0.015625)"/>
       </defs>
       <use xlink:href="#DejaVuSans-34"/>
       <use xlink:href="#DejaVuSans-30" x="63.623047"/>
       <use xlink:href="#DejaVuSans-25" x="127.246094"/>
      </g>
     </g>
    </g>
    <g id="xtick_4">
     <g id="line2d_7">
      <path d="M 171.578571 336.2 
L 171.578571 22.8 
" clip-path="url(#pbff5d1a56f)" style="fill: none; stroke-dasharray: 2.96,1.28; stroke-dashoffset: 0; stroke: #b0b0b0; stroke-width: 0.8"/>
     </g>
     <g id="line2d_8">
      <g>
       <use xlink:href="#m46bb4f406a" x="171.578571" y="22.8" style="stroke: #000000; stroke-width: 0.8"/>
      </g>
     </g>
     <g id="text_4">
      <!-- 50% -->
      <g transform="translate(164.910603 14.552188)scale(0.06 -0.06)">
       <defs>
        <path id="DejaVuSans-35" d="M 691 4666 
L 3169 4666 
L 3169 4134 
L 1269 4134 
L 1269 2991 
Q 1406 3038 1543 3061 
Q 1681 3084 1819 3084 
Q 2600 3084 3056 2656 
Q 3513 2228 3513 1497 
Q 3513 744 3044 326 
Q 2575 -91 1722 -91 
Q 1428 -91 1123 -41 
Q 819 9 494 109 
L 494 744 
Q 775 591 1075 516 
Q 1375 441 1709 441 
Q 2250 441 2565 725 
Q 2881 1009 2881 1497 
Q 2881 1984 2565 2268 
Q 2250 2553 1709 2553 
Q 1456 2553 1204 2497 
Q 953 2441 691 2322 
L 691 4666 
z
" transform="scale(0.015625)"/>
       </defs>
       <use xlink:href="#DejaVuSans-35"/>
       <use xlink:href="#DejaVuSans-30" x="63.623047"/>
       <use xlink:href="#DejaVuSans-25" x="127.246094"/>
      </g>
     </g>
    </g>
    <g id="xtick_5">
     <g id="line2d_9">
      <path d="M 196.296429 336.2 
L 196.296429 22.8 
" clip-path="url(#pbff5d1a56f)" style="fill: none; stroke-dasharray: 2.96,1.28; stroke-dashoffset: 0; stroke: #b0b0b0; stroke-width: 0.8"/>
     </g>
     <g id="line2d_10">
      <g>
       <use xlink:href="#m46bb4f406a" x="196.296429" y="22.8" style="stroke: #000000; stroke-width: 0.8"/>
      </g>
     </g>
     <g id="text_5">
      <!-- 60% -->
      <g transform="translate(189.62846 14.552188)scale(0.06 -0.06)">
       <defs>
        <path id="DejaVuSans-36" d="M 2113 2584 
Q 1688 2584 1439 2293 
Q 1191 2003 1191 1497 
Q 1191 994 1439 701 
Q 1688 409 2113 409 
Q 2538 409 2786 701 
Q 3034 994 3034 1497 
Q 3034 2003 2786 2293 
Q 2538 2584 2113 2584 
z
M 3366 4563 
L 3366 3988 
Q 3128 4100 2886 4159 
Q 2644 4219 2406 4219 
Q 1781 4219 1451 3797 
Q 1122 3375 1075 2522 
Q 1259 2794 1537 2939 
Q 1816 3084 2150 3084 
Q 2853 3084 3261 2657 
Q 3669 2231 3669 1497 
Q 3669 778 3244 343 
Q 2819 -91 2113 -91 
Q 1303 -91 875 529 
Q 447 1150 447 2328 
Q 447 3434 972 4092 
Q 1497 4750 2381 4750 
Q 2619 4750 2861 4703 
Q 3103 4656 3366 4563 
z
" transform="scale(0.015625)"/>
       </defs>
       <use xlink:href="#DejaVuSans-36"/>
       <use xlink:href="#DejaVuSans-30" x="63.623047"/>
       <use xlink:href="#DejaVuSans-25" x="127.246094"/>
      </g>
     </g>
    </g>
    <g id="xtick_6">
     <g id="line2d_11">
      <path d="M 221.014286 336.2 
L 221.014286 22.8 
" clip-path="url(#pbff5d1a56f)" style="fill: none; stroke-dasharray: 2.96,1.28; stroke-dashoffset: 0; stroke: #b0b0b0; stroke-width: 0.8"/>
     </g>
     <g id="line2d_12">
      <g>
       <use xlink:href="#m46bb4f406a" x="221.014286" y="22.8" style="stroke: #000000; stroke-width: 0.8"/>
      </g>
     </g>
     <g id="text_6">
      <!-- 70% -->
      <g transform="translate(214.346317 14.552188)scale(0.06 -0.06)">
       <defs>
        <path id="DejaVuSans-37" d="M 525 4666 
L 3525 4666 
L 3525 4397 
L 1831 0 
L 1172 0 
L 2766 4134 
L 525 4134 
L 525 4666 
z
" transform="scale(0.015625)"/>
       </defs>
       <use xlink:href="#DejaVuSans-37"/>
       <use xlink:href="#DejaVuSans-30" x="63.623047"/>
       <use xlink:href="#DejaVuSans-25" x="127.246094"/>
      </g>
     </g>
    </g>
    <g id="xtick_7">
     <g id="line2d_13">
      <path d="M 245.732143 336.2 
L 245.732143 22.8 
" clip-path="url(#pbff5d1a56f)" style="fill: none; stroke-dasharray: 2.96,1.28; stroke-dashoffset: 0; stroke: #b0b0b0; stroke-width: 0.8"/>
     </g>
     <g id="line2d_14">
      <g>
       <use xlink:href="#m46bb4f406a" x="245.732143" y="22.8" style="stroke: #000000; stroke-width: 0.8"/>
      </g>
     </g>
     <g id="text_7">
      <!-- 80% -->
      <g transform="translate(239.064174 14.552188)scale(0.06 -0.06)">
       <defs>
        <path id="DejaVuSans-38" d="M 2034 2216 
Q 1584 2216 1326 1975 
Q 1069 1734 1069 1313 
Q 1069 891 1326 650 
Q 1584 409 2034 409 
Q 2484 409 2743 651 
Q 3003 894 3003 1313 
Q 3003 1734 2745 1975 
Q 2488 2216 2034 2216 
z
M 1403 2484 
Q 997 2584 770 2862 
Q 544 3141 544 3541 
Q 544 4100 942 4425 
Q 1341 4750 2034 4750 
Q 2731 4750 3128 4425 
Q 3525 4100 3525 3541 
Q 3525 3141 3298 2862 
Q 3072 2584 2669 2484 
Q 3125 2378 3379 2068 
Q 3634 1759 3634 1313 
Q 3634 634 3220 271 
Q 2806 -91 2034 -91 
Q 1263 -91 848 271 
Q 434 634 434 1313 
Q 434 1759 690 2068 
Q 947 2378 1403 2484 
z
M 1172 3481 
Q 1172 3119 1398 2916 
Q 1625 2713 2034 2713 
Q 2441 2713 2670 2916 
Q 2900 3119 2900 3481 
Q 2900 3844 2670 4047 
Q 2441 4250 2034 4250 
Q 1625 4250 1398 4047 
Q 1172 3844 1172 3481 
z
" transform="scale(0.015625)"/>
       </defs>
       <use xlink:href="#DejaVuSans-38"/>
       <use xlink:href="#DejaVuSans-30" x="63.623047"/>
       <use xlink:href="#DejaVuSans-25" x="127.246094"/>
      </g>
     </g>
    </g>
    <g id="xtick_8">
     <g id="line2d_15">
      <path d="M 270.45 336.2 
L 270.45 22.8 
" clip-path="url(#pbff5d1a56f)" style="fill: none; stroke-dasharray: 2.96,1.28; stroke-dashoffset: 0; stroke: #b0b0b0; stroke-width: 0.8"/>
     </g>
     <g id="line2d_16">
      <g>
       <use xlink:href="#m46bb4f406a" x="270.45" y="22.8" style="stroke: #000000; stroke-width: 0.8"/>
      </g>
     </g>
     <g id="text_8">
      <!-- 90% -->
      <g transform="translate(263.782031 14.552188)scale(0.06 -0.06)">
       <defs>
        <path id="DejaVuSans-39" d="M 703 97 
L 703 672 
Q 941 559 1184 500 
Q 1428 441 1663 441 
Q 2288 441 2617 861 
Q 2947 1281 2994 2138 
Q 2813 1869 2534 1725 
Q 2256 1581 1919 1581 
Q 1219 1581 811 2004 
Q 403 2428 403 3163 
Q 403 3881 828 4315 
Q 1253 4750 1959 4750 
Q 2769 4750 3195 4129 
Q 3622 3509 3622 2328 
Q 3622 1225 3098 567 
Q 2575 -91 1691 -91 
Q 1453 -91 1209 -44 
Q 966 3 703 97 
z
M 1959 2075 
Q 2384 2075 2632 2365 
Q 2881 2656 2881 3163 
Q 2881 3666 2632 3958 
Q 2384 4250 1959 4250 
Q 1534 4250 1286 3958 
Q 1038 3666 1038 3163 
Q 1038 2656 1286 2365 
Q 1534 2075 1959 2075 
z
" transform="scale(0.015625)"/>
       </defs>
       <use xlink:href="#DejaVuSans-39"/>
       <use xlink:href="#DejaVuSans-30" x="63.623047"/>
       <use xlink:href="#DejaVuSans-25" x="127.246094"/>
      </g>
     </g>
    </g>
    <g id="text_9">
     <!-- R2 Comparison -->
     <g transform="translate(153.3925 346.27875)scale(0.08 -0.08)">
      <defs>
       <path id="DejaVuSans-52" d="M 2841 2188 
Q 3044 2119 3236 1894 
Q 3428 1669 3622 1275 
L 4263 0 
L 3584 0 
L 2988 1197 
Q 2756 1666 2539 1819 
Q 2322 1972 1947 1972 
L 1259 1972 
L 1259 0 
L 628 0 
L 628 4666 
L 2053 4666 
Q 2853 4666 3247 4331 
Q 3641 3997 3641 3322 
Q 3641 2881 3436 2590 
Q 3231 2300 2841 2188 
z
M 1259 4147 
L 1259 2491 
L 2053 2491 
Q 2509 2491 2742 2702 
Q 2975 2913 2975 3322 
Q 2975 3731 2742 3939 
Q 2509 4147 2053 4147 
L 1259 4147 
z
" transform="scale(0.015625)"/>
       <path id="DejaVuSans-20" transform="scale(0.015625)"/>
       <path id="DejaVuSans-43" d="M 4122 4306 
L 4122 3641 
Q 3803 3938 3442 4084 
Q 3081 4231 2675 4231 
Q 1875 4231 1450 3742 
Q 1025 3253 1025 2328 
Q 1025 1406 1450 917 
Q 1875 428 2675 428 
Q 3081 428 3442 575 
Q 3803 722 4122 1019 
L 4122 359 
Q 3791 134 3420 21 
Q 3050 -91 2638 -91 
Q 1578 -91 968 557 
Q 359 1206 359 2328 
Q 359 3453 968 4101 
Q 1578 4750 2638 4750 
Q 3056 4750 3426 4639 
Q 3797 4528 4122 4306 
z
" transform="scale(0.015625)"/>
       <path id="DejaVuSans-6f" d="M 1959 3097 
Q 1497 3097 1228 2736 
Q 959 2375 959 1747 
Q 959 1119 1226 758 
Q 1494 397 1959 397 
Q 2419 397 2687 759 
Q 2956 1122 2956 1747 
Q 2956 2369 2687 2733 
Q 2419 3097 1959 3097 
z
M 1959 3584 
Q 2709 3584 3137 3096 
Q 3566 2609 3566 1747 
Q 3566 888 3137 398 
Q 2709 -91 1959 -91 
Q 1206 -91 779 398 
Q 353 888 353 1747 
Q 353 2609 779 3096 
Q 1206 3584 1959 3584 
z
" transform="scale(0.015625)"/>
       <path id="DejaVuSans-6d" d="M 3328 2828 
Q 3544 3216 3844 3400 
Q 4144 3584 4550 3584 
Q 5097 3584 5394 3201 
Q 5691 2819 5691 2113 
L 5691 0 
L 5113 0 
L 5113 2094 
Q 5113 2597 4934 2840 
Q 4756 3084 4391 3084 
Q 3944 3084 3684 2787 
Q 3425 2491 3425 1978 
L 3425 0 
L 2847 0 
L 2847 2094 
Q 2847 2600 2669 2842 
Q 2491 3084 2119 3084 
Q 1678 3084 1418 2786 
Q 1159 2488 1159 1978 
L 1159 0 
L 581 0 
L 581 3500 
L 1159 3500 
L 1159 2956 
Q 1356 3278 1631 3431 
Q 1906 3584 2284 3584 
Q 2666 3584 2933 3390 
Q 3200 3197 3328 2828 
z
" transform="scale(0.015625)"/>
       <path id="DejaVuSans-70" d="M 1159 525 
L 1159 -1331 
L 581 -1331 
L 581 3500 
L 1159 3500 
L 1159 2969 
Q 1341 3281 1617 3432 
Q 1894 3584 2278 3584 
Q 2916 3584 3314 3078 
Q 3713 2572 3713 1747 
Q 3713 922 3314 415 
Q 2916 -91 2278 -91 
Q 1894 -91 1617 61 
Q 1341 213 1159 525 
z
M 3116 1747 
Q 3116 2381 2855 2742 
Q 2594 3103 2138 3103 
Q 1681 3103 1420 2742 
Q 1159 2381 1159 1747 
Q 1159 1113 1420 752 
Q 1681 391 2138 391 
Q 2594 391 2855 752 
Q 3116 1113 3116 1747 
z
" transform="scale(0.015625)"/>
       <path id="DejaVuSans-61" d="M 2194 1759 
Q 1497 1759 1228 1600 
Q 959 1441 959 1056 
Q 959 750 1161 570 
Q 1363 391 1709 391 
Q 2188 391 2477 730 
Q 2766 1069 2766 1631 
L 2766 1759 
L 2194 1759 
z
M 3341 1997 
L 3341 0 
L 2766 0 
L 2766 531 
Q 2569 213 2275 61 
Q 1981 -91 1556 -91 
Q 1019 -91 701 211 
Q 384 513 384 1019 
Q 384 1609 779 1909 
Q 1175 2209 1959 2209 
L 2766 2209 
L 2766 2266 
Q 2766 2663 2505 2880 
Q 2244 3097 1772 3097 
Q 1472 3097 1187 3025 
Q 903 2953 641 2809 
L 641 3341 
Q 956 3463 1253 3523 
Q 1550 3584 1831 3584 
Q 2591 3584 2966 3190 
Q 3341 2797 3341 1997 
z
" transform="scale(0.015625)"/>
       <path id="DejaVuSans-72" d="M 2631 2963 
Q 2534 3019 2420 3045 
Q 2306 3072 2169 3072 
Q 1681 3072 1420 2755 
Q 1159 2438 1159 1844 
L 1159 0 
L 581 0 
L 581 3500 
L 1159 3500 
L 1159 2956 
Q 1341 3275 1631 3429 
Q 1922 3584 2338 3584 
Q 2397 3584 2469 3576 
Q 2541 3569 2628 3553 
L 2631 2963 
z
" transform="scale(0.015625)"/>
       <path id="DejaVuSans-69" d="M 603 3500 
L 1178 3500 
L 1178 0 
L 603 0 
L 603 3500 
z
M 603 4863 
L 1178 4863 
L 1178 4134 
L 603 4134 
L 603 4863 
z
" transform="scale(0.015625)"/>
       <path id="DejaVuSans-73" d="M 2834 3397 
L 2834 2853 
Q 2591 2978 2328 3040 
Q 2066 3103 1784 3103 
Q 1356 3103 1142 2972 
Q 928 2841 928 2578 
Q 928 2378 1081 2264 
Q 1234 2150 1697 2047 
L 1894 2003 
Q 2506 1872 2764 1633 
Q 3022 1394 3022 966 
Q 3022 478 2636 193 
Q 2250 -91 1575 -91 
Q 1294 -91 989 -36 
Q 684 19 347 128 
L 347 722 
Q 666 556 975 473 
Q 1284 391 1588 391 
Q 1994 391 2212 530 
Q 2431 669 2431 922 
Q 2431 1156 2273 1281 
Q 2116 1406 1581 1522 
L 1381 1569 
Q 847 1681 609 1914 
Q 372 2147 372 2553 
Q 372 3047 722 3315 
Q 1072 3584 1716 3584 
Q 2034 3584 2315 3537 
Q 2597 3491 2834 3397 
z
" transform="scale(0.015625)"/>
       <path id="DejaVuSans-6e" d="M 3513 2113 
L 3513 0 
L 2938 0 
L 2938 2094 
Q 2938 2591 2744 2837 
Q 2550 3084 2163 3084 
Q 1697 3084 1428 2787 
Q 1159 2491 1159 1978 
L 1159 0 
L 581 0 
L 581 3500 
L 1159 3500 
L 1159 2956 
Q 1366 3272 1645 3428 
Q 1925 3584 2291 3584 
Q 2894 3584 3203 3211 
Q 3513 2838 3513 2113 
z
" transform="scale(0.015625)"/>
      </defs>
      <use xlink:href="#DejaVuSans-52"/>
      <use xlink:href="#DejaVuSans-32" x="69.482422"/>
      <use xlink:href="#DejaVuSans-20" x="133.105469"/>
      <use xlink:href="#DejaVuSans-43" x="164.892578"/>
      <use xlink:href="#DejaVuSans-6f" x="234.716797"/>
      <use xlink:href="#DejaVuSans-6d" x="295.898438"/>
      <use xlink:href="#DejaVuSans-70" x="393.310547"/>
      <use xlink:href="#DejaVuSans-61" x="456.787109"/>
      <use xlink:href="#DejaVuSans-72" x="518.066406"/>
      <use xlink:href="#DejaVuSans-69" x="559.179688"/>
      <use xlink:href="#DejaVuSans-73" x="586.962891"/>
      <use xlink:href="#DejaVuSans-6f" x="639.0625"/>
      <use xlink:href="#DejaVuSans-6e" x="700.244141"/>
     </g>
    </g>
   </g>
   <g id="matplotlib.axis_2">
    <g id="ytick_1">
     <g id="line2d_17">
      <defs>
       <path id="m3db9532de1" d="M 0 0 
L -3.5 0 
" style="stroke: #a9a9a9; stroke-width: 0.8"/>
      </defs>
      <g>
       <use xlink:href="#m3db9532de1" x="97.425" y="32.017647" style="fill: #a9a9a9; stroke: #a9a9a9; stroke-width: 0.8"/>
      </g>
     </g>
     <g id="text_10">
      <!-- publictrans_per_ct -->
      <g transform="translate(35.329062 34.297178)scale(0.06 -0.06)">
       <defs>
        <path id="DejaVuSans-75" d="M 544 1381 
L 544 3500 
L 1119 3500 
L 1119 1403 
Q 1119 906 1312 657 
Q 1506 409 1894 409 
Q 2359 409 2629 706 
Q 2900 1003 2900 1516 
L 2900 3500 
L 3475 3500 
L 3475 0 
L 2900 0 
L 2900 538 
Q 2691 219 2414 64 
Q 2138 -91 1772 -91 
Q 1169 -91 856 284 
Q 544 659 544 1381 
z
M 1991 3584 
L 1991 3584 
z
" transform="scale(0.015625)"/>
        <path id="DejaVuSans-62" d="M 3116 1747 
Q 3116 2381 2855 2742 
Q 2594 3103 2138 3103 
Q 1681 3103 1420 2742 
Q 1159 2381 1159 1747 
Q 1159 1113 1420 752 
Q 1681 391 2138 391 
Q 2594 391 2855 752 
Q 3116 1113 3116 1747 
z
M 1159 2969 
Q 1341 3281 1617 3432 
Q 1894 3584 2278 3584 
Q 2916 3584 3314 3078 
Q 3713 2572 3713 1747 
Q 3713 922 3314 415 
Q 2916 -91 2278 -91 
Q 1894 -91 1617 61 
Q 1341 213 1159 525 
L 1159 0 
L 581 0 
L 581 4863 
L 1159 4863 
L 1159 2969 
z
" transform="scale(0.015625)"/>
        <path id="DejaVuSans-6c" d="M 603 4863 
L 1178 4863 
L 1178 0 
L 603 0 
L 603 4863 
z
" transform="scale(0.015625)"/>
        <path id="DejaVuSans-63" d="M 3122 3366 
L 3122 2828 
Q 2878 2963 2633 3030 
Q 2388 3097 2138 3097 
Q 1578 3097 1268 2742 
Q 959 2388 959 1747 
Q 959 1106 1268 751 
Q 1578 397 2138 397 
Q 2388 397 2633 464 
Q 2878 531 3122 666 
L 3122 134 
Q 2881 22 2623 -34 
Q 2366 -91 2075 -91 
Q 1284 -91 818 406 
Q 353 903 353 1747 
Q 353 2603 823 3093 
Q 1294 3584 2113 3584 
Q 2378 3584 2631 3529 
Q 2884 3475 3122 3366 
z
" transform="scale(0.015625)"/>
        <path id="DejaVuSans-74" d="M 1172 4494 
L 1172 3500 
L 2356 3500 
L 2356 3053 
L 1172 3053 
L 1172 1153 
Q 1172 725 1289 603 
Q 1406 481 1766 481 
L 2356 481 
L 2356 0 
L 1766 0 
Q 1100 0 847 248 
Q 594 497 594 1153 
L 594 3053 
L 172 3053 
L 172 3500 
L 594 3500 
L 594 4494 
L 1172 4494 
z
" transform="scale(0.015625)"/>
        <path id="DejaVuSans-5f" d="M 3263 -1063 
L 3263 -1509 
L -63 -1509 
L -63 -1063 
L 3263 -1063 
z
" transform="scale(0.015625)"/>
        <path id="DejaVuSans-65" d="M 3597 1894 
L 3597 1613 
L 953 1613 
Q 991 1019 1311 708 
Q 1631 397 2203 397 
Q 2534 397 2845 478 
Q 3156 559 3463 722 
L 3463 178 
Q 3153 47 2828 -22 
Q 2503 -91 2169 -91 
Q 1331 -91 842 396 
Q 353 884 353 1716 
Q 353 2575 817 3079 
Q 1281 3584 2069 3584 
Q 2775 3584 3186 3129 
Q 3597 2675 3597 1894 
z
M 3022 2063 
Q 3016 2534 2758 2815 
Q 2500 3097 2075 3097 
Q 1594 3097 1305 2825 
Q 1016 2553 972 2059 
L 3022 2063 
z
" transform="scale(0.015625)"/>
       </defs>
       <use xlink:href="#DejaVuSans-70"/>
       <use xlink:href="#DejaVuSans-75" x="63.476562"/>
       <use xlink:href="#DejaVuSans-62" x="126.855469"/>
       <use xlink:href="#DejaVuSans-6c" x="190.332031"/>
       <use xlink:href="#DejaVuSans-69" x="218.115234"/>
       <use xlink:href="#DejaVuSans-63" x="245.898438"/>
       <use xlink:href="#DejaVuSans-74" x="300.878906"/>
       <use xlink:href="#DejaVuSans-72" x="340.087891"/>
       <use xlink:href="#DejaVuSans-61" x="381.201172"/>
       <use xlink:href="#DejaVuSans-6e" x="442.480469"/>
       <use xlink:href="#DejaVuSans-73" x="505.859375"/>
       <use xlink:href="#DejaVuSans-5f" x="557.958984"/>
       <use xlink:href="#DejaVuSans-70" x="607.958984"/>
       <use xlink:href="#DejaVuSans-65" x="671.435547"/>
       <use xlink:href="#DejaVuSans-72" x="732.958984"/>
       <use xlink:href="#DejaVuSans-5f" x="774.072266"/>
       <use xlink:href="#DejaVuSans-63" x="824.072266"/>
       <use xlink:href="#DejaVuSans-74" x="879.052734"/>
      </g>
     </g>
    </g>
    <g id="ytick_2">
     <g id="line2d_18">
      <g>
       <use xlink:href="#m3db9532de1" x="97.425" y="50.452941" style="fill: #a9a9a9; stroke: #a9a9a9; stroke-width: 0.8"/>
      </g>
     </g>
     <g id="text_11">
      <!-- walkbike_per_ct -->
      <g transform="translate(42.656562 52.732472)scale(0.06 -0.06)">
       <defs>
        <path id="DejaVuSans-77" d="M 269 3500 
L 844 3500 
L 1563 769 
L 2278 3500 
L 2956 3500 
L 3675 769 
L 4391 3500 
L 4966 3500 
L 4050 0 
L 3372 0 
L 2619 2869 
L 1863 0 
L 1184 0 
L 269 3500 
z
" transform="scale(0.015625)"/>
        <path id="DejaVuSans-6b" d="M 581 4863 
L 1159 4863 
L 1159 1991 
L 2875 3500 
L 3609 3500 
L 1753 1863 
L 3688 0 
L 2938 0 
L 1159 1709 
L 1159 0 
L 581 0 
L 581 4863 
z
" transform="scale(0.015625)"/>
       </defs>
       <use xlink:href="#DejaVuSans-77"/>
       <use xlink:href="#DejaVuSans-61" x="81.787109"/>
       <use xlink:href="#DejaVuSans-6c" x="143.066406"/>
       <use xlink:href="#DejaVuSans-6b" x="170.849609"/>
       <use xlink:href="#DejaVuSans-62" x="228.759766"/>
       <use xlink:href="#DejaVuSans-69" x="292.236328"/>
       <use xlink:href="#DejaVuSans-6b" x="320.019531"/>
       <use xlink:href="#DejaVuSans-65" x="374.304688"/>
       <use xlink:href="#DejaVuSans-5f" x="435.828125"/>
       <use xlink:href="#DejaVuSans-70" x="485.828125"/>
       <use xlink:href="#DejaVuSans-65" x="549.304688"/>
       <use xlink:href="#DejaVuSans-72" x="610.828125"/>
       <use xlink:href="#DejaVuSans-5f" x="651.941406"/>
       <use xlink:href="#DejaVuSans-63" x="701.941406"/>
       <use xlink:href="#DejaVuSans-74" x="756.921875"/>
      </g>
     </g>
    </g>
    <g id="ytick_3">
     <g id="line2d_19">
      <g>
       <use xlink:href="#m3db9532de1" x="97.425" y="68.888235" style="fill: #a9a9a9; stroke: #a9a9a9; stroke-width: 0.8"/>
      </g>
     </g>
     <g id="text_12">
      <!-- estvtrp -->
      <g transform="translate(69.07625 71.167767)scale(0.06 -0.06)">
       <defs>
        <path id="DejaVuSans-76" d="M 191 3500 
L 800 3500 
L 1894 563 
L 2988 3500 
L 3597 3500 
L 2284 0 
L 1503 0 
L 191 3500 
z
" transform="scale(0.015625)"/>
       </defs>
       <use xlink:href="#DejaVuSans-65"/>
       <use xlink:href="#DejaVuSans-73" x="61.523438"/>
       <use xlink:href="#DejaVuSans-74" x="113.623047"/>
       <use xlink:href="#DejaVuSans-76" x="152.832031"/>
       <use xlink:href="#DejaVuSans-74" x="212.011719"/>
       <use xlink:href="#DejaVuSans-72" x="251.220703"/>
       <use xlink:href="#DejaVuSans-70" x="292.333984"/>
      </g>
     </g>
    </g>
    <g id="ytick_4">
     <g id="line2d_20">
      <g>
       <use xlink:href="#m3db9532de1" x="97.425" y="87.323529" style="fill: #a9a9a9; stroke: #a9a9a9; stroke-width: 0.8"/>
      </g>
     </g>
     <g id="text_13">
      <!-- estptrp -->
      <g transform="translate(68.818438 89.603061)scale(0.06 -0.06)">
       <use xlink:href="#DejaVuSans-65"/>
       <use xlink:href="#DejaVuSans-73" x="61.523438"/>
       <use xlink:href="#DejaVuSans-74" x="113.623047"/>
       <use xlink:href="#DejaVuSans-70" x="152.832031"/>
       <use xlink:href="#DejaVuSans-74" x="216.308594"/>
       <use xlink:href="#DejaVuSans-72" x="255.517578"/>
       <use xlink:href="#DejaVuSans-70" x="296.630859"/>
      </g>
     </g>
    </g>
    <g id="ytick_5">
     <g id="line2d_21">
      <g>
       <use xlink:href="#m3db9532de1" x="97.425" y="105.758824" style="fill: #a9a9a9; stroke: #a9a9a9; stroke-width: 0.8"/>
      </g>
     </g>
     <g id="text_14">
      <!-- estpmiles -->
      <g transform="translate(61.450625 108.038355)scale(0.06 -0.06)">
       <use xlink:href="#DejaVuSans-65"/>
       <use xlink:href="#DejaVuSans-73" x="61.523438"/>
       <use xlink:href="#DejaVuSans-74" x="113.623047"/>
       <use xlink:href="#DejaVuSans-70" x="152.832031"/>
       <use xlink:href="#DejaVuSans-6d" x="216.308594"/>
       <use xlink:href="#DejaVuSans-69" x="313.720703"/>
       <use xlink:href="#DejaVuSans-6c" x="341.503906"/>
       <use xlink:href="#DejaVuSans-65" x="369.287109"/>
       <use xlink:href="#DejaVuSans-73" x="430.810547"/>
      </g>
     </g>
    </g>
    <g id="ytick_6">
     <g id="line2d_22">
      <g>
       <use xlink:href="#m3db9532de1" x="97.425" y="124.194118" style="fill: #a9a9a9; stroke: #a9a9a9; stroke-width: 0.8"/>
      </g>
     </g>
     <g id="text_15">
      <!-- drove_alone_per_ct -->
      <g transform="translate(32.241875 126.473649)scale(0.06 -0.06)">
       <defs>
        <path id="DejaVuSans-64" d="M 2906 2969 
L 2906 4863 
L 3481 4863 
L 3481 0 
L 2906 0 
L 2906 525 
Q 2725 213 2448 61 
Q 2172 -91 1784 -91 
Q 1150 -91 751 415 
Q 353 922 353 1747 
Q 353 2572 751 3078 
Q 1150 3584 1784 3584 
Q 2172 3584 2448 3432 
Q 2725 3281 2906 2969 
z
M 947 1747 
Q 947 1113 1208 752 
Q 1469 391 1925 391 
Q 2381 391 2643 752 
Q 2906 1113 2906 1747 
Q 2906 2381 2643 2742 
Q 2381 3103 1925 3103 
Q 1469 3103 1208 2742 
Q 947 2381 947 1747 
z
" transform="scale(0.015625)"/>
       </defs>
       <use xlink:href="#DejaVuSans-64"/>
       <use xlink:href="#DejaVuSans-72" x="63.476562"/>
       <use xlink:href="#DejaVuSans-6f" x="102.339844"/>
       <use xlink:href="#DejaVuSans-76" x="163.521484"/>
       <use xlink:href="#DejaVuSans-65" x="222.701172"/>
       <use xlink:href="#DejaVuSans-5f" x="284.224609"/>
       <use xlink:href="#DejaVuSans-61" x="334.224609"/>
       <use xlink:href="#DejaVuSans-6c" x="395.503906"/>
       <use xlink:href="#DejaVuSans-6f" x="423.287109"/>
       <use xlink:href="#DejaVuSans-6e" x="484.46875"/>
       <use xlink:href="#DejaVuSans-65" x="547.847656"/>
       <use xlink:href="#DejaVuSans-5f" x="609.371094"/>
       <use xlink:href="#DejaVuSans-70" x="659.371094"/>
       <use xlink:href="#DejaVuSans-65" x="722.847656"/>
       <use xlink:href="#DejaVuSans-72" x="784.371094"/>
       <use xlink:href="#DejaVuSans-5f" x="825.484375"/>
       <use xlink:href="#DejaVuSans-63" x="875.484375"/>
       <use xlink:href="#DejaVuSans-74" x="930.464844"/>
      </g>
     </g>
    </g>
    <g id="ytick_7">
     <g id="line2d_23">
      <g>
       <use xlink:href="#m3db9532de1" x="97.425" y="142.629412" style="fill: #a9a9a9; stroke: #a9a9a9; stroke-width: 0.8"/>
      </g>
     </g>
     <g id="text_16">
      <!-- estvmiles -->
      <g transform="translate(61.708438 144.908943)scale(0.06 -0.06)">
       <use xlink:href="#DejaVuSans-65"/>
       <use xlink:href="#DejaVuSans-73" x="61.523438"/>
       <use xlink:href="#DejaVuSans-74" x="113.623047"/>
       <use xlink:href="#DejaVuSans-76" x="152.832031"/>
       <use xlink:href="#DejaVuSans-6d" x="212.011719"/>
       <use xlink:href="#DejaVuSans-69" x="309.423828"/>
       <use xlink:href="#DejaVuSans-6c" x="337.207031"/>
       <use xlink:href="#DejaVuSans-65" x="364.990234"/>
       <use xlink:href="#DejaVuSans-73" x="426.513672"/>
      </g>
     </g>
    </g>
    <g id="ytick_8">
     <g id="line2d_24">
      <g>
       <use xlink:href="#m3db9532de1" x="97.425" y="161.064706" style="fill: #a9a9a9; stroke: #a9a9a9; stroke-width: 0.8"/>
      </g>
     </g>
     <g id="text_17">
      <!-- obesitycru -->
      <g transform="translate(58.98875 163.344237)scale(0.06 -0.06)">
       <defs>
        <path id="DejaVuSans-79" d="M 2059 -325 
Q 1816 -950 1584 -1140 
Q 1353 -1331 966 -1331 
L 506 -1331 
L 506 -850 
L 844 -850 
Q 1081 -850 1212 -737 
Q 1344 -625 1503 -206 
L 1606 56 
L 191 3500 
L 800 3500 
L 1894 763 
L 2988 3500 
L 3597 3500 
L 2059 -325 
z
" transform="scale(0.015625)"/>
       </defs>
       <use xlink:href="#DejaVuSans-6f"/>
       <use xlink:href="#DejaVuSans-62" x="61.181641"/>
       <use xlink:href="#DejaVuSans-65" x="124.658203"/>
       <use xlink:href="#DejaVuSans-73" x="186.181641"/>
       <use xlink:href="#DejaVuSans-69" x="238.28125"/>
       <use xlink:href="#DejaVuSans-74" x="266.064453"/>
       <use xlink:href="#DejaVuSans-79" x="305.273438"/>
       <use xlink:href="#DejaVuSans-63" x="364.453125"/>
       <use xlink:href="#DejaVuSans-72" x="419.433594"/>
       <use xlink:href="#DejaVuSans-75" x="460.546875"/>
      </g>
     </g>
    </g>
    <g id="ytick_9">
     <g id="line2d_25">
      <g>
       <use xlink:href="#m3db9532de1" x="97.425" y="179.5" style="fill: #a9a9a9; stroke: #a9a9a9; stroke-width: 0.8"/>
      </g>
     </g>
     <g id="text_18">
      <!-- diabetescr -->
      <g transform="translate(58.835938 181.779531)scale(0.06 -0.06)">
       <use xlink:href="#DejaVuSans-64"/>
       <use xlink:href="#DejaVuSans-69" x="63.476562"/>
       <use xlink:href="#DejaVuSans-61" x="91.259766"/>
       <use xlink:href="#DejaVuSans-62" x="152.539062"/>
       <use xlink:href="#DejaVuSans-65" x="216.015625"/>
       <use xlink:href="#DejaVuSans-74" x="277.539062"/>
       <use xlink:href="#DejaVuSans-65" x="316.748047"/>
       <use xlink:href="#DejaVuSans-73" x="378.271484"/>
       <use xlink:href="#DejaVuSans-63" x="430.371094"/>
       <use xlink:href="#DejaVuSans-72" x="485.351562"/>
      </g>
     </g>
    </g>
    <g id="ytick_10">
     <g id="line2d_26">
      <g>
       <use xlink:href="#m3db9532de1" x="97.425" y="197.935294" style="fill: #a9a9a9; stroke: #a9a9a9; stroke-width: 0.8"/>
      </g>
     </g>
     <g id="text_19">
      <!-- cancercrud -->
      <g transform="translate(56.946875 200.214825)scale(0.06 -0.06)">
       <use xlink:href="#DejaVuSans-63"/>
       <use xlink:href="#DejaVuSans-61" x="54.980469"/>
       <use xlink:href="#DejaVuSans-6e" x="116.259766"/>
       <use xlink:href="#DejaVuSans-63" x="179.638672"/>
       <use xlink:href="#DejaVuSans-65" x="234.619141"/>
       <use xlink:href="#DejaVuSans-72" x="296.142578"/>
       <use xlink:href="#DejaVuSans-63" x="335.005859"/>
       <use xlink:href="#DejaVuSans-72" x="389.986328"/>
       <use xlink:href="#DejaVuSans-75" x="431.099609"/>
       <use xlink:href="#DejaVuSans-64" x="494.478516"/>
      </g>
     </g>
    </g>
    <g id="ytick_11">
     <g id="line2d_27">
      <g>
       <use xlink:href="#m3db9532de1" x="97.425" y="216.370588" style="fill: #a9a9a9; stroke: #a9a9a9; stroke-width: 0.8"/>
      </g>
     </g>
     <g id="text_20">
      <!-- phlthcrude -->
      <g transform="translate(57.922812 218.650119)scale(0.06 -0.06)">
       <defs>
        <path id="DejaVuSans-68" d="M 3513 2113 
L 3513 0 
L 2938 0 
L 2938 2094 
Q 2938 2591 2744 2837 
Q 2550 3084 2163 3084 
Q 1697 3084 1428 2787 
Q 1159 2491 1159 1978 
L 1159 0 
L 581 0 
L 581 4863 
L 1159 4863 
L 1159 2956 
Q 1366 3272 1645 3428 
Q 1925 3584 2291 3584 
Q 2894 3584 3203 3211 
Q 3513 2838 3513 2113 
z
" transform="scale(0.015625)"/>
       </defs>
       <use xlink:href="#DejaVuSans-70"/>
       <use xlink:href="#DejaVuSans-68" x="63.476562"/>
       <use xlink:href="#DejaVuSans-6c" x="126.855469"/>
       <use xlink:href="#DejaVuSans-74" x="154.638672"/>
       <use xlink:href="#DejaVuSans-68" x="193.847656"/>
       <use xlink:href="#DejaVuSans-63" x="257.226562"/>
       <use xlink:href="#DejaVuSans-72" x="312.207031"/>
       <use xlink:href="#DejaVuSans-75" x="353.320312"/>
       <use xlink:href="#DejaVuSans-64" x="416.699219"/>
       <use xlink:href="#DejaVuSans-65" x="480.175781"/>
      </g>
     </g>
    </g>
    <g id="ytick_12">
     <g id="line2d_28">
      <g>
       <use xlink:href="#m3db9532de1" x="97.425" y="234.805882" style="fill: #a9a9a9; stroke: #a9a9a9; stroke-width: 0.8"/>
      </g>
     </g>
     <g id="text_21">
      <!-- mhlthcrude -->
      <g transform="translate(55.8875 237.085414)scale(0.06 -0.06)">
       <use xlink:href="#DejaVuSans-6d"/>
       <use xlink:href="#DejaVuSans-68" x="97.412109"/>
       <use xlink:href="#DejaVuSans-6c" x="160.791016"/>
       <use xlink:href="#DejaVuSans-74" x="188.574219"/>
       <use xlink:href="#DejaVuSans-68" x="227.783203"/>
       <use xlink:href="#DejaVuSans-63" x="291.162109"/>
       <use xlink:href="#DejaVuSans-72" x="346.142578"/>
       <use xlink:href="#DejaVuSans-75" x="387.255859"/>
       <use xlink:href="#DejaVuSans-64" x="450.634766"/>
       <use xlink:href="#DejaVuSans-65" x="514.111328"/>
      </g>
     </g>
    </g>
    <g id="ytick_13">
     <g id="line2d_29">
      <g>
       <use xlink:href="#m3db9532de1" x="97.425" y="253.241176" style="fill: #a9a9a9; stroke: #a9a9a9; stroke-width: 0.8"/>
      </g>
     </g>
     <g id="text_22">
      <!-- lpacrudepr -->
      <g transform="translate(57.9275 255.520708)scale(0.06 -0.06)">
       <use xlink:href="#DejaVuSans-6c"/>
       <use xlink:href="#DejaVuSans-70" x="27.783203"/>
       <use xlink:href="#DejaVuSans-61" x="91.259766"/>
       <use xlink:href="#DejaVuSans-63" x="152.539062"/>
       <use xlink:href="#DejaVuSans-72" x="207.519531"/>
       <use xlink:href="#DejaVuSans-75" x="248.632812"/>
       <use xlink:href="#DejaVuSans-64" x="312.011719"/>
       <use xlink:href="#DejaVuSans-65" x="375.488281"/>
       <use xlink:href="#DejaVuSans-70" x="437.011719"/>
       <use xlink:href="#DejaVuSans-72" x="500.488281"/>
      </g>
     </g>
    </g>
    <g id="ytick_14">
     <g id="line2d_30">
      <g>
       <use xlink:href="#m3db9532de1" x="97.425" y="271.676471" style="fill: #a9a9a9; stroke: #a9a9a9; stroke-width: 0.8"/>
      </g>
     </g>
     <g id="text_23">
      <!-- povertyline_below200 -->
      <g transform="translate(24.305 273.956002)scale(0.06 -0.06)">
       <use xlink:href="#DejaVuSans-70"/>
       <use xlink:href="#DejaVuSans-6f" x="63.476562"/>
       <use xlink:href="#DejaVuSans-76" x="124.658203"/>
       <use xlink:href="#DejaVuSans-65" x="183.837891"/>
       <use xlink:href="#DejaVuSans-72" x="245.361328"/>
       <use xlink:href="#DejaVuSans-74" x="286.474609"/>
       <use xlink:href="#DejaVuSans-79" x="325.683594"/>
       <use xlink:href="#DejaVuSans-6c" x="384.863281"/>
       <use xlink:href="#DejaVuSans-69" x="412.646484"/>
       <use xlink:href="#DejaVuSans-6e" x="440.429688"/>
       <use xlink:href="#DejaVuSans-65" x="503.808594"/>
       <use xlink:href="#DejaVuSans-5f" x="565.332031"/>
       <use xlink:href="#DejaVuSans-62" x="615.332031"/>
       <use xlink:href="#DejaVuSans-65" x="678.808594"/>
       <use xlink:href="#DejaVuSans-6c" x="740.332031"/>
       <use xlink:href="#DejaVuSans-6f" x="768.115234"/>
       <use xlink:href="#DejaVuSans-77" x="829.296875"/>
       <use xlink:href="#DejaVuSans-32" x="911.083984"/>
       <use xlink:href="#DejaVuSans-30" x="974.707031"/>
       <use xlink:href="#DejaVuSans-30" x="1038.330078"/>
      </g>
     </g>
    </g>
    <g id="ytick_15">
     <g id="line2d_31">
      <g>
       <use xlink:href="#m3db9532de1" x="97.425" y="290.111765" style="fill: #a9a9a9; stroke: #a9a9a9; stroke-width: 0.8"/>
      </g>
     </g>
     <g id="text_24">
      <!-- povertyline_below100 -->
      <g transform="translate(24.305 292.391296)scale(0.06 -0.06)">
       <defs>
        <path id="DejaVuSans-31" d="M 794 531 
L 1825 531 
L 1825 4091 
L 703 3866 
L 703 4441 
L 1819 4666 
L 2450 4666 
L 2450 531 
L 3481 531 
L 3481 0 
L 794 0 
L 794 531 
z
" transform="scale(0.015625)"/>
       </defs>
       <use xlink:href="#DejaVuSans-70"/>
       <use xlink:href="#DejaVuSans-6f" x="63.476562"/>
       <use xlink:href="#DejaVuSans-76" x="124.658203"/>
       <use xlink:href="#DejaVuSans-65" x="183.837891"/>
       <use xlink:href="#DejaVuSans-72" x="245.361328"/>
       <use xlink:href="#DejaVuSans-74" x="286.474609"/>
       <use xlink:href="#DejaVuSans-79" x="325.683594"/>
       <use xlink:href="#DejaVuSans-6c" x="384.863281"/>
       <use xlink:href="#DejaVuSans-69" x="412.646484"/>
       <use xlink:href="#DejaVuSans-6e" x="440.429688"/>
       <use xlink:href="#DejaVuSans-65" x="503.808594"/>
       <use xlink:href="#DejaVuSans-5f" x="565.332031"/>
       <use xlink:href="#DejaVuSans-62" x="615.332031"/>
       <use xlink:href="#DejaVuSans-65" x="678.808594"/>
       <use xlink:href="#DejaVuSans-6c" x="740.332031"/>
       <use xlink:href="#DejaVuSans-6f" x="768.115234"/>
       <use xlink:href="#DejaVuSans-77" x="829.296875"/>
       <use xlink:href="#DejaVuSans-31" x="911.083984"/>
       <use xlink:href="#DejaVuSans-30" x="974.707031"/>
       <use xlink:href="#DejaVuSans-30" x="1038.330078"/>
      </g>
     </g>
    </g>
    <g id="ytick_16">
     <g id="line2d_32">
      <g>
       <use xlink:href="#m3db9532de1" x="97.425" y="308.547059" style="fill: #a9a9a9; stroke: #a9a9a9; stroke-width: 0.8"/>
      </g>
     </g>
     <g id="text_25">
      <!-- logincome -->
      <g transform="translate(59.301875 310.82659)scale(0.06 -0.06)">
       <defs>
        <path id="DejaVuSans-67" d="M 2906 1791 
Q 2906 2416 2648 2759 
Q 2391 3103 1925 3103 
Q 1463 3103 1205 2759 
Q 947 2416 947 1791 
Q 947 1169 1205 825 
Q 1463 481 1925 481 
Q 2391 481 2648 825 
Q 2906 1169 2906 1791 
z
M 3481 434 
Q 3481 -459 3084 -895 
Q 2688 -1331 1869 -1331 
Q 1566 -1331 1297 -1286 
Q 1028 -1241 775 -1147 
L 775 -588 
Q 1028 -725 1275 -790 
Q 1522 -856 1778 -856 
Q 2344 -856 2625 -561 
Q 2906 -266 2906 331 
L 2906 616 
Q 2728 306 2450 153 
Q 2172 0 1784 0 
Q 1141 0 747 490 
Q 353 981 353 1791 
Q 353 2603 747 3093 
Q 1141 3584 1784 3584 
Q 2172 3584 2450 3431 
Q 2728 3278 2906 2969 
L 2906 3500 
L 3481 3500 
L 3481 434 
z
" transform="scale(0.015625)"/>
       </defs>
       <use xlink:href="#DejaVuSans-6c"/>
       <use xlink:href="#DejaVuSans-6f" x="27.783203"/>
       <use xlink:href="#DejaVuSans-67" x="88.964844"/>
       <use xlink:href="#DejaVuSans-69" x="152.441406"/>
       <use xlink:href="#DejaVuSans-6e" x="180.224609"/>
       <use xlink:href="#DejaVuSans-63" x="243.603516"/>
       <use xlink:href="#DejaVuSans-6f" x="298.583984"/>
       <use xlink:href="#DejaVuSans-6d" x="359.765625"/>
       <use xlink:href="#DejaVuSans-65" x="457.177734"/>
      </g>
     </g>
    </g>
    <g id="ytick_17">
     <g id="line2d_33">
      <g>
       <use xlink:href="#m3db9532de1" x="97.425" y="326.982353" style="fill: #a9a9a9; stroke: #a9a9a9; stroke-width: 0.8"/>
      </g>
     </g>
     <g id="text_26">
      <!-- logcrime -->
      <g transform="translate(64.309062 329.261884)scale(0.06 -0.06)">
       <use xlink:href="#DejaVuSans-6c"/>
       <use xlink:href="#DejaVuSans-6f" x="27.783203"/>
       <use xlink:href="#DejaVuSans-67" x="88.964844"/>
       <use xlink:href="#DejaVuSans-63" x="152.441406"/>
       <use xlink:href="#DejaVuSans-72" x="207.421875"/>
       <use xlink:href="#DejaVuSans-69" x="248.535156"/>
       <use xlink:href="#DejaVuSans-6d" x="276.318359"/>
       <use xlink:href="#DejaVuSans-65" x="373.730469"/>
      </g>
     </g>
    </g>
    <g id="text_27">
     <!-- Topics -->
     <g transform="translate(18.64125 191.644375)rotate(-90)scale(0.08 -0.08)">
      <defs>
       <path id="DejaVuSans-54" d="M -19 4666 
L 3928 4666 
L 3928 4134 
L 2272 4134 
L 2272 0 
L 1638 0 
L 1638 4134 
L -19 4134 
L -19 4666 
z
" transform="scale(0.015625)"/>
      </defs>
      <use xlink:href="#DejaVuSans-54"/>
      <use xlink:href="#DejaVuSans-6f" x="44.083984"/>
      <use xlink:href="#DejaVuSans-70" x="105.265625"/>
      <use xlink:href="#DejaVuSans-69" x="168.742188"/>
      <use xlink:href="#DejaVuSans-63" x="196.525391"/>
      <use xlink:href="#DejaVuSans-73" x="251.505859"/>
     </g>
    </g>
   </g>
   <g id="line2d_34">
    <path d="M 176.512631 32.017647 
L 224.269858 32.017647 
" clip-path="url(#pbff5d1a56f)" style="fill: none; stroke: #a9a9a9; stroke-linecap: square"/>
   </g>
   <g id="line2d_35">
    <path d="M 176.512631 30.174118 
L 176.512631 33.861176 
" clip-path="url(#pbff5d1a56f)" style="fill: none; stroke: #a9a9a9; stroke-linecap: square"/>
   </g>
   <g id="line2d_36">
    <path d="M 224.269858 30.174118 
L 224.269858 33.861176 
" clip-path="url(#pbff5d1a56f)" style="fill: none; stroke: #a9a9a9; stroke-linecap: square"/>
   </g>
   <g id="line2d_37">
    <path d="M 139.102488 50.452941 
L 207.053761 50.452941 
" clip-path="url(#pbff5d1a56f)" style="fill: none; stroke: #a9a9a9; stroke-linecap: square"/>
   </g>
   <g id="line2d_38">
    <path d="M 139.102488 48.609412 
L 139.102488 52.296471 
" clip-path="url(#pbff5d1a56f)" style="fill: none; stroke: #a9a9a9; stroke-linecap: square"/>
   </g>
   <g id="line2d_39">
    <path d="M 207.053761 48.609412 
L 207.053761 52.296471 
" clip-path="url(#pbff5d1a56f)" style="fill: none; stroke: #a9a9a9; stroke-linecap: square"/>
   </g>
   <g id="line2d_40">
    <path d="M 187.073205 68.888235 
L 239.448605 68.888235 
" clip-path="url(#pbff5d1a56f)" style="fill: none; stroke: #a9a9a9; stroke-linecap: square"/>
   </g>
   <g id="line2d_41">
    <path d="M 187.073205 67.044706 
L 187.073205 70.731765 
" clip-path="url(#pbff5d1a56f)" style="fill: none; stroke: #a9a9a9; stroke-linecap: square"/>
   </g>
   <g id="line2d_42">
    <path d="M 239.448605 67.044706 
L 239.448605 70.731765 
" clip-path="url(#pbff5d1a56f)" style="fill: none; stroke: #a9a9a9; stroke-linecap: square"/>
   </g>
   <g id="line2d_43">
    <path d="M 146.684455 87.323529 
L 169.162417 87.323529 
" clip-path="url(#pbff5d1a56f)" style="fill: none; stroke: #a9a9a9; stroke-linecap: square"/>
   </g>
   <g id="line2d_44">
    <path d="M 146.684455 85.48 
L 146.684455 89.167059 
" clip-path="url(#pbff5d1a56f)" style="fill: none; stroke: #a9a9a9; stroke-linecap: square"/>
   </g>
   <g id="line2d_45">
    <path d="M 169.162417 85.48 
L 169.162417 89.167059 
" clip-path="url(#pbff5d1a56f)" style="fill: none; stroke: #a9a9a9; stroke-linecap: square"/>
   </g>
   <g id="line2d_46">
    <path d="M 177.753786 105.758824 
L 226.778845 105.758824 
" clip-path="url(#pbff5d1a56f)" style="fill: none; stroke: #a9a9a9; stroke-linecap: square"/>
   </g>
   <g id="line2d_47">
    <path d="M 177.753786 103.915294 
L 177.753786 107.602353 
" clip-path="url(#pbff5d1a56f)" style="fill: none; stroke: #a9a9a9; stroke-linecap: square"/>
   </g>
   <g id="line2d_48">
    <path d="M 226.778845 103.915294 
L 226.778845 107.602353 
" clip-path="url(#pbff5d1a56f)" style="fill: none; stroke: #a9a9a9; stroke-linecap: square"/>
   </g>
   <g id="line2d_49">
    <path d="M 185.923722 124.194118 
L 249.503786 124.194118 
" clip-path="url(#pbff5d1a56f)" style="fill: none; stroke: #a9a9a9; stroke-linecap: square"/>
   </g>
   <g id="line2d_50">
    <path d="M 185.923722 122.350588 
L 185.923722 126.037647 
" clip-path="url(#pbff5d1a56f)" style="fill: none; stroke: #a9a9a9; stroke-linecap: square"/>
   </g>
   <g id="line2d_51">
    <path d="M 249.503786 122.350588 
L 249.503786 126.037647 
" clip-path="url(#pbff5d1a56f)" style="fill: none; stroke: #a9a9a9; stroke-linecap: square"/>
   </g>
   <g id="line2d_52">
    <path d="M 183.186182 142.629412 
L 236.370679 142.629412 
" clip-path="url(#pbff5d1a56f)" style="fill: none; stroke: #a9a9a9; stroke-linecap: square"/>
   </g>
   <g id="line2d_53">
    <path d="M 183.186182 140.785882 
L 183.186182 144.472941 
" clip-path="url(#pbff5d1a56f)" style="fill: none; stroke: #a9a9a9; stroke-linecap: square"/>
   </g>
   <g id="line2d_54">
    <path d="M 236.370679 140.785882 
L 236.370679 144.472941 
" clip-path="url(#pbff5d1a56f)" style="fill: none; stroke: #a9a9a9; stroke-linecap: square"/>
   </g>
   <g id="line2d_55">
    <path d="M 143.849407 161.064706 
L 171.051157 161.064706 
" clip-path="url(#pbff5d1a56f)" style="fill: none; stroke: #a9a9a9; stroke-linecap: square"/>
   </g>
   <g id="line2d_56">
    <path d="M 143.849407 159.221176 
L 143.849407 162.908235 
" clip-path="url(#pbff5d1a56f)" style="fill: none; stroke: #a9a9a9; stroke-linecap: square"/>
   </g>
   <g id="line2d_57">
    <path d="M 171.051157 159.221176 
L 171.051157 162.908235 
" clip-path="url(#pbff5d1a56f)" style="fill: none; stroke: #a9a9a9; stroke-linecap: square"/>
   </g>
   <g id="line2d_58">
    <path d="M 137.778588 179.5 
L 168.833498 179.5 
" clip-path="url(#pbff5d1a56f)" style="fill: none; stroke: #a9a9a9; stroke-linecap: square"/>
   </g>
   <g id="line2d_59">
    <path d="M 137.778588 177.656471 
L 137.778588 181.343529 
" clip-path="url(#pbff5d1a56f)" style="fill: none; stroke: #a9a9a9; stroke-linecap: square"/>
   </g>
   <g id="line2d_60">
    <path d="M 168.833498 177.656471 
L 168.833498 181.343529 
" clip-path="url(#pbff5d1a56f)" style="fill: none; stroke: #a9a9a9; stroke-linecap: square"/>
   </g>
   <g id="line2d_61">
    <path d="M 128.116898 197.935294 
L 157.40683 197.935294 
" clip-path="url(#pbff5d1a56f)" style="fill: none; stroke: #a9a9a9; stroke-linecap: square"/>
   </g>
   <g id="line2d_62">
    <path d="M 128.116898 196.091765 
L 128.116898 199.778824 
" clip-path="url(#pbff5d1a56f)" style="fill: none; stroke: #a9a9a9; stroke-linecap: square"/>
   </g>
   <g id="line2d_63">
    <path d="M 157.40683 196.091765 
L 157.40683 199.778824 
" clip-path="url(#pbff5d1a56f)" style="fill: none; stroke: #a9a9a9; stroke-linecap: square"/>
   </g>
   <g id="line2d_64">
    <path d="M 150.947465 216.370588 
L 180.922117 216.370588 
" clip-path="url(#pbff5d1a56f)" style="fill: none; stroke: #a9a9a9; stroke-linecap: square"/>
   </g>
   <g id="line2d_65">
    <path d="M 150.947465 214.527059 
L 150.947465 218.214118 
" clip-path="url(#pbff5d1a56f)" style="fill: none; stroke: #a9a9a9; stroke-linecap: square"/>
   </g>
   <g id="line2d_66">
    <path d="M 180.922117 214.527059 
L 180.922117 218.214118 
" clip-path="url(#pbff5d1a56f)" style="fill: none; stroke: #a9a9a9; stroke-linecap: square"/>
   </g>
   <g id="line2d_67">
    <path d="M 139.752105 234.805882 
L 179.493786 234.805882 
" clip-path="url(#pbff5d1a56f)" style="fill: none; stroke: #a9a9a9; stroke-linecap: square"/>
   </g>
   <g id="line2d_68">
    <path d="M 139.752105 232.962353 
L 139.752105 236.649412 
" clip-path="url(#pbff5d1a56f)" style="fill: none; stroke: #a9a9a9; stroke-linecap: square"/>
   </g>
   <g id="line2d_69">
    <path d="M 179.493786 232.962353 
L 179.493786 236.649412 
" clip-path="url(#pbff5d1a56f)" style="fill: none; stroke: #a9a9a9; stroke-linecap: square"/>
   </g>
   <g id="line2d_70">
    <path d="M 168.804992 253.241176 
L 198.884524 253.241176 
" clip-path="url(#pbff5d1a56f)" style="fill: none; stroke: #a9a9a9; stroke-linecap: square"/>
   </g>
   <g id="line2d_71">
    <path d="M 168.804992 251.397647 
L 168.804992 255.084706 
" clip-path="url(#pbff5d1a56f)" style="fill: none; stroke: #a9a9a9; stroke-linecap: square"/>
   </g>
   <g id="line2d_72">
    <path d="M 198.884524 251.397647 
L 198.884524 255.084706 
" clip-path="url(#pbff5d1a56f)" style="fill: none; stroke: #a9a9a9; stroke-linecap: square"/>
   </g>
   <g id="line2d_73">
    <path d="M 162.910544 271.676471 
L 186.343132 271.676471 
" clip-path="url(#pbff5d1a56f)" style="fill: none; stroke: #a9a9a9; stroke-linecap: square"/>
   </g>
   <g id="line2d_74">
    <path d="M 162.910544 269.832941 
L 162.910544 273.52 
" clip-path="url(#pbff5d1a56f)" style="fill: none; stroke: #a9a9a9; stroke-linecap: square"/>
   </g>
   <g id="line2d_75">
    <path d="M 186.343132 269.832941 
L 186.343132 273.52 
" clip-path="url(#pbff5d1a56f)" style="fill: none; stroke: #a9a9a9; stroke-linecap: square"/>
   </g>
   <g id="line2d_76">
    <path d="M 136.425861 290.111765 
L 163.853834 290.111765 
" clip-path="url(#pbff5d1a56f)" style="fill: none; stroke: #a9a9a9; stroke-linecap: square"/>
   </g>
   <g id="line2d_77">
    <path d="M 136.425861 288.268235 
L 136.425861 291.955294 
" clip-path="url(#pbff5d1a56f)" style="fill: none; stroke: #a9a9a9; stroke-linecap: square"/>
   </g>
   <g id="line2d_78">
    <path d="M 163.853834 288.268235 
L 163.853834 291.955294 
" clip-path="url(#pbff5d1a56f)" style="fill: none; stroke: #a9a9a9; stroke-linecap: square"/>
   </g>
   <g id="line2d_79">
    <path d="M 163.678892 308.547059 
L 186.65051 308.547059 
" clip-path="url(#pbff5d1a56f)" style="fill: none; stroke: #a9a9a9; stroke-linecap: square"/>
   </g>
   <g id="line2d_80">
    <path d="M 163.678892 306.703529 
L 163.678892 310.390588 
" clip-path="url(#pbff5d1a56f)" style="fill: none; stroke: #a9a9a9; stroke-linecap: square"/>
   </g>
   <g id="line2d_81">
    <path d="M 186.65051 306.703529 
L 186.65051 310.390588 
" clip-path="url(#pbff5d1a56f)" style="fill: none; stroke: #a9a9a9; stroke-linecap: square"/>
   </g>
   <g id="line2d_82">
    <path d="M 113.930053 326.982353 
L 175.718375 326.982353 
" clip-path="url(#pbff5d1a56f)" style="fill: none; stroke: #a9a9a9; stroke-linecap: square"/>
   </g>
   <g id="line2d_83">
    <path d="M 113.930053 325.138824 
L 113.930053 328.825882 
" clip-path="url(#pbff5d1a56f)" style="fill: none; stroke: #a9a9a9; stroke-linecap: square"/>
   </g>
   <g id="line2d_84">
    <path d="M 175.718375 325.138824 
L 175.718375 328.825882 
" clip-path="url(#pbff5d1a56f)" style="fill: none; stroke: #a9a9a9; stroke-linecap: square"/>
   </g>
   <g id="line2d_85">
    <path d="M 47.989286 336.2 
L 47.989286 22.8 
" clip-path="url(#pbff5d1a56f)" style="fill: none; stroke: #ffffff; stroke-width: 4; stroke-linecap: square"/>
   </g>
   <g id="legend_1">
    <g id="patch_20">
     <path d="M 324.7575 57.75625 
L 386.675 57.75625 
Q 389.075 57.75625 389.075 55.35625 
L 389.075 25.2 
Q 389.075 22.8 386.675 22.8 
L 324.7575 22.8 
Q 322.3575 22.8 322.3575 25.2 
L 322.3575 55.35625 
Q 322.3575 57.75625 324.7575 57.75625 
z
" style="fill: #ffffff; opacity: 0.8; stroke: #cccccc; stroke-linejoin: miter"/>
    </g>
    <g id="text_28">
     <!-- Feature Group -->
     <g transform="translate(327.1575 33.67875)scale(0.08 -0.08)">
      <defs>
       <path id="DejaVuSans-46" d="M 628 4666 
L 3309 4666 
L 3309 4134 
L 1259 4134 
L 1259 2759 
L 3109 2759 
L 3109 2228 
L 1259 2228 
L 1259 0 
L 628 0 
L 628 4666 
z
" transform="scale(0.015625)"/>
       <path id="DejaVuSans-47" d="M 3809 666 
L 3809 1919 
L 2778 1919 
L 2778 2438 
L 4434 2438 
L 4434 434 
Q 4069 175 3628 42 
Q 3188 -91 2688 -91 
Q 1594 -91 976 548 
Q 359 1188 359 2328 
Q 359 3472 976 4111 
Q 1594 4750 2688 4750 
Q 3144 4750 3555 4637 
Q 3966 4525 4313 4306 
L 4313 3634 
Q 3963 3931 3569 4081 
Q 3175 4231 2741 4231 
Q 1884 4231 1454 3753 
Q 1025 3275 1025 2328 
Q 1025 1384 1454 906 
Q 1884 428 2741 428 
Q 3075 428 3337 486 
Q 3600 544 3809 666 
z
" transform="scale(0.015625)"/>
      </defs>
      <use xlink:href="#DejaVuSans-46"/>
      <use xlink:href="#DejaVuSans-65" x="52.019531"/>
      <use xlink:href="#DejaVuSans-61" x="113.542969"/>
      <use xlink:href="#DejaVuSans-74" x="174.822266"/>
      <use xlink:href="#DejaVuSans-75" x="214.03125"/>
      <use xlink:href="#DejaVuSans-72" x="277.410156"/>
      <use xlink:href="#DejaVuSans-65" x="316.273438"/>
      <use xlink:href="#DejaVuSans-20" x="377.796875"/>
      <use xlink:href="#DejaVuSans-47" x="409.583984"/>
      <use xlink:href="#DejaVuSans-72" x="487.074219"/>
      <use xlink:href="#DejaVuSans-6f" x="525.9375"/>
      <use xlink:href="#DejaVuSans-75" x="587.119141"/>
      <use xlink:href="#DejaVuSans-70" x="650.498047"/>
     </g>
    </g>
    <g id="patch_21">
     <path d="M 328.430313 50.460625 
L 352.430313 50.460625 
L 352.430313 42.060625 
L 328.430313 42.060625 
z
" style="fill: #4eb1bc"/>
    </g>
    <g id="text_29">
     <!-- gsv -->
     <g transform="translate(362.030313 50.460625)scale(0.12 -0.12)">
      <use xlink:href="#DejaVuSans-67"/>
      <use xlink:href="#DejaVuSans-73" x="63.476562"/>
      <use xlink:href="#DejaVuSans-76" x="115.576172"/>
     </g>
    </g>
   </g>
  </g>
 </g>
 <defs>
  <clipPath id="pbff5d1a56f">
   <rect x="97.425" y="22.8" width="173.025" height="313.4"/>
  </clipPath>
 </defs>
</svg>
